<?xml version="1.0" encoding="UTF-8"?>
<svg version="1.1" xmlns="http://www.w3.org/2000/svg" width="500" height="500">
<path d="M0 0 C0.81307114 -0.00426498 1.62614227 -0.00852997 2.46385193 -0.01292419 C3.35223251 -0.01247101 4.2406131 -0.01201782 5.15591431 -0.0115509 C6.09441727 -0.01490952 7.03292023 -0.01826813 7.99986267 -0.02172852 C11.10869666 -0.03124336 14.21747681 -0.03318192 17.32632446 -0.03425598 C19.48482282 -0.03746826 21.64332095 -0.04083231 23.80181885 -0.04434204 C28.32952377 -0.05033469 32.8572096 -0.05218181 37.38491821 -0.05158997 C43.18782194 -0.05148835 48.99060329 -0.06513929 54.79347801 -0.08236217 C59.25271162 -0.09347868 63.71191561 -0.09550928 68.17116165 -0.09498024 C70.31058804 -0.09616093 72.45001518 -0.10058769 74.58942795 -0.10831261 C77.58172941 -0.11810504 80.57376485 -0.11523729 83.56607056 -0.10920715 C84.89256874 -0.11763641 84.89256874 -0.11763641 86.24586487 -0.12623596 C90.57211225 -0.10407136 94.10255557 -0.00910359 97.99038696 2.13371277 C100.05910369 5.05276091 100.33783503 7.86805499 100.61538696 11.38371277 C100.7275354 12.72175964 100.7275354 12.72175964 100.84194946 14.08683777 C100.89093384 14.76230652 100.93991821 15.43777527 100.99038696 16.13371277 C102.22788696 16.12585754 102.22788696 16.12585754 103.49038696 16.11784363 C151.18517125 15.85501662 151.18517125 15.85501662 158.67007446 22.66105652 C160.41251304 24.67421295 161.79993705 26.75281294 162.99038696 29.13371277 C165.70099704 29.75194661 165.70099704 29.75194661 168.86538696 30.13371277 C172.74136814 30.65673673 174.69438143 30.93637575 177.99038696 33.13371277 C178.28335571 36.39152527 178.28335571 36.39152527 178.17788696 40.25871277 C178.15081665 41.54004089 178.12374634 42.82136902 178.09585571 44.14152527 C178.04364868 45.62265808 178.04364868 45.62265808 177.99038696 47.13371277 C179.62040649 47.0931073 179.62040649 47.0931073 181.28335571 47.05168152 C185.40457498 47.14287815 187.52659392 47.95877295 190.99038696 50.13371277 C192.99038696 53.13371277 192.99038696 53.13371277 193.42788696 56.63371277 C194.57341191 60.30759509 194.57341191 60.30759509 197.45913696 61.07902527 C199.41341595 61.5264523 201.38257885 61.91380253 203.36148071 62.23527527 C205.99038696 63.13371277 205.99038696 63.13371277 207.63638306 65.30387878 C209.20106671 68.57402812 209.33669632 70.7001126 209.28335571 74.30949402 C209.27368774 75.46642761 209.26401978 76.62336121 209.25405884 77.81535339 C209.22892212 79.01353699 209.2037854 80.21172058 209.17788696 81.44621277 C209.16435181 82.6637323 209.15081665 83.88125183 209.13687134 85.13566589 C209.10158265 88.1352047 209.0477777 91.13451543 208.99038696 94.13371277 C213.94038696 94.13371277 218.89038696 94.13371277 223.99038696 94.13371277 C225.43246638 97.0178716 225.08433583 99.55092805 225.05288696 102.75871277 C225.04386353 103.94722839 225.03484009 105.13574402 225.02554321 106.36027527 C225.00814087 107.73312683 225.00814087 107.73312683 224.99038696 109.13371277 C225.90562134 109.11050964 226.82085571 109.08730652 227.76382446 109.06340027 C228.95234009 109.04535339 230.14085571 109.02730652 231.36538696 109.00871277 C233.14042603 108.97390808 233.14042603 108.97390808 234.95132446 108.93840027 C237.99038696 109.13371277 237.99038696 109.13371277 239.99038696 111.13371277 C240.18569946 114.39152527 240.18569946 114.39152527 240.11538696 118.25871277 C240.09734009 119.54004089 240.07929321 120.82136902 240.06069946 122.14152527 C240.03749634 123.12894714 240.01429321 124.11636902 239.99038696 125.13371277 C241.23755493 125.09890808 241.23755493 125.09890808 242.50991821 125.06340027 C243.5965979 125.04535339 244.68327759 125.02730652 245.80288696 125.00871277 C246.88183228 124.98550964 247.96077759 124.96230652 249.07241821 124.93840027 C251.99038696 125.13371277 251.99038696 125.13371277 254.99038696 127.13371277 C256.4277109 131.12639763 256.13408795 135.32084877 256.12319946 139.51261902 C256.12463455 140.7253373 256.12463455 140.7253373 256.12609863 141.96255493 C256.12677786 143.66796446 256.12494152 145.3733766 256.12075806 147.07878113 C256.1153992 149.69024954 256.12071531 152.30154652 256.12710571 154.91300964 C256.12644502 156.57121315 256.12516405 158.22941655 256.12319946 159.88761902 C256.12522369 160.66891678 256.12724792 161.45021454 256.1293335 162.25518799 C256.11537696 165.47685072 256.01655693 168.05520285 254.99038696 171.13371277 C250.39821932 173.94826713 245.18051238 173.31511521 239.99038696 173.13371277 C240.03679321 173.88136902 240.08319946 174.62902527 240.13101196 175.39933777 C240.41895839 183.25616175 240.41895839 183.25616175 238.67788696 186.82121277 C234.29579871 188.96130238 229.77663252 188.43079008 224.99038696 188.13371277 C225.02519165 188.88136902 225.05999634 189.62902527 225.09585571 190.39933777 C225.12292603 191.38418152 225.14999634 192.36902527 225.17788696 193.38371277 C225.23009399 194.84550964 225.23009399 194.84550964 225.28335571 196.33683777 C224.94084208 199.60670128 224.37098287 200.88221642 221.99038696 203.13371277 C218.63119738 204.00583405 215.46473518 204.26335229 212.00405884 204.27897644 C211.03955811 204.28535629 210.07505737 204.29173615 209.08132935 204.29830933 C208.05100586 204.29942215 207.02068237 204.30053497 205.95913696 204.30168152 C204.35612732 204.30667412 204.35612732 204.30667412 202.72073364 204.31176758 C200.46475657 204.31682254 198.20877204 204.31917635 195.95278931 204.3190155 C192.50295733 204.32120479 189.05344378 204.33938355 185.60366821 204.35832214 C183.40965889 204.36125579 181.21564805 204.36324078 179.02163696 204.36418152 C177.99131348 204.37136703 176.96098999 204.37855255 175.89944458 204.38595581 C174.45269348 204.38134087 174.45269348 204.38134087 172.97671509 204.37663269 C172.13241943 204.37805771 171.28812378 204.37948273 170.41824341 204.38095093 C166.50441082 203.98238998 163.77455341 202.91787922 160.99038696 200.13371277 C160.99038696 196.17371277 160.99038696 192.21371277 160.99038696 188.13371277 C151.09038696 188.13371277 141.19038696 188.13371277 130.99038696 188.13371277 C130.99038696 192.75371277 130.99038696 197.37371277 130.99038696 202.13371277 C133.43179321 202.23136902 135.87319946 202.32902527 138.31460571 202.42668152 C142.17024957 203.44547209 143.54787768 204.98469254 145.99038696 208.13371277 C146.66857087 211.29674543 146.57414364 214.36825739 146.47866821 217.59074402 C146.47159348 218.49370712 146.46451874 219.39667023 146.45722961 220.32699585 C146.42932016 223.20092364 146.36658928 226.07287749 146.30288696 228.94621277 C146.27779958 230.89865852 146.25498718 232.85113492 146.23452759 234.80363464 C146.17950485 239.58108379 146.09325694 244.35706403 145.99038696 249.13371277 C147.11187134 249.18978699 147.11187134 249.18978699 148.25601196 249.24699402 C149.24085571 249.31273621 150.22569946 249.37847839 151.24038696 249.44621277 C152.70218384 249.53322449 152.70218384 249.53322449 154.19351196 249.62199402 C157.29775859 250.18994976 158.73474117 250.95566947 160.99038696 253.13371277 C162.36603079 257.26064424 162.17462505 261.1241762 162.17788696 265.44621277 C162.19013306 266.28861511 162.20237915 267.13101746 162.21499634 267.99894714 C162.22607467 272.72200971 162.07477521 276.78898142 159.99038696 281.13371277 C156.70236726 282.86739589 153.50500647 283.96217293 149.99038696 285.13371277 C148.76518432 288.14218695 148.76518432 288.14218695 147.99038696 291.13371277 C147.33038696 291.13371277 146.67038696 291.13371277 145.99038696 291.13371277 C145.89757446 292.06183777 145.89757446 292.06183777 145.80288696 293.00871277 C144.99038696 295.13371277 144.99038696 295.13371277 142.73425674 296.22809219 C132.96389522 299.45282264 121.61846954 298.28851793 111.42105103 298.29484558 C109.66726072 298.29948263 107.9134714 298.30450846 106.15968323 298.30989075 C101.42654484 298.32292109 96.69342056 298.32943984 91.96026707 298.33390141 C88.99975206 298.33684399 86.03924082 298.3409507 83.07872772 298.34540558 C73.80481716 298.35904837 64.53091533 298.36873386 55.25699544 298.37260747 C44.56960445 298.3770972 33.88234077 298.3947009 23.19498849 298.42360806 C14.91616691 298.44522118 6.6373812 298.45531136 -1.64146829 298.45664859 C-6.57957898 298.45769577 -11.51756945 298.46358664 -16.45565033 298.4814682 C-21.09490688 298.49794511 -25.73395268 298.50010626 -30.37322807 298.49132919 C-32.07316337 298.49055894 -33.77311002 298.49489999 -35.47301674 298.50478745 C-37.79770125 298.51751454 -40.12163977 298.51162681 -42.44631958 298.50120544 C-44.39522158 298.50340528 -44.39522158 298.50340528 -46.38349533 298.50564957 C-50.60855084 298.07227874 -53.25478747 297.08055754 -57.00961304 295.13371277 C-58.33190493 292.48912898 -58.10638498 290.45609976 -58.07211304 287.50871277 C-58.0630896 286.50582214 -58.05406616 285.50293152 -58.04476929 284.46965027 C-58.02736694 283.31336121 -58.02736694 283.31336121 -58.00961304 282.13371277 C-58.61289429 282.14531433 -59.21617554 282.15691589 -59.83773804 282.16886902 C-61.03656616 282.18240417 -61.03656616 282.18240417 -62.25961304 282.19621277 C-63.44297241 282.21361511 -63.44297241 282.21361511 -64.65023804 282.23136902 C-68.92829156 282.05429727 -68.92829156 282.05429727 -71.00961304 281.13371277 C-73.69652539 275.70779058 -73.34045028 270.43530981 -73.32211304 264.50871277 C-73.33822632 263.45941589 -73.3543396 262.41011902 -73.37094116 261.32902527 C-73.37158569 260.32355652 -73.37223022 259.31808777 -73.37289429 258.28215027 C-73.37587524 257.36611023 -73.3788562 256.45007019 -73.38192749 255.50627136 C-72.94013511 252.69096752 -72.25671872 251.82980793 -70.00961304 250.13371277 C-66.03023644 248.91779214 -62.14112536 249.1094668 -58.00961304 249.13371277 C-58.01484985 248.56676697 -58.02008667 247.99982117 -58.02548218 247.41569519 C-58.10720489 237.13414985 -58.12514059 226.8477296 -57.75961304 216.57121277 C-57.74551392 215.79350525 -57.73141479 215.01579773 -57.71688843 214.21452332 C-57.4977421 209.26815581 -56.57197799 206.59244529 -53.00961304 203.13371277 C-47.83719924 200.13371277 -47.83719924 200.13371277 -45.00961304 200.13371277 C-44.01961304 196.17371277 -43.02961304 192.21371277 -42.00961304 188.13371277 C-43.82848022 188.18011902 -45.64734741 188.22652527 -47.52133179 188.27433777 C-49.91324245 188.31185794 -52.30517087 188.34825783 -54.69711304 188.38371277 C-55.89529663 188.41722839 -57.09348022 188.45074402 -58.32797241 188.48527527 C-59.48490601 188.49816589 -60.6418396 188.51105652 -61.83383179 188.52433777 C-62.89690552 188.54528503 -63.95997925 188.5662323 -65.05526733 188.58781433 C-68.74700434 188.02037108 -70.38737958 186.74645397 -73.00961304 184.13371277 C-73.94843273 180.41992879 -73.87173208 176.99437943 -74.00961304 173.13371277 C-78.29961304 173.13371277 -82.58961304 173.13371277 -87.00961304 173.13371277 C-87.11273804 174.88683777 -87.21586304 176.63996277 -87.32211304 178.44621277 C-87.62534737 183.60119646 -87.62534737 183.60119646 -89.27523804 185.88761902 C-91.28493501 187.33152292 -93.08315271 188.03318026 -95.44711304 188.75871277 C-96.20894897 188.99847839 -96.97078491 189.23824402 -97.75570679 189.48527527 C-100.00961304 190.13371277 -100.00961304 190.13371277 -102.16976929 190.46965027 C-104.19347579 190.9695511 -104.19347579 190.9695511 -105.04086304 193.03605652 C-105.52039429 194.07439636 -105.52039429 194.07439636 -106.00961304 195.13371277 C-117.38626712 205.37850585 -139.18488 203.64133782 -153.37387085 203.57975769 C-156.43018591 203.57108343 -159.48472367 203.60041089 -162.54086304 203.63175964 C-164.49659165 203.63336815 -166.45232355 203.63280086 -168.40805054 203.62980652 C-169.31525848 203.6410405 -170.22246643 203.65227448 -171.15716553 203.66384888 C-177.39628782 203.59438112 -177.39628782 203.59438112 -180.56283569 201.21598816 C-183.47991418 197.01758074 -183.10633731 193.16337501 -183.00961304 188.13371277 C-183.60129272 188.18011902 -184.19297241 188.22652527 -184.80258179 188.27433777 C-188.9885045 188.46553815 -191.34203484 188.53704126 -195.00961304 186.32121277 C-198.7326566 182.24913387 -198.09496608 178.34024862 -198.00961304 173.13371277 C-199.58742554 172.94808777 -199.58742554 172.94808777 -201.19711304 172.75871277 C-208.69294711 171.52988751 -208.69294711 171.52988751 -211.62680054 168.41886902 C-214.53123538 163.61916738 -213.6208339 157.15416253 -212.54086304 151.81730652 C-210.6576507 146.08920231 -206.90947028 141.75845535 -202.48617554 137.75480652 C-200.60529619 135.68981993 -199.58155606 133.52743337 -198.38461304 131.00871277 C-196.09294637 126.2170461 -196.09294637 126.2170461 -195.00961304 125.13371277 C-192.99366722 124.89943499 -190.97113904 124.72035153 -188.94711304 124.57121277 C-187.84238647 124.48742371 -186.73765991 124.40363464 -185.59945679 124.31730652 C-184.74480835 124.25672058 -183.89015991 124.19613464 -183.00961304 124.13371277 C-183.03281616 123.30226746 -183.05601929 122.47082214 -183.07992554 121.61418152 C-183.09797241 120.52750183 -183.11601929 119.44082214 -183.13461304 118.32121277 C-183.15781616 117.24226746 -183.18101929 116.16332214 -183.20492554 115.05168152 C-183.00961304 112.13371277 -183.00961304 112.13371277 -181.00961304 109.13371277 C-179.06072998 108.77294922 -179.06072998 108.77294922 -176.65170288 108.7931366 C-175.7509201 108.79336319 -174.85013733 108.79358978 -173.92205811 108.79382324 C-172.94806061 108.8093071 -171.97406311 108.82479095 -170.97055054 108.84074402 C-169.47656235 108.84711128 -169.47656235 108.84711128 -167.95239258 108.85360718 C-164.76286079 108.87043597 -161.57395471 108.90809601 -158.38461304 108.94621277 C-156.22576798 108.96125417 -154.06691304 108.97494352 -151.90805054 108.98722839 C-146.60835691 109.0203531 -141.30902967 109.07059381 -136.00961304 109.13371277 C-136.03281616 108.21847839 -136.05601929 107.30324402 -136.07992554 106.36027527 C-136.09797241 105.17175964 -136.11601929 103.98324402 -136.13461304 102.75871277 C-136.15781616 101.57535339 -136.18101929 100.39199402 -136.20492554 99.17277527 C-136.00961304 96.13371277 -136.00961304 96.13371277 -134.00961304 94.13371277 C-130.75180054 93.93840027 -130.75180054 93.93840027 -126.88461304 94.00871277 C-124.96262085 94.03578308 -124.96262085 94.03578308 -123.00180054 94.06340027 C-121.52066772 94.09820496 -121.52066772 94.09820496 -120.00961304 94.13371277 C-120.0212146 93.32031433 -120.03281616 92.50691589 -120.04476929 91.66886902 C-120.09964499 84.69965418 -119.96189236 77.77881062 -119.57211304 70.82121277 C-119.5328772 70.07428162 -119.49364136 69.32735046 -119.45321655 68.55778503 C-119.13207494 63.25617467 -119.13207494 63.25617467 -118.00961304 62.13371277 C-115.23295467 61.88951154 -112.45744305 61.7498309 -109.67367554 61.61027527 C-106.66353418 61.07180423 -105.81993463 60.5381337 -104.00961304 58.13371277 C-103.41148804 56.99933777 -102.81336304 55.86496277 -102.19711304 54.69621277 C-100.14788231 50.99032425 -97.80384837 49.109877 -94.00961304 47.13371277 C-92.68961304 47.13371277 -91.36961304 47.13371277 -90.00961304 47.13371277 C-89.96062866 46.31386902 -89.91164429 45.49402527 -89.86117554 44.64933777 C-89.78640991 43.57168152 -89.71164429 42.49402527 -89.63461304 41.38371277 C-89.56500366 40.31636902 -89.49539429 39.24902527 -89.42367554 38.14933777 C-88.75440839 33.27505252 -88.75440839 33.27505252 -87.00961304 31.13371277 C-83.97055054 30.30558777 -83.97055054 30.30558777 -80.38461304 29.88371277 C-79.19609741 29.73418152 -78.00758179 29.58465027 -76.78305054 29.43058777 C-75.86781616 29.33261902 -74.95258179 29.23465027 -74.00961304 29.13371277 C-73.45273804 27.27746277 -73.45273804 27.27746277 -72.88461304 25.38371277 C-71.24563757 21.01568853 -69.24270217 19.25025733 -65.00961304 17.13371277 C-61.75953976 16.34193148 -58.69782403 15.99794123 -55.35873413 15.94425964 C-54.46786102 15.92754211 -53.57698792 15.91082458 -52.65911865 15.89360046 C-51.71001617 15.88002502 -50.7609137 15.86644958 -49.78305054 15.85246277 C-48.79841827 15.83405334 -47.81378601 15.81564392 -46.79931641 15.79667664 C-42.59543464 15.71817028 -38.39139915 15.65016453 -34.18734741 15.58146667 C-31.11500106 15.52975485 -28.04279212 15.47251555 -24.97055054 15.41496277 C-24.0173996 15.40138733 -23.06424866 15.38781189 -22.08221436 15.37382507 C-20.75536118 15.34874878 -20.75536118 15.34874878 -19.40170288 15.32316589 C-18.62402557 15.31063782 -17.84634827 15.29810974 -17.04510498 15.28520203 C-14.80674998 15.20217265 -14.80674998 15.20217265 -12.00961304 14.13371277 C-11.31268897 12.15828477 -11.31268897 12.15828477 -11.00961304 9.82121277 C-10.31924635 6.23244709 -9.72939247 3.74470103 -7.00961304 1.13371277 C-4.31232936 0.23461821 -2.76610906 0.00656548 0 0 Z " fill="#F95E7C" transform="translate(229.00961303710938,108.86628723144531)"/>
<path d="M0 0 C35.97 0 71.94 0 109 0 C109 5.28 109 10.56 109 16 C129.46 16 149.92 16 171 16 C171 20.95 171 25.9 171 31 C176.28 31 181.56 31 187 31 C187 36.28 187 41.56 187 47 C192.28 47 197.56 47 203 47 C203 57.23 203 67.46 203 78 C207.95 78 212.9 78 218 78 C218 83.28 218 88.56 218 94 C223.28 94 228.56 94 234 94 C234 99.28 234 104.56 234 110 C238.95 110 243.9 110 249 110 C249 125.18 249 140.36 249 156 C244.05 156 239.1 156 234 156 C234 160.95 234 165.9 234 171 C213.54 171 193.08 171 172 171 C172 161.1 172 151.2 172 141 C176.95 141 181.9 141 187 141 C187 135.72 187 130.44 187 125 C192.28 125 197.56 125 203 125 C203 119.72 203 114.44 203 109 C197.72 109 192.44 109 187 109 C187 98.77 187 88.54 187 78 C182.05 78 177.1 78 172 78 C172 72.72 172 67.44 172 62 C166.72 62 161.44 62 156 62 C156 67.28 156 72.56 156 78 C160.95 78 165.9 78 171 78 C171 98.46 171 118.92 171 140 C166.05 140 161.1 140 156 140 C156 145.28 156 150.56 156 156 C150.72 156 145.44 156 140 156 C140 161.28 140 166.56 140 172 C129.77 172 119.54 172 109 172 C109 166.72 109 161.44 109 156 C98.77 156 88.54 156 78 156 C78 161.28 78 166.56 78 172 C62.49 172 46.98 172 31 172 C31 166.72 31 161.44 31 156 C15.49 156 -0.02 156 -16 156 C-16 161.28 -16 166.56 -16 172 C-20.95 172 -25.9 172 -31 172 C-31 176.95 -31 181.9 -31 187 C-26.05 187 -21.1 187 -16 187 C-16 197.56 -16 208.12 -16 219 C-21.28 219 -26.56 219 -32 219 C-32 208.77 -32 198.54 -32 188 C-35.63 188 -39.26 188 -43 188 C-40 186 -40 186 -37.4375 185.375 C-34.59892333 184.13902889 -34.59892333 184.13902889 -33.87353516 180.44140625 C-32.91383677 176.13664865 -32.65608527 171.96095492 -32.5859375 167.5625 C-32.56657135 166.79695801 -32.5472052 166.03141602 -32.5272522 165.24267578 C-32.46809054 162.82855925 -32.42132856 160.41439335 -32.375 158 C-32.33676163 156.35024111 -32.29770661 154.70050093 -32.2578125 153.05078125 C-32.16092432 149.03395876 -32.08085676 145.01730417 -32 141 C-26.72 141 -21.44 141 -16 141 C-16 135.72 -16 130.44 -16 125 C-10.72 125 -5.44 125 0 125 C0 109.49 0 93.98 0 78 C-10.56 78 -21.12 78 -32 78 C-32 93.51 -32 109.02 -32 125 C-36.95 125 -41.9 125 -47 125 C-47 99.26 -47 73.52 -47 47 C-42.05 47 -37.1 47 -32 47 C-32 41.72 -32 36.44 -32 31 C-21.44 31 -10.88 31 0 31 C0 20.77 0 10.54 0 0 Z " fill="#FEFEFE" transform="translate(219,125)"/>
<path d="M0 0 C20.79 0 41.58 0 63 0 C63 4.95 63 9.9 63 15 C52.44 15 41.88 15 31 15 C31 20.28 31 25.56 31 31 C26.05 31 21.1 31 16 31 C16 56.74 16 82.48 16 109 C20.95 109 25.9 109 31 109 C31 93.49 31 77.98 31 62 C41.56 62 52.12 62 63 62 C63 77.51 63 93.02 63 109 C57.72 109 52.44 109 47 109 C47 114.28 47 119.56 47 125 C41.72 125 36.44 125 31 125 C31 135.23 31 145.46 31 156 C26.813125 156.0825 22.62625 156.165 18.3125 156.25 C17.00063721 156.28641602 15.68877441 156.32283203 14.3371582 156.36035156 C13.29390381 156.3703418 12.25064941 156.38033203 11.17578125 156.390625 C10.11270752 156.41157227 9.04963379 156.43251953 7.9543457 156.45410156 C4.2626087 155.88665831 2.62223345 154.6127412 0 152 C-0.93881969 148.28621602 -0.86211905 144.86066666 -1 141 C-5.29 141 -9.58 141 -14 141 C-14.103125 142.753125 -14.20625 144.50625 -14.3125 146.3125 C-14.61573433 151.46748369 -14.61573433 151.46748369 -16.265625 153.75390625 C-18.27532197 155.19781015 -20.07353967 155.89946749 -22.4375 156.625 C-23.19933594 156.86476563 -23.96117187 157.10453125 -24.74609375 157.3515625 C-27 158 -27 158 -29.16015625 158.3359375 C-31.18386275 158.83583833 -31.18386275 158.83583833 -32.03125 160.90234375 C-32.51078125 161.94068359 -32.51078125 161.94068359 -33 163 C-44.37665408 173.24479309 -66.17526696 171.50762505 -80.36425781 171.44604492 C-83.42057287 171.43737066 -86.47511063 171.46669812 -89.53125 171.49804688 C-91.48697861 171.49965539 -93.44271052 171.49908809 -95.3984375 171.49609375 C-96.30564545 171.50732773 -97.21285339 171.51856171 -98.14755249 171.53013611 C-104.38667478 171.46066835 -104.38667478 171.46066835 -107.55322266 169.08227539 C-110.47030114 164.88386797 -110.09672427 161.02966224 -110 156 C-110.59167969 156.04640625 -111.18335937 156.0928125 -111.79296875 156.140625 C-115.97889146 156.33182539 -118.3324218 156.40332849 -122 154.1875 C-125.72304356 150.1154211 -125.08535305 146.20653585 -125 141 C-126.5778125 140.814375 -126.5778125 140.814375 -128.1875 140.625 C-135.68333407 139.39617474 -135.68333407 139.39617474 -138.6171875 136.28515625 C-141.52162234 131.48545461 -140.61122086 125.02044976 -139.53125 119.68359375 C-137.64803766 113.95548955 -133.89985725 109.62474259 -129.4765625 105.62109375 C-127.59568315 103.55610716 -126.57194303 101.3937206 -125.375 98.875 C-123.08333333 94.08333333 -123.08333333 94.08333333 -122 93 C-119.98405418 92.76572222 -117.961526 92.58663876 -115.9375 92.4375 C-114.83277344 92.35371094 -113.72804688 92.26992187 -112.58984375 92.18359375 C-111.73519531 92.12300781 -110.88054687 92.06242187 -110 92 C-110.02320312 91.16855469 -110.04640625 90.33710938 -110.0703125 89.48046875 C-110.08835937 88.39378906 -110.10640625 87.30710937 -110.125 86.1875 C-110.14820312 85.10855469 -110.17140625 84.02960938 -110.1953125 82.91796875 C-110 80 -110 80 -108 77 C-106.05111694 76.63923645 -106.05111694 76.63923645 -103.64208984 76.65942383 C-102.74130707 76.65965042 -101.84052429 76.65987701 -100.91244507 76.66011047 C-99.93844757 76.67559433 -98.96445007 76.69107819 -97.9609375 76.70703125 C-96.46694931 76.71339851 -96.46694931 76.71339851 -94.94277954 76.71989441 C-91.75324775 76.7367232 -88.56434167 76.77438324 -85.375 76.8125 C-83.21615494 76.8275414 -81.0573 76.84123075 -78.8984375 76.85351562 C-73.59874388 76.88664033 -68.29941663 76.93688104 -63 77 C-63.02320312 76.08476562 -63.04640625 75.16953125 -63.0703125 74.2265625 C-63.08835937 73.03804688 -63.10640625 71.84953125 -63.125 70.625 C-63.14820312 69.44164062 -63.17140625 68.25828125 -63.1953125 67.0390625 C-63 64 -63 64 -61 62 C-57.7421875 61.8046875 -57.7421875 61.8046875 -53.875 61.875 C-51.95300781 61.90207031 -51.95300781 61.90207031 -49.9921875 61.9296875 C-49.00476563 61.95289063 -48.01734375 61.97609375 -47 62 C-47.01160156 61.18660156 -47.02320312 60.37320313 -47.03515625 59.53515625 C-47.09003196 52.56594141 -46.95227932 45.64509785 -46.5625 38.6875 C-46.52326416 37.94056885 -46.48402832 37.1936377 -46.44360352 36.42407227 C-46.1224619 31.1224619 -46.1224619 31.1224619 -45 30 C-42.22334163 29.75579878 -39.44783001 29.61611813 -36.6640625 29.4765625 C-33.65392114 28.93809147 -32.81032159 28.40442094 -31 26 C-30.401875 24.865625 -29.80375 23.73125 -29.1875 22.5625 C-27.13826927 18.85661148 -24.79423533 16.97616424 -21 15 C-19.68 15 -18.36 15 -17 15 C-16.67 11.04 -16.34 7.08 -16 3 C-15.67 3 -15.34 3 -15 3 C-15 6.96 -15 10.92 -15 15 C-10.05 15 -5.1 15 0 15 C0 10.05 0 5.1 0 0 Z " fill="#C6D4C8" transform="translate(156,141)"/>
<path d="M0 0 C15.51 0 31.02 0 47 0 C47 5.28 47 10.56 47 16 C36.77 16 26.54 16 16 16 C16 26.23 16 36.46 16 47 C21.28 47 26.56 47 32 47 C32 51.95 32 56.9 32 62 C36.95 62 41.9 62 47 62 C47 67.28 47 72.56 47 78 C52.28 78 57.56 78 63 78 C63 83.28 63 88.56 63 94 C67.95 94 72.9 94 78 94 C78 99.28 78 104.56 78 110 C109.02 110 140.04 110 172 110 C172 113.96 172 117.92 172 122 C166.03316328 127.96683672 149.99492737 126.26278553 141.85188293 126.28216553 C140.22677581 126.27987309 138.60166899 126.27736359 136.9765625 126.2746582 C135.22218105 126.27901697 133.46780149 126.28420394 131.71342468 126.29014587 C126.99702933 126.30341136 122.28071469 126.30412938 117.56430435 126.30158257 C113.61501845 126.3005059 109.66574842 126.30541309 105.71646595 126.310188 C96.4029246 126.32123663 87.08942362 126.32174466 77.77587891 126.31567383 C68.18093136 126.30961594 58.58612978 126.32200159 48.99120712 126.3432439 C40.72928308 126.36085952 32.46740554 126.36686194 24.20546341 126.36360615 C19.28083561 126.3617956 14.35631236 126.3644083 9.43170166 126.37832069 C4.80879418 126.39089639 0.18611542 126.38895744 -4.43678856 126.37590981 C-6.13027206 126.37354521 -7.82377169 126.37627453 -9.51723671 126.38453293 C-11.83296337 126.39501059 -14.14792356 126.38689267 -16.46362305 126.3742218 C-18.40473213 126.37447341 -18.40473213 126.37447341 -20.38505554 126.37473011 C-24.60148601 125.93764913 -27.25127808 124.94211242 -31 123 C-32.32229189 120.35541621 -32.09677194 118.32238699 -32.0625 115.375 C-32.05347656 114.37210937 -32.04445312 113.36921875 -32.03515625 112.3359375 C-32.02355469 111.56507813 -32.01195312 110.79421875 -32 110 C-32.60328125 110.01160156 -33.2065625 110.02320313 -33.828125 110.03515625 C-35.02695313 110.04869141 -35.02695313 110.04869141 -36.25 110.0625 C-37.43335938 110.07990234 -37.43335938 110.07990234 -38.640625 110.09765625 C-42.91867853 109.9205845 -42.91867853 109.9205845 -45 109 C-47.68691236 103.57407781 -47.33083724 98.30159705 -47.3125 92.375 C-47.32861328 91.32570313 -47.34472656 90.27640625 -47.36132812 89.1953125 C-47.36197266 88.18984375 -47.36261719 87.184375 -47.36328125 86.1484375 C-47.36626221 85.23239746 -47.36924316 84.31635742 -47.37231445 83.37255859 C-46.93052207 80.55725475 -46.24710569 79.69609516 -44 78 C-40.02062341 76.78407937 -36.13151233 76.97575404 -32 77 C-32.00523682 76.4330542 -32.01047363 75.8661084 -32.01586914 75.28198242 C-32.09778025 64.97673567 -32.10861391 54.67351828 -31.6875 44.375 C-31.66502197 43.58891357 -31.64254395 42.80282715 -31.61938477 41.99291992 C-31.39183887 37.30217222 -30.94948666 35.93264888 -28 32 C-24.04 32 -20.08 32 -16 32 C-16 42.23 -16 52.46 -16 63 C-10.72 63 -5.44 63 0 63 C0 52.44 0 41.88 0 31 C-4.95 31 -9.9 31 -15 31 C-15 26.05 -15 21.1 -15 16 C-10.05 16 -5.1 16 0 16 C0 10.72 0 5.44 0 0 Z " fill="#090808" transform="translate(203,281)"/>
<path d="M0 0 C0.81307114 -0.00426498 1.62614227 -0.00852997 2.46385193 -0.01292419 C3.35223251 -0.01247101 4.2406131 -0.01201782 5.15591431 -0.0115509 C6.09441727 -0.01490952 7.03292023 -0.01826813 7.99986267 -0.02172852 C11.10869666 -0.03124336 14.21747681 -0.03318192 17.32632446 -0.03425598 C19.48482282 -0.03746826 21.64332095 -0.04083231 23.80181885 -0.04434204 C28.32952377 -0.05033469 32.8572096 -0.05218181 37.38491821 -0.05158997 C43.18782194 -0.05148835 48.99060329 -0.06513929 54.79347801 -0.08236217 C59.25271162 -0.09347868 63.71191561 -0.09550928 68.17116165 -0.09498024 C70.31058804 -0.09616093 72.45001518 -0.10058769 74.58942795 -0.10831261 C77.58172941 -0.11810504 80.57376485 -0.11523729 83.56607056 -0.10920715 C84.89256874 -0.11763641 84.89256874 -0.11763641 86.24586487 -0.12623596 C90.57211225 -0.10407136 94.10255557 -0.00910359 97.99038696 2.13371277 C100.05910369 5.05276091 100.33783503 7.86805499 100.61538696 11.38371277 C100.7275354 12.72175964 100.7275354 12.72175964 100.84194946 14.08683777 C100.89093384 14.76230652 100.93991821 15.43777527 100.99038696 16.13371277 C102.22788696 16.12585754 102.22788696 16.12585754 103.49038696 16.11784363 C151.18517125 15.85501662 151.18517125 15.85501662 158.67007446 22.66105652 C160.41251304 24.67421295 161.79993705 26.75281294 162.99038696 29.13371277 C165.70099704 29.75194661 165.70099704 29.75194661 168.86538696 30.13371277 C172.74136814 30.65673673 174.69438143 30.93637575 177.99038696 33.13371277 C178.28335571 36.39152527 178.28335571 36.39152527 178.17788696 40.25871277 C178.15081665 41.54004089 178.12374634 42.82136902 178.09585571 44.14152527 C178.04364868 45.62265808 178.04364868 45.62265808 177.99038696 47.13371277 C179.62040649 47.0931073 179.62040649 47.0931073 181.28335571 47.05168152 C185.40457498 47.14287815 187.52659392 47.95877295 190.99038696 50.13371277 C192.99038696 53.13371277 192.99038696 53.13371277 193.42788696 56.63371277 C194.57341191 60.30759509 194.57341191 60.30759509 197.45913696 61.07902527 C199.41341595 61.5264523 201.38257885 61.91380253 203.36148071 62.23527527 C205.99038696 63.13371277 205.99038696 63.13371277 207.63638306 65.30387878 C209.20106671 68.57402812 209.33669632 70.7001126 209.28335571 74.30949402 C209.27368774 75.46642761 209.26401978 76.62336121 209.25405884 77.81535339 C209.22892212 79.01353699 209.2037854 80.21172058 209.17788696 81.44621277 C209.16435181 82.6637323 209.15081665 83.88125183 209.13687134 85.13566589 C209.10158265 88.1352047 209.0477777 91.13451543 208.99038696 94.13371277 C213.94038696 94.13371277 218.89038696 94.13371277 223.99038696 94.13371277 C225.43246638 97.0178716 225.08433583 99.55092805 225.05288696 102.75871277 C225.04386353 103.94722839 225.03484009 105.13574402 225.02554321 106.36027527 C225.00814087 107.73312683 225.00814087 107.73312683 224.99038696 109.13371277 C225.90562134 109.11050964 226.82085571 109.08730652 227.76382446 109.06340027 C228.95234009 109.04535339 230.14085571 109.02730652 231.36538696 109.00871277 C233.14042603 108.97390808 233.14042603 108.97390808 234.95132446 108.93840027 C237.99038696 109.13371277 237.99038696 109.13371277 239.99038696 111.13371277 C240.18569946 114.39152527 240.18569946 114.39152527 240.11538696 118.25871277 C240.09734009 119.54004089 240.07929321 120.82136902 240.06069946 122.14152527 C240.03749634 123.12894714 240.01429321 124.11636902 239.99038696 125.13371277 C241.23755493 125.09890808 241.23755493 125.09890808 242.50991821 125.06340027 C243.5965979 125.04535339 244.68327759 125.02730652 245.80288696 125.00871277 C246.88183228 124.98550964 247.96077759 124.96230652 249.07241821 124.93840027 C251.99038696 125.13371277 251.99038696 125.13371277 254.99038696 127.13371277 C256.4277109 131.12639763 256.13408795 135.32084877 256.12319946 139.51261902 C256.12463455 140.7253373 256.12463455 140.7253373 256.12609863 141.96255493 C256.12677786 143.66796446 256.12494152 145.3733766 256.12075806 147.07878113 C256.1153992 149.69024954 256.12071531 152.30154652 256.12710571 154.91300964 C256.12644502 156.57121315 256.12516405 158.22941655 256.12319946 159.88761902 C256.12522369 160.66891678 256.12724792 161.45021454 256.1293335 162.25518799 C256.11537696 165.47685072 256.01655693 168.05520285 254.99038696 171.13371277 C250.39821932 173.94826713 245.18051238 173.31511521 239.99038696 173.13371277 C240.03679321 173.88136902 240.08319946 174.62902527 240.13101196 175.39933777 C240.41895839 183.25616175 240.41895839 183.25616175 238.67788696 186.82121277 C234.29579871 188.96130238 229.77663252 188.43079008 224.99038696 188.13371277 C225.02519165 188.88136902 225.05999634 189.62902527 225.09585571 190.39933777 C225.12292603 191.38418152 225.14999634 192.36902527 225.17788696 193.38371277 C225.23009399 194.84550964 225.23009399 194.84550964 225.28335571 196.33683777 C224.94084208 199.60670128 224.37098287 200.88221642 221.99038696 203.13371277 C218.63119738 204.00583405 215.46473518 204.26335229 212.00405884 204.27897644 C211.03955811 204.28535629 210.07505737 204.29173615 209.08132935 204.29830933 C208.05100586 204.29942215 207.02068237 204.30053497 205.95913696 204.30168152 C204.35612732 204.30667412 204.35612732 204.30667412 202.72073364 204.31176758 C200.46475657 204.31682254 198.20877204 204.31917635 195.95278931 204.3190155 C192.50295733 204.32120479 189.05344378 204.33938355 185.60366821 204.35832214 C183.40965889 204.36125579 181.21564805 204.36324078 179.02163696 204.36418152 C177.99131348 204.37136703 176.96098999 204.37855255 175.89944458 204.38595581 C174.45269348 204.38134087 174.45269348 204.38134087 172.97671509 204.37663269 C172.13241943 204.37805771 171.28812378 204.37948273 170.41824341 204.38095093 C166.50441082 203.98238998 163.77455341 202.91787922 160.99038696 200.13371277 C160.99038696 196.17371277 160.99038696 192.21371277 160.99038696 188.13371277 C151.09038696 188.13371277 141.19038696 188.13371277 130.99038696 188.13371277 C130.99038696 183.18371277 130.99038696 178.23371277 130.99038696 173.13371277 C135.94038696 173.13371277 140.89038696 173.13371277 145.99038696 173.13371277 C145.99038696 167.52371277 145.99038696 161.91371277 145.99038696 156.13371277 C150.94038696 156.13371277 155.89038696 156.13371277 160.99038696 156.13371277 C160.99038696 135.67371277 160.99038696 115.21371277 160.99038696 94.13371277 C156.04038696 94.13371277 151.09038696 94.13371277 145.99038696 94.13371277 C145.99038696 88.85371277 145.99038696 83.57371277 145.99038696 78.13371277 C151.27038696 78.13371277 156.55038696 78.13371277 161.99038696 78.13371277 C161.99038696 83.41371277 161.99038696 88.69371277 161.99038696 94.13371277 C166.94038696 94.13371277 171.89038696 94.13371277 176.99038696 94.13371277 C176.99038696 104.36371277 176.99038696 114.59371277 176.99038696 125.13371277 C182.27038696 125.13371277 187.55038696 125.13371277 192.99038696 125.13371277 C192.99038696 130.41371277 192.99038696 135.69371277 192.99038696 141.13371277 C187.71038696 141.13371277 182.43038696 141.13371277 176.99038696 141.13371277 C176.99038696 146.41371277 176.99038696 151.69371277 176.99038696 157.13371277 C172.04038696 157.13371277 167.09038696 157.13371277 161.99038696 157.13371277 C161.99038696 167.03371277 161.99038696 176.93371277 161.99038696 187.13371277 C182.45038696 187.13371277 202.91038696 187.13371277 223.99038696 187.13371277 C223.99038696 182.18371277 223.99038696 177.23371277 223.99038696 172.13371277 C228.94038696 172.13371277 233.89038696 172.13371277 238.99038696 172.13371277 C238.99038696 156.95371277 238.99038696 141.77371277 238.99038696 126.13371277 C234.04038696 126.13371277 229.09038696 126.13371277 223.99038696 126.13371277 C223.99038696 120.85371277 223.99038696 115.57371277 223.99038696 110.13371277 C218.71038696 110.13371277 213.43038696 110.13371277 207.99038696 110.13371277 C207.99038696 104.85371277 207.99038696 99.57371277 207.99038696 94.13371277 C203.04038696 94.13371277 198.09038696 94.13371277 192.99038696 94.13371277 C192.99038696 83.90371277 192.99038696 73.67371277 192.99038696 63.13371277 C187.71038696 63.13371277 182.43038696 63.13371277 176.99038696 63.13371277 C176.99038696 57.85371277 176.99038696 52.57371277 176.99038696 47.13371277 C171.71038696 47.13371277 166.43038696 47.13371277 160.99038696 47.13371277 C160.99038696 42.18371277 160.99038696 37.23371277 160.99038696 32.13371277 C140.53038696 32.13371277 120.07038696 32.13371277 98.99038696 32.13371277 C98.99038696 26.85371277 98.99038696 21.57371277 98.99038696 16.13371277 C63.02038696 16.13371277 27.05038696 16.13371277 -10.00961304 16.13371277 C-10.00961304 21.41371277 -10.00961304 26.69371277 -10.00961304 32.13371277 C-30.79961304 32.13371277 -51.58961304 32.13371277 -73.00961304 32.13371277 C-73.00961304 37.08371277 -73.00961304 42.03371277 -73.00961304 47.13371277 C-77.95961304 47.13371277 -82.90961304 47.13371277 -88.00961304 47.13371277 C-88.03023804 44.67933777 -88.05086304 42.22496277 -88.07211304 39.69621277 C-88.08121704 38.9222113 -88.09032104 38.14820984 -88.09970093 37.35075378 C-88.10686217 35.6114956 -88.05986006 33.87225973 -88.00961304 32.13371277 C-86.12487301 30.24897274 -82.98214902 30.44039277 -80.44711304 30.07121277 C-78.65080444 29.80631042 -78.65080444 29.80631042 -76.81820679 29.53605652 C-75.42795288 29.33689636 -75.42795288 29.33689636 -74.00961304 29.13371277 C-73.63836304 27.89621277 -73.26711304 26.65871277 -72.88461304 25.38371277 C-71.24563757 21.01568853 -69.24270217 19.25025733 -65.00961304 17.13371277 C-61.75953976 16.34193148 -58.69782403 15.99794123 -55.35873413 15.94425964 C-54.46786102 15.92754211 -53.57698792 15.91082458 -52.65911865 15.89360046 C-51.71001617 15.88002502 -50.7609137 15.86644958 -49.78305054 15.85246277 C-48.79841827 15.83405334 -47.81378601 15.81564392 -46.79931641 15.79667664 C-42.59543464 15.71817028 -38.39139915 15.65016453 -34.18734741 15.58146667 C-31.11500106 15.52975485 -28.04279212 15.47251555 -24.97055054 15.41496277 C-24.0173996 15.40138733 -23.06424866 15.38781189 -22.08221436 15.37382507 C-20.75536118 15.34874878 -20.75536118 15.34874878 -19.40170288 15.32316589 C-18.62402557 15.31063782 -17.84634827 15.29810974 -17.04510498 15.28520203 C-14.80674998 15.20217265 -14.80674998 15.20217265 -12.00961304 14.13371277 C-11.31268897 12.15828477 -11.31268897 12.15828477 -11.00961304 9.82121277 C-10.31924635 6.23244709 -9.72939247 3.74470103 -7.00961304 1.13371277 C-4.31232936 0.23461821 -2.76610906 0.00656548 0 0 Z " fill="#0F100E" transform="translate(229.00961303710938,108.86628723144531)"/>
<path d="M0 0 C3.58072917 0.06510417 7.16145833 0.13020833 10.7421875 0.1953125 C10.7421875 5.4753125 10.7421875 10.7553125 10.7421875 16.1953125 C5.7921875 16.1953125 0.8421875 16.1953125 -4.2578125 16.1953125 C-4.2578125 26.4253125 -4.2578125 36.6553125 -4.2578125 47.1953125 C-19.7678125 47.1953125 -35.2778125 47.1953125 -51.2578125 47.1953125 C-51.2578125 57.4253125 -51.2578125 67.6553125 -51.2578125 78.1953125 C-30.4678125 78.1953125 -9.6778125 78.1953125 11.7421875 78.1953125 C11.7421875 73.2453125 11.7421875 68.2953125 11.7421875 63.1953125 C16.6921875 63.1953125 21.6421875 63.1953125 26.7421875 63.1953125 C26.7421875 47.6853125 26.7421875 32.1753125 26.7421875 16.1953125 C31.6921875 16.1953125 36.6421875 16.1953125 41.7421875 16.1953125 C41.7421875 10.9153125 41.7421875 5.6353125 41.7421875 0.1953125 C47.0221875 0.1953125 52.3021875 0.1953125 57.7421875 0.1953125 C57.7421875 25.9353125 57.7421875 51.6753125 57.7421875 78.1953125 C67.9721875 78.1953125 78.2021875 78.1953125 88.7421875 78.1953125 C88.7421875 83.4753125 88.7421875 88.7553125 88.7421875 94.1953125 C84.5123388 94.3032321 80.28524257 94.38260443 76.0546875 94.4453125 C74.85650391 94.47882813 73.65832031 94.51234375 72.42382812 94.546875 C71.26689453 94.55976563 70.10996094 94.57265625 68.91796875 94.5859375 C67.85489502 94.60688477 66.79182129 94.62783203 65.6965332 94.64941406 C62.0047962 94.08197081 60.36442095 92.8080537 57.7421875 90.1953125 C56.80336781 86.48152852 56.88006845 83.05597916 56.7421875 79.1953125 C52.4521875 79.1953125 48.1621875 79.1953125 43.7421875 79.1953125 C43.6390625 80.9484375 43.5359375 82.7015625 43.4296875 84.5078125 C43.12645317 89.66279619 43.12645317 89.66279619 41.4765625 91.94921875 C39.46686553 93.39312265 37.66864783 94.09477999 35.3046875 94.8203125 C34.54285156 95.06007813 33.78101563 95.29984375 32.99609375 95.546875 C30.7421875 96.1953125 30.7421875 96.1953125 28.58203125 96.53125 C26.55832475 97.03115083 26.55832475 97.03115083 25.7109375 99.09765625 C25.23140625 100.13599609 25.23140625 100.13599609 24.7421875 101.1953125 C13.36553342 111.44010559 -8.43307946 109.70293755 -22.62207031 109.64135742 C-25.67838537 109.63268316 -28.73292313 109.66201062 -31.7890625 109.69335938 C-33.74479111 109.69496789 -35.70052302 109.69440059 -37.65625 109.69140625 C-38.56345795 109.70264023 -39.47066589 109.71387421 -40.40536499 109.72544861 C-46.64448728 109.65598085 -46.64448728 109.65598085 -49.81103516 107.27758789 C-52.72811364 103.07918047 -52.35453677 99.22497474 -52.2578125 94.1953125 C-52.84949219 94.24171875 -53.44117187 94.288125 -54.05078125 94.3359375 C-58.23670396 94.52713789 -60.5902343 94.59864099 -64.2578125 92.3828125 C-67.98085606 88.3107336 -67.34316555 84.40184835 -67.2578125 79.1953125 C-68.835625 79.0096875 -68.835625 79.0096875 -70.4453125 78.8203125 C-77.94114657 77.59148724 -77.94114657 77.59148724 -80.875 74.48046875 C-83.77943484 69.68076711 -82.86903336 63.21576226 -81.7890625 57.87890625 C-79.90585016 52.15080205 -76.15766975 47.82005509 -71.734375 43.81640625 C-69.85349565 41.75141966 -68.82975553 39.5890331 -67.6328125 37.0703125 C-65.34114583 32.27864583 -65.34114583 32.27864583 -64.2578125 31.1953125 C-62.24186668 30.96103472 -60.2193385 30.78195126 -58.1953125 30.6328125 C-56.53822266 30.50712891 -56.53822266 30.50712891 -54.84765625 30.37890625 C-53.99300781 30.31832031 -53.13835938 30.25773437 -52.2578125 30.1953125 C-52.28101562 29.36386719 -52.30421875 28.53242188 -52.328125 27.67578125 C-52.34617187 26.58910156 -52.36421875 25.50242188 -52.3828125 24.3828125 C-52.40601562 23.30386719 -52.42921875 22.22492188 -52.453125 21.11328125 C-52.2578125 18.1953125 -52.2578125 18.1953125 -50.2578125 15.1953125 C-48.30892944 14.83454895 -48.30892944 14.83454895 -45.89990234 14.85473633 C-44.99911957 14.85496292 -44.09833679 14.85518951 -43.17025757 14.85542297 C-42.19626007 14.87090683 -41.22226257 14.88639069 -40.21875 14.90234375 C-39.22275787 14.90658859 -38.22676575 14.91083344 -37.20059204 14.91520691 C-34.01106025 14.9320357 -30.82215417 14.96969574 -27.6328125 15.0078125 C-25.47396744 15.0228539 -23.3151125 15.03654325 -21.15625 15.04882812 C-15.85655638 15.08195283 -10.55722913 15.13219354 -5.2578125 15.1953125 C-5.28101562 14.28007812 -5.30421875 13.36484375 -5.328125 12.421875 C-5.34617187 11.23335937 -5.36421875 10.04484375 -5.3828125 8.8203125 C-5.40601562 7.63695312 -5.42921875 6.45359375 -5.453125 5.234375 C-5.17400942 0.89133651 -4.31741681 0.25883794 0 0 Z " fill="#C9D8CB" transform="translate(98.2578125,202.8046875)"/>
<path d="M0 0 C9.9 0 19.8 0 30 0 C30 4.95 30 9.9 30 15 C35.28 15 40.56 15 46 15 C46 20.28 46 25.56 46 31 C51.28 31 56.56 31 62 31 C62 41.23 62 51.46 62 62 C66.95 62 71.9 62 77 62 C77 67.28 77 72.56 77 78 C82.28 78 87.56 78 93 78 C93 83.28 93 88.56 93 94 C97.95 94 102.9 94 108 94 C108 109.18 108 124.36 108 140 C103.05 140 98.1 140 93 140 C93 144.95 93 149.9 93 155 C72.54 155 52.08 155 31 155 C31 145.1 31 135.2 31 125 C35.95 125 40.9 125 46 125 C46 119.72 46 114.44 46 109 C51.28 109 56.56 109 62 109 C62 103.72 62 98.44 62 93 C56.72 93 51.44 93 46 93 C46 82.77 46 72.54 46 62 C41.05 62 36.1 62 31 62 C31 56.72 31 51.44 31 46 C25.72 46 20.44 46 15 46 C15 35.77 15 25.54 15 15 C10.05 15 5.1 15 0 15 C0 10.05 0 5.1 0 0 Z " fill="#FDFDFD" transform="translate(360,141)"/>
<path d="M0 0 C4.95 0 9.9 0 15 0 C15 15.18 15 30.36 15 46 C9.72 46 4.44 46 -1 46 C-1 51.28 -1 56.56 -1 62 C-5.95 62 -10.9 62 -16 62 C-16 77.51 -16 93.02 -16 109 C-20.95 109 -25.9 109 -31 109 C-31 113.95 -31 118.9 -31 124 C-51.79 124 -72.58 124 -94 124 C-94 113.77 -94 103.54 -94 93 C-78.49 93 -62.98 93 -47 93 C-47 82.77 -47 72.54 -47 62 C-42.05 62 -37.1 62 -32 62 C-32 52.1 -32 42.2 -32 32 C-31.67 32 -31.34 32 -31 32 C-31 36.62 -31 41.24 -31 46 C-26.05 46 -21.1 46 -16 46 C-16 35.77 -16 25.54 -16 15 C-10.72 15 -5.44 15 0 15 C0 10.05 0 5.1 0 0 Z " fill="#FDFEFD" transform="translate(141,157)"/>
<path d="M0 0 C10.23 0 20.46 0 31 0 C31 4.95 31 9.9 31 15 C34.50753906 14.85691406 34.50753906 14.85691406 38.0859375 14.7109375 C40.38288476 14.62542405 42.67994324 14.54397055 44.97705078 14.46289062 C46.5579407 14.4049472 48.13868522 14.34286827 49.71923828 14.27636719 C68.94953351 13.47358446 68.94953351 13.47358446 75 16 C77.96304546 18.86409403 78.15671572 21.48251372 78.36328125 25.43359375 C78.36196054 27.10164787 78.34459672 28.76975419 78.3125 30.4375 C78.31572266 31.27087891 78.31894531 32.10425781 78.32226562 32.96289062 C78.28165978 37.63256264 78.04018469 41.70627797 76 46 C72.7119803 47.73368312 69.51461951 48.82846016 66 50 C64.77479736 53.00847418 64.77479736 53.00847418 64 56 C63.34 56 62.68 56 62 56 C62 53.03 62 50.06 62 47 C30.98 47 -0.04 47 -32 47 C-32 41.72 -32 36.44 -32 31 C-26.72 31 -21.44 31 -16 31 C-16 26.05 -16 21.1 -16 16 C-10.72 16 -5.44 16 0 16 C0 10.72 0 5.44 0 0 Z " fill="#C4D2C7" transform="translate(313,344)"/>
<path d="M0 0 C10.23 0 20.46 0 31 0 C31 5.28 31 10.56 31 16 C36.28 16 41.56 16 47 16 C47 20.95 47 25.9 47 31 C51.95 31 56.9 31 62 31 C62 35.95 62 40.9 62 46 C31.31 46 0.62 46 -31 46 C-31 35.77 -31 25.54 -31 15 C-20.77 15 -10.54 15 0 15 C0 10.05 0 5.1 0 0 Z " fill="#FCFCFC" transform="translate(203,344)"/>
<path d="M0 0 C20.79 0 41.58 0 63 0 C63 4.95 63 9.9 63 15 C52.44 15 41.88 15 31 15 C31 20.28 31 25.56 31 31 C26.05 31 21.1 31 16 31 C16 41.23 16 51.46 16 62 C10.72 62 5.44 62 0 62 C0 46.82 0 31.64 0 16 C-4.95 16 -9.9 16 -15 16 C-15 20.95 -15 25.9 -15 31 C-20.28 31 -25.56 31 -31 31 C-31 41.23 -31 51.46 -31 62 C-35.95 62 -40.9 62 -46 62 C-46.02291238 57.60336967 -46.04283833 53.20694512 -46.05493164 48.81030273 C-46.05997121 47.31355082 -46.06680287 45.81680384 -46.07543945 44.32006836 C-46.08752159 42.17300193 -46.09323191 40.02600038 -46.09765625 37.87890625 C-46.10289307 36.5854126 -46.10812988 35.29191895 -46.11352539 33.95922852 C-46 31 -46 31 -45 30 C-42.22334163 29.75579878 -39.44783001 29.61611813 -36.6640625 29.4765625 C-33.65392114 28.93809147 -32.81032159 28.40442094 -31 26 C-30.401875 24.865625 -29.80375 23.73125 -29.1875 22.5625 C-27.13826927 18.85661148 -24.79423533 16.97616424 -21 15 C-19.68 15 -18.36 15 -17 15 C-16.67 11.04 -16.34 7.08 -16 3 C-15.67 3 -15.34 3 -15 3 C-15 6.96 -15 10.92 -15 15 C-10.05 15 -5.1 15 0 15 C0 10.05 0 5.1 0 0 Z " fill="#C6D4C8" transform="translate(156,141)"/>
<path d="M0 0 C15.51 0 31.02 0 47 0 C47 5.28 47 10.56 47 16 C36.77 16 26.54 16 16 16 C16 26.23 16 36.46 16 47 C20.95 47 25.9 47 31 47 C31 51.95 31 56.9 31 62 C20.77 62 10.54 62 0 62 C0 51.77 0 41.54 0 31 C-4.95 31 -9.9 31 -15 31 C-15 26.05 -15 21.1 -15 16 C-10.05 16 -5.1 16 0 16 C0 10.72 0 5.44 0 0 Z " fill="#060303" transform="translate(203,281)"/>
<path d="M0 0 C35.97 0 71.94 0 109 0 C109 5.28 109 10.56 109 16 C73.03 16 37.06 16 0 16 C0 10.72 0 5.44 0 0 Z " fill="#C9D8CC" transform="translate(219,125)"/>
<path d="M0 0 C4.95 0 9.9 0 15 0 C15 15.18 15 30.36 15 46 C9.72 46 4.44 46 -1 46 C-1 51.28 -1 56.56 -1 62 C-11.23 62 -21.46 62 -32 62 C-32 52.1 -32 42.2 -32 32 C-31.67 32 -31.34 32 -31 32 C-31 36.62 -31 41.24 -31 46 C-26.05 46 -21.1 46 -16 46 C-16 35.77 -16 25.54 -16 15 C-10.72 15 -5.44 15 0 15 C0 10.05 0 5.1 0 0 Z " fill="#FDFEFD" transform="translate(141,157)"/>
<path d="M0 0 C4.95 0 9.9 0 15 0 C15 25.74 15 51.48 15 78 C25.23 78 35.46 78 46 78 C46 83.28 46 88.56 46 94 C41.7701513 94.1079196 37.54305507 94.18729193 33.3125 94.25 C32.11431641 94.28351563 30.91613281 94.31703125 29.68164062 94.3515625 C27.94624023 94.37089844 27.94624023 94.37089844 26.17578125 94.390625 C25.11270752 94.41157227 24.04963379 94.43251953 22.9543457 94.45410156 C19.2626087 93.88665831 17.62223345 92.6127412 15 90 C14.06118031 86.28621602 14.13788095 82.86066666 14 79 C7.07 78.505 7.07 78.505 0 78 C0 52.26 0 26.52 0 0 Z " fill="#010100" transform="translate(141,203)"/>
<path d="M0 0 C10.56 0 21.12 0 32 0 C32 15.51 32 31.02 32 47 C21.44 47 10.88 47 0 47 C0 31.49 0 15.98 0 0 Z " fill="#266FAD" transform="translate(187,203)"/>
<path d="M0 0 C10.23 0 20.46 0 31 0 C31 15.51 31 31.02 31 47 C20.77 47 10.54 47 0 47 C0 31.49 0 15.98 0 0 Z " fill="#266FAE" transform="translate(328,203)"/>
<path d="M0 0 C3.96 0 7.92 0 12 0 C12 10.23 12 20.46 12 31 C17.28 31 22.56 31 28 31 C28 35.95 28 40.9 28 46 C17.77 46 7.54 46 -3 46 C-3 56.23 -3 66.46 -3 77 C-7.62 77 -12.24 77 -17 77 C-19.35182462 71.12043845 -19.33179733 66.61189584 -19.3125 60.375 C-19.32861328 59.32570313 -19.34472656 58.27640625 -19.36132812 57.1953125 C-19.36197266 56.18984375 -19.36261719 55.184375 -19.36328125 54.1484375 C-19.36626221 53.23239746 -19.36924316 52.31635742 -19.37231445 51.37255859 C-18.93052207 48.55725475 -18.24710569 47.69609516 -16 46 C-12.02062341 44.78407937 -8.13151233 44.97575404 -4 45 C-4.00523682 44.4330542 -4.01047363 43.8661084 -4.01586914 43.28198242 C-4.09778025 32.97673567 -4.10861391 22.67351828 -3.6875 12.375 C-3.66502197 11.58891357 -3.64254395 10.80282715 -3.61938477 9.99291992 C-3.39183887 5.30217222 -2.94948666 3.93264888 0 0 Z " fill="#010000" transform="translate(175,313)"/>
<path d="M0 0 C30.69 0 61.38 0 93 0 C93 4.95 93 9.9 93 15 C62.31 15 31.62 15 0 15 C0 10.05 0 5.1 0 0 Z " fill="#C8D8CB" transform="translate(172,375)"/>
<path d="M0 0 C4.95 0 9.9 0 15 0 C15 10.23 15 20.46 15 31 C20.28 31 25.56 31 31 31 C31 36.28 31 41.56 31 47 C25.72 47 20.44 47 15 47 C15 51.95 15 56.9 15 62 C10.05 62 5.1 62 0 62 C0 41.54 0 21.08 0 0 Z " fill="#020202" transform="translate(391,203)"/>
<path d="M0 0 C10.23 0 20.46 0 31 0 C31 4.95 31 9.9 31 15 C25.72 15 20.44 15 15 15 C15 25.23 15 35.46 15 46 C5.1 46 -4.8 46 -15 46 C-15 41.05 -15 36.1 -15 31 C-10.05 31 -5.1 31 0 31 C0 20.77 0 10.54 0 0 Z " fill="#030001" transform="translate(328,297)"/>
<path d="M0 0 C4.95 0 9.9 0 15 0 C15 4.95 15 9.9 15 15 C30.51 15 46.02 15 62 15 C62 19.95 62 24.9 62 30 C41.54 30 21.08 30 0 30 C0 20.1 0 10.2 0 0 Z " fill="#C9D8CB" transform="translate(391,266)"/>
<path d="M0 0 C25.74 0 51.48 0 78 0 C78 1.65 78 3.3 78 5 C72.72356523 10.27643477 66.31336696 12.49291661 59.0859375 13.66015625 C57.92522232 13.84905174 57.92522232 13.84905174 56.74105835 14.04176331 C47.40541988 15.41765605 38.0557173 15.48692755 28.63574219 15.44604492 C25.57942713 15.43737066 22.52488937 15.46669812 19.46875 15.49804688 C17.51302139 15.49965539 15.55728948 15.49908809 13.6015625 15.49609375 C12.69435455 15.50732773 11.78714661 15.51856171 10.85244751 15.53013611 C7.2048984 15.48952349 4.66740001 15.34485467 1.39990234 13.65649414 C0 11 0 11 0 0 Z " fill="#020102" transform="translate(47,297)"/>
<path d="M0 0 C3.58072917 0.06510417 7.16145833 0.13020833 10.7421875 0.1953125 C10.7421875 5.4753125 10.7421875 10.7553125 10.7421875 16.1953125 C5.7921875 16.1953125 0.8421875 16.1953125 -4.2578125 16.1953125 C-4.2578125 21.1453125 -4.2578125 26.0953125 -4.2578125 31.1953125 C-19.7678125 31.1953125 -35.2778125 31.1953125 -51.2578125 31.1953125 C-51.2578125 16.1953125 -51.2578125 16.1953125 -50.2578125 15.1953125 C-48.84556204 15.1024399 -47.42872316 15.07784478 -46.01342773 15.08178711 C-45.11256943 15.08186264 -44.21171112 15.08193817 -43.28355408 15.08201599 C-42.30439529 15.08717728 -41.32523651 15.09233856 -40.31640625 15.09765625 C-39.31899918 15.0990712 -38.3215921 15.10048615 -37.29396057 15.10194397 C-34.09438126 15.10756136 -30.89487081 15.12011679 -27.6953125 15.1328125 C-25.53190205 15.13782526 -23.36849051 15.14238855 -21.20507812 15.14648438 C-15.88929925 15.15753643 -10.57356079 15.17429146 -5.2578125 15.1953125 C-5.28101563 14.28007812 -5.30421875 13.36484375 -5.328125 12.421875 C-5.34617188 11.23335937 -5.36421875 10.04484375 -5.3828125 8.8203125 C-5.40601563 7.63695312 -5.42921875 6.45359375 -5.453125 5.234375 C-5.17400942 0.89133651 -4.31741681 0.25883794 0 0 Z " fill="#020101" transform="translate(98.2578125,202.8046875)"/>
<path d="M0 0 C20.46 0 40.92 0 62 0 C62 4.29 62 8.58 62 13 C58.65679838 16.34320162 54.55966949 16.12473955 50.01367188 16.14526367 C48.56692078 16.15483345 48.56692078 16.15483345 47.09094238 16.16459656 C46.0606189 16.16570938 45.03029541 16.1668222 43.96875 16.16796875 C42.36574036 16.17296135 42.36574036 16.17296135 40.73034668 16.17805481 C38.4743696 16.18310978 36.21838508 16.18546358 33.96240234 16.18530273 C30.51257036 16.18749202 27.06305681 16.20567078 23.61328125 16.22460938 C21.41927193 16.22754302 19.22526108 16.22952801 17.03125 16.23046875 C16.00092651 16.23765427 14.97060303 16.24483978 13.90905762 16.25224304 C12.94455688 16.24916641 11.98005615 16.24608978 10.98632812 16.24291992 C10.14203247 16.24434494 9.29773682 16.24576996 8.42785645 16.24723816 C5.37212845 15.93606137 2.234582 15.234582 0 13 C0 8.71 0 4.42 0 0 Z " fill="#070706" transform="translate(391,297)"/>
<path d="M0 0 C10.23 0 20.46 0 31 0 C31 4.95 31 9.9 31 15 C25.72 15 20.44 15 15 15 C15 20.28 15 25.56 15 31 C4.77 31 -5.46 31 -16 31 C-16 26.05 -16 21.1 -16 16 C-10.72 16 -5.44 16 0 16 C0 10.72 0 5.44 0 0 Z " fill="#FDFDFD" transform="translate(313,344)"/>
<path d="M0 0 C15.51 0 31.02 0 47 0 C47 4.95 47 9.9 47 15 C41.72 15 36.44 15 31 15 C31 20.28 31 25.56 31 31 C26.05 31 21.1 31 16 31 C16 25.72 16 20.44 16 15 C10.72 15 5.44 15 0 15 C0 10.05 0 5.1 0 0 Z " fill="#040000" transform="translate(250,297)"/>
<path d="M0 0 C3.96 0 7.92 0 12 0 C15.375 4.5 15.375 4.5 15.34057617 8.30957031 C15.34034958 9.15013977 15.34012299 9.99070923 15.33988953 10.85675049 C15.32440567 11.75480408 15.30892181 12.65285767 15.29296875 13.578125 C15.28872391 14.5046991 15.28447906 15.43127319 15.28010559 16.38592529 C15.26333322 19.34091434 15.22568355 22.29521761 15.1875 25.25 C15.1724513 27.25519847 15.15876322 29.26040765 15.14648438 31.265625 C15.1159881 36.17755912 15.05726409 41.08801332 15 46 C4.77 46 -5.46 46 -16 46 C-16 41.05 -16 36.1 -16 31 C-10.72 31 -5.44 31 0 31 C0 20.77 0 10.54 0 0 Z " fill="#010000" transform="translate(360,313)"/>
<path d="M0 0 C0.98063919 0.00007553 1.96127838 0.00015106 2.97163391 0.00022888 C4.54064705 0.00797081 4.54064705 0.00797081 6.14135742 0.01586914 C7.22188889 0.01728409 8.30242035 0.01869904 9.41569519 0.02015686 C12.85943393 0.02574459 16.30310715 0.0382949 19.74682617 0.05102539 C22.08471586 0.05604197 24.42260656 0.0606046 26.76049805 0.06469727 C32.48513259 0.07571002 38.20971828 0.09296627 43.93432617 0.11352539 C43.93432617 5.06352539 43.93432617 10.01352539 43.93432617 15.11352539 C23.80432617 15.11352539 3.67432617 15.11352539 -17.06567383 15.11352539 C-17.06567383 7.11352539 -17.06567383 7.11352539 -15.25317383 4.73852539 C-10.10319036 0.91282339 -6.34199756 -0.01638759 0 0 Z " fill="#010100" transform="translate(174.065673828125,124.886474609375)"/>
<path d="M0 0 C49.60737879 -0.28044372 49.60737879 -0.28044372 59.625 6.875 C61 9 61 9 61 15 C40.87 15 20.74 15 0 15 C0 10.05 0 5.1 0 0 Z " fill="#020101" transform="translate(329,125)"/>
<path d="M0 0 C0.33 0 0.66 0 1 0 C1 4.29 1 8.58 1 13 C16.51 13 32.02 13 48 13 C48 18.28 48 23.56 48 29 C32.49 29 16.98 29 1 29 C1 24.05 1 19.1 1 14 C-2.96 14 -6.92 14 -11 14 C-11 13.67 -11 13.34 -11 13 C-5.555 12.505 -5.555 12.505 0 12 C0 8.04 0 4.08 0 0 Z " fill="#C3D0C5" transform="translate(46,221)"/>
<path d="M0 0 C15.51 0 31.02 0 47 0 C47 5.28 47 10.56 47 16 C31.49 16 15.98 16 0 16 C0 10.72 0 5.44 0 0 Z " fill="#C7D6C9" transform="translate(250,281)"/>
<path d="M0 0 C10.56 0 21.12 0 32 0 C32 4.95 32 9.9 32 15 C36.95 15 41.9 15 47 15 C47 20.28 47 25.56 47 31 C41.72 31 36.44 31 31 31 C31 25.72 31 20.44 31 15 C20.77 15 10.54 15 0 15 C0 10.05 0 5.1 0 0 Z " fill="#CAD8CD" transform="translate(328,141)"/>
<path d="M0 0 C0.33 0 0.66 0 1 0 C1 4.95 1 9.9 1 15 C5.95 15 10.9 15 16 15 C16 20.28 16 25.56 16 31 C21.28 31 26.56 31 32 31 C32 41.56 32 52.12 32 63 C0.98 63 -30.04 63 -62 63 C-62 66.63 -62 70.26 -62 74 C-62.33 74 -62.66 74 -63 74 C-63 70.37 -63 66.74 -63 63 C-65.97 63 -68.94 63 -72 63 C-72 62.67 -72 62.34 -72 62 C-38.01 62 -4.02 62 31 62 C31 57.05 31 52.1 31 47 C26.05 47 21.1 47 16 47 C16 42.05 16 37.1 16 32 C10.72 32 5.44 32 0 32 C0 26.72 0 21.44 0 16 C-10.23 16 -20.46 16 -31 16 C-31 15.67 -31 15.34 -31 15 C-20.77 15 -10.54 15 0 15 C0 10.05 0 5.1 0 0 Z " fill="#808881" transform="translate(234,328)"/>
<path d="M0 0 C4.95 0 9.9 0 15 0 C15 10.23 15 20.46 15 31 C5.1 31 -4.8 31 -15 31 C-15 26.05 -15 21.1 -15 16 C-10.05 16 -5.1 16 0 16 C0 10.72 0 5.44 0 0 Z " fill="#020201" transform="translate(375,266)"/>
<path d="M0 0 C4.95 0 9.9 0 15 0 C15 15.18 15 30.36 15 46 C10.05 46 5.1 46 0 46 C0 30.82 0 15.64 0 0 Z " fill="#C9D7CC" transform="translate(453,235)"/>
<path d="M0 0 C2.19050021 0.09017996 4.378466 0.24666208 6.5625 0.4375 C9.7490625 0.7159375 9.7490625 0.7159375 13 1 C13 5.95 13 10.9 13 16 C7.72 16 2.44 16 -3 16 C-3 26.23 -3 36.46 -3 47 C-11.4 47 -11.4 47 -15 45 C-18.8076156 40.95325879 -18.4363411 37.35348858 -18.28125 32.03515625 C-17.51008109 23.71295846 -13.58423012 18.14931598 -7.4765625 12.62109375 C-5.59568315 10.55610716 -4.57194303 8.3937206 -3.375 5.875 C-1.08333333 1.08333333 -1.08333333 1.08333333 0 0 Z " fill="#020202" transform="translate(34,234)"/>
<path d="M0 0 C3.96 0 7.92 0 12 0 C14 2 14 2 14.24050903 3.83499146 C14.23606781 4.57667572 14.23162659 5.31835999 14.22705078 6.08251953 C14.22682419 7.34360031 14.22682419 7.34360031 14.22659302 8.63015747 C14.21627045 9.53853363 14.20594788 10.44690979 14.1953125 11.3828125 C14.1924826 12.31221649 14.18965271 13.24162048 14.18673706 14.19918823 C14.17552069 17.1745885 14.1504136 20.14969035 14.125 23.125 C14.11497208 25.13931858 14.1058459 27.15364186 14.09765625 29.16796875 C14.07557661 34.11209456 14.04103693 39.05599665 14 44 C8.76799869 46.09280052 6.12192707 46 0 46 C0 30.82 0 15.64 0 0 Z " fill="#000000" transform="translate(469,235)"/>
<path d="M0 0 C0.33 0 0.66 0 1 0 C1 8.58 1 17.16 1 26 C5.95 26 10.9 26 16 26 C17.44207941 28.88415883 17.09394887 31.41721528 17.0625 34.625 C17.05347656 35.81351563 17.04445313 37.00203125 17.03515625 38.2265625 C17.02355469 39.14179688 17.01195312 40.05703125 17 41 C18.39025391 40.98259766 18.39025391 40.98259766 19.80859375 40.96484375 C21.00613281 40.95582031 22.20367187 40.94679687 23.4375 40.9375 C24.63246094 40.92589844 25.82742188 40.91429687 27.05859375 40.90234375 C30 41 30 41 31 42 C31.07320163 44.5327765 31.09227569 47.03103918 31.0625 49.5625 C31.041875 52.016875 31.02125 54.47125 31 57 C26.05 57 21.1 57 16 57 C16 52.05 16 47.1 16 42 C10.72 42 5.44 42 0 42 C0 28.14 0 14.28 0 0 Z " fill="#272623" transform="translate(437,177)"/>
<path d="M0 0 C0.33 0 0.66 0 1 0 C1 17.82 1 35.64 1 54 C-3.62 54 -8.24 54 -13 54 C-15.35182462 48.12043845 -15.33179733 43.61189584 -15.3125 37.375 C-15.32861328 36.32570313 -15.34472656 35.27640625 -15.36132812 34.1953125 C-15.36197266 33.18984375 -15.36261719 32.184375 -15.36328125 31.1484375 C-15.36626221 30.23239746 -15.36924316 29.31635742 -15.37231445 28.37255859 C-14.93052207 25.55725475 -14.24710569 24.69609516 -12 23 C-7.8467886 21.73096318 -4.51995139 22 0 22 C0 14.74 0 7.48 0 0 Z " fill="#141311" transform="translate(171,336)"/>
<path d="M0 0 C5.28 0 10.56 0 16 0 C16 5.28 16 10.56 16 16 C11.05 16 6.1 16 1 16 C1 21.28 1 26.56 1 32 C-4.28 32 -9.56 32 -15 32 C-15 26.72 -15 21.44 -15 16 C-10.05 16 -5.1 16 0 16 C0 10.72 0 5.44 0 0 Z " fill="#181818" transform="translate(265,234)"/>
<path d="M0 0 C5.28 0 10.56 0 16 0 C16 10.23 16 20.46 16 31 C11.05 31 6.1 31 1 31 C1 33.64 1 36.28 1 39 C0.67 39 0.34 39 0 39 C0 36.69 0 34.38 0 32 C-1.65 32 -3.3 32 -5 32 C-5 31.67 -5 31.34 -5 31 C-3.35 31 -1.7 31 0 31 C0 20.77 0 10.54 0 0 Z " fill="#C5D2C6" transform="translate(31,250)"/>
<path d="M0 0 C10.23 0 20.46 0 31 0 C31 5.28 31 10.56 31 16 C20.77 16 10.54 16 0 16 C0 10.72 0 5.44 0 0 Z " fill="#C7D5C9" transform="translate(328,281)"/>
<path d="M0 0 C10.23 0 20.46 0 31 0 C31 5.28 31 10.56 31 16 C20.77 16 10.54 16 0 16 C0 10.72 0 5.44 0 0 Z " fill="#090405" transform="translate(297,281)"/>
<path d="M0 0 C10.23 0 20.46 0 31 0 C31 5.28 31 10.56 31 16 C20.77 16 10.54 16 0 16 C0 10.72 0 5.44 0 0 Z " fill="#FD5E7C" transform="translate(344,250)"/>
<path d="M0 0 C10.23 0 20.46 0 31 0 C31 5.28 31 10.56 31 16 C20.77 16 10.54 16 0 16 C0 10.72 0 5.44 0 0 Z " fill="#FD5E7D" transform="translate(172,250)"/>
<path d="M0 0 C11.55 0 23.1 0 35 0 C35 5.28 35 10.56 35 16 C30.7701513 16.1079196 26.54305507 16.18729193 22.3125 16.25 C21.11431641 16.28351563 19.91613281 16.31703125 18.68164062 16.3515625 C16.94624023 16.37089844 16.94624023 16.37089844 15.17578125 16.390625 C14.11270752 16.41157227 13.04963379 16.43251953 11.9543457 16.45410156 C8.2626087 15.88665831 6.62223345 14.6127412 4 12 C3.29296875 9.203125 3.29296875 9.203125 3.1875 6.25 C3.13980469 5.26515625 3.09210938 4.2803125 3.04296875 3.265625 C3.02878906 2.51796875 3.01460937 1.7703125 3 1 C2.01 0.67 1.02 0.34 0 0 Z " fill="#0A0908" transform="translate(152,281)"/>
<path d="M0 0 C4.29 0 8.58 0 13 0 C16.37877352 5.63128919 16.37877352 5.63128919 16.36328125 9.43359375 C16.36263672 10.24763672 16.36199219 11.06167969 16.36132812 11.90039062 C16.34521484 12.73763672 16.32910156 13.57488281 16.3125 14.4375 C16.31733398 15.68756836 16.31733398 15.68756836 16.32226562 16.96289062 C16.27816519 22.03444034 15.68989611 24.93031166 14 30 C9.38 30 4.76 30 0 30 C0 20.1 0 10.2 0 0 Z " fill="#060504" transform="translate(375,360)"/>
<path d="M0 0 C10.23 0 20.46 0 31 0 C31 4.95 31 9.9 31 15 C20.77 15 10.54 15 0 15 C0 10.05 0 5.1 0 0 Z " fill="#FEFEFE" transform="translate(344,360)"/>
<path d="M0 0 C4.95 0 9.9 0 15 0 C15 10.23 15 20.46 15 31 C10.05 31 5.1 31 0 31 C0 20.77 0 10.54 0 0 Z " fill="#FCFCFC" transform="translate(344,313)"/>
<path d="M0 0 C4.95 0 9.9 0 15 0 C15 10.23 15 20.46 15 31 C10.05 31 5.1 31 0 31 C0 20.77 0 10.54 0 0 Z " fill="#FCFCFC" transform="translate(188,313)"/>
<path d="M0 0 C4.95 0 9.9 0 15 0 C15 10.23 15 20.46 15 31 C10.05 31 5.1 31 0 31 C0 20.77 0 10.54 0 0 Z " fill="#010000" transform="translate(110,172)"/>
<path d="M0 0 C4.29 0 8.58 0 13 0 C15 2 15 2 15.22705078 4.88916016 C15.21134033 6.69586182 15.21134033 6.69586182 15.1953125 8.5390625 C15.18886719 9.84101563 15.18242187 11.14296875 15.17578125 12.484375 C15.15906929 13.86458595 15.14213939 15.24479429 15.125 16.625 C15.11497006 18.01301452 15.10584423 19.40103589 15.09765625 20.7890625 C15.07401931 24.19278192 15.03814731 27.59641228 15 31 C10.05 31 5.1 31 0 31 C0 20.77 0 10.54 0 0 Z " fill="#010100" transform="translate(422,172)"/>
<path d="M0 0 C0.33 0 0.66 0 1 0 C1 4.62 1 9.24 1 14 C3.8771875 13.938125 3.8771875 13.938125 6.8125 13.875 C12.625 13.75 12.625 13.75 16 16 C17.43732394 19.99268486 17.14370099 24.187136 17.1328125 28.37890625 C17.13376923 29.1873851 17.13472595 29.99586395 17.13571167 30.82884216 C17.1363909 32.53425169 17.13455456 34.23966383 17.13037109 35.94506836 C17.12501224 38.55653677 17.13032835 41.16783375 17.13671875 43.77929688 C17.13605806 45.43750038 17.13477708 47.09570378 17.1328125 48.75390625 C17.13483673 49.53520401 17.13686096 50.31650177 17.13894653 51.12147522 C17.12499 54.34313795 17.02616997 56.92149008 16 60 C11.40783236 62.81455436 6.19012541 62.18140244 1 62 C1.04640625 62.74765625 1.0928125 63.4953125 1.140625 64.265625 C1.42787682 72.10349618 1.42787682 72.10349618 -0.3125 75.75 C-4.71014684 77.79541714 -9.34668605 77.09218278 -14 76 C-16.13079691 71.73840618 -15.04502317 65.59236298 -15 61 C-10.05 61 -5.1 61 0 61 C0 45.82 0 30.64 0 15 C-4.95 15 -9.9 15 -15 15 C-15 14.67 -15 14.34 -15 14 C-10.05 14 -5.1 14 0 14 C0 9.38 0 4.76 0 0 Z M1 15 C1 30.18 1 45.36 1 61 C8.44496288 61.04640026 8.44496288 61.04640026 15 59 C15.04934399 53.05518819 15.08569282 47.11049491 15.10986328 41.16552734 C15.11993671 39.14206873 15.13359595 37.11862472 15.15087891 35.09521484 C15.17506847 32.19104411 15.18646949 29.28706539 15.1953125 26.3828125 C15.20563507 25.47443634 15.21595764 24.56606018 15.22659302 23.63015747 C15.22674408 22.78943695 15.22689514 21.94871643 15.22705078 21.08251953 C15.231492 20.34083527 15.23593323 19.599151 15.24050903 18.83499146 C15.15684325 16.75069857 15.15684325 16.75069857 13 15 C9.04 15 5.08 15 1 15 Z " fill="#060705" transform="translate(468,220)"/>
<path d="M0 0 C5.28 0 10.56 0 16 0 C16 5.28 16 10.56 16 16 C11.05 16 6.1 16 1 16 C1 20.95 1 25.9 1 31 C5.95 31 10.9 31 16 31 C16 31.33 16 31.66 16 32 C11.05 32 6.1 32 1 32 C1 42.23 1 52.46 1 63 C0.67 63 0.34 63 0 63 C0 52.77 0 42.54 0 32 C-3.63 32 -7.26 32 -11 32 C-8 30 -8 30 -5.4375 29.375 C-2.62057065 28.14837053 -2.62057065 28.14837053 -1.88671875 24.5703125 C-0.76998351 19.57831006 -0.55285277 14.59844594 -0.375 9.5 C-0.31699219 8.12328125 -0.31699219 8.12328125 -0.2578125 6.71875 C-0.16450881 4.47946146 -0.08121266 2.23975964 0 0 Z " fill="#C8D6CB" transform="translate(187,281)"/>
<path d="M0 0 C3.58072917 0.06510417 7.16145833 0.13020833 10.7421875 0.1953125 C10.7421875 5.4753125 10.7421875 10.7553125 10.7421875 16.1953125 C-9.3878125 16.1953125 -29.5178125 16.1953125 -50.2578125 16.1953125 C-50.2578125 15.8653125 -50.2578125 15.5353125 -50.2578125 15.1953125 C-35.4078125 15.1953125 -20.5578125 15.1953125 -5.2578125 15.1953125 C-5.2578125 10.9053125 -5.2578125 6.6153125 -5.2578125 2.1953125 C-3.2578125 0.1953125 -3.2578125 0.1953125 0 0 Z " fill="#2A2825" transform="translate(98.2578125,202.8046875)"/>
<path d="M0 0 C5.28 0 10.56 0 16 0 C16 10.23 16 20.46 16 31 C15.67 31 15.34 31 15 31 C15 26.05 15 21.1 15 16 C10.05 16 5.1 16 0 16 C0 10.72 0 5.44 0 0 Z " fill="#CBD8CD" transform="translate(406,172)"/>
<path d="M0 0 C0.33 0 0.66 0 1 0 C1 4.62 1 9.24 1 14 C5.95 14 10.9 14 16 14 C16 19.28 16 24.56 16 30 C10.72 30 5.44 30 0 30 C0 20.1 0 10.2 0 0 Z " fill="#C0CCC1" transform="translate(109,189)"/>
<path d="M0 0 C0.33 0 0.66 0 1 0 C1 4.62 1 9.24 1 14 C3.31 14 5.62 14 8 14 C11.98066095 15.57724302 13.60667274 16.41000911 16 20 C16.70812814 22.32108669 17.38024152 24.65377147 18 27 C20.97 27.66 23.94 28.32 27 29 C27 29.33 27 29.66 27 30 C18.09 30 9.18 30 0 30 C0 20.1 0 10.2 0 0 Z " fill="#151412" transform="translate(406,142)"/>
<path d="M0 0 C2.19050021 0.09017996 4.378466 0.24666208 6.5625 0.4375 C9.7490625 0.7159375 9.7490625 0.7159375 13 1 C13 5.95 13 10.9 13 16 C5.74 16 -1.52 16 -9 16 C-9 15.34 -9 14.68 -9 14 C-8.55914063 13.56945312 -8.11828125 13.13890625 -7.6640625 12.6953125 C-5.62278428 10.61570041 -4.62323529 8.50165462 -3.375 5.875 C-1.08333333 1.08333333 -1.08333333 1.08333333 0 0 Z " fill="#020202" transform="translate(34,234)"/>
<path d="M0 0 C5.28 0 10.56 0 16 0 C16 5.28 16 10.56 16 16 C10.72 16 5.44 16 0 16 C0 10.72 0 5.44 0 0 Z " fill="#010100" transform="translate(281,359)"/>
<path d="M0 0 C5.28 0 10.56 0 16 0 C16 5.28 16 10.56 16 16 C10.72 16 5.44 16 0 16 C0 10.72 0 5.44 0 0 Z " fill="#0C0C0C" transform="translate(281,250)"/>
<path d="M0 0 C5.28 0 10.56 0 16 0 C16 5.28 16 10.56 16 16 C10.72 16 5.44 16 0 16 C0 10.72 0 5.44 0 0 Z " fill="#0E0E0E" transform="translate(297,234)"/>
<path d="M0 0 C5.28 0 10.56 0 16 0 C16 5.28 16 10.56 16 16 C10.72 16 5.44 16 0 16 C0 10.72 0 5.44 0 0 Z " fill="#0B0B0C" transform="translate(234,234)"/>
<path d="M0 0 C5.28 0 10.56 0 16 0 C16 5.28 16 10.56 16 16 C10.72 16 5.44 16 0 16 C0 10.72 0 5.44 0 0 Z " fill="#0B0C0B" transform="translate(156,187)"/>
<path d="M0 0 C5.28 0 10.56 0 16 0 C16 4.95 16 9.9 16 15 C10.72 15 5.44 15 0 15 C0 10.05 0 5.1 0 0 Z " fill="#CBD8CC" transform="translate(359,266)"/>
<path d="M0 0 C5.28 0 10.56 0 16 0 C16 4.95 16 9.9 16 15 C10.72 15 5.44 15 0 15 C0 10.05 0 5.1 0 0 Z " fill="#CAD8CD" transform="translate(375,172)"/>
<path d="M0 0 C4.95 0 9.9 0 15 0 C15 4.95 15 9.9 15 15 C10.05 15 5.1 15 0 15 C0 10.05 0 5.1 0 0 Z " fill="#030100" transform="translate(250,360)"/>
<path d="M0 0 C4.95 0 9.9 0 15 0 C15 4.95 15 9.9 15 15 C10.05 15 5.1 15 0 15 C0 10.05 0 5.1 0 0 Z " fill="#020202" transform="translate(328,360)"/>
<path d="M0 0 C4.95 0 9.9 0 15 0 C15 4.95 15 9.9 15 15 C10.05 15 5.1 15 0 15 C0 10.05 0 5.1 0 0 Z " fill="#060001" transform="translate(297,344)"/>
<path d="M0 0 C4.95 0 9.9 0 15 0 C15 4.95 15 9.9 15 15 C10.05 15 5.1 15 0 15 C0 10.05 0 5.1 0 0 Z " fill="#040100" transform="translate(235,344)"/>
<path d="M0 0 C4.95 0 9.9 0 15 0 C15 4.95 15 9.9 15 15 C10.05 15 5.1 15 0 15 C0 10.05 0 5.1 0 0 Z " fill="#CCD6CB" transform="translate(375,250)"/>
<path d="M0 0 C4.95 0 9.9 0 15 0 C15 4.95 15 9.9 15 15 C10.05 15 5.1 15 0 15 C0 10.05 0 5.1 0 0 Z " fill="#000000" transform="translate(250,250)"/>
<path d="M0 0 C4.95 0 9.9 0 15 0 C15 4.95 15 9.9 15 15 C10.05 15 5.1 15 0 15 C0 10.05 0 5.1 0 0 Z " fill="#020201" transform="translate(453,219)"/>
<path d="M0 0 C4.95 0 9.9 0 15 0 C15 4.95 15 9.9 15 15 C10.05 15 5.1 15 0 15 C0 10.05 0 5.1 0 0 Z " fill="#C9D7CC" transform="translate(438,219)"/>
<path d="M0 0 C4.95 0 9.9 0 15 0 C15 4.95 15 9.9 15 15 C10.05 15 5.1 15 0 15 C0 10.05 0 5.1 0 0 Z " fill="#C9D7CB" transform="translate(94,219)"/>
<path d="M0 0 C4.95 0 9.9 0 15 0 C15 4.95 15 9.9 15 15 C10.05 15 5.1 15 0 15 C0 10.05 0 5.1 0 0 Z " fill="#000000" transform="translate(375,188)"/>
<path d="M0 0 C4.95 0 9.9 0 15 0 C15 4.95 15 9.9 15 15 C10.05 15 5.1 15 0 15 C0 10.05 0 5.1 0 0 Z " fill="#C9D7CB" transform="translate(141,188)"/>
<path d="M0 0 C4.95 0 9.9 0 15 0 C15 4.95 15 9.9 15 15 C10.05 15 5.1 15 0 15 C0 10.05 0 5.1 0 0 Z " fill="#010100" transform="translate(391,141)"/>
<path d="M0 0 C4.95 0 9.9 0 15 0 C15 4.95 15 9.9 15 15 C10.05 15 5.1 15 0 15 C0 10.05 0 5.1 0 0 Z " fill="#FDFEFD" transform="translate(157,141)"/>
<path d="M0 0 C4.95 0 9.9 0 15 0 C15 4.95 15 9.9 15 15 C10.05 15 5.1 15 0 15 C0 10.05 0 5.1 0 0 Z " fill="#020100" transform="translate(141,141)"/>
<path d="M0 0 C4.95 0 9.9 0 15 0 C15 4.95 15 9.9 15 15 C5.84385763 16.46498278 5.84385763 16.46498278 1.9375 14.3125 C-0.58365462 11.30337997 -1.16124603 9.86328745 -0.82421875 5.96875 C-0.58893619 3.97411575 -0.29793631 1.98624209 0 0 Z " fill="#070706" transform="translate(32,281)"/>
<path d="M0 0 C5.28 0 10.56 0 16 0 C16 0.33 16 0.66 16 1 C11.05 1 6.1 1 1 1 C1 10.57 1 20.14 1 30 C4.3 30.33 7.6 30.66 11 31 C11 31.33 11 31.66 11 32 C7.7 32 4.4 32 1 32 C1 42.23 1 52.46 1 63 C0.67 63 0.34 63 0 63 C0 52.77 0 42.54 0 32 C-4.95 32 -9.9 32 -15 32 C-15 42.23 -15 52.46 -15 63 C-25.23 63 -35.46 63 -46 63 C-46 68.28 -46 73.56 -46 79 C-51.28 79 -56.56 79 -62 79 C-62 78.67 -62 78.34 -62 78 C-57.05 78 -52.1 78 -47 78 C-47 67.77 -47 57.54 -47 47 C-46.67 47 -46.34 47 -46 47 C-46 51.95 -46 56.9 -46 62 C-36.1 62 -26.2 62 -16 62 C-16 51.77 -16 41.54 -16 31 C-10.72 31 -5.44 31 0 31 C0 20.77 0 10.54 0 0 Z " fill="#5E5456" transform="translate(359,281)"/>
<path d="M0 0 C4.95 0 9.9 0 15 0 C15 4.29 15 8.58 15 13 C11.04091662 13.65984723 8.00295662 14.12125692 4.125 14.0625 C2.083125 14.0315625 2.083125 14.0315625 0 14 C0 9.38 0 4.76 0 0 Z " fill="#010101" transform="translate(125,282)"/>
<path d="M0 0 C0.33 0 0.66 0 1 0 C1 4.62 1 9.24 1 14 C3.8771875 13.938125 3.8771875 13.938125 6.8125 13.875 C12.625 13.75 12.625 13.75 16 16 C17.43732394 19.99268486 17.14370099 24.187136 17.1328125 28.37890625 C17.13376923 29.1873851 17.13472595 29.99586395 17.13571167 30.82884216 C17.1363909 32.53425169 17.13455456 34.23966383 17.13037109 35.94506836 C17.12501224 38.55653677 17.13032835 41.16783375 17.13671875 43.77929688 C17.13605806 45.43750038 17.13477708 47.09570378 17.1328125 48.75390625 C17.13483673 49.53520401 17.13686096 50.31650177 17.13894653 51.12147522 C17.12499 54.34313795 17.02616997 56.92149008 16 60 C11.36897625 62.8383694 6.23715454 62.13965745 1 62 C1 65.63 1 69.26 1 73 C0.67 73 0.34 73 0 73 C0 53.86 0 34.72 0 15 C-4.95 15 -9.9 15 -15 15 C-15 14.67 -15 14.34 -15 14 C-10.05 14 -5.1 14 0 14 C0 9.38 0 4.76 0 0 Z M1 15 C1 30.18 1 45.36 1 61 C8.44496288 61.04640026 8.44496288 61.04640026 15 59 C15.04934399 53.05518819 15.08569282 47.11049491 15.10986328 41.16552734 C15.11993671 39.14206873 15.13359595 37.11862472 15.15087891 35.09521484 C15.17506847 32.19104411 15.18646949 29.28706539 15.1953125 26.3828125 C15.20563507 25.47443634 15.21595764 24.56606018 15.22659302 23.63015747 C15.22674408 22.78943695 15.22689514 21.94871643 15.22705078 21.08251953 C15.231492 20.34083527 15.23593323 19.599151 15.24050903 18.83499146 C15.15684325 16.75069857 15.15684325 16.75069857 13 15 C9.04 15 5.08 15 1 15 Z " fill="#66655D" transform="translate(468,220)"/>
<path d="M0 0 C10.56 0 21.12 0 32 0 C32 15.51 32 31.02 32 47 C31.67 47 31.34 47 31 47 C31 31.82 31 16.64 31 1 C21.76 1 12.52 1 3 1 C2.67 15.85 2.34 30.7 2 46 C6.95 46 11.9 46 17 46 C17 46.33 17 46.66 17 47 C11.39 47 5.78 47 0 47 C0 31.49 0 15.98 0 0 Z " fill="#6088AF" transform="translate(187,203)"/>
<path d="M0 0 C0 4.95 0 9.9 0 15 C-4.95 15 -9.9 15 -15 15 C-13.93447307 7.54131151 -13.80731527 6.80731527 -9 2 C-5.62461317 -0.32057845 -4.46397411 0 0 0 Z " fill="#040302" transform="translate(140,156)"/>
<path d="M0 0 C0.33 0 0.66 0 1 0 C1 4.95 1 9.9 1 15 C35.65 15 70.3 15 106 15 C102 17 102 17 99.875 17.75 C97.10521317 19.59652455 96.81519046 21.87510323 96 25 C95.34 25 94.68 25 94 25 C94 22.03 94 19.06 94 16 C62.98 16 31.96 16 0 16 C0 10.72 0 5.44 0 0 Z " fill="#7C847E" transform="translate(281,375)"/>
<path d="M0 0 C10.23 0 20.46 0 31 0 C31 15.51 31 31.02 31 47 C20.77 47 10.54 47 0 47 C0 31.49 0 15.98 0 0 Z M1 1 C1 15.85 1 30.7 1 46 C10.57 46 20.14 46 30 46 C30 31.81 30 17.62 30 3 C25.57854011 1.23141604 23.76339715 0.75654121 19.26171875 0.8046875 C18.29967529 0.80968262 17.33763184 0.81467773 16.34643555 0.81982422 C14.53526245 0.84713623 14.53526245 0.84713623 12.6875 0.875 C6.9021875 0.936875 6.9021875 0.936875 1 1 Z " fill="#4373A0" transform="translate(328,203)"/>
<path d="M0 0 C10.23 0 20.46 0 31 0 C31 5.28 31 10.56 31 16 C20.77 16 10.54 16 0 16 C0 10.72 0 5.44 0 0 Z M1 1 C1 4.96 1 8.92 1 13 C2.07029129 14.29545448 2.07029129 14.29545448 4.59204102 14.11352539 C5.71795654 14.10828857 6.84387207 14.10305176 8.00390625 14.09765625 C9.82631836 14.09282227 9.82631836 14.09282227 11.68554688 14.08789062 C12.96494141 14.07951172 14.24433594 14.07113281 15.5625 14.0625 C17.48739258 14.05573242 17.48739258 14.05573242 19.45117188 14.04882812 C22.6341342 14.03699555 25.81707274 14.01905944 29 14 C29 9.71 29 5.42 29 1 C19.76 1 10.52 1 1 1 Z " fill="#E6748C" transform="translate(344,250)"/>
<path d="M0 0 C10.23 0 20.46 0 31 0 C31 5.28 31 10.56 31 16 C20.77 16 10.54 16 0 16 C0 10.72 0 5.44 0 0 Z M1 1 C1 5.29 1 9.58 1 14 C10.24 14 19.48 14 29 14 C29 9.71 29 5.42 29 1 C19.76 1 10.52 1 1 1 Z " fill="#E7748D" transform="translate(172,250)"/>
<path d="M0 0 C0.33 0 0.66 0 1 0 C2.3197314 8.62901303 1.59879229 16.0181157 1 25 C21.13 25 41.26 25 62 25 C62.33 23.68 62.66 22.36 63 21 C63.495 21.99 63.495 21.99 64 23 C66.80980673 23.69227032 66.80980673 23.69227032 70.0625 24.125 C71.16722656 24.29257813 72.27195312 24.46015625 73.41015625 24.6328125 C74.69212891 24.81457031 74.69212891 24.81457031 76 25 C76 25.33 76 25.66 76 26 C71.71 26 67.42 26 63 26 C63 30.95 63 35.9 63 41 C62.67 41 62.34 41 62 41 C62 36.05 62 31.1 62 26 C41.54 26 21.08 26 0 26 C0 17.42 0 8.84 0 0 Z " fill="#595D57" transform="translate(328,115)"/>
<path d="M0 0 C0.33 0 0.66 0 1 0 C1 4.95 1 9.9 1 15 C5.95 15 10.9 15 16 15 C16 15.33 16 15.66 16 16 C11.05 16 6.1 16 1 16 C1 20.95 1 25.9 1 31 C11.23 31 21.46 31 32 31 C32 36.28 32 41.56 32 47 C31.67 47 31.34 47 31 47 C31 42.05 31 37.1 31 32 C20.77 32 10.54 32 0 32 C0 26.72 0 21.44 0 16 C-10.23 16 -20.46 16 -31 16 C-31 15.67 -31 15.34 -31 15 C-20.77 15 -10.54 15 0 15 C0 10.05 0 5.1 0 0 Z " fill="#754851" transform="translate(234,328)"/>
<path d="M0 0 C0.99 0.495 0.99 0.495 2 1 C-2.28735783 3.85823855 -7.0311969 4.80748725 -12 6 C-12 5.01 -12 4.02 -12 3 C-37.74 3 -63.48 3 -90 3 C-90 5.31 -90 7.62 -90 10 C-90.33 10 -90.66 10 -91 10 C-91 7.69 -91 5.38 -91 3 C-93.64 3 -96.28 3 -99 3 C-99 2.67 -99 2.34 -99 2 C-97.80396652 1.98969254 -96.60793304 1.97938507 -95.37565613 1.96876526 C-84.11868779 1.87112091 -72.86177583 1.76839535 -61.60489941 1.66066074 C-55.81726691 1.60543411 -50.02962936 1.55201444 -44.24194336 1.50268555 C-38.65928494 1.45503828 -33.07668871 1.40269522 -27.49410439 1.34705925 C-25.36141821 1.32663736 -23.22871498 1.30792401 -21.09599876 1.29092598 C-18.11496171 1.26687841 -15.13404244 1.23682415 -12.15307617 1.20532227 C-11.2661911 1.1995668 -10.37930603 1.19381134 -9.46554565 1.18788147 C-8.65366287 1.17809265 -7.84178009 1.16830383 -7.0052948 1.15821838 C-5.94753735 1.14853956 -5.94753735 1.14853956 -4.86841106 1.1386652 C-2.77063342 1.05973697 -2.77063342 1.05973697 0 0 Z " fill="#A7AEA5" transform="translate(137,294)"/>
<path d="M0 0 C0.33 0 0.66 0 1 0 C1 10.23 1 20.46 1 31 C5.95 31 10.9 31 16 31 C16 31.33 16 31.66 16 32 C11.05 32 6.1 32 1 32 C1 42.23 1 52.46 1 63 C0.67 63 0.34 63 0 63 C0 52.77 0 42.54 0 32 C-3.63 32 -7.26 32 -11 32 C-8 30 -8 30 -5.4375 29.375 C-2.62057065 28.14837053 -2.62057065 28.14837053 -1.88671875 24.5703125 C-0.76998351 19.57831006 -0.55285277 14.59844594 -0.375 9.5 C-0.31699219 8.12328125 -0.31699219 8.12328125 -0.2578125 6.71875 C-0.16450436 4.47935472 -0.07871815 2.23994746 0 0 Z " fill="#777673" transform="translate(187,281)"/>
<path d="M0 0 C0.33 0 0.66 0 1 0 C1 8.25 1 16.5 1 25 C-24.41 25 -49.82 25 -76 25 C-76 24.67 -76 24.34 -76 24 C-74.62714844 23.85304687 -74.62714844 23.85304687 -73.2265625 23.703125 C-72.03804687 23.55359375 -70.84953125 23.4040625 -69.625 23.25 C-68.44164062 23.11078125 -67.25828125 22.9715625 -66.0390625 22.828125 C-62.8911392 22.32388702 -62.8911392 22.32388702 -61.5859375 19.921875 C-61.39257812 19.28765625 -61.19921875 18.6534375 -61 18 C-61 19.98 -61 21.96 -61 24 C-40.87 24 -20.74 24 0 24 C0 19.05 0 14.1 0 9 C-1.32 8.67 -2.64 8.34 -4 8 C-3.01 7.67 -2.02 7.34 -1 7 C-0.67 4.69 -0.34 2.38 0 0 Z " fill="#595E57" transform="translate(218,116)"/>
<path d="M0 0 C0.33 0 0.66 0 1 0 C1 25.74 1 51.48 1 78 C3.31 78 5.62 78 8 78 C8 78.33 8 78.66 8 79 C6.02 79 4.04 79 2 79 C1.67 82.63 1.34 86.26 1 90 C0.67 90 0.34 90 0 90 C0 86.37 0 82.74 0 79 C-4.95 79 -9.9 79 -15 79 C-15 78.67 -15 78.34 -15 78 C-10.05 78 -5.1 78 0 78 C0 52.26 0 26.52 0 0 Z " fill="#7A7E77" transform="translate(140,203)"/>
<path d="M0 0 C5.28 0 10.56 0 16 0 C16 0.33 16 0.66 16 1 C11.05 1 6.1 1 1 1 C1 10.57 1 20.14 1 30 C4.3 30.33 7.6 30.66 11 31 C11 31.33 11 31.66 11 32 C7.7 32 4.4 32 1 32 C1 42.23 1 52.46 1 63 C0.67 63 0.34 63 0 63 C0 52.77 0 42.54 0 32 C-4.95 32 -9.9 32 -15 32 C-15 31.67 -15 31.34 -15 31 C-10.05 31 -5.1 31 0 31 C0 20.77 0 10.54 0 0 Z " fill="#656661" transform="translate(359,281)"/>
<path d="M0 0 C0.495 0.99 0.495 0.99 1 2 C4.3 2 7.6 2 11 2 C11 2.33 11 2.66 11 3 C7.7 3 4.4 3 1 3 C1 6.63 1 10.26 1 14 C0.67 14 0.34 14 0 14 C0 10.37 0 6.74 0 3 C-20.46 3 -40.92 3 -62 3 C-62 2.67 -62 2.34 -62 2 C-41.54 2 -21.08 2 0 2 C0 1.34 0 0.68 0 0 Z " fill="#A0A59C" transform="translate(453,294)"/>
<path d="M0 0 C5.28 0 10.56 0 16 0 C16 5.28 16 10.56 16 16 C15.67 16 15.34 16 15 16 C15 11.38 15 6.76 15 2 C10.71 2 6.42 2 2 2 C2 6.29 2 10.58 2 15 C1.01 15.495 1.01 15.495 0 16 C0 10.72 0 5.44 0 0 Z " fill="#360F15" transform="translate(281,359)"/>
<path d="M0 0 C0.639375 0.474375 1.27875 0.94875 1.9375 1.4375 C5.92181519 3.47031387 9.58494074 3.7210529 14 4 C14 4.33 14 4.66 14 5 C9.71 5 5.42 5 1 5 C1 9.95 1 14.9 1 20 C0.67 20 0.34 20 0 20 C0 15.05 0 10.1 0 5 C-3.96 5 -7.92 5 -12 5 C-12 4.67 -12 4.34 -12 4 C-8.04 4 -4.08 4 0 4 C0 2.68 0 1.36 0 0 Z " fill="#8B8984" transform="translate(390,136)"/>
<path d="M0 0 C0.33 0 0.66 0 1 0 C1 1.98 1 3.96 1 6 C5.95 6 10.9 6 16 6 C16 6.33 16 6.66 16 7 C6.1 7 -3.8 7 -14 7 C-14 6.67 -14 6.34 -14 6 C-9.71 5.34 -5.42 4.68 -1 4 C-0.67 2.68 -0.34 1.36 0 0 Z " fill="#817D77" transform="translate(156,134)"/>
<path d="M0 0 C2.64 0 5.28 0 8 0 C7.01 1.485 7.01 1.485 6 3 C5.34 3 4.68 3 4 3 C3.34 4.98 2.68 6.96 2 9 C1.34 9 0.68 9 0 9 C0 6.03 0 3.06 0 0 Z " fill="#F1EAD6" transform="translate(375,391)"/>
<path d="M0 0 C0 0.33 0 0.66 0 1 C-10.23 1 -20.46 1 -31 1 C-31 0.67 -31 0.34 -31 0 C-30.31897217 -0.02505615 -29.63794434 -0.0501123 -28.9362793 -0.07592773 C-25.85316245 -0.19190952 -22.77034954 -0.31462616 -19.6875 -0.4375 C-18.61564453 -0.47681641 -17.54378906 -0.51613281 -16.43945312 -0.55664062 C-15.41142578 -0.59853516 -14.38339844 -0.64042969 -13.32421875 -0.68359375 C-12.37635498 -0.72025146 -11.42849121 -0.75690918 -10.4519043 -0.79467773 C-3.07422912 -1.41248365 -3.07422912 -1.41248365 0 0 Z " fill="#EBFEFF" transform="translate(359,202)"/>
<path d="M0 0 C0.33 0 0.66 0 1 0 C1 3.63 1 7.26 1 11 C-1.64 11 -4.28 11 -7 11 C-5.625 9.5 -5.625 9.5 -4 8 C-3.34 8 -2.68 8 -2 8 C-1.34 5.36 -0.68 2.72 0 0 Z " fill="#F4EEDF" transform="translate(186,301)"/>
<path d="M0 0 C-4.28735783 2.85823855 -9.0311969 3.80748725 -14 5 C-14 3.68 -14 2.36 -14 1 C-12.04310963 0.63794536 -10.08442332 0.28558579 -8.125 -0.0625 C-7.03445312 -0.25972656 -5.94390625 -0.45695312 -4.8203125 -0.66015625 C-2 -1 -2 -1 0 0 Z " fill="#6D6860" transform="translate(139,295)"/>
<path d="M0 0 C0.33 0 0.66 0 1 0 C1 2.64 1 5.28 1 8 C-0.98 8 -2.96 8 -5 8 C-5 6 -5 6 -3.625 4.5625 C-3.08875 4.046875 -2.5525 3.53125 -2 3 C-1.34 2.01 -0.68 1.02 0 0 Z " fill="#F7EFE1" transform="translate(30,242)"/>
<path d="M0 0 C0.99 0.66 1.98 1.32 3 2 C2.0409375 2.680625 2.0409375 2.680625 1.0625 3.375 C-1.98225157 7.25013836 -1.81649865 11.1922647 -2 16 C-2.33 16 -2.66 16 -3 16 C-3.08133791 14.08404032 -3.13934367 12.16708068 -3.1875 10.25 C-3.22230469 9.18265625 -3.25710937 8.1153125 -3.29296875 7.015625 C-2.97082786 3.69972145 -2.22851086 2.40983327 0 0 Z " fill="#29221B" transform="translate(34,234)"/>
<path d="M0 0 C0.515625 0.309375 1.03125 0.61875 1.5625 0.9375 C4.66665423 2.29059287 7.65115007 2.61359424 11 3 C11 3.33 11 3.66 11 4 C7.37 4 3.74 4 0 4 C0 2.68 0 1.36 0 0 Z " fill="#D5C9BD" transform="translate(422,168)"/>
<path d="" fill="#FFFFFF" transform="translate(0,0)"/>
<path d="" fill="#FFFFFF" transform="translate(0,0)"/>
<path d="" fill="#FFFFFF" transform="translate(0,0)"/>
<path d="" fill="#FFFFFF" transform="translate(0,0)"/>
<path d="" fill="#FFFFFF" transform="translate(0,0)"/>
<path d="" fill="#FFFFFF" transform="translate(0,0)"/>
<path d="" fill="#FFFFFF" transform="translate(0,0)"/>
<path d="" fill="#FFFFFF" transform="translate(0,0)"/>
<path d="" fill="#FFFFFF" transform="translate(0,0)"/>
<path d="" fill="#FFFFFF" transform="translate(0,0)"/>
<path d="" fill="#FFFFFF" transform="translate(0,0)"/>
<path d="" fill="#FFFFFF" transform="translate(0,0)"/>
<path d="" fill="#FFFFFF" transform="translate(0,0)"/>
<path d="" fill="#FFFFFF" transform="translate(0,0)"/>
<path d="" fill="#FFFFFF" transform="translate(0,0)"/>
<path d="" fill="#FFFFFF" transform="translate(0,0)"/>
<path d="" fill="#FFFFFF" transform="translate(0,0)"/>
<path d="" fill="#FFFFFF" transform="translate(0,0)"/>
<path d="" fill="#FFFFFF" transform="translate(0,0)"/>
<path d="" fill="#FFFFFF" transform="translate(0,0)"/>
<path d="" fill="#FFFFFF" transform="translate(0,0)"/>
<path d="" fill="#FFFFFF" transform="translate(0,0)"/>
<path d="" fill="#FFFFFF" transform="translate(0,0)"/>
<path d="" fill="#FFFFFF" transform="translate(0,0)"/>
<path d="" fill="#FFFFFF" transform="translate(0,0)"/>
<path d="" fill="#FFFFFF" transform="translate(0,0)"/>
<path d="" fill="#FFFFFF" transform="translate(0,0)"/>
<path d="" fill="#FFFFFF" transform="translate(0,0)"/>
<path d="" fill="#FFFFFF" transform="translate(0,0)"/>
<path d="" fill="#FFFFFF" transform="translate(0,0)"/>
<path d="" fill="#FFFFFF" transform="translate(0,0)"/>
<path d="" fill="#FFFFFF" transform="translate(0,0)"/>
<path d="" fill="#FFFFFF" transform="translate(0,0)"/>
<path d="" fill="#FFFFFF" transform="translate(0,0)"/>
<path d="" fill="#FFFFFF" transform="translate(0,0)"/>
<path d="" fill="#FFFFFF" transform="translate(0,0)"/>
<path d="" fill="#FFFFFF" transform="translate(0,0)"/>
<path d="" fill="#FFFFFF" transform="translate(0,0)"/>
<path d="" fill="#FFFFFF" transform="translate(0,0)"/>
<path d="" fill="#FFFFFF" transform="translate(0,0)"/>
<path d="" fill="#FFFFFF" transform="translate(0,0)"/>
<path d="" fill="#FFFFFF" transform="translate(0,0)"/>
<path d="" fill="#FFFFFF" transform="translate(0,0)"/>
<path d="" fill="#FFFFFF" transform="translate(0,0)"/>
<path d="" fill="#FFFFFF" transform="translate(0,0)"/>
<path d="" fill="#FFFFFF" transform="translate(0,0)"/>
<path d="" fill="#FFFFFF" transform="translate(0,0)"/>
<path d="" fill="#FFFFFF" transform="translate(0,0)"/>
<path d="" fill="#FFFFFF" transform="translate(0,0)"/>
<path d="" fill="#FFFFFF" transform="translate(0,0)"/>
<path d="" fill="#FFFFFF" transform="translate(0,0)"/>
<path d="" fill="#FFFFFF" transform="translate(0,0)"/>
<path d="" fill="#FFFFFF" transform="translate(0,0)"/>
<path d="" fill="#FFFFFF" transform="translate(0,0)"/>
<path d="" fill="#FFFFFF" transform="translate(0,0)"/>
<path d="" fill="#FFFFFF" transform="translate(0,0)"/>
<path d="" fill="#FFFFFF" transform="translate(0,0)"/>
<path d="" fill="#FFFFFF" transform="translate(0,0)"/>
<path d="" fill="#FFFFFF" transform="translate(0,0)"/>
<path d="" fill="#FFFFFF" transform="translate(0,0)"/>
</svg>
