<?xml version="1.0" encoding="UTF-8"?>
<svg version="1.1" xmlns="http://www.w3.org/2000/svg" width="500" height="500">
<path d="M0 0 C13.53 0 27.06 0 41 0 C41.33 1.65 41.66 3.3 42 5 C46.29 5.33 50.58 5.66 55 6 C55 7.98 55 9.96 55 12 C55.77085937 11.98839844 56.54171875 11.97679687 57.3359375 11.96484375 C58.33882812 11.95582031 59.34171875 11.94679687 60.375 11.9375 C61.37273437 11.92589844 62.37046875 11.91429687 63.3984375 11.90234375 C66 12 66 12 68 13 C68 14.98 68 16.96 68 19 C69.65 19 71.3 19 73 19 C73.99 21.97 73.99 21.97 75 25 C76.98 25.33 78.96 25.66 81 26 C81 27.98 81 29.96 81 32 C82.98 32 84.96 32 87 32 C88.05619003 36.28297531 88.11702092 40.42985646 88.0625 44.8125 C88.05798828 45.50537109 88.05347656 46.19824219 88.04882812 46.91210938 C88.03713156 48.60811068 88.01919924 50.30406703 88 52 C89.98 52.33 91.96 52.66 94 53 C94 56.96 94 60.92 94 65 C95.86527344 64.98839844 97.73054688 64.97679687 99.65234375 64.96484375 C102.08072817 64.95546775 104.50911367 64.94636735 106.9375 64.9375 C108.78504883 64.92493164 108.78504883 64.92493164 110.66992188 64.91210938 C111.83974609 64.90888672 113.00957031 64.90566406 114.21484375 64.90234375 C115.84087524 64.89448853 115.84087524 64.89448853 117.49975586 64.88647461 C120 65 120 65 121 66 C121.04080783 67.99958364 121.04254356 70.00045254 121 72 C121.85464844 71.98839844 122.70929688 71.97679687 123.58984375 71.96484375 C125.24693359 71.95130859 125.24693359 71.95130859 126.9375 71.9375 C128.03964844 71.92589844 129.14179688 71.91429687 130.27734375 71.90234375 C133 72 133 72 134 73 C134.04063832 74.66617115 134.042721 76.33388095 134 78 C135.98 78 137.96 78 140 78 C140.33 79.98 140.66 81.96 141 84 C142.65 84.33 144.3 84.66 146 85 C146.33 86.98 146.66 88.96 147 91 C147.78375 90.938125 148.5675 90.87625 149.375 90.8125 C150.24125 90.874375 151.1075 90.93625 152 91 C154.30143236 94.45214853 154.13833854 95.23479324 153.625 99.1875 C153.51414062 100.08855469 153.40328125 100.98960937 153.2890625 101.91796875 C153.19367188 102.60503906 153.09828125 103.29210937 153 104 C153.78375 103.95875 154.5675 103.9175 155.375 103.875 C158 104 158 104 160 106 C160.18768653 108.9292303 160.25553641 111.76228397 160.23046875 114.69140625 C160.23001053 115.55185043 160.22955231 116.41229462 160.2290802 117.29881287 C160.22605705 119.11873757 160.21816888 120.93865967 160.20581055 122.75854492 C160.18755148 125.55461724 160.18530085 128.35035866 160.18554688 131.14648438 C160.1806319 132.91146122 160.17480367 134.6764358 160.16796875 136.44140625 C160.16685593 137.28304825 160.1657431 138.12469025 160.16459656 138.99183655 C160.11604705 144.88395295 160.11604705 144.88395295 159 146 C157.35 146 155.7 146 154 146 C153.67 150.29 153.34 154.58 153 159 C151.02 159.33 149.04 159.66 147 160 C147 161.65 147 163.3 147 165 C146.05125 165.20625 145.1025 165.4125 144.125 165.625 C140.70833333 166.70833333 140.70833333 166.70833333 139.625 170.125 C139.41875 171.07375 139.2125 172.0225 139 173 C137.35 173 135.7 173 134 173 C133.855625 173.804375 133.71125 174.60875 133.5625 175.4375 C133 178 133 178 132 179 C130.14712498 179.07226502 128.29166122 179.0838122 126.4375 179.0625 C125.42558594 179.05347656 124.41367187 179.04445313 123.37109375 179.03515625 C122.19740234 179.01775391 122.19740234 179.01775391 121 179 C121.0928125 180.175625 121.0928125 180.175625 121.1875 181.375 C121.125625 182.24125 121.06375 183.1075 121 184 C117.43581471 186.37612352 115.877775 186.24563712 111.65234375 186.23046875 C110.40775391 186.22853516 109.16316406 186.22660156 107.88085938 186.22460938 C106.57955078 186.21236328 105.27824219 186.20011719 103.9375 186.1875 C102.63232422 186.18685547 101.32714844 186.18621094 99.98242188 186.18554688 C90.28056319 186.14028159 90.28056319 186.14028159 88 185 C87.67 187.31 87.34 189.62 87 192 C85.35 192.33 83.7 192.66 82 193 C81.34 194.98 80.68 196.96 80 199 C78.35 199 76.7 199 75 199 C74.855625 199.969375 74.71125 200.93875 74.5625 201.9375 C74 205 74 205 73 206 C71.14712498 206.07226502 69.29166122 206.0838122 67.4375 206.0625 C66.42558594 206.05347656 65.41367187 206.04445313 64.37109375 206.03515625 C63.19740234 206.01775391 63.19740234 206.01775391 62 206 C61.855625 206.804375 61.71125 207.60875 61.5625 208.4375 C61 211 61 211 60 212 C57.64771681 212.11317284 55.32588052 212.16416537 52.97265625 212.16796875 C52.26854111 212.17129715 51.56442596 212.17462555 50.838974 212.17805481 C49.34683894 212.18312655 47.8546925 212.18546306 46.36254883 212.18530273 C44.07549393 212.18748759 41.78892247 212.20563549 39.50195312 212.22460938 C38.05468916 212.22754354 36.60742289 212.22952818 35.16015625 212.23046875 C34.47365494 212.23765427 33.78715363 212.24483978 33.07984924 212.25224304 C28.22882369 212.22882369 28.22882369 212.22882369 26 210 C26 208.68 26 207.36 26 206 C25.14535156 206.01160156 24.29070312 206.02320313 23.41015625 206.03515625 C22.30542969 206.04417969 21.20070313 206.05320312 20.0625 206.0625 C18.96035156 206.07410156 17.85820312 206.08570313 16.72265625 206.09765625 C14 206 14 206 13 205 C12.95919217 203.00041636 12.95745644 200.99954746 13 199 C12.21625 199.04125 11.4325 199.0825 10.625 199.125 C8 199 8 199 6 197 C6 195.68 6 194.36 6 193 C5.195625 192.855625 4.39125 192.71125 3.5625 192.5625 C1 192 1 192 0 191 C-0.07244053 188.98035801 -0.08377188 186.95832876 -0.0625 184.9375 C-0.05347656 183.83277344 -0.04445313 182.72804688 -0.03515625 181.58984375 C-0.01775391 180.30787109 -0.01775391 180.30787109 0 179 C-1.32 179.33 -2.64 179.66 -4 180 C-4.185625 181.2065625 -4.185625 181.2065625 -4.375 182.4375 C-4.58125 183.283125 -4.7875 184.12875 -5 185 C-8.9886832 186.9943416 -14.05234082 186.18485036 -18.4375 186.1875 C-19.50033203 186.19974609 -20.56316406 186.21199219 -21.65820312 186.22460938 C-22.67720703 186.22654297 -23.69621094 186.22847656 -24.74609375 186.23046875 C-26.14879517 186.23663208 -26.14879517 186.23663208 -27.57983398 186.24291992 C-30 186 -30 186 -33 184 C-33.6875 181.875 -33.6875 181.875 -34 180 C-34.99 180 -35.98 180 -37 180 C-37.33 181.98 -37.66 183.96 -38 186 C-39.98 186 -41.96 186 -44 186 C-44 187.65 -44 189.3 -44 191 C-44.94875 191.391875 -45.8975 191.78375 -46.875 192.1875 C-50.34127338 194.19793856 -50.9802693 195.22699642 -52 199 C-53.65 199 -55.3 199 -57 199 C-56.95875 199.78375 -56.9175 200.5675 -56.875 201.375 C-57 204 -57 204 -59 206 C-62.04101563 206.24291992 -62.04101563 206.24291992 -65.90625 206.23046875 C-66.58675415 206.23001053 -67.2672583 206.22955231 -67.96838379 206.2290802 C-69.40748843 206.22605852 -70.84658983 206.21817466 -72.28564453 206.20581055 C-74.49132851 206.1875717 -76.69659229 206.18530075 -78.90234375 206.18554688 C-89.70492626 206.14753687 -89.70492626 206.14753687 -92 205 C-92 203.02 -92 201.04 -92 199 C-92.78375 199.04125 -93.5675 199.0825 -94.375 199.125 C-97 199 -97 199 -99 197 C-99.103125 196.34 -99.20625 195.68 -99.3125 195 C-99.539375 194.34 -99.76625 193.68 -100 193 C-100.825 192.690625 -101.65 192.38125 -102.5 192.0625 C-103.325 191.711875 -104.15 191.36125 -105 191 C-105.8125 188.375 -105.8125 188.375 -106 186 C-106.78375 185.938125 -107.5675 185.87625 -108.375 185.8125 C-109.674375 185.4103125 -109.674375 185.4103125 -111 185 C-112.1640625 182.44921875 -112.1640625 182.44921875 -113 180 C-114.60101563 180.01740234 -114.60101563 180.01740234 -116.234375 180.03515625 C-127.85500181 180.11949738 -139.40037189 179.67805759 -151 179 C-151.33 177.02 -151.66 175.04 -152 173 C-153.65 172.67 -155.3 172.34 -157 172 C-157.33 170.02 -157.66 168.04 -158 166 C-158.78375 166.04125 -159.5675 166.0825 -160.375 166.125 C-163 166 -163 166 -165 164 C-165.625 161.875 -165.625 161.875 -166 160 C-167.65 159.67 -169.3 159.34 -171 159 C-171.495 153.06 -171.495 153.06 -172 147 C-173.65 146.67 -175.3 146.34 -177 146 C-179.20697322 141.58605356 -178.30949289 135.67313573 -178.35009766 130.76928711 C-178.36668083 129.29972524 -178.39400274 127.8302448 -178.43212891 126.36108398 C-178.48683448 124.24159982 -178.50875469 122.1240007 -178.5234375 120.00390625 C-178.54325684 118.73361572 -178.56307617 117.4633252 -178.58349609 116.15454102 C-178 113 -178 113 -175.59228516 111.06225586 C-173 110 -173 110 -171 110 C-171.01160156 109.21753906 -171.02320313 108.43507813 -171.03515625 107.62890625 C-171.04417969 106.61699219 -171.05320312 105.60507813 -171.0625 104.5625 C-171.07410156 103.55316406 -171.08570313 102.54382813 -171.09765625 101.50390625 C-171 99 -171 99 -170 98 C-168.33382885 97.95936168 -166.66611905 97.957279 -165 98 C-164.67 96.35 -164.34 94.7 -164 93 C-161.03 92.01 -161.03 92.01 -158 91 C-158.020625 90.195625 -158.04125 89.39125 -158.0625 88.5625 C-158 86 -158 86 -157 85 C-155.00041636 84.95919217 -152.99954746 84.95745644 -151 85 C-151 83.02 -151 81.04 -151 79 C-150.21625 78.773125 -149.4325 78.54625 -148.625 78.3125 C-145.37888902 77.05276848 -145.37888902 77.05276848 -144 72 C-138.06 71.505 -138.06 71.505 -132 71 C-131.67 69.35 -131.34 67.7 -131 66 C-130 65 -130 65 -127.4375 64.9375 C-126.633125 64.958125 -125.82875 64.97875 -125 65 C-125.020625 64.195625 -125.04125 63.39125 -125.0625 62.5625 C-125 60 -125 60 -124 59 C-121.98035801 58.92755947 -119.95832876 58.91622812 -117.9375 58.9375 C-116.28041016 58.95103516 -116.28041016 58.95103516 -114.58984375 58.96484375 C-113.73519531 58.97644531 -112.88054687 58.98804688 -112 59 C-112.020625 58.030625 -112.04125 57.06125 -112.0625 56.0625 C-112 53 -112 53 -111 52 C-109.33382885 51.95936168 -107.66611905 51.957279 -106 52 C-105.67 50.02 -105.34 48.04 -105 46 C-103.02 45.67 -101.04 45.34 -99 45 C-99.020625 44.195625 -99.04125 43.39125 -99.0625 42.5625 C-99 40 -99 40 -98 39 C-95.98035801 38.92755947 -93.95832876 38.91622812 -91.9375 38.9375 C-90.83277344 38.94652344 -89.72804688 38.95554688 -88.58984375 38.96484375 C-87.73519531 38.97644531 -86.88054687 38.98804688 -86 39 C-85.855625 38.030625 -85.71125 37.06125 -85.5625 36.0625 C-85 33 -85 33 -84 32 C-81.12735944 31.89893126 -78.27926372 31.86030328 -75.40625 31.8671875 C-74.54439087 31.86623077 -73.68253174 31.86527405 -72.79455566 31.86428833 C-70.96866788 31.8636065 -69.14277769 31.86546096 -67.31689453 31.86962891 C-64.51198922 31.87497714 -61.70724405 31.86968401 -58.90234375 31.86328125 C-57.13281214 31.86394203 -55.36328064 31.86522319 -53.59375 31.8671875 C-52.74897095 31.86516327 -51.90419189 31.86313904 -51.03381348 31.86105347 C-45.11495031 31.88504969 -45.11495031 31.88504969 -44 33 C-43.95919217 34.99958364 -43.95745644 37.00045254 -44 39 C-42.68 39 -41.36 39 -40 39 C-40.02320313 38.15695313 -40.04640625 37.31390625 -40.0703125 36.4453125 C-40.08835938 35.34960938 -40.10640625 34.25390625 -40.125 33.125 C-40.14820313 32.03445312 -40.17140625 30.94390625 -40.1953125 29.8203125 C-40 27 -40 27 -38 25 C-35.375 24.875 -35.375 24.875 -33 25 C-33.0309375 23.7934375 -33.0309375 23.7934375 -33.0625 22.5625 C-33 20 -33 20 -32 19 C-30.33382885 18.95936168 -28.66611905 18.957279 -27 19 C-26.855625 18.030625 -26.71125 17.06125 -26.5625 16.0625 C-26 13 -26 13 -25 12 C-22.98035801 11.92755947 -20.95832876 11.91622812 -18.9375 11.9375 C-17.83277344 11.94652344 -16.72804687 11.95554688 -15.58984375 11.96484375 C-14.73519531 11.97644531 -13.88054687 11.98804688 -13 12 C-13 10.02 -13 8.04 -13 6 C-9.04 5.67 -5.08 5.34 -1 5 C-0.67 3.35 -0.34 1.7 0 0 Z " fill="#FDFDFD" transform="translate(265,142)"/>
<path d="M0 0 C13.53 0 27.06 0 41 0 C41.33 1.65 41.66 3.3 42 5 C46.29 5.33 50.58 5.66 55 6 C55 7.98 55 9.96 55 12 C55.77085937 11.98839844 56.54171875 11.97679687 57.3359375 11.96484375 C58.33882812 11.95582031 59.34171875 11.94679687 60.375 11.9375 C61.37273437 11.92589844 62.37046875 11.91429687 63.3984375 11.90234375 C66 12 66 12 68 13 C68 14.98 68 16.96 68 19 C69.65 19 71.3 19 73 19 C73.99 21.97 73.99 21.97 75 25 C76.98 25.33 78.96 25.66 81 26 C81 27.98 81 29.96 81 32 C82.98 32 84.96 32 87 32 C88.39151652 36.79300133 87.68662689 41.15135782 87 46 C84.69 46 82.38 46 80 46 C80 41.71 80 37.42 80 33 C77.69 33 75.38 33 73 33 C73 31.02 73 29.04 73 27 C71.02 27 69.04 27 67 27 C67 24.69 67 22.38 67 20 C62.38 20 57.76 20 53 20 C53 18.02 53 16.04 53 14 C48.71 14 44.42 14 40 14 C40 11.69 40 9.38 40 7 C27.13 7 14.26 7 1 7 C1 9.31 1 11.62 1 14 C-3.29 14 -7.58 14 -12 14 C-12 15.98 -12 17.96 -12 20 C-16.29 20 -20.58 20 -25 20 C-25 22.31 -25 24.62 -25 27 C-27.31 27 -29.62 27 -32 27 C-32 29.31 -32 31.62 -32 34 C-33.98 34 -35.96 34 -38 34 C-37.98839844 34.86882812 -37.97679687 35.73765625 -37.96484375 36.6328125 C-37.95582031 37.78523438 -37.94679687 38.93765625 -37.9375 40.125 C-37.92589844 41.26195312 -37.91429687 42.39890625 -37.90234375 43.5703125 C-37.994673 46.8129156 -38.38610094 49.81932612 -39 53 C-40.98 53 -42.96 53 -45 53 C-45 51.02 -45 49.04 -45 47 C-51.6 47 -58.2 47 -65 47 C-65 48.98 -65 50.96 -65 53 C-66.98 53 -68.96 53 -71 53 C-71 55.31 -71 57.62 -71 60 C-73.31 60 -75.62 60 -78 60 C-78 66.6 -78 73.2 -78 80 C-80.31 80 -82.62 80 -85 80 C-85 77.69 -85 75.38 -85 73 C-89.29 73 -93.58 73 -98 73 C-98 70.69 -98 68.38 -98 66 C-106.58 66 -115.16 66 -124 66 C-124 68.31 -124 70.62 -124 73 C-128.29 73 -132.58 73 -137 73 C-137 75.31 -137 77.62 -137 80 C-139.31 80 -141.62 80 -144 80 C-144 84.29 -144 88.58 -144 93 C-148.29 93 -152.58 93 -157 93 C-157 94.98 -157 96.96 -157 99 C-159.31 99 -161.62 99 -164 99 C-164 103.62 -164 108.24 -164 113 C-165.98 113 -167.96 113 -170 113 C-170 123.56 -170 134.12 -170 145 C-167.69 145 -165.38 145 -163 145 C-163 149.29 -163 153.58 -163 158 C-161.02 158 -159.04 158 -157 158 C-157 160.31 -157 162.62 -157 165 C-155.02 165 -153.04 165 -151 165 C-151 167.31 -151 169.62 -151 172 C-135.49 172 -119.98 172 -104 172 C-104 169.69 -104 167.38 -104 165 C-102.02 165 -100.04 165 -98 165 C-98 163.02 -98 161.04 -98 159 C-95.69 159 -93.38 159 -91 159 C-91 156.69 -91 154.38 -91 152 C-88.69 152 -86.38 152 -84 152 C-84 150.02 -84 148.04 -84 146 C-82.02 146 -80.04 146 -78 146 C-78 147.98 -78 149.96 -78 152 C-76.02 152 -74.04 152 -72 152 C-72 156.29 -72 160.58 -72 165 C-69.69 165 -67.38 165 -65 165 C-65 167.31 -65 169.62 -65 172 C-60.71 172 -56.42 172 -52 172 C-52 173.98 -52 175.96 -52 178 C-47.38 178 -42.76 178 -38 178 C-38 180.64 -38 183.28 -38 186 C-39.98 186 -41.96 186 -44 186 C-44 187.65 -44 189.3 -44 191 C-44.94875 191.391875 -45.8975 191.78375 -46.875 192.1875 C-50.34127338 194.19793856 -50.9802693 195.22699642 -52 199 C-53.65 199 -55.3 199 -57 199 C-56.95875 199.78375 -56.9175 200.5675 -56.875 201.375 C-57 204 -57 204 -59 206 C-62.04101563 206.24291992 -62.04101563 206.24291992 -65.90625 206.23046875 C-66.58675415 206.23001053 -67.2672583 206.22955231 -67.96838379 206.2290802 C-69.40748843 206.22605852 -70.84658983 206.21817466 -72.28564453 206.20581055 C-74.49132851 206.1875717 -76.69659229 206.18530075 -78.90234375 206.18554688 C-89.70492626 206.14753687 -89.70492626 206.14753687 -92 205 C-92 203.02 -92 201.04 -92 199 C-92.78375 199.04125 -93.5675 199.0825 -94.375 199.125 C-97 199 -97 199 -99 197 C-99.103125 196.34 -99.20625 195.68 -99.3125 195 C-99.539375 194.34 -99.76625 193.68 -100 193 C-100.825 192.690625 -101.65 192.38125 -102.5 192.0625 C-103.325 191.711875 -104.15 191.36125 -105 191 C-105.8125 188.375 -105.8125 188.375 -106 186 C-106.78375 185.938125 -107.5675 185.87625 -108.375 185.8125 C-109.674375 185.4103125 -109.674375 185.4103125 -111 185 C-112.1640625 182.44921875 -112.1640625 182.44921875 -113 180 C-114.60101563 180.01740234 -114.60101563 180.01740234 -116.234375 180.03515625 C-127.85500181 180.11949738 -139.40037189 179.67805759 -151 179 C-151.33 177.02 -151.66 175.04 -152 173 C-153.65 172.67 -155.3 172.34 -157 172 C-157.33 170.02 -157.66 168.04 -158 166 C-158.78375 166.04125 -159.5675 166.0825 -160.375 166.125 C-163 166 -163 166 -165 164 C-165.625 161.875 -165.625 161.875 -166 160 C-167.65 159.67 -169.3 159.34 -171 159 C-171.495 153.06 -171.495 153.06 -172 147 C-173.65 146.67 -175.3 146.34 -177 146 C-179.20697322 141.58605356 -178.30949289 135.67313573 -178.35009766 130.76928711 C-178.36668083 129.29972524 -178.39400274 127.8302448 -178.43212891 126.36108398 C-178.48683448 124.24159982 -178.50875469 122.1240007 -178.5234375 120.00390625 C-178.54325684 118.73361572 -178.56307617 117.4633252 -178.58349609 116.15454102 C-178 113 -178 113 -175.59228516 111.06225586 C-173 110 -173 110 -171 110 C-171.01160156 109.21753906 -171.02320313 108.43507813 -171.03515625 107.62890625 C-171.04417969 106.61699219 -171.05320312 105.60507813 -171.0625 104.5625 C-171.07410156 103.55316406 -171.08570313 102.54382813 -171.09765625 101.50390625 C-171 99 -171 99 -170 98 C-168.33382885 97.95936168 -166.66611905 97.957279 -165 98 C-164.67 96.35 -164.34 94.7 -164 93 C-161.03 92.01 -161.03 92.01 -158 91 C-158.020625 90.195625 -158.04125 89.39125 -158.0625 88.5625 C-158 86 -158 86 -157 85 C-155.00041636 84.95919217 -152.99954746 84.95745644 -151 85 C-151 83.02 -151 81.04 -151 79 C-150.21625 78.773125 -149.4325 78.54625 -148.625 78.3125 C-145.37888902 77.05276848 -145.37888902 77.05276848 -144 72 C-138.06 71.505 -138.06 71.505 -132 71 C-131.67 69.35 -131.34 67.7 -131 66 C-130 65 -130 65 -127.4375 64.9375 C-126.633125 64.958125 -125.82875 64.97875 -125 65 C-125.020625 64.195625 -125.04125 63.39125 -125.0625 62.5625 C-125 60 -125 60 -124 59 C-121.98035801 58.92755947 -119.95832876 58.91622812 -117.9375 58.9375 C-116.28041016 58.95103516 -116.28041016 58.95103516 -114.58984375 58.96484375 C-113.73519531 58.97644531 -112.88054687 58.98804688 -112 59 C-112.020625 58.030625 -112.04125 57.06125 -112.0625 56.0625 C-112 53 -112 53 -111 52 C-109.33382885 51.95936168 -107.66611905 51.957279 -106 52 C-105.67 50.02 -105.34 48.04 -105 46 C-103.02 45.67 -101.04 45.34 -99 45 C-99.020625 44.195625 -99.04125 43.39125 -99.0625 42.5625 C-99 40 -99 40 -98 39 C-95.98035801 38.92755947 -93.95832876 38.91622812 -91.9375 38.9375 C-90.83277344 38.94652344 -89.72804688 38.95554688 -88.58984375 38.96484375 C-87.73519531 38.97644531 -86.88054687 38.98804688 -86 39 C-85.855625 38.030625 -85.71125 37.06125 -85.5625 36.0625 C-85 33 -85 33 -84 32 C-81.12735944 31.89893126 -78.27926372 31.86030328 -75.40625 31.8671875 C-74.54439087 31.86623077 -73.68253174 31.86527405 -72.79455566 31.86428833 C-70.96866788 31.8636065 -69.14277769 31.86546096 -67.31689453 31.86962891 C-64.51198922 31.87497714 -61.70724405 31.86968401 -58.90234375 31.86328125 C-57.13281214 31.86394203 -55.36328064 31.86522319 -53.59375 31.8671875 C-52.74897095 31.86516327 -51.90419189 31.86313904 -51.03381348 31.86105347 C-45.11495031 31.88504969 -45.11495031 31.88504969 -44 33 C-43.95919217 34.99958364 -43.95745644 37.00045254 -44 39 C-42.68 39 -41.36 39 -40 39 C-40.02320313 38.15695313 -40.04640625 37.31390625 -40.0703125 36.4453125 C-40.08835938 35.34960938 -40.10640625 34.25390625 -40.125 33.125 C-40.14820313 32.03445312 -40.17140625 30.94390625 -40.1953125 29.8203125 C-40 27 -40 27 -38 25 C-35.375 24.875 -35.375 24.875 -33 25 C-33.0309375 23.7934375 -33.0309375 23.7934375 -33.0625 22.5625 C-33 20 -33 20 -32 19 C-30.33382885 18.95936168 -28.66611905 18.957279 -27 19 C-26.855625 18.030625 -26.71125 17.06125 -26.5625 16.0625 C-26 13 -26 13 -25 12 C-22.98035801 11.92755947 -20.95832876 11.91622812 -18.9375 11.9375 C-17.83277344 11.94652344 -16.72804687 11.95554688 -15.58984375 11.96484375 C-14.73519531 11.97644531 -13.88054687 11.98804688 -13 12 C-13 10.02 -13 8.04 -13 6 C-9.04 5.67 -5.08 5.34 -1 5 C-0.67 3.35 -0.34 1.7 0 0 Z " fill="#8592AF" transform="translate(265,142)"/>
<path d="M0 0 C0.33 0 0.66 0 1 0 C1 3.63 1 7.26 1 11 C1.78238037 10.99476318 2.56476074 10.98952637 3.37084961 10.98413086 C6.89305833 10.96342894 10.4152543 10.95036162 13.9375 10.9375 C15.78504883 10.92493164 15.78504883 10.92493164 17.66992188 10.91210938 C19.4246582 10.90727539 19.4246582 10.90727539 21.21484375 10.90234375 C22.84087524 10.89448853 22.84087524 10.89448853 24.49975586 10.88647461 C27 11 27 11 28 12 C28.04080783 13.99958364 28.04254356 16.00045254 28 18 C28.85464844 17.98839844 29.70929688 17.97679687 30.58984375 17.96484375 C32.24693359 17.95130859 32.24693359 17.95130859 33.9375 17.9375 C35.03964844 17.92589844 36.14179688 17.91429687 37.27734375 17.90234375 C40 18 40 18 41 19 C41.04063832 20.66617115 41.042721 22.33388095 41 24 C42.98 24 44.96 24 47 24 C47.33 25.98 47.66 27.96 48 30 C49.65 30.33 51.3 30.66 53 31 C53.33 32.98 53.66 34.96 54 37 C54.78375 36.938125 55.5675 36.87625 56.375 36.8125 C57.674375 36.9053125 57.674375 36.9053125 59 37 C61.30143236 40.45214853 61.13833854 41.23479324 60.625 45.1875 C60.51414062 46.08855469 60.40328125 46.98960937 60.2890625 47.91796875 C60.14597656 48.94857422 60.14597656 48.94857422 60 50 C61.175625 49.938125 61.175625 49.938125 62.375 49.875 C65 50 65 50 67 52 C67.18768653 54.9292303 67.25553641 57.76228397 67.23046875 60.69140625 C67.23001053 61.55185043 67.22955231 62.41229462 67.2290802 63.29881287 C67.22605705 65.11873757 67.21816888 66.93865967 67.20581055 68.75854492 C67.18755148 71.55461724 67.18530085 74.35035866 67.18554688 77.14648438 C67.1806319 78.91146122 67.17480367 80.6764358 67.16796875 82.44140625 C67.16685593 83.28304825 67.1657431 84.12469025 67.16459656 84.99183655 C67.11604705 90.88395295 67.11604705 90.88395295 66 92 C64.35 92 62.7 92 61 92 C60.67 96.29 60.34 100.58 60 105 C57.03 105.495 57.03 105.495 54 106 C54 107.65 54 109.3 54 111 C52.576875 111.309375 52.576875 111.309375 51.125 111.625 C47.70833333 112.70833333 47.70833333 112.70833333 46.625 116.125 C46.41875 117.07375 46.2125 118.0225 46 119 C44.35 119 42.7 119 41 119 C40.7834375 120.2065625 40.7834375 120.2065625 40.5625 121.4375 C40 124 40 124 39 125 C37.14712498 125.07226502 35.29166122 125.0838122 33.4375 125.0625 C31.91962891 125.04896484 31.91962891 125.04896484 30.37109375 125.03515625 C29.58863281 125.02355469 28.80617188 125.01195312 28 125 C28.061875 125.78375 28.12375 126.5675 28.1875 127.375 C28.125625 128.24125 28.06375 129.1075 28 130 C24.43581471 132.37612352 22.877775 132.24563712 18.65234375 132.23046875 C17.40775391 132.22853516 16.16316406 132.22660156 14.88085938 132.22460938 C13.57955078 132.21236328 12.27824219 132.20011719 10.9375 132.1875 C9.63232422 132.18685547 8.32714844 132.18621094 6.98242188 132.18554688 C-2.71943681 132.14028159 -2.71943681 132.14028159 -5 131 C-5.33 133.31 -5.66 135.62 -6 138 C-7.65 138.33 -9.3 138.66 -11 139 C-11.99 141.97 -11.99 141.97 -13 145 C-14.65 145 -16.3 145 -18 145 C-18.144375 145.969375 -18.28875 146.93875 -18.4375 147.9375 C-19 151 -19 151 -20 152 C-21.85287502 152.07226502 -23.70833878 152.0838122 -25.5625 152.0625 C-26.57441406 152.05347656 -27.58632813 152.04445313 -28.62890625 152.03515625 C-29.80259766 152.01775391 -29.80259766 152.01775391 -31 152 C-31.144375 152.804375 -31.28875 153.60875 -31.4375 154.4375 C-32 157 -32 157 -33 158 C-35.35228319 158.11317284 -37.67411948 158.16416537 -40.02734375 158.16796875 C-40.73145889 158.17129715 -41.43557404 158.17462555 -42.161026 158.17805481 C-43.65316106 158.18312655 -45.1453075 158.18546306 -46.63745117 158.18530273 C-48.92450607 158.18748759 -51.21107753 158.20563549 -53.49804688 158.22460938 C-54.94531084 158.22754354 -56.39257711 158.22952818 -57.83984375 158.23046875 C-58.52634506 158.23765427 -59.21284637 158.24483978 -59.92015076 158.25224304 C-64.77117631 158.22882369 -64.77117631 158.22882369 -67 156 C-67 154.68 -67 153.36 -67 152 C-67.85464844 152.01160156 -68.70929688 152.02320313 -69.58984375 152.03515625 C-70.69457031 152.04417969 -71.79929687 152.05320312 -72.9375 152.0625 C-74.03964844 152.07410156 -75.14179688 152.08570313 -76.27734375 152.09765625 C-79 152 -79 152 -80 151 C-80.04080783 149.00041636 -80.04254356 146.99954746 -80 145 C-80.78375 145.04125 -81.5675 145.0825 -82.375 145.125 C-85 145 -85 145 -87 143 C-87 141.68 -87 140.36 -87 139 C-87.804375 138.855625 -88.60875 138.71125 -89.4375 138.5625 C-92 138 -92 138 -93 137 C-93.07244053 134.98035801 -93.08377188 132.95832876 -93.0625 130.9375 C-93.05347656 129.83277344 -93.04445313 128.72804688 -93.03515625 127.58984375 C-93.02355469 126.73519531 -93.01195312 125.88054687 -93 125 C-94.98 125.495 -94.98 125.495 -97 126 C-97.12375 126.804375 -97.2475 127.60875 -97.375 128.4375 C-97.58125 129.283125 -97.7875 130.12875 -98 131 C-100.53446873 132.26723437 -102.32226954 132.12941328 -105.15625 132.1328125 C-106.17847656 132.13410156 -107.20070312 132.13539063 -108.25390625 132.13671875 C-109.32511719 132.13285156 -110.39632812 132.12898437 -111.5 132.125 C-113.10681641 132.13080078 -113.10681641 132.13080078 -114.74609375 132.13671875 C-115.76832031 132.13542969 -116.79054687 132.13414062 -117.84375 132.1328125 C-118.78412109 132.13168457 -119.72449219 132.13055664 -120.69335938 132.12939453 C-123 132 -123 132 -125 131 C-125 128.69 -125 126.38 -125 124 C-116.42 124 -107.84 124 -99 124 C-99 119.71 -99 115.42 -99 111 C-92.4 111 -85.8 111 -79 111 C-79 112.98 -79 114.96 -79 117 C-76.69 117 -74.38 117 -72 117 C-72 119.31 -72 121.62 -72 124 C-67.71 124 -63.42 124 -59 124 C-59 126.31 -59 128.62 -59 131 C-48.11 131 -37.22 131 -26 131 C-26 128.69 -26 126.38 -26 124 C-23.69 124 -21.38 124 -19 124 C-19 122.02 -19 120.04 -19 118 C-17.02 118 -15.04 118 -13 118 C-13 119.98 -13 121.96 -13 124 C2.18 124 17.36 124 33 124 C33 121.69 33 119.38 33 117 C34.98 117 36.96 117 39 117 C39.33 112.71 39.66 108.42 40 104 C43.96 104 47.92 104 52 104 C52 99.71 52 95.42 52 91 C54.31 91 56.62 91 59 91 C59 78.13 59 65.26 59 52 C57.02 52 55.04 52 53 52 C53 47.71 53 43.42 53 39 C50.69 39 48.38 39 46 39 C46 36.69 46 34.38 46 32 C43.69 32 41.38 32 39 32 C39 30.02 39 28.04 39 26 C34.71 26 30.42 26 26 26 C26 23.69 26 21.38 26 19 C17.42 19 8.84 19 0 19 C0 12.73 0 6.46 0 0 Z " fill="#8B94AE" transform="translate(358,196)"/>
<path d="M0 0 C2.31 0 4.62 0 7 0 C7 2.31 7 4.62 7 7 C9.31 7 11.62 7 14 7 C14 11.29 14 15.58 14 20 C15.98 20 17.96 20 20 20 C20 32.87 20 45.74 20 59 C17.69 59 15.38 59 13 59 C13 63.29 13 67.58 13 72 C9.04 72 5.08 72 1 72 C0.67 76.29 0.34 80.58 0 85 C-1.98 85 -3.96 85 -6 85 C-6 87.31 -6 89.62 -6 92 C-21.18 92 -36.36 92 -52 92 C-52 90.02 -52 88.04 -52 86 C-53.98 86 -55.96 86 -58 86 C-58 87.98 -58 89.96 -58 92 C-58.33 92 -58.66 92 -59 92 C-59 89.69 -59 87.38 -59 85 C-56.69 85 -54.38 85 -52 85 C-52 83.02 -52 81.04 -52 79 C-50.02 79 -48.04 79 -46 79 C-46 76.69 -46 74.38 -46 72 C-43.69 72 -41.38 72 -39 72 C-39 63.42 -39 54.84 -39 46 C-36.69 46 -34.38 46 -32 46 C-32 48.31 -32 50.62 -32 53 C-23.42 53 -14.84 53 -6 53 C-6 50.69 -6 48.38 -6 46 C-4.02 46 -2.04 46 0 46 C0 43.69 0 41.38 0 39 C2.31 39 4.62 39 7 39 C7 30.42 7 21.84 7 13 C4.69 13 2.38 13 0 13 C0 8.71 0 4.42 0 0 Z " fill="#D9DEEA" transform="translate(397,228)"/>
<path d="M0 0 C13.53 0 27.06 0 41 0 C41.33 1.65 41.66 3.3 42 5 C46.29 5.33 50.58 5.66 55 6 C55 7.98 55 9.96 55 12 C55.77085937 11.98839844 56.54171875 11.97679687 57.3359375 11.96484375 C58.33882812 11.95582031 59.34171875 11.94679687 60.375 11.9375 C61.37273437 11.92589844 62.37046875 11.91429687 63.3984375 11.90234375 C66 12 66 12 68 13 C68 14.98 68 16.96 68 19 C69.65 19 71.3 19 73 19 C73.99 21.97 73.99 21.97 75 25 C76.98 25.33 78.96 25.66 81 26 C81 27.98 81 29.96 81 32 C82.98 32 84.96 32 87 32 C88.39151652 36.79300133 87.68662689 41.15135782 87 46 C84.69 46 82.38 46 80 46 C80 41.71 80 37.42 80 33 C77.69 33 75.38 33 73 33 C73 31.02 73 29.04 73 27 C71.02 27 69.04 27 67 27 C67 24.69 67 22.38 67 20 C62.38 20 57.76 20 53 20 C53 18.02 53 16.04 53 14 C48.71 14 44.42 14 40 14 C40 11.69 40 9.38 40 7 C27.13 7 14.26 7 1 7 C1 9.31 1 11.62 1 14 C-3.29 14 -7.58 14 -12 14 C-12 15.98 -12 17.96 -12 20 C-16.29 20 -20.58 20 -25 20 C-25 22.31 -25 24.62 -25 27 C-27.31 27 -29.62 27 -32 27 C-32 29.31 -32 31.62 -32 34 C-33.98 34 -35.96 34 -38 34 C-37.98839844 34.86882812 -37.97679687 35.73765625 -37.96484375 36.6328125 C-37.95582031 37.78523438 -37.94679688 38.93765625 -37.9375 40.125 C-37.92589844 41.26195312 -37.91429687 42.39890625 -37.90234375 43.5703125 C-37.994673 46.8129156 -38.38610094 49.81932612 -39 53 C-40.98 53 -42.96 53 -45 53 C-45 51.02 -45 49.04 -45 47 C-51.6 47 -58.2 47 -65 47 C-65 48.98 -65 50.96 -65 53 C-66.98 53 -68.96 53 -71 53 C-71 55.31 -71 57.62 -71 60 C-73.31 60 -75.62 60 -78 60 C-78 66.6 -78 73.2 -78 80 C-80.31 80 -82.62 80 -85 80 C-85 77.69 -85 75.38 -85 73 C-89.29 73 -93.58 73 -98 73 C-98 70.69 -98 68.38 -98 66 C-102.29 66 -106.58 66 -111 66 C-111 64.02 -111 62.04 -111 60 C-108.69 60 -106.38 60 -104 60 C-104 57.69 -104 55.38 -104 53 C-102.02 53 -100.04 53 -98 53 C-98 51.02 -98 49.04 -98 47 C-93.38 47 -88.76 47 -84 47 C-84 44.69 -84 42.38 -84 40 C-88.62 40 -93.24 40 -98 40 C-98 39.67 -98 39.34 -98 39 C-94.04 39 -90.08 39 -86 39 C-85.855625 38.030625 -85.71125 37.06125 -85.5625 36.0625 C-85 33 -85 33 -84 32 C-81.12735944 31.89893126 -78.27926372 31.86030328 -75.40625 31.8671875 C-74.54439087 31.86623077 -73.68253174 31.86527405 -72.79455566 31.86428833 C-70.96866788 31.8636065 -69.14277769 31.86546096 -67.31689453 31.86962891 C-64.51198922 31.87497714 -61.70724405 31.86968401 -58.90234375 31.86328125 C-57.13281214 31.86394203 -55.36328064 31.86522319 -53.59375 31.8671875 C-52.74897095 31.86516327 -51.90419189 31.86313904 -51.03381348 31.86105347 C-45.11495031 31.88504969 -45.11495031 31.88504969 -44 33 C-43.95919217 34.99958364 -43.95745644 37.00045254 -44 39 C-42.68 39 -41.36 39 -40 39 C-40.02320313 38.15695313 -40.04640625 37.31390625 -40.0703125 36.4453125 C-40.08835937 35.34960938 -40.10640625 34.25390625 -40.125 33.125 C-40.14820313 32.03445312 -40.17140625 30.94390625 -40.1953125 29.8203125 C-40 27 -40 27 -38 25 C-35.375 24.875 -35.375 24.875 -33 25 C-33.020625 24.195625 -33.04125 23.39125 -33.0625 22.5625 C-33 20 -33 20 -32 19 C-30.33382885 18.95936168 -28.66611905 18.957279 -27 19 C-26.855625 18.030625 -26.71125 17.06125 -26.5625 16.0625 C-26 13 -26 13 -25 12 C-22.98035801 11.92755947 -20.95832876 11.91622812 -18.9375 11.9375 C-17.83277344 11.94652344 -16.72804688 11.95554688 -15.58984375 11.96484375 C-14.73519531 11.97644531 -13.88054687 11.98804688 -13 12 C-13 10.02 -13 8.04 -13 6 C-9.04 5.67 -5.08 5.34 -1 5 C-0.67 3.35 -0.34 1.7 0 0 Z " fill="#488FB6" transform="translate(265,142)"/>
<path d="M0 0 C2.31 0 4.62 0 7 0 C7 8.58 7 17.16 7 26 C8.98 26 10.96 26 13 26 C13 30.29 13 34.58 13 39 C15.31 39 17.62 39 20 39 C20 41.31 20 43.62 20 46 C21.98 46 23.96 46 26 46 C26 47.98 26 49.96 26 52 C28.31 52 30.62 52 33 52 C33 54.31 33 56.62 33 59 C43.89 59 54.78 59 66 59 C66 61.31 66 63.62 66 66 C63.69 66 61.38 66 59 66 C59 67.98 59 69.96 59 72 C57.02 72 55.04 72 53 72 C53 74.31 53 76.62 53 79 C37.49 79 21.98 79 6 79 C6 76.69 6 74.38 6 72 C4.02 72 2.04 72 0 72 C0 69.69 0 67.38 0 65 C-1.98 65 -3.96 65 -6 65 C-6 60.71 -6 56.42 -6 52 C-8.31 52 -10.62 52 -13 52 C-13 41.44 -13 30.88 -13 20 C-11.02 20 -9.04 20 -7 20 C-7 15.38 -7 10.76 -7 6 C-4.69 6 -2.38 6 0 6 C0 4.02 0 2.04 0 0 Z " fill="#B3B8D1" transform="translate(108,235)"/>
<path d="M0 0 C1.98 0 3.96 0 6 0 C6 1.98 6 3.96 6 6 C10.62 6 15.24 6 20 6 C20 10.29 20 14.58 20 19 C21.98 19 23.96 19 26 19 C26 21.31 26 23.62 26 26 C28.31 26 30.62 26 33 26 C33 27.98 33 29.96 33 32 C37.29 32 41.58 32 46 32 C46 34.31 46 36.62 46 39 C50.29 39 54.58 39 59 39 C59 43.29 59 47.58 59 52 C50.42 52 41.84 52 33 52 C33 53.98 33 55.96 33 58 C32.34 56.68 31.68 55.36 31 54 C29.68 54 28.36 54 27 54 C27 53.34 27 52.68 27 52 C22.38 52 17.76 52 13 52 C13 50.02 13 48.04 13 46 C8.71 46 4.42 46 0 46 C0 43.69 0 41.38 0 39 C-2.31 39 -4.62 39 -7 39 C-7 34.71 -7 30.42 -7 26 C-8.98 26 -10.96 26 -13 26 C-13 24.02 -13 22.04 -13 20 C-14.98 20 -16.96 20 -19 20 C-19 21.98 -19 23.96 -19 26 C-19.33 26 -19.66 26 -20 26 C-20 23.69 -20 21.38 -20 19 C-15.38 19 -10.76 19 -6 19 C-6 17.02 -6 15.04 -6 13 C-4.02 13 -2.04 13 0 13 C0 8.71 0 4.42 0 0 Z " fill="#B3B7D2" transform="translate(200,268)"/>
<path d="M0 0 C2.31 0 4.62 0 7 0 C7 2.31 7 4.62 7 7 C9.31 7 11.62 7 14 7 C14 8.98 14 10.96 14 13 C14.804375 12.979375 15.60875 12.95875 16.4375 12.9375 C19 13 19 13 20 14 C20.04080783 15.99958364 20.04254356 18.00045254 20 20 C22.31 20 24.62 20 27 20 C27 22.31 27 24.62 27 27 C24.69 27 22.38 27 20 27 C20 29.31 20 31.62 20 34 C17.69 34 15.38 34 13 34 C13 35.98 13 37.96 13 40 C11.02 40 9.04 40 7 40 C7 48.58 7 57.16 7 66 C9.31 66 11.62 66 14 66 C14 68.31 14 70.62 14 73 C5.09 73 -3.82 73 -13 73 C-13 70.69 -13 68.38 -13 66 C-17.29 66 -21.58 66 -26 66 C-26 64.02 -26 62.04 -26 60 C-28.31 60 -30.62 60 -33 60 C-33 57.69 -33 55.38 -33 53 C-34.98 53 -36.96 53 -39 53 C-39 48.71 -39 44.42 -39 40 C-36.69 40 -34.38 40 -32 40 C-32 42.31 -32 44.62 -32 47 C-26.06 46.67 -20.12 46.34 -14 46 C-13.67 44.02 -13.34 42.04 -13 40 C-10.69 40 -8.38 40 -6 40 C-6 38.02 -6 36.04 -6 34 C-4.02 34 -2.04 34 0 34 C0 31.69 0 29.38 0 27 C2.31 27 4.62 27 7 27 C7 20.73 7 14.46 7 8 C4.69 8 2.38 8 0 8 C0 5.36 0 2.72 0 0 Z " fill="#DADFEA" transform="translate(259,234)"/>
<path d="M0 0 C0.33 0 0.66 0 1 0 C1 3.63 1 7.26 1 11 C1.78238037 10.99476318 2.56476074 10.98952637 3.37084961 10.98413086 C6.89305833 10.96342894 10.4152543 10.95036162 13.9375 10.9375 C15.16919922 10.92912109 16.40089844 10.92074219 17.66992188 10.91210938 C18.83974609 10.90888672 20.00957031 10.90566406 21.21484375 10.90234375 C22.84087524 10.89448853 22.84087524 10.89448853 24.49975586 10.88647461 C27 11 27 11 28 12 C28.04080783 13.99958364 28.04254356 16.00045254 28 18 C28.85464844 17.98839844 29.70929688 17.97679687 30.58984375 17.96484375 C32.24693359 17.95130859 32.24693359 17.95130859 33.9375 17.9375 C35.03964844 17.92589844 36.14179688 17.91429687 37.27734375 17.90234375 C40 18 40 18 41 19 C41.04063832 20.66617115 41.042721 22.33388095 41 24 C42.98 24 44.96 24 47 24 C47.495 26.97 47.495 26.97 48 30 C49.65 30.33 51.3 30.66 53 31 C53.495 33.97 53.495 33.97 54 37 C54.78375 36.938125 55.5675 36.87625 56.375 36.8125 C57.674375 36.9053125 57.674375 36.9053125 59 37 C61.30143236 40.45214853 61.13833854 41.23479324 60.625 45.1875 C60.51414062 46.08855469 60.40328125 46.98960937 60.2890625 47.91796875 C60.19367188 48.60503906 60.09828125 49.29210937 60 50 C61.175625 49.938125 61.175625 49.938125 62.375 49.875 C65 50 65 50 67 52 C67.18768653 54.9292303 67.25553641 57.76228397 67.23046875 60.69140625 C67.23001053 61.55185043 67.22955231 62.41229462 67.2290802 63.29881287 C67.22605705 65.11873757 67.21816888 66.93865967 67.20581055 68.75854492 C67.18755148 71.55461724 67.18530085 74.35035866 67.18554688 77.14648438 C67.1806319 78.91146122 67.17480367 80.6764358 67.16796875 82.44140625 C67.16685593 83.28304825 67.1657431 84.12469025 67.16459656 84.99183655 C67.11604705 90.88395295 67.11604705 90.88395295 66 92 C64.35 92 62.7 92 61 92 C60.67 96.29 60.34 100.58 60 105 C57.03 105.495 57.03 105.495 54 106 C54 107.65 54 109.3 54 111 C52.576875 111.309375 52.576875 111.309375 51.125 111.625 C47.70833333 112.70833333 47.70833333 112.70833333 46.625 116.125 C46.41875 117.07375 46.2125 118.0225 46 119 C44.35 119 42.7 119 41 119 C40.855625 119.804375 40.71125 120.60875 40.5625 121.4375 C40 124 40 124 39 125 C37.14712498 125.07226502 35.29166122 125.0838122 33.4375 125.0625 C32.42558594 125.05347656 31.41367187 125.04445313 30.37109375 125.03515625 C29.58863281 125.02355469 28.80617188 125.01195312 28 125 C28.020625 125.804375 28.04125 126.60875 28.0625 127.4375 C28 130 28 130 27 131 C25.43827255 131.08685603 23.87270656 131.10702219 22.30859375 131.09765625 C21.36435547 131.09443359 20.42011719 131.09121094 19.44726562 131.08789062 C18.45404297 131.07951172 17.46082031 131.07113281 16.4375 131.0625 C15.44041016 131.05798828 14.44332031 131.05347656 13.41601562 131.04882812 C10.94395151 131.03700007 8.47200482 131.02051849 6 131 C5.95745644 129.00045254 5.95919217 126.99958364 6 125 C7 124 7 124 9.50024414 123.88647461 C10.58426514 123.89171143 11.66828613 123.89694824 12.78515625 123.90234375 C14.53989258 123.90717773 14.53989258 123.90717773 16.33007812 123.91210938 C17.56177734 123.92048828 18.79347656 123.92886719 20.0625 123.9375 C21.91584961 123.94426758 21.91584961 123.94426758 23.80664062 123.95117188 C26.87114117 123.96300392 29.93554721 123.97948827 33 124 C33 121.69 33 119.38 33 117 C34.98 117 36.96 117 39 117 C39.33 112.71 39.66 108.42 40 104 C43.96 104 47.92 104 52 104 C52 99.71 52 95.42 52 91 C54.31 91 56.62 91 59 91 C59 78.13 59 65.26 59 52 C57.02 52 55.04 52 53 52 C53 47.71 53 43.42 53 39 C50.69 39 48.38 39 46 39 C46 36.69 46 34.38 46 32 C43.69 32 41.38 32 39 32 C39 30.02 39 28.04 39 26 C34.71 26 30.42 26 26 26 C26 23.69 26 21.38 26 19 C17.42 19 8.84 19 0 19 C0 12.73 0 6.46 0 0 Z " fill="#4C90AE" transform="translate(358,196)"/>
<path d="M0 0 C4.95 0 9.9 0 15 0 C15 2.31 15 4.62 15 7 C10.38 7 5.76 7 1 7 C1 8.98 1 10.96 1 13 C-0.98 13 -2.96 13 -5 13 C-5 15.31 -5 17.62 -5 20 C-7.31 20 -9.62 20 -12 20 C-12 21.98 -12 23.96 -12 26 C-16.29 26 -20.58 26 -25 26 C-25 28.31 -25 30.62 -25 33 C-29.29 33 -33.58 33 -38 33 C-38 35.31 -38 37.62 -38 40 C-40.31 40 -42.62 40 -45 40 C-45 44.29 -45 48.58 -45 53 C-49.29 53 -53.58 53 -58 53 C-58 54.98 -58 56.96 -58 59 C-60.31 59 -62.62 59 -65 59 C-65 63.62 -65 68.24 -65 73 C-66.98 73 -68.96 73 -71 73 C-71 83.56 -71 94.12 -71 105 C-68.69 105 -66.38 105 -64 105 C-64 109.29 -64 113.58 -64 118 C-62.02 118 -60.04 118 -58 118 C-58 120.31 -58 122.62 -58 125 C-56.02 125 -54.04 125 -52 125 C-52 127.31 -52 129.62 -52 132 C-53.98 132 -55.96 132 -58 132 C-58.33 130.02 -58.66 128.04 -59 126 C-59.78375 126.04125 -60.5675 126.0825 -61.375 126.125 C-64 126 -64 126 -66 124 C-66.625 121.875 -66.625 121.875 -67 120 C-68.65 119.67 -70.3 119.34 -72 119 C-72.33 115.04 -72.66 111.08 -73 107 C-74.65 106.67 -76.3 106.34 -78 106 C-80.20697322 101.58605356 -79.30949289 95.67313573 -79.35009766 90.76928711 C-79.36668083 89.29972524 -79.39400274 87.8302448 -79.43212891 86.36108398 C-79.48683448 84.24159982 -79.50875469 82.1240007 -79.5234375 80.00390625 C-79.54325684 78.73361572 -79.56307617 77.4633252 -79.58349609 76.15454102 C-79 73 -79 73 -76.59228516 71.06225586 C-74 70 -74 70 -72 70 C-72.01160156 69.21753906 -72.02320312 68.43507813 -72.03515625 67.62890625 C-72.04417969 66.61699219 -72.05320312 65.60507813 -72.0625 64.5625 C-72.07410156 63.55316406 -72.08570312 62.54382813 -72.09765625 61.50390625 C-72 59 -72 59 -71 58 C-69.33382885 57.95936168 -67.66611905 57.957279 -66 58 C-65.67 56.35 -65.34 54.7 -65 53 C-63.02 52.34 -61.04 51.68 -59 51 C-59.020625 50.195625 -59.04125 49.39125 -59.0625 48.5625 C-59 46 -59 46 -58 45 C-56.00041636 44.95919217 -53.99954746 44.95745644 -52 45 C-52 43.02 -52 41.04 -52 39 C-50.824375 38.6596875 -50.824375 38.6596875 -49.625 38.3125 C-46.37888902 37.05276848 -46.37888902 37.05276848 -45 32 C-41.04 31.67 -37.08 31.34 -33 31 C-32.67 29.35 -32.34 27.7 -32 26 C-31 25 -31 25 -28.4375 24.9375 C-27.2309375 24.9684375 -27.2309375 24.9684375 -26 25 C-26.020625 24.195625 -26.04125 23.39125 -26.0625 22.5625 C-26 20 -26 20 -25 19 C-22.98035801 18.92755947 -20.95832876 18.91622812 -18.9375 18.9375 C-17.28041016 18.95103516 -17.28041016 18.95103516 -15.58984375 18.96484375 C-14.73519531 18.97644531 -13.88054687 18.98804688 -13 19 C-13.020625 18.030625 -13.04125 17.06125 -13.0625 16.0625 C-13 13 -13 13 -12 12 C-10.33382885 11.95936168 -8.66611905 11.957279 -7 12 C-6.67 10.02 -6.34 8.04 -6 6 C-3.03 5.505 -3.03 5.505 0 5 C0 3.35 0 1.7 0 0 Z " fill="#2C5670" transform="translate(166,182)"/>
<path d="M0 0 C12.87 0 25.74 0 39 0 C39 1.98 39 3.96 39 6 C40.98 6 42.96 6 45 6 C45 4.02 45 2.04 45 0 C45.33 0 45.66 0 46 0 C45.67 4.29 45.34 8.58 45 13 C43.02 13 41.04 13 39 13 C39 11.02 39 9.04 39 7 C32.4 7 25.8 7 19 7 C19 8.98 19 10.96 19 13 C17.02 13 15.04 13 13 13 C13 15.31 13 17.62 13 20 C10.69 20 8.38 20 6 20 C6 26.6 6 33.2 6 40 C3.69 40 1.38 40 -1 40 C-1 37.69 -1 35.38 -1 33 C-5.29 33 -9.58 33 -14 33 C-14 30.69 -14 28.38 -14 26 C-18.29 26 -22.58 26 -27 26 C-27 24.02 -27 22.04 -27 20 C-24.69 20 -22.38 20 -20 20 C-20 17.69 -20 15.38 -20 13 C-18.02 13 -16.04 13 -14 13 C-14 11.02 -14 9.04 -14 7 C-9.38 7 -4.76 7 0 7 C0 4.69 0 2.38 0 0 Z " fill="#8C94AE" transform="translate(181,182)"/>
<path d="M0 0 C2.31 0 4.62 0 7 0 C7 2.31 7 4.62 7 7 C8.98 7 10.96 7 13 7 C13 8.98 13 10.96 13 13 C15.31 13 17.62 13 20 13 C20 15.31 20 17.62 20 20 C26.27 20 32.54 20 39 20 C39 21.98 39 23.96 39 26 C37.02 26 35.04 26 33 26 C33 28.31 33 30.62 33 33 C17.82 33 2.64 33 -13 33 C-13 31.02 -13 29.04 -13 27 C-14.98 27 -16.96 27 -19 27 C-19 28.98 -19 30.96 -19 33 C-19.33 33 -19.66 33 -20 33 C-20 30.69 -20 28.38 -20 26 C-17.69 26 -15.38 26 -13 26 C-13 24.02 -13 22.04 -13 20 C-11.02 20 -9.04 20 -7 20 C-7 17.69 -7 15.38 -7 13 C-4.69 13 -2.38 13 0 13 C0 8.71 0 4.42 0 0 Z " fill="#B3B8D1" transform="translate(358,287)"/>
<path d="M0 0 C1.98 0 3.96 0 6 0 C6 1.98 6 3.96 6 6 C8.31 6 10.62 6 13 6 C13 8.31 13 10.62 13 13 C12.67 13 12.34 13 12 13 C12 11.02 12 9.04 12 7 C10.02 7 8.04 7 6 7 C6 11.29 6 15.58 6 20 C4.02 20 2.04 20 0 20 C0 21.98 0 23.96 0 26 C-4.62 26 -9.24 26 -14 26 C-14 28.31 -14 30.62 -14 33 C-26.87 33 -39.74 33 -53 33 C-53 30.69 -53 28.38 -53 26 C-44.42 26 -35.84 26 -27 26 C-27 24.02 -27 22.04 -27 20 C-22.71 20 -18.42 20 -14 20 C-14 17.69 -14 15.38 -14 13 C-11.69 13 -9.38 13 -7 13 C-7 11.02 -7 9.04 -7 7 C-4.69 7 -2.38 7 0 7 C0 4.69 0 2.38 0 0 Z " fill="#D9DEE9" transform="translate(194,261)"/>
<path d="M0 0 C0.33 0 0.66 0 1 0 C1.04254356 1.99954746 1.04080783 4.00041636 1 6 C0 7 0 7 -2.72265625 7.09765625 C-4.37587891 7.08025391 -4.37587891 7.08025391 -6.0625 7.0625 C-7.16722656 7.05347656 -8.27195312 7.04445312 -9.41015625 7.03515625 C-10.26480469 7.02355469 -11.11945313 7.01195312 -12 7 C-12 8.98 -12 10.96 -12 13 C-7.71 13 -3.42 13 1 13 C1 13.33 1 13.66 1 14 C-3.29 14 -7.58 14 -12 14 C-12 15.98 -12 17.96 -12 20 C-16.29 20 -20.58 20 -25 20 C-25 22.31 -25 24.62 -25 27 C-27.31 27 -29.62 27 -32 27 C-32 29.31 -32 31.62 -32 34 C-33.98 34 -35.96 34 -38 34 C-38.33 37.96 -38.66 41.92 -39 46 C-40.98 46 -42.96 46 -45 46 C-45 44.02 -45 42.04 -45 40 C-62.49 40 -79.98 40 -98 40 C-98 39.67 -98 39.34 -98 39 C-94.04 39 -90.08 39 -86 39 C-85.855625 38.030625 -85.71125 37.06125 -85.5625 36.0625 C-85 33 -85 33 -84 32 C-81.12735944 31.89893126 -78.27926372 31.86030328 -75.40625 31.8671875 C-74.54439087 31.86623077 -73.68253174 31.86527405 -72.79455566 31.86428833 C-70.96866788 31.8636065 -69.14277769 31.86546096 -67.31689453 31.86962891 C-64.51198922 31.87497714 -61.70724405 31.86968401 -58.90234375 31.86328125 C-57.13281214 31.86394203 -55.36328064 31.86522319 -53.59375 31.8671875 C-52.74897095 31.86516327 -51.90419189 31.86313904 -51.03381348 31.86105347 C-45.11495031 31.88504969 -45.11495031 31.88504969 -44 33 C-43.95919217 34.99958364 -43.95745644 37.00045254 -44 39 C-42.68 39 -41.36 39 -40 39 C-40.02320313 38.15695313 -40.04640625 37.31390625 -40.0703125 36.4453125 C-40.08835938 35.34960938 -40.10640625 34.25390625 -40.125 33.125 C-40.14820313 32.03445312 -40.17140625 30.94390625 -40.1953125 29.8203125 C-40 27 -40 27 -38 25 C-35.375 24.875 -35.375 24.875 -33 25 C-33.020625 24.195625 -33.04125 23.39125 -33.0625 22.5625 C-33 20 -33 20 -32 19 C-30.33382885 18.95936168 -28.66611905 18.957279 -27 19 C-26.855625 18.030625 -26.71125 17.06125 -26.5625 16.0625 C-26 13 -26 13 -25 12 C-22.98035801 11.92755947 -20.95832876 11.91622812 -18.9375 11.9375 C-17.83277344 11.94652344 -16.72804688 11.95554688 -15.58984375 11.96484375 C-14.73519531 11.97644531 -13.88054687 11.98804688 -13 12 C-13 10.02 -13 8.04 -13 6 C-9.04 5.67 -5.08 5.34 -1 5 C-0.67 3.35 -0.34 1.7 0 0 Z " fill="#4296B9" transform="translate(265,142)"/>
<path d="M0 0 C1.98 0 3.96 0 6 0 C6 1.98 6 3.96 6 6 C4.35 6.33 2.7 6.66 1 7 C0.67 9.31 0.34 11.62 0 14 C-1.65 14 -3.3 14 -5 14 C-5.144375 14.969375 -5.28875 15.93875 -5.4375 16.9375 C-6 20 -6 20 -7 21 C-8.85287502 21.07226502 -10.70833878 21.0838122 -12.5625 21.0625 C-13.57441406 21.05347656 -14.58632813 21.04445313 -15.62890625 21.03515625 C-16.41136719 21.02355469 -17.19382812 21.01195312 -18 21 C-18.144375 21.804375 -18.28875 22.60875 -18.4375 23.4375 C-19 26 -19 26 -20 27 C-22.35228319 27.11317284 -24.67411948 27.16416537 -27.02734375 27.16796875 C-27.73145889 27.17129715 -28.43557404 27.17462555 -29.161026 27.17805481 C-30.65316106 27.18312655 -32.1453075 27.18546306 -33.63745117 27.18530273 C-35.92450607 27.18748759 -38.21107753 27.20563549 -40.49804688 27.22460938 C-41.94531084 27.22754354 -43.39257711 27.22952818 -44.83984375 27.23046875 C-45.86959572 27.24124702 -45.86959572 27.24124702 -46.92015076 27.25224304 C-51.77117631 27.22882369 -51.77117631 27.22882369 -54 25 C-54 23.68 -54 22.36 -54 21 C-54.85464844 21.01160156 -55.70929688 21.02320313 -56.58984375 21.03515625 C-57.69457031 21.04417969 -58.79929687 21.05320312 -59.9375 21.0625 C-61.03964844 21.07410156 -62.14179688 21.08570313 -63.27734375 21.09765625 C-66 21 -66 21 -67 20 C-67.04080783 18.00041636 -67.04254356 15.99954746 -67 14 C-68.65 14 -70.3 14 -72 14 C-72 11.69 -72 9.38 -72 7 C-70.02 7 -68.04 7 -66 7 C-66 8.98 -66 10.96 -66 13 C-61.38 13 -56.76 13 -52 13 C-52 14.98 -52 16.96 -52 19 C-41.44 19 -30.88 19 -20 19 C-20 17.02 -20 15.04 -20 13 C-15.71 13 -11.42 13 -7 13 C-7 10.69 -7 8.38 -7 6 C-4.69 6 -2.38 6 0 6 C0 4.02 0 2.04 0 0 Z " fill="#475364" transform="translate(345,327)"/>
<path d="M0 0 C4.95 0 9.9 0 15 0 C15 2.31 15 4.62 15 7 C10.38 7 5.76 7 1 7 C1 8.98 1 10.96 1 13 C-0.98 13 -2.96 13 -5 13 C-5 15.31 -5 17.62 -5 20 C-7.31 20 -9.62 20 -12 20 C-12 21.98 -12 23.96 -12 26 C-16.29 26 -20.58 26 -25 26 C-25 28.31 -25 30.62 -25 33 C-29.29 33 -33.58 33 -38 33 C-38 35.31 -38 37.62 -38 40 C-42.29 40 -46.58 40 -51 40 C-51 41.98 -51 43.96 -51 46 C-53.31 46 -55.62 46 -58 46 C-58 45.67 -58 45.34 -58 45 C-56.02 45 -54.04 45 -52 45 C-52 43.02 -52 41.04 -52 39 C-50.824375 38.6596875 -50.824375 38.6596875 -49.625 38.3125 C-46.37888902 37.05276848 -46.37888902 37.05276848 -45 32 C-41.04 31.67 -37.08 31.34 -33 31 C-32.67 29.35 -32.34 27.7 -32 26 C-31 25 -31 25 -28.4375 24.9375 C-27.2309375 24.9684375 -27.2309375 24.9684375 -26 25 C-26.020625 24.195625 -26.04125 23.39125 -26.0625 22.5625 C-26 20 -26 20 -25 19 C-22.98035801 18.92755947 -20.95832876 18.91622812 -18.9375 18.9375 C-17.28041016 18.95103516 -17.28041016 18.95103516 -15.58984375 18.96484375 C-14.73519531 18.97644531 -13.88054687 18.98804688 -13 19 C-13.020625 18.030625 -13.04125 17.06125 -13.0625 16.0625 C-13 13 -13 13 -12 12 C-10.33382885 11.95936168 -8.66611905 11.957279 -7 12 C-6.67 10.02 -6.34 8.04 -6 6 C-4.02 5.67 -2.04 5.34 0 5 C0 3.35 0 1.7 0 0 Z " fill="#486D85" transform="translate(166,182)"/>
<path d="M0 0 C2.31 0 4.62 0 7 0 C7 4.29 7 8.58 7 13 C9.31 13 11.62 13 14 13 C14.33 14.98 14.66 16.96 15 19 C16.98 19.33 18.96 19.66 21 20 C20.67 26.6 20.34 33.2 20 40 C18.02 40 16.04 40 14 40 C14 42.31 14 44.62 14 47 C11.69 47 9.38 47 7 47 C7 36.11 7 25.22 7 14 C4.69 14 2.38 14 0 14 C0 9.38 0 4.76 0 0 Z " fill="#A4B9D4" transform="translate(338,175)"/>
<path d="M0 0 C4.29 0 8.58 0 13 0 C13 1.98 13 3.96 13 6 C12 7 12 7 8.9375 7.0625 C7.968125 7.041875 6.99875 7.02125 6 7 C6 8.98 6 10.96 6 13 C4.02 13 2.04 13 0 13 C0.01160156 13.92683594 0.02320313 14.85367188 0.03515625 15.80859375 C0.04417969 17.00613281 0.05320313 18.20367187 0.0625 19.4375 C0.07410156 20.63246094 0.08570313 21.82742187 0.09765625 23.05859375 C0 26 0 26 -1 27 C-2.99958364 27.04080783 -5.00045254 27.04254356 -7 27 C-7 28.98 -7 30.96 -7 33 C-9.31 33 -11.62 33 -14 33 C-13.67 26.73 -13.34 20.46 -13 14 C-11.02 14 -9.04 14 -7 14 C-7 11.69 -7 9.38 -7 7 C-4.69 7 -2.38 7 0 7 C0 4.69 0 2.38 0 0 Z " fill="#D8DDE8" transform="translate(240,162)"/>
<path d="M0 0 C2.31 0 4.62 0 7 0 C7 1.98 7 3.96 7 6 C17.89 6 28.78 6 40 6 C40 4.02 40 2.04 40 0 C41.98 0 43.96 0 46 0 C46 2.31 46 4.62 46 7 C44.35 7 42.7 7 41 7 C41.04125 7.78375 41.0825 8.5675 41.125 9.375 C41 12 41 12 39 14 C35.95898438 14.24291992 35.95898438 14.24291992 32.09375 14.23046875 C31.41324585 14.23001053 30.7327417 14.22955231 30.03161621 14.2290802 C28.59251157 14.22605852 27.15341017 14.21817466 25.71435547 14.20581055 C23.50867149 14.1875717 21.30340771 14.18530075 19.09765625 14.18554688 C8.29507374 14.14753687 8.29507374 14.14753687 6 13 C6 11.02 6 9.04 6 7 C5.195625 7.020625 4.39125 7.04125 3.5625 7.0625 C1 7 1 7 0 6 C-0.04080783 4.00041636 -0.04254356 1.99954746 0 0 Z " fill="#060812" transform="translate(167,334)"/>
<path d="M0 0 C2.31 0 4.62 0 7 0 C7 2.31 7 4.62 7 7 C5.35 7.33 3.7 7.66 2 8 C1.34 9.98 0.68 11.96 0 14 C-1.65 14 -3.3 14 -5 14 C-5.144375 14.804375 -5.28875 15.60875 -5.4375 16.4375 C-6 19 -6 19 -7 20 C-8.85287502 20.07226502 -10.70833878 20.0838122 -12.5625 20.0625 C-13.57441406 20.05347656 -14.58632813 20.04445313 -15.62890625 20.03515625 C-16.80259766 20.01775391 -16.80259766 20.01775391 -18 20 C-17.979375 20.804375 -17.95875 21.60875 -17.9375 22.4375 C-18 25 -18 25 -19 26 C-20.56172745 26.08685603 -22.12729344 26.10702219 -23.69140625 26.09765625 C-24.63564453 26.09443359 -25.57988281 26.09121094 -26.55273438 26.08789062 C-28.04256836 26.07532227 -28.04256836 26.07532227 -29.5625 26.0625 C-30.55958984 26.05798828 -31.55667969 26.05347656 -32.58398438 26.04882812 C-35.05604849 26.03700007 -37.52799518 26.02051849 -40 26 C-40.04254356 24.00045254 -40.04080783 21.99958364 -40 20 C-39 19 -39 19 -36.49975586 18.88647461 C-35.41573486 18.89171143 -34.33171387 18.89694824 -33.21484375 18.90234375 C-31.46010742 18.90717773 -31.46010742 18.90717773 -29.66992188 18.91210938 C-27.82237305 18.92467773 -27.82237305 18.92467773 -25.9375 18.9375 C-24.08415039 18.94426758 -24.08415039 18.94426758 -22.19335938 18.95117188 C-19.12885883 18.96300392 -16.06445279 18.97948827 -13 19 C-13 16.69 -13 14.38 -13 12 C-11.02 12 -9.04 12 -7 12 C-7 10.02 -7 8.04 -7 6 C-4.69 6 -2.38 6 0 6 C0 4.02 0 2.04 0 0 Z " fill="#4487AA" transform="translate(404,301)"/>
<path d="M0 0 C12.87 0 25.74 0 39 0 C39 1.98 39 3.96 39 6 C26.13 6 13.26 6 0 6 C0 7.98 0 9.96 0 12 C-4.29 12 -8.58 12 -13 12 C-13 10.02 -13 8.04 -13 6 C-7.06 5.505 -7.06 5.505 -1 5 C-0.67 3.35 -0.34 1.7 0 0 Z " fill="#49535D" transform="translate(266,143)"/>
<path d="M0 0 C6.27 0 12.54 0 19 0 C19 1.98 19 3.96 19 6 C17.02 6 15.04 6 13 6 C13 8.31 13 10.62 13 13 C4.42 13 -4.16 13 -13 13 C-13 11.02 -13 9.04 -13 7 C-8.71 7 -4.42 7 0 7 C0 4.69 0 2.38 0 0 Z " fill="#8A94AF" transform="translate(378,307)"/>
<path d="M0 0 C2.31 0 4.62 0 7 0 C7 2.64 7 5.28 7 8 C5.35 8.33 3.7 8.66 2 9 C1.87625 9.804375 1.7525 10.60875 1.625 11.4375 C1.315625 12.7059375 1.315625 12.7059375 1 14 C-1.53446873 15.26723437 -3.32226954 15.12941328 -6.15625 15.1328125 C-7.17847656 15.13410156 -8.20070312 15.13539063 -9.25390625 15.13671875 C-10.32511719 15.13285156 -11.39632812 15.12898438 -12.5 15.125 C-14.10681641 15.13080078 -14.10681641 15.13080078 -15.74609375 15.13671875 C-16.76832031 15.13542969 -17.79054687 15.13414062 -18.84375 15.1328125 C-19.78412109 15.13168457 -20.72449219 15.13055664 -21.69335938 15.12939453 C-24 15 -24 15 -26 14 C-26 11.69 -26 9.38 -26 7 C-17.42 7 -8.84 7 0 7 C0 4.69 0 2.38 0 0 Z " fill="#050505" transform="translate(259,313)"/>
<path d="M0 0 C1.98 0 3.96 0 6 0 C6 1.98 6 3.96 6 6 C4.35 6.33 2.7 6.66 1 7 C0.67 9.31 0.34 11.62 0 14 C-1.65 14 -3.3 14 -5 14 C-5.144375 14.969375 -5.28875 15.93875 -5.4375 16.9375 C-6 20 -6 20 -7 21 C-8.85287502 21.07226502 -10.70833878 21.0838122 -12.5625 21.0625 C-13.57441406 21.05347656 -14.58632813 21.04445313 -15.62890625 21.03515625 C-16.41136719 21.02355469 -17.19382812 21.01195312 -18 21 C-18.33 22.32 -18.66 23.64 -19 25 C-19.33 25 -19.66 25 -20 25 C-20 23.35 -20 21.7 -20 20 C-34.85 20 -49.7 20 -65 20 C-65 19.67 -65 19.34 -65 19 C-61.04 19 -57.08 19 -53 19 C-53 17.02 -53 15.04 -53 13 C-52.67 13 -52.34 13 -52 13 C-52 14.98 -52 16.96 -52 19 C-41.44 19 -30.88 19 -20 19 C-20 17.02 -20 15.04 -20 13 C-15.71 13 -11.42 13 -7 13 C-7 10.69 -7 8.38 -7 6 C-4.69 6 -2.38 6 0 6 C0 4.02 0 2.04 0 0 Z " fill="#596D82" transform="translate(345,327)"/>
<path d="M0 0 C12.54 0 25.08 0 38 0 C38 1.98 38 3.96 38 6 C25.46 6 12.92 6 0 6 C0 4.02 0 2.04 0 0 Z " fill="#4A5566" transform="translate(181,176)"/>
<path d="M0 0 C4.95 0 9.9 0 15 0 C15 2.31 15 4.62 15 7 C10.38 7 5.76 7 1 7 C1 8.98 1 10.96 1 13 C-0.98 13 -2.96 13 -5 13 C-5 15.31 -5 17.62 -5 20 C-7.31 20 -9.62 20 -12 20 C-12 17.36 -12 14.72 -12 12 C-10.35 12 -8.7 12 -7 12 C-6.67 10.02 -6.34 8.04 -6 6 C-4.02 5.67 -2.04 5.34 0 5 C0 3.35 0 1.7 0 0 Z " fill="#43728A" transform="translate(166,182)"/>
<path d="M0 0 C2.31 0 4.62 0 7 0 C7.33 1.65 7.66 3.3 8 5 C10.97 5.495 10.97 5.495 14 6 C14 7.98 14 9.96 14 12 C15.98 12 17.96 12 20 12 C21.39151652 16.79300133 20.68662689 21.15135782 20 26 C17.69 26 15.38 26 13 26 C13 21.71 13 17.42 13 13 C10.69 13 8.38 13 6 13 C6 11.02 6 9.04 6 7 C4.02 7 2.04 7 0 7 C0 4.69 0 2.38 0 0 Z " fill="#2F97C2" transform="translate(332,162)"/>
<path d="M0 0 C6.6 0 13.2 0 20 0 C20 1.98 20 3.96 20 6 C15.71 6 11.42 6 7 6 C7 8.31 7 10.62 7 13 C2.71 13 -1.58 13 -6 13 C-6 10.69 -6 8.38 -6 6 C-4.02 6 -2.04 6 0 6 C0 4.02 0 2.04 0 0 Z " fill="#DADFEB" transform="translate(200,189)"/>
<path d="M0 0 C10.56 0 21.12 0 32 0 C32 1.98 32 3.96 32 6 C21.44 6 10.88 6 0 6 C0 4.02 0 2.04 0 0 Z " fill="#4A5063" transform="translate(115,314)"/>
<path d="M0 0 C1.65 0 3.3 0 5 0 C5 12.21 5 24.42 5 37 C2.525 37.495 2.525 37.495 0 38 C0 25.46 0 12.92 0 0 Z " fill="#47535E" transform="translate(418,249)"/>
<path d="M0 0 C1.98 0 3.96 0 6 0 C6 1.98 6 3.96 6 6 C10.29 6 14.58 6 19 6 C18.979375 7.051875 18.95875 8.10375 18.9375 9.1875 C18.88929767 13.22656139 18.88929767 13.22656139 20 18 C35.84 18.495 35.84 18.495 52 19 C52 19.33 52 19.66 52 20 C47.47934572 20.049377 42.95884783 20.08570823 38.43798828 20.10986328 C36.89954902 20.11993118 35.36112893 20.13358646 33.82275391 20.15087891 C31.61355867 20.17509317 29.40461605 20.18647491 27.1953125 20.1953125 C26.50567413 20.20563507 25.81603577 20.21595764 25.10549927 20.22659302 C23.40199094 20.22699478 21.69914057 20.12191026 20 20 C19.34 19.34 18.68 18.68 18 18 C18 16.68 18 15.36 18 14 C17.14535156 14.01160156 16.29070312 14.02320313 15.41015625 14.03515625 C14.30542969 14.04417969 13.20070313 14.05320312 12.0625 14.0625 C10.96035156 14.07410156 9.85820312 14.08570313 8.72265625 14.09765625 C6 14 6 14 5 13 C4.95919217 11.00041636 4.95745644 8.99954746 5 7 C3.35 7 1.7 7 0 7 C0 4.69 0 2.38 0 0 Z " fill="#4390BC" transform="translate(273,334)"/>
<path d="M0 0 C8.58 0 17.16 0 26 0 C26 2.31 26 4.62 26 7 C17.42 7 8.84 7 0 7 C0 4.69 0 2.38 0 0 Z " fill="#486376" transform="translate(358,208)"/>
<path d="M0 0 C2.31 0 4.62 0 7 0 C7 3.96 7 7.92 7 12 C17.56 12 28.12 12 39 12 C39.33 8.04 39.66 4.08 40 0 C41.98 0 43.96 0 46 0 C46 2.31 46 4.62 46 7 C44.35 7 42.7 7 41 7 C41.04125 7.78375 41.0825 8.5675 41.125 9.375 C41 12 41 12 39 14 C35.95898438 14.24291992 35.95898438 14.24291992 32.09375 14.23046875 C31.41324585 14.23001053 30.7327417 14.22955231 30.03161621 14.2290802 C28.59251157 14.22605852 27.15341017 14.21817466 25.71435547 14.20581055 C23.50867149 14.1875717 21.30340771 14.18530075 19.09765625 14.18554688 C8.29507374 14.14753687 8.29507374 14.14753687 6 13 C6 11.02 6 9.04 6 7 C5.195625 7.020625 4.39125 7.04125 3.5625 7.0625 C1 7 1 7 0 6 C-0.04080783 4.00041636 -0.04254356 1.99954746 0 0 Z " fill="#3A7DA5" transform="translate(167,334)"/>
<path d="M0 0 C6.6 0 13.2 0 20 0 C19.67 2.31 19.34 4.62 19 7 C25.27 7 31.54 7 38 7 C38 7.33 38 7.66 38 8 C34.04900072 8.0246985 30.09803126 8.04285923 26.14697266 8.05493164 C24.14093449 8.06244036 22.13491798 8.0751447 20.12890625 8.08789062 C18.24365234 8.09272461 18.24365234 8.09272461 16.3203125 8.09765625 C14.57645264 8.10551147 14.57645264 8.10551147 12.79736328 8.11352539 C10 8 10 8 8 7 C7.67 9.31 7.34 11.62 7 14 C5.35 14.33 3.7 14.66 2 15 C1.67 16.65 1.34 18.3 1 20 C0.67 20 0.34 20 0 20 C-0.04254356 18.00045254 -0.04080783 15.99958364 0 14 C1 13 1 13 3.5625 12.9375 C4.366875 12.958125 5.17125 12.97875 6 13 C6 11.02 6 9.04 6 7 C4.35 6.67 2.7 6.34 1 6 C1.20625 5.38125 1.4125 4.7625 1.625 4.125 C1.74875 3.42375 1.8725 2.7225 2 2 C1.34 1.34 0.68 0.68 0 0 Z " fill="#7297B9" transform="translate(345,320)"/>
<path d="M0 0 C1.65 0 3.3 0 5 0 C5 10.56 5 21.12 5 32 C3.35 32 1.7 32 0 32 C0 21.44 0 10.88 0 0 Z " fill="#050409" transform="translate(89,255)"/>
<path d="M0 0 C1.98 0 3.96 0 6 0 C6 8.25 6 16.5 6 25 C4.02 25 2.04 25 0 25 C0 16.75 0 8.5 0 0 Z " fill="#D9E0EB" transform="translate(345,189)"/>
<path d="M0 0 C1.98 0 3.96 0 6 0 C6 4.29 6 8.58 6 13 C-0.27 13 -6.54 13 -13 13 C-10 11 -10 11 -8 11 C-8 9.35 -8 7.7 -8 6 C-5.36 6 -2.72 6 0 6 C0 4.02 0 2.04 0 0 Z " fill="#516673" transform="translate(115,222)"/>
<path d="M0 0 C2.31 0 4.62 0 7 0 C7 1.98 7 3.96 7 6 C4.69 6 2.38 6 0 6 C0 10.29 0 14.58 0 19 C-1.98 19 -3.96 19 -6 19 C-6 14.38 -6 9.76 -6 5 C-4.35 5 -2.7 5 -1 5 C-0.67 3.35 -0.34 1.7 0 0 Z " fill="#12364E" transform="translate(101,235)"/>
<path d="M0 0 C12.87 0 25.74 0 39 0 C39 1.65 39 3.3 39 5 C38.34 4.01 37.68 3.02 37 2 C34.24099243 1.66222851 31.69516743 1.51102021 28.9296875 1.48828125 C28.13345978 1.47033005 27.33723206 1.45237885 26.51687622 1.43388367 C23.9696383 1.37963031 21.42258929 1.34583788 18.875 1.3125 C17.1497132 1.27934007 15.42445139 1.24485166 13.69921875 1.20898438 C9.46628187 1.12389565 5.23340247 1.05715693 1 1 C0.67 4.63 0.34 8.26 0 12 C-4.29 12 -8.58 12 -13 12 C-13 10.02 -13 8.04 -13 6 C-7.06 5.505 -7.06 5.505 -1 5 C-0.67 3.35 -0.34 1.7 0 0 Z " fill="#345F79" transform="translate(266,143)"/>
<path d="M0 0 C2.64 0 5.28 0 8 0 C8 2.64 8 5.28 8 8 C6.02 8 4.04 8 2 8 C2 9.65 2 11.3 2 13 C-0.64 13 -3.28 13 -6 13 C-6 10.69 -6 8.38 -6 6 C-4.02 6 -2.04 6 0 6 C0 4.02 0 2.04 0 0 Z " fill="#416B86" transform="translate(219,320)"/>
<path d="M0 0 C6.27 0 12.54 0 19 0 C19 1.98 19 3.96 19 6 C12.73 6 6.46 6 0 6 C0 4.02 0 2.04 0 0 Z " fill="#46576D" transform="translate(365,320)"/>
<path d="M0 0 C2.31 0 4.62 0 7 0 C7 2.64 7 5.28 7 8 C5.35 8.33 3.7 8.66 2 9 C1.87625 9.804375 1.7525 10.60875 1.625 11.4375 C1.315625 12.7059375 1.315625 12.7059375 1 14 C-3.00299872 16.00149936 -8.09916731 15.18485209 -12.5 15.1875 C-14.10681641 15.20586914 -14.10681641 15.20586914 -15.74609375 15.22460938 C-16.76832031 15.22654297 -17.79054687 15.22847656 -18.84375 15.23046875 C-20.25430664 15.23663208 -20.25430664 15.23663208 -21.69335938 15.24291992 C-24 15 -24 15 -26 13 C-17.42 13 -8.84 13 0 13 C0 8.71 0 4.42 0 0 Z " fill="#2D6987" transform="translate(259,313)"/>
<path d="M0 0 C0.33 0 0.66 0 1 0 C1 1.98 1 3.96 1 6 C-0.98 6 -2.96 6 -5 6 C-5 8.31 -5 10.62 -5 13 C-9.29 13 -13.58 13 -18 13 C-18 14.98 -18 16.96 -18 19 C-20.31 19 -22.62 19 -25 19 C-25 18.67 -25 18.34 -25 18 C-23.02 18 -21.04 18 -19 18 C-19 16.02 -19 14.04 -19 12 C-17.824375 11.6596875 -17.824375 11.6596875 -16.625 11.3125 C-13.37888902 10.05276848 -13.37888902 10.05276848 -12 5 C-6.06 4.505 -6.06 4.505 0 4 C0 2.68 0 1.36 0 0 Z " fill="#62A8B9" transform="translate(133,209)"/>
<path d="M0 0 C2.31 0 4.62 0 7 0 C7 4.62 7 9.24 7 14 C4.69 14 2.38 14 0 14 C0 9.38 0 4.76 0 0 Z " fill="#D6DBE4" transform="translate(338,175)"/>
<path d="M0 0 C0.33 0 0.66 0 1 0 C1 4.29 1 8.58 1 13 C2.98 13 4.96 13 7 13 C7 9.04 7 5.08 7 1 C7.66 1 8.32 1 9 1 C8.67 5.29 8.34 9.58 8 14 C6.02 14.33 4.04 14.66 2 15 C2 16.65 2 18.3 2 20 C1.67 20 1.34 20 1 20 C1 18.02 1 16.04 1 14 C-1.31 14 -3.62 14 -6 14 C-6 15.98 -6 17.96 -6 20 C-7.98 20 -9.96 20 -12 20 C-12 17.69 -12 15.38 -12 13 C-8.04 13 -4.08 13 0 13 C0 8.71 0 4.42 0 0 Z " fill="#779CB5" transform="translate(410,287)"/>
<path d="M0 0 C11.88 0 23.76 0 36 0 C36 0.33 36 0.66 36 1 C35.09644775 1.02505615 34.19289551 1.0501123 33.26196289 1.07592773 C29.9203572 1.17087317 26.57893748 1.27011621 23.23754883 1.37231445 C21.7893576 1.4157163 20.34111346 1.45738744 18.89282227 1.49731445 C16.81510441 1.55489062 14.73765427 1.61862028 12.66015625 1.68359375 C11.40855713 1.72025146 10.15695801 1.75690918 8.86743164 1.79467773 C6.10369496 1.67803906 6.10369496 1.67803906 5 3 C21.335 3.495 21.335 3.495 38 4 C38 4.33 38 4.66 38 5 C25.46 5 12.92 5 0 5 C0 3.35 0 1.7 0 0 Z " fill="#4D5C69" transform="translate(267,144)"/>
<path d="M0 0 C1.98 0 3.96 0 6 0 C6 1.98 6 3.96 6 6 C7.98 6 9.96 6 12 6 C12 8.31 12 10.62 12 13 C10.02 13 8.04 13 6 13 C5.67 11.02 5.34 9.04 5 7 C3.35 7 1.7 7 0 7 C0 4.69 0 2.38 0 0 Z " fill="#367798" transform="translate(102,301)"/>
<path d="M0 0 C0.99 0.33 1.98 0.66 3 1 C3 1.66 3 2.32 3 3 C7.08331839 3.02903892 11.1666102 3.04681189 15.25 3.0625 C16.40886719 3.07087891 17.56773437 3.07925781 18.76171875 3.08789062 C19.87675781 3.09111328 20.99179688 3.09433594 22.140625 3.09765625 C23.16704102 3.10289307 24.19345703 3.10812988 25.25097656 3.11352539 C27.67625656 3.01336951 29.68697361 2.69923078 32 2 C32 3.32 32 4.64 32 6 C21.44 6 10.88 6 0 6 C0 4.02 0 2.04 0 0 Z " fill="#385A72" transform="translate(115,314)"/>
<path d="M0 0 C1.98 0 3.96 0 6 0 C6 1.98 6 3.96 6 6 C4.35 6.33 2.7 6.66 1 7 C0.67 8.98 0.34 10.96 0 13 C-2.31 13 -4.62 13 -7 13 C-7 10.69 -7 8.38 -7 6 C-4.69 6 -2.38 6 0 6 C0 4.02 0 2.04 0 0 Z " fill="#445E77" transform="translate(345,327)"/>
<path d="M0 0 C2.475 0.495 2.475 0.495 5 1 C4.67 1.99 4.34 2.98 4 4 C12.58 3.67 21.16 3.34 30 3 C30.33 2.01 30.66 1.02 31 0 C31.66 0 32.32 0 33 0 C33.495 2.97 33.495 2.97 34 6 C29.94320623 6.02477373 25.88644194 6.04289493 21.82958984 6.05493164 C20.45035027 6.05995118 19.07111598 6.06676819 17.69189453 6.07543945 C15.70607817 6.0876092 13.72022251 6.09271633 11.734375 6.09765625 C10.54038086 6.10289307 9.34638672 6.10812988 8.11621094 6.11352539 C5.53305383 6.01941946 3.44991581 5.76626155 1 5 C0.67 3.35 0.34 1.7 0 0 Z " fill="#355D76" transform="translate(292,347)"/>
<path d="M0 0 C12.87 0 25.74 0 39 0 C39 0.33 39 0.66 39 1 C28.44 1 17.88 1 7 1 C7 2.98 7 4.96 7 7 C4.69 7 2.38 7 0 7 C0 4.69 0 2.38 0 0 Z " fill="#E2E6EB" transform="translate(266,149)"/>
<path d="M0 0 C4.29 0 8.58 0 13 0 C13 1.98 13 3.96 13 6 C8.71 6 4.42 6 0 6 C0 4.02 0 2.04 0 0 Z " fill="#43586D" transform="translate(325,340)"/>
<path d="M0 0 C4.29 0 8.58 0 13 0 C13 1.98 13 3.96 13 6 C8.71 6 4.42 6 0 6 C0 4.02 0 2.04 0 0 Z " fill="#060E1B" transform="translate(279,340)"/>
<path d="M0 0 C1.98 0 3.96 0 6 0 C6 4.29 6 8.58 6 13 C4.02 13 2.04 13 0 13 C0 8.71 0 4.42 0 0 Z " fill="#43586A" transform="translate(411,235)"/>
<path d="M0 0 C4.29 0 8.58 0 13 0 C13 1.98 13 3.96 13 6 C8.71 6 4.42 6 0 6 C0 4.02 0 2.04 0 0 Z " fill="#021627" transform="translate(167,182)"/>
<path d="M0 0 C1.98 0 3.96 0 6 0 C6 4.29 6 8.58 6 13 C4.02 13 2.04 13 0 13 C0 8.71 0 4.42 0 0 Z " fill="#44576A" transform="translate(345,175)"/>
<path d="M0 0 C4.29 0 8.58 0 13 0 C13 1.98 13 3.96 13 6 C8.71 6 4.42 6 0 6 C0 4.02 0 2.04 0 0 Z " fill="#3F596B" transform="translate(319,156)"/>
<path d="M0 0 C4.29 0 8.58 0 13 0 C13 1.98 13 3.96 13 6 C8.71 6 4.42 6 0 6 C0 4.02 0 2.04 0 0 Z " fill="#49515C" transform="translate(306,149)"/>
<path d="M0 0 C2.31 0 4.62 0 7 0 C7 2.31 7 4.62 7 7 C9.31 7 11.62 7 14 7 C14 8.98 14 10.96 14 13 C15.65 13 17.3 13 19 13 C19 13.33 19 13.66 19 14 C17.02 14 15.04 14 13 14 C13 12.02 13 10.04 13 8 C11.35 8 9.7 8 8 8 C7.67 8.99 7.34 9.98 7 11 C7 10.01 7 9.02 7 8 C4.69 8 2.38 8 0 8 C0 5.36 0 2.72 0 0 Z " fill="#E9EDEF" transform="translate(259,234)"/>
<path d="M0 0 C0.33 0 0.66 0 1 0 C1 8.91 1 17.82 1 27 C-1.31 27 -3.62 27 -6 27 C-6 24.36 -6 21.72 -6 19 C-4.02 19 -2.04 19 0 19 C0 12.73 0 6.46 0 0 Z " fill="#CDD3E1" transform="translate(351,195)"/>
<path d="M0 0 C8.58 0 17.16 0 26 0 C26 1.98 26 3.96 26 6 C17.42 6 8.84 6 0 6 C0 4.02 0 2.04 0 0 Z M3 1 C3 2.32 3 3.64 3 5 C9.6 5 16.2 5 23 5 C23 4.01 23 3.02 23 2 C23.66 1.67 24.32 1.34 25 1 C17.74 1 10.48 1 3 1 Z " fill="#0E1625" transform="translate(233,320)"/>
<path d="M0 0 C3.96 0 7.92 0 12 0 C12 1.98 12 3.96 12 6 C8.04 6 4.08 6 0 6 C0 4.02 0 2.04 0 0 Z " fill="#8C93AB" transform="translate(247,314)"/>
<path d="M0 0 C1.98 0 3.96 0 6 0 C6 3.96 6 7.92 6 12 C4.02 12 2.04 12 0 12 C0 8.04 0 4.08 0 0 Z " fill="#425566" transform="translate(411,288)"/>
<path d="M0 0 C1.98 0 3.96 0 6 0 C6 3.96 6 7.92 6 12 C4.02 12 2.04 12 0 12 C0 8.04 0 4.08 0 0 Z " fill="#030812" transform="translate(95,288)"/>
<path d="M0 0 C3.96 0 7.92 0 12 0 C12 1.98 12 3.96 12 6 C8.04 6 4.08 6 0 6 C0 4.02 0 2.04 0 0 Z " fill="#444E57" transform="translate(385,215)"/>
<path d="M0 0 C3.96 0 7.92 0 12 0 C12 1.98 12 3.96 12 6 C8.04 6 4.08 6 0 6 C0 4.02 0 2.04 0 0 Z " fill="#405667" transform="translate(240,156)"/>
<path d="M0 0 C0.33 0 0.66 0 1 0 C0.67 4.29 0.34 8.58 0 13 C-1.98 13 -3.96 13 -6 13 C-6 11.02 -6 9.04 -6 7 C-12.6 7 -19.2 7 -26 7 C-26 6.67 -26 6.34 -26 6 C-17.42 6 -8.84 6 0 6 C0 4.02 0 2.04 0 0 Z " fill="#ACB1C4" transform="translate(226,182)"/>
<path d="M0 0 C1.65 0 3.3 0 5 0 C3.68 0.33 2.36 0.66 1 1 C1.13959201 4.22946798 1.28778105 7.45848691 1.4375 10.6875 C1.47681641 11.59951172 1.51613281 12.51152344 1.55664062 13.45117188 C1.59853516 14.33740234 1.64042969 15.22363281 1.68359375 16.13671875 C1.73858032 17.35427856 1.73858032 17.35427856 1.79467773 18.59643555 C2.01037431 21.12144485 2.45899452 23.52600697 3 26 C3.66 26 4.32 26 5 26 C5 27.98 5 29.96 5 32 C3.35 32 1.7 32 0 32 C0 21.44 0 10.88 0 0 Z " fill="#010814" transform="translate(89,255)"/>
<path d="M0 0 C4.62 0 9.24 0 14 0 C11 2 11 2 9 3 C7.86649466 5.01669827 7.86649466 5.01669827 7 7 C7 5.02 7 3.04 7 1 C5.02 1 3.04 1 1 1 C1 2.98 1 4.96 1 7 C-9.89 7 -20.78 7 -32 7 C-32 6.67 -32 6.34 -32 6 C-21.44 6 -10.88 6 0 6 C0 4.02 0 2.04 0 0 Z " fill="#747989" transform="translate(206,333)"/>
<path d="M0 0 C3.41659491 -0.05816623 6.83306205 -0.09365195 10.25 -0.125 C11.21808594 -0.14175781 12.18617188 -0.15851563 13.18359375 -0.17578125 C14.11816406 -0.18222656 15.05273438 -0.18867188 16.015625 -0.1953125 C16.87446289 -0.20578613 17.73330078 -0.21625977 18.61816406 -0.22705078 C21.17903596 0.01706677 22.79511029 0.71009488 25 2 C25 2.33 25 2.66 25 3 C16.75 3 8.5 3 0 3 C0 2.01 0 1.02 0 0 Z " fill="#45545E" transform="translate(359,211)"/>
<path d="M0 0 C1.99954746 -0.04254356 4.00041636 -0.04080783 6 0 C7 1 7 1 7.09765625 3.72265625 C7.08605469 4.82480469 7.07445313 5.92695313 7.0625 7.0625 C7.05347656 8.16722656 7.04445313 9.27195312 7.03515625 10.41015625 C7.02355469 11.26480469 7.01195313 12.11945313 7 13 C8.98 13 10.96 13 13 13 C13 8.71 13 4.42 13 0 C13.33 0 13.66 0 14 0 C14 4.29 14 8.58 14 13 C15.98 13 17.96 13 20 13 C20 13.33 20 13.66 20 14 C18.02 14 16.04 14 14 14 C14 15.98 14 17.96 14 20 C13.34 19.67 12.68 19.34 12 19 C11.375 16.9375 11.375 16.9375 11 15 C9.35 14.67 7.7 14.34 6 14 C5.67 10.04 5.34 6.08 5 2 C3.35 1.67 1.7 1.34 0 1 C0 0.67 0 0.34 0 0 Z " fill="#31839B" transform="translate(88,287)"/>
<path d="M0 0 C0 1.98 0 3.96 0 6 C-3.96 6 -7.92 6 -12 6 C-11 2 -11 2 -10 1 C-8.5063392 0.76733361 -7.00421824 0.58744581 -5.5 0.4375 C-4.27796875 0.31181641 -4.27796875 0.31181641 -3.03125 0.18359375 C-1 0 -1 0 0 0 Z " fill="#475566" transform="translate(154,202)"/>
<path d="M0 0 C0 3.96 0 7.92 0 12 C-1.65 12 -3.3 12 -5 12 C-5 8.37 -5 4.74 -5 1 C-1 0 -1 0 0 0 Z " fill="#03050D" transform="translate(101,242)"/>
<path d="M0 0 C4.29 0 8.58 0 13 0 C13 2.31 13 4.62 13 7 C10.69 7 8.38 7 6 7 C6 5.02 6 3.04 6 1 C4.02 1 2.04 1 0 1 C0 0.67 0 0.34 0 0 Z " fill="#DEE1EB" transform="translate(128,280)"/>
<path d="M0 0 C4.29 0 8.58 0 13 0 C13 2.31 13 4.62 13 7 C10.69 7 8.38 7 6 7 C6 5.02 6 3.04 6 1 C4.02 1 2.04 1 0 1 C0 0.67 0 0.34 0 0 Z " fill="#D1D7DE" transform="translate(319,162)"/>
<path d="M0 0 C3.63 0 7.26 0 11 0 C11 1.65 11 3.3 11 5 C7.37 5 3.74 5 0 5 C0 3.35 0 1.7 0 0 Z " fill="#445460" transform="translate(254,150)"/>
<path d="M0 0 C12.54 0 25.08 0 38 0 C37.67 1.32 37.34 2.64 37 4 C36.505 2.515 36.505 2.515 36 1 C24.78 1 13.56 1 2 1 C2.33 2.32 2.66 3.64 3 5 C2.01 5 1.02 5 0 5 C0 3.35 0 1.7 0 0 Z " fill="#33586D" transform="translate(181,176)"/>
<path d="M0 0 C0.99 0 1.98 0 3 0 C3 2.31 3 4.62 3 7 C-0.75 8.125 -0.75 8.125 -3 7 C-2.67 6.34 -2.34 5.68 -2 5 C-3.98 5 -5.96 5 -8 5 C-8 8.96 -8 12.92 -8 17 C-8.33 17 -8.66 17 -9 17 C-9 12.71 -9 8.42 -9 4 C-6.36 4 -3.72 4 -1 4 C-0.67 2.68 -0.34 1.36 0 0 Z " fill="#9EA5BB" transform="translate(110,237)"/>
<path d="M0 0 C2.31 0 4.62 0 7 0 C7 0.33 7 0.66 7 1 C5.35 1 3.7 1 2 1 C1.855625 1.969375 1.71125 2.93875 1.5625 3.9375 C1 7 1 7 0 8 C-1.85287502 8.07226502 -3.70833878 8.0838122 -5.5625 8.0625 C-6.57441406 8.05347656 -7.58632813 8.04445313 -8.62890625 8.03515625 C-9.41136719 8.02355469 -10.19382812 8.01195312 -11 8 C-11.33 9.32 -11.66 10.64 -12 12 C-12.33 12 -12.66 12 -13 12 C-13 10.02 -13 8.04 -13 6 C-8.71 6 -4.42 6 0 6 C0 4.02 0 2.04 0 0 Z " fill="#3B9DB8" transform="translate(338,340)"/>
<path d="M0 0 C2.31 0 4.62 0 7 0 C7 2.31 7 4.62 7 7 C4.69 7 2.38 7 0 7 C0 4.69 0 2.38 0 0 Z " fill="#E0E2EA" transform="translate(351,267)"/>
<path d="M0 0 C0.99 0 1.98 0 3 0 C3 12.21 3 24.42 3 37 C0.525 37.495 0.525 37.495 -2 38 C-1.67 37.01 -1.34 36.02 -1 35 C-0.01 34.505 -0.01 34.505 1 34 C1.33 23.11 1.66 12.22 2 1 C1.34 0.67 0.68 0.34 0 0 Z " fill="#395870" transform="translate(420,249)"/>
<path d="M0 0 C0.33 0 0.66 0 1 0 C1 1.98 1 3.96 1 6 C-9.56 6 -20.12 6 -31 6 C-30.67 4.68 -30.34 3.36 -30 2 C-30 2.99 -30 3.98 -30 5 C-20.76 4.67 -11.52 4.34 -2 4 C-1.34 2.68 -0.68 1.36 0 0 Z " fill="#9299AF" transform="translate(205,333)"/>
<path d="M0 0 C2.31 0 4.62 0 7 0 C7 1.98 7 3.96 7 6 C4.69 6 2.38 6 0 6 C0 4.02 0 2.04 0 0 Z " fill="#071726" transform="translate(167,334)"/>
<path d="M0 0 C2.31 0 4.62 0 7 0 C7 1.98 7 3.96 7 6 C4.69 6 2.38 6 0 6 C0 4.02 0 2.04 0 0 Z " fill="#0C2133" transform="translate(213,327)"/>
<path d="M0 0 C1.98 0 3.96 0 6 0 C6 2.31 6 4.62 6 7 C4.02 7 2.04 7 0 7 C0 4.69 0 2.38 0 0 Z " fill="#071426" transform="translate(154,320)"/>
<path d="M0 0 C2.31 0 4.62 0 7 0 C7 1.98 7 3.96 7 6 C4.69 6 2.38 6 0 6 C0 4.02 0 2.04 0 0 Z " fill="#3D5B73" transform="translate(404,301)"/>
<path d="M0 0 C2.31 0 4.62 0 7 0 C7 1.98 7 3.96 7 6 C4.69 6 2.38 6 0 6 C0 4.02 0 2.04 0 0 Z " fill="#071321" transform="translate(108,228)"/>
<path d="M0 0 C2.31 0 4.62 0 7 0 C7 1.98 7 3.96 7 6 C4.69 6 2.38 6 0 6 C0 4.02 0 2.04 0 0 Z " fill="#3E5D74" transform="translate(404,228)"/>
<path d="M0 0 C1.98 0 3.96 0 6 0 C6 2.31 6 4.62 6 7 C4.02 7 2.04 7 0 7 C0 4.69 0 2.38 0 0 Z " fill="#081627" transform="translate(154,195)"/>
<path d="M0 0 C1.98 0 3.96 0 6 0 C6 2.31 6 4.62 6 7 C4.02 7 2.04 7 0 7 C0 4.69 0 2.38 0 0 Z " fill="#475263" transform="translate(332,162)"/>
<path d="M0 0 C1.98 0 3.96 0 6 0 C5.01 0.33 4.02 0.66 3 1 C3.33 4.3 3.66 7.6 4 11 C2.68 11 1.36 11 0 11 C0 7.37 0 3.74 0 0 Z " fill="#44556C" transform="translate(115,222)"/>
<path d="M0 0 C1.98 0 3.96 0 6 0 C6 2.31 6 4.62 6 7 C4.33388095 7.042721 2.66617115 7.04063832 1 7 C0 6 0 6 -0.0625 2.9375 C-0.041875 1.968125 -0.02125 0.99875 0 0 Z " fill="#405D73" transform="translate(233,162)"/>
<path d="M0 0 C1.98 0 3.96 0 6 0 C6 7.92 6 15.84 6 24 C5.67 24 5.34 24 5 24 C5 16.74 5 9.48 5 2 C1.72226496 2.75150023 1.72226496 2.75150023 0 6 C0 4.02 0 2.04 0 0 Z " fill="#B1B5C4" transform="translate(108,235)"/>
<path d="M0 0 C0.33 0 0.66 0 1 0 C1.04241723 2.33294775 1.04092937 4.66702567 1 7 C-0.55400314 8.55400314 -2.22258725 8.1905996 -4.375 8.3125 C-8.16907127 8.62888176 -8.16907127 8.62888176 -11.0625 11.0625 C-11.5265625 12.0215625 -11.5265625 12.0215625 -12 13 C-12 10.69 -12 8.38 -12 6 C-8.04 6 -4.08 6 0 6 C0 4.02 0 2.04 0 0 Z " fill="#377298" transform="translate(153,195)"/>
<path d="M0 0 C1.98 0 3.96 0 6 0 C6.33 0.99 6.66 1.98 7 3 C7.66 2.01 8.32 1.02 9 0 C9.33 1.32 9.66 2.64 10 4 C6.37 4 2.74 4 -1 4 C-0.67 2.68 -0.34 1.36 0 0 Z " fill="#070308" transform="translate(170,184)"/>
<path d="M0 0 C1.98 0 3.96 0 6 0 C6 1.98 6 3.96 6 6 C4.02 6 2.04 6 0 6 C0 4.02 0 2.04 0 0 Z " fill="#020D1B" transform="translate(273,334)"/>
<path d="M0 0 C1.98 0 3.96 0 6 0 C6 1.98 6 3.96 6 6 C4.02 6 2.04 6 0 6 C0 4.02 0 2.04 0 0 Z " fill="#020D1A" transform="translate(207,334)"/>
<path d="M0 0 C1.98 0 3.96 0 6 0 C6 1.98 6 3.96 6 6 C4.02 6 2.04 6 0 6 C0 4.02 0 2.04 0 0 Z " fill="#050A16" transform="translate(161,327)"/>
<path d="M0 0 C1.98 0 3.96 0 6 0 C6 1.98 6 3.96 6 6 C4.02 6 2.04 6 0 6 C0 4.02 0 2.04 0 0 Z " fill="#07040A" transform="translate(266,327)"/>
<path d="M0 0 C1.98 0 3.96 0 6 0 C6 1.98 6 3.96 6 6 C4.02 6 2.04 6 0 6 C0 4.02 0 2.04 0 0 Z " fill="#060A16" transform="translate(260,314)"/>
<path d="M0 0 C1.98 0 3.96 0 6 0 C6 1.98 6 3.96 6 6 C4.02 6 2.04 6 0 6 C0 4.02 0 2.04 0 0 Z " fill="#3F586E" transform="translate(391,314)"/>
<path d="M0 0 C1.98 0 3.96 0 6 0 C6 1.98 6 3.96 6 6 C4.02 6 2.04 6 0 6 C0 4.02 0 2.04 0 0 Z " fill="#3D576C" transform="translate(398,307)"/>
<path d="M0 0 C1.98 0 3.96 0 6 0 C6 1.98 6 3.96 6 6 C4.02 6 2.04 6 0 6 C0 4.02 0 2.04 0 0 Z " fill="#090E1A" transform="translate(102,301)"/>
<path d="M0 0 C1.98 0 3.96 0 6 0 C6 1.98 6 3.96 6 6 C4.02 6 2.04 6 0 6 C0 4.02 0 2.04 0 0 Z " fill="#3E586C" transform="translate(398,222)"/>
<path d="M0 0 C1.98 0 3.96 0 6 0 C6 1.98 6 3.96 6 6 C4.02 6 2.04 6 0 6 C0 4.02 0 2.04 0 0 Z " fill="#DBE3EC" transform="translate(391,222)"/>
<path d="M0 0 C1.98 0 3.96 0 6 0 C6 1.98 6 3.96 6 6 C4.02 6 2.04 6 0 6 C0 4.02 0 2.04 0 0 Z " fill="#DCDEE6" transform="translate(187,222)"/>
<path d="M0 0 C1.98 0 3.96 0 6 0 C6 1.98 6 3.96 6 6 C4.02 6 2.04 6 0 6 C0 4.02 0 2.04 0 0 Z " fill="#3B576E" transform="translate(121,215)"/>
<path d="M0 0 C1.98 0 3.96 0 6 0 C6 1.98 6 3.96 6 6 C4.02 6 2.04 6 0 6 C0 4.02 0 2.04 0 0 Z " fill="#B3BACA" transform="translate(345,215)"/>
<path d="M0 0 C1.98 0 3.96 0 6 0 C6 1.98 6 3.96 6 6 C4.02 6 2.04 6 0 6 C0 4.02 0 2.04 0 0 Z " fill="#DBDEEA" transform="translate(187,202)"/>
<path d="M0 0 C1.98 0 3.96 0 6 0 C6 1.98 6 3.96 6 6 C4.02 6 2.04 6 0 6 C0 4.02 0 2.04 0 0 Z " fill="#030A16" transform="translate(161,189)"/>
<path d="M0 0 C1.98 0 3.96 0 6 0 C6 1.98 6 3.96 6 6 C4.02 6 2.04 6 0 6 C0 4.02 0 2.04 0 0 Z " fill="#42546C" transform="translate(220,182)"/>
<path d="M0 0 C1.98 0 3.96 0 6 0 C6 1.98 6 3.96 6 6 C4.02 6 2.04 6 0 6 C0 4.02 0 2.04 0 0 Z " fill="#B3BCD1" transform="translate(227,176)"/>
<path d="M0 0 C1.98 0 3.96 0 6 0 C6 1.98 6 3.96 6 6 C4.02 6 2.04 6 0 6 C0 4.02 0 2.04 0 0 Z " fill="#3B586E" transform="translate(339,169)"/>
<path d="M0 0 C1.98 0 3.96 0 6 0 C6 1.98 6 3.96 6 6 C4.02 6 2.04 6 0 6 C0 4.02 0 2.04 0 0 Z " fill="#D9E0E9" transform="translate(332,169)"/>
<path d="M0 0 C1.98 0 3.96 0 6 0 C6 1.98 6 3.96 6 6 C4.02 6 2.04 6 0 6 C0 4.02 0 2.04 0 0 Z " fill="#B1B6D0" transform="translate(233,169)"/>
<path d="M0 0 C1.98 0 3.96 0 6 0 C6 1.98 6 3.96 6 6 C4.02 6 2.04 6 0 6 C0 4.02 0 2.04 0 0 Z " fill="#43566B" transform="translate(227,169)"/>
<path d="M0 0 C1.98 0 3.96 0 6 0 C6 1.98 6 3.96 6 6 C4.02 6 2.04 6 0 6 C0 4.02 0 2.04 0 0 Z " fill="#DBE1EC" transform="translate(253,156)"/>
<path d="M0 0 C4.29 0 8.58 0 13 0 C13 1.98 13 3.96 13 6 C12.01 5.67 11.02 5.34 10 5 C10 4.01 10 3.02 10 2 C7.03 2 4.06 2 1 2 C0.67 1.34 0.34 0.68 0 0 Z " fill="#34627D" transform="translate(306,149)"/>
<path d="M0 0 C1.98 0 3.96 0 6 0 C6 1.98 6 3.96 6 6 C4.02 6 2.04 6 0 6 C0 4.02 0 2.04 0 0 Z " fill="#D6DBE4" transform="translate(266,149)"/>
<path d="M0 0 C0.33 0 0.66 0 1 0 C1 1.98 1 3.96 1 6 C2.98 6 4.96 6 7 6 C7 6.33 7 6.66 7 7 C5.02 7 3.04 7 1 7 C1 8.98 1 10.96 1 13 C0.34 12.67 -0.32 12.34 -1 12 C-1 10.68 -1 9.36 -1 8 C-2.65 7.67 -4.3 7.34 -6 7 C-6 6.67 -6 6.34 -6 6 C-4.02 6 -2.04 6 0 6 C0 4.02 0 2.04 0 0 Z " fill="#396B88" transform="translate(272,327)"/>
<path d="M0 0 C0.33 0 0.66 0 1 0 C1 4.29 1 8.58 1 13 C2.98 13 4.96 13 7 13 C7 13.33 7 13.66 7 14 C2.71 14 -1.58 14 -6 14 C-5.67 13.34 -5.34 12.68 -5 12 C-3.35 11.67 -1.7 11.34 0 11 C0 7.37 0 3.74 0 0 Z " fill="#427B99" transform="translate(94,241)"/>
<path d="M0 0 C3.96 0 7.92 0 12 0 C12 1.98 12 3.96 12 6 C10.68 5.34 9.36 4.68 8 4 C8.33 3.34 8.66 2.68 9 2 C6.36 2 3.72 2 1 2 C0.67 1.34 0.34 0.68 0 0 Z " fill="#375A74" transform="translate(385,215)"/>
<path d="M0 0 C0.66 0.33 1.32 0.66 2 1 C2 2.32 2 3.64 2 5 C2.99 5.33 3.98 5.66 5 6 C4.67 6.99 4.34 7.98 4 9 C1.69 9 -0.62 9 -3 9 C-2.25 2.25 -2.25 2.25 0 0 Z " fill="#808CA5" transform="translate(269,318)"/>
<path d="M0 0 C1.98 0 3.96 0 6 0 C6 1.65 6 3.3 6 5 C4.02 5 2.04 5 0 5 C0 3.35 0 1.7 0 0 Z " fill="#050610" transform="translate(220,321)"/>
<path d="M0 0 C1.65 0 3.3 0 5 0 C5 1.98 5 3.96 5 6 C3.35 6 1.7 6 0 6 C0 4.02 0 2.04 0 0 Z " fill="#DBDFE2" transform="translate(260,235)"/>
<path d="M0 0 C0.33 0 0.66 0 1 0 C1 2.31 1 4.62 1 7 C-0.98 7 -2.96 7 -5 7 C-5 8.98 -5 10.96 -5 13 C-7.31 13 -9.62 13 -12 13 C-12 12.67 -12 12.34 -12 12 C-10.02 12 -8.04 12 -6 12 C-6 10.02 -6 8.04 -6 6 C-5.195625 5.7525 -4.39125 5.505 -3.5625 5.25 C-0.828919 4.27761141 -0.828919 4.27761141 -0.1875 1.875 C-0.125625 1.25625 -0.06375 0.6375 0 0 Z " fill="#3A97B7" transform="translate(120,215)"/>
<path d="M0 0 C1.9375 0.3125 1.9375 0.3125 4 1 C4.33 1.99 4.66 2.98 5 4 C6.32 4.66 7.64 5.32 9 6 C6.03 6 3.06 6 0 6 C0 4.02 0 2.04 0 0 Z " fill="#8E90A2" transform="translate(154,202)"/>
<path d="M0 0 C2.31 0 4.62 0 7 0 C7 0.33 7 0.66 7 1 C5.02 1 3.04 1 1 1 C1 3.31 1 5.62 1 8 C0.1028125 8.1546875 0.1028125 8.1546875 -0.8125 8.3125 C-3.28243264 9.08876455 -4.32251235 10.07088921 -6 12 C-6 10.35 -6 8.7 -6 7 C-4.02 7 -2.04 7 0 7 C0 4.69 0 2.38 0 0 Z " fill="#C6CAD5" transform="translate(351,300)"/>
<path d="M0 0 C0.33 0 0.66 0 1 0 C1 4.29 1 8.58 1 13 C2.98 13 4.96 13 7 13 C7 13.33 7 13.66 7 14 C5.02 14 3.04 14 1 14 C1 15.98 1 17.96 1 20 C0.67 20 0.34 20 0 20 C-1.41030314 13.26188501 -0.66561666 6.80977041 0 0 Z " fill="#536478" transform="translate(101,287)"/>
<path d="M0 0 C1.98 0 3.96 0 6 0 C6 1.65 6 3.3 6 5 C4.35 5 2.7 5 1 5 C0.67 3.35 0.34 1.7 0 0 Z " fill="#46556C" transform="translate(108,307)"/>
<path d="M0 0 C2 3 2 3 2 5 C3.65 5.33 5.3 5.66 7 6 C7 6.33 7 6.66 7 7 C5.02 7 3.04 7 1 7 C1 8.98 1 10.96 1 13 C0.67 13 0.34 13 0 13 C0 8.71 0 4.42 0 0 Z " fill="#4F8FB9" transform="translate(338,162)"/>
<path d="M0 0 C2.31 0.33 4.62 0.66 7 1 C7 1.99 7 2.98 7 4 C4.69 4 2.38 4 0 4 C0 2.68 0 1.36 0 0 Z " fill="#060507" transform="translate(281,341)"/>
<path d="M0 0 C1.65 0 3.3 0 5 0 C5 1.65 5 3.3 5 5 C3.35 5 1.7 5 0 5 C0 3.35 0 1.7 0 0 Z " fill="#3F5568" transform="translate(339,334)"/>
<path d="M0 0 C1.65 0 3.3 0 5 0 C5.042721 1.66611905 5.04063832 3.33382885 5 5 C4 6 4 6 0.9375 6.0625 C-0.5165625 6.0315625 -0.5165625 6.0315625 -2 6 C-0.68 5.67 0.64 5.34 2 5 C2 4.34 2 3.68 2 3 C1.34 2.67 0.68 2.34 0 2 C0 1.34 0 0.68 0 0 Z " fill="#E1E3EA" transform="translate(248,163)"/>
<path d="M0 0 C0.99 0.33 1.98 0.66 3 1 C3 1.66 3 2.32 3 3 C3.66 3 4.32 3 5 3 C5 3.99 5 4.98 5 6 C3.35 6 1.7 6 0 6 C0 4.02 0 2.04 0 0 Z " fill="#47545D" transform="translate(319,156)"/>
<path d="M0 0 C4.29 0 8.58 0 13 0 C10 2 10 2 8 3 C6.86649466 5.01669827 6.86649466 5.01669827 6 7 C6 5.02 6 3.04 6 1 C4.02 1 2.04 1 0 1 C0 0.67 0 0.34 0 0 Z " fill="#3A6D8C" transform="translate(207,333)"/>
<path d="M0 0 C1.52519276 0.08937803 3.04681929 0.24537146 4.5625 0.4375 C5.80193359 0.59025391 5.80193359 0.59025391 7.06640625 0.74609375 C7.70449219 0.82988281 8.34257812 0.91367187 9 1 C9 1.33 9 1.66 9 2 C6.69 2 4.38 2 2 2 C2 3.98 2 5.96 2 8 C-1 4.375 -1 4.375 -1 1 C-0.67 0.67 -0.34 0.34 0 0 Z " fill="#7C8CA4" transform="translate(343,325)"/>
<path d="M0 0 C3.63 0 7.26 0 11 0 C11 0.33 11 0.66 11 1 C9.865625 1.12375 8.73125 1.2475 7.5625 1.375 C5.7990625 1.684375 5.7990625 1.684375 4 2 C3.67 2.66 3.34 3.32 3 4 C2.01 4 1.02 4 0 4 C0 2.68 0 1.36 0 0 Z " fill="#475066" transform="translate(365,321)"/>
<path d="M0 0 C1.98 0 3.96 0 6 0 C6 2.31 6 4.62 6 7 C4.02 7 2.04 7 0 7 C0 6.67 0 6.34 0 6 C1.65 6 3.3 6 5 6 C3.86695008 2.60085025 2.87481525 1.94745549 0 0 Z " fill="#416882" transform="translate(332,162)"/>
<path d="M0 0 C1.32 0 2.64 0 4 0 C4 1.65 4 3.3 4 5 C2.68 5 1.36 5 0 5 C0 3.35 0 1.7 0 0 Z " fill="#04050D" transform="translate(214,327)"/>
<path d="M0 0 C1.66611905 -0.042721 3.33382885 -0.04063832 5 0 C6 1 6 1 6.0625 4.0625 C6.041875 5.031875 6.02125 6.00125 6 7 C5.6596875 6.0409375 5.6596875 6.0409375 5.3125 5.0625 C4.14749104 2.72806339 4.14749104 2.72806339 1.375 2.25 C0.59125 2.1675 -0.1925 2.085 -1 2 C-0.67 1.34 -0.34 0.68 0 0 Z " fill="#5C99C4" transform="translate(148,319)"/>
<path d="M0 0 C1.32 0 2.64 0 4 0 C4 1.32 4 2.64 4 4 C2.35 4 0.7 4 -1 4 C-0.67 2.68 -0.34 1.36 0 0 Z " fill="#060711" transform="translate(103,237)"/>
<path d="M0 0 C0.66 0 1.32 0 2 0 C2.103125 0.61875 2.20625 1.2375 2.3125 1.875 C2.87525373 4.36526484 2.87525373 4.36526484 6 6 C4.02 6 2.04 6 0 6 C0 4.02 0 2.04 0 0 Z " fill="#001426" transform="translate(266,327)"/>
<path d="M0 0 C2.64 0 5.28 0 8 0 C7.67 0.99 7.34 1.98 7 3 C4.69 2.67 2.38 2.34 0 2 C0 1.34 0 0.68 0 0 Z " fill="#475661" transform="translate(386,217)"/>
<path d="" fill="#00FFFF" transform="translate(0,0)"/>
<path d="" fill="#00FFFF" transform="translate(0,0)"/>
<path d="" fill="#00FFFF" transform="translate(0,0)"/>
<path d="" fill="#00FFFF" transform="translate(0,0)"/>
<path d="" fill="#00FFFF" transform="translate(0,0)"/>
<path d="" fill="#00FFFF" transform="translate(0,0)"/>
<path d="" fill="#00FFFF" transform="translate(0,0)"/>
<path d="" fill="#00FFFF" transform="translate(0,0)"/>
<path d="" fill="#00FFFF" transform="translate(0,0)"/>
<path d="" fill="#00FFFF" transform="translate(0,0)"/>
<path d="" fill="#00FFFF" transform="translate(0,0)"/>
<path d="" fill="#00FFFF" transform="translate(0,0)"/>
<path d="" fill="#00FFFF" transform="translate(0,0)"/>
<path d="" fill="#00FFFF" transform="translate(0,0)"/>
<path d="" fill="#00FFFF" transform="translate(0,0)"/>
<path d="" fill="#00FFFF" transform="translate(0,0)"/>
<path d="" fill="#00FFFF" transform="translate(0,0)"/>
<path d="" fill="#00FFFF" transform="translate(0,0)"/>
<path d="" fill="#00FFFF" transform="translate(0,0)"/>
<path d="" fill="#00FFFF" transform="translate(0,0)"/>
<path d="" fill="#00FFFF" transform="translate(0,0)"/>
<path d="" fill="#00FFFF" transform="translate(0,0)"/>
<path d="" fill="#00FFFF" transform="translate(0,0)"/>
<path d="" fill="#00FFFF" transform="translate(0,0)"/>
<path d="" fill="#00FFFF" transform="translate(0,0)"/>
<path d="" fill="#00FFFF" transform="translate(0,0)"/>
<path d="" fill="#00FFFF" transform="translate(0,0)"/>
<path d="" fill="#00FFFF" transform="translate(0,0)"/>
<path d="" fill="#00FFFF" transform="translate(0,0)"/>
<path d="" fill="#00FFFF" transform="translate(0,0)"/>
<path d="" fill="#00FFFF" transform="translate(0,0)"/>
<path d="" fill="#00FFFF" transform="translate(0,0)"/>
<path d="" fill="#00FFFF" transform="translate(0,0)"/>
<path d="" fill="#00FFFF" transform="translate(0,0)"/>
<path d="" fill="#00FFFF" transform="translate(0,0)"/>
<path d="" fill="#00FFFF" transform="translate(0,0)"/>
<path d="" fill="#00FFFF" transform="translate(0,0)"/>
<path d="" fill="#00FFFF" transform="translate(0,0)"/>
<path d="" fill="#00FFFF" transform="translate(0,0)"/>
<path d="" fill="#00FFFF" transform="translate(0,0)"/>
<path d="" fill="#00FFFF" transform="translate(0,0)"/>
<path d="" fill="#00FFFF" transform="translate(0,0)"/>
<path d="" fill="#00FFFF" transform="translate(0,0)"/>
<path d="" fill="#00FFFF" transform="translate(0,0)"/>
<path d="" fill="#00FFFF" transform="translate(0,0)"/>
<path d="" fill="#00FFFF" transform="translate(0,0)"/>
<path d="" fill="#00FFFF" transform="translate(0,0)"/>
<path d="" fill="#00FFFF" transform="translate(0,0)"/>
<path d="" fill="#00FFFF" transform="translate(0,0)"/>
<path d="" fill="#00FFFF" transform="translate(0,0)"/>
<path d="" fill="#00FFFF" transform="translate(0,0)"/>
<path d="" fill="#00FFFF" transform="translate(0,0)"/>
<path d="" fill="#00FFFF" transform="translate(0,0)"/>
<path d="" fill="#00FFFF" transform="translate(0,0)"/>
<path d="" fill="#00FFFF" transform="translate(0,0)"/>
<path d="" fill="#00FFFF" transform="translate(0,0)"/>
</svg>
