<?xml version="1.0" encoding="UTF-8"?>
<svg version="1.1" xmlns="http://www.w3.org/2000/svg" width="500" height="500">
<path d="M0 0 C10.56 0 21.12 0 32 0 C32 3.3 32 6.6 32 10 C37.94 10 43.88 10 50 10 C50 7.36 50 4.72 50 2 C50.33 1.34 50.66 0.68 51 0 C56.82071622 -0.02464638 62.64140234 -0.0428343 68.4621582 -0.05493164 C70.44393441 -0.05997267 72.42570689 -0.06680538 74.4074707 -0.07543945 C77.24952109 -0.08751515 80.09152247 -0.09323045 82.93359375 -0.09765625 C83.82525742 -0.10281754 84.71692108 -0.10797882 85.63560486 -0.11329651 C87.75740601 -0.11349177 89.8791078 -0.0621003 92 0 C93 1 93 1 93.09765625 3.06640625 C93.08025391 4.30197266 93.08025391 4.30197266 93.0625 5.5625 C93.05347656 6.38878906 93.04445312 7.21507812 93.03515625 8.06640625 C93.01775391 9.02353516 93.01775391 9.02353516 93 10 C93.63808594 9.98839844 94.27617187 9.97679687 94.93359375 9.96484375 C95.75988281 9.95582031 96.58617187 9.94679687 97.4375 9.9375 C98.26121094 9.92589844 99.08492187 9.91429687 99.93359375 9.90234375 C102 10 102 10 103 11 C103.07179964 12.51928038 103.08392007 14.04167482 103.0625 15.5625 C103.05347656 16.38878906 103.04445312 17.21507812 103.03515625 18.06640625 C103.01775391 19.02353516 103.01775391 19.02353516 103 20 C103.68238235 19.99777939 104.36476471 19.99555878 105.06782532 19.99327087 C112.15645831 19.97118377 119.24508156 19.95607901 126.33374023 19.94506836 C128.98087969 19.940033 131.62801635 19.93320437 134.27514648 19.92456055 C138.07536507 19.91246021 141.87554695 19.90676378 145.67578125 19.90234375 C146.86335526 19.89718246 148.05092926 19.89202118 149.27449036 19.88670349 C150.9258625 19.88659019 150.9258625 19.88659019 152.6105957 19.88647461 C154.06620659 19.88314369 154.06620659 19.88314369 155.55122375 19.87974548 C158 20 158 20 161 21 C161 17.37 161 13.74 161 10 C166.96313166 9.97535426 172.92623395 9.957166 178.8894043 9.94506836 C180.91968298 9.94002722 182.94995802 9.93319443 184.98022461 9.92456055 C187.89177347 9.91248533 190.8032745 9.90676966 193.71484375 9.90234375 C195.08514992 9.89460182 195.08514992 9.89460182 196.48313904 9.88670349 C198.65575427 9.88650832 200.82827296 9.93788195 203 10 C204 11 204 11 204.09765625 13.28515625 C204.08025391 14.65994141 204.08025391 14.65994141 204.0625 16.0625 C204.05347656 16.98160156 204.04445313 17.90070313 204.03515625 18.84765625 C204.01775391 19.91306641 204.01775391 19.91306641 204 21 C206.97 21 209.94 21 213 21 C213 27.27 213 33.54 213 40 C216.3 40 219.6 40 223 40 C223 46.93 223 53.86 223 61 C218.05 61.495 218.05 61.495 213 62 C213 67.94 213 73.88 213 80 C215.97 80 218.94 80 222 80 C224.16154208 84.32308416 224.26009056 87.37211133 224.1953125 92.046875 C224.19106766 93.20367767 224.19106766 93.20367767 224.18673706 94.3838501 C224.17557013 96.83939332 224.15047229 99.2945676 224.125 101.75 C224.11496568 103.41796347 224.10584061 105.08593268 224.09765625 106.75390625 C224.07564225 110.83607897 224.04113667 114.917977 224 119 C226.97 119.33 229.94 119.66 233 120 C234.1577506 123.47325181 234.06866652 126.36067448 234 130 C237.3 130.33 240.6 130.66 244 131 C244 134.63 244 138.26 244 142 C241.59454362 143.20272819 240.05003047 143.10071472 237.375 143.0625 C236.55773437 143.05347656 235.74046875 143.04445313 234.8984375 143.03515625 C233.95871094 143.01775391 233.95871094 143.01775391 233 143 C230.96315288 138.92630576 230.9742741 136.41062136 232 132 C229.36 132.33 226.72 132.66 224 133 C223.67 142.24 223.34 151.48 223 161 C226.3 161 229.6 161 233 161 C233 164.63 233 168.26 233 172 C229.37 172 225.74 172 222 172 C222 169.03 222 166.06 222 163 C219.03 163 216.06 163 213 163 C213 165.97 213 168.94 213 172 C210.03 172 207.06 172 204 172 C204.0309375 174.1965625 204.0309375 174.1965625 204.0625 176.4375 C204.08392007 177.95832518 204.07179964 179.48071962 204 181 C203 182 203 182 200.71484375 182.09765625 C198.14322917 182.06510417 195.57161458 182.03255208 193 182 C193 185.3 193 188.6 193 192 C186.4 192 179.8 192 173 192 C173 194.97 173 197.94 173 201 C169.59063457 203.27291028 168.40816723 203.24938865 164.4069519 203.24723816 C163.24311981 203.25143265 162.07928772 203.25562714 160.88018799 203.25994873 C159.60214294 203.25432922 158.3240979 203.24870972 157.00732422 203.24291992 C155.64891468 203.24399275 154.29050559 203.24593145 152.93209839 203.24867249 C149.24219879 203.25352293 145.55241999 203.24586337 141.862535 203.23571944 C138.00594307 203.22694513 134.149355 203.22869625 130.29275513 203.2290802 C123.81803359 203.22814347 117.34335891 203.21945713 110.86865234 203.20581055 C103.37334639 203.19007168 95.87809171 203.18481289 88.38277042 203.1855461 C81.18156589 203.1861555 73.98037812 203.181059 66.77917862 203.17275429 C63.70980829 203.16921567 60.64044389 203.16739022 57.57107162 203.16686058 C53.96123743 203.16585928 50.35144663 203.15978021 46.74162674 203.14969444 C44.77734064 203.14535957 42.81304564 203.14594264 40.84875488 203.14663696 C39.11146622 203.14023949 39.11146622 203.14023949 37.33908081 203.13371277 C36.3262396 203.13203692 35.3133984 203.13036108 34.26986504 203.12863445 C32 203 32 203 31 202 C30.76712992 200.31816052 30.58735834 198.6287584 30.4375 196.9375 C30.35371094 196.01839844 30.26992187 195.09929687 30.18359375 194.15234375 C30.12300781 193.44207031 30.06242187 192.73179687 30 192 C29.42967041 192.00523682 28.85934082 192.01047363 28.27172852 192.01586914 C25.70199677 192.03658221 23.13228253 192.0496419 20.5625 192.0625 C19.66466797 192.07087891 18.76683594 192.07925781 17.84179688 192.08789062 C16.98779297 192.09111328 16.13378906 192.09433594 15.25390625 192.09765625 C14.46314697 192.10289307 13.6723877 192.10812988 12.85766602 192.11352539 C11 192 11 192 10 191 C9.92820036 189.48071962 9.91607993 187.95832518 9.9375 186.4375 C9.94652344 185.61121094 9.95554688 184.78492188 9.96484375 183.93359375 C9.97644531 183.29550781 9.98804688 182.65742188 10 182 C7.36 182.33 4.72 182.66 2 183 C2.020625 184.299375 2.04125 185.59875 2.0625 186.9375 C2.08399454 188.29165633 2.07148199 189.64756083 2 191 C1 192 1 192 -1.25 192.1328125 C-2.1575 192.13023437 -3.065 192.12765625 -4 192.125 C-4.9075 192.12757813 -5.815 192.13015625 -6.75 192.1328125 C-9 192 -9 192 -10 191 C-10.16796875 189.00390625 -10.16796875 189.00390625 -10.1875 186.5625 C-10.20167969 185.75941406 -10.21585938 184.95632813 -10.23046875 184.12890625 C-10 182 -10 182 -8 180 C-5.31160615 179.73008094 -2.70858064 179.91262643 0 180 C0 177.36 0 174.72 0 172 C-0.63808594 172.01160156 -1.27617187 172.02320313 -1.93359375 172.03515625 C-2.75988281 172.04417969 -3.58617187 172.05320312 -4.4375 172.0625 C-5.26121094 172.07410156 -6.08492187 172.08570313 -6.93359375 172.09765625 C-9 172 -9 172 -10 171 C-10.07179964 169.48071962 -10.08392007 167.95832518 -10.0625 166.4375 C-10.05347656 165.61121094 -10.04445312 164.78492188 -10.03515625 163.93359375 C-10.02355469 163.29550781 -10.01195312 162.65742188 -10 162 C-12.64 162 -15.28 162 -18 162 C-18 165.3 -18 168.6 -18 172 C-21.96 172 -25.92 172 -30 172 C-30.09765625 164.28515625 -30.09765625 164.28515625 -30 162 C-29.67 161.67 -29.34 161.34 -29 161 C-25.7 161 -22.4 161 -19 161 C-19 151.43 -19 141.86 -19 132 C-21.97 132 -24.94 132 -28 132 C-28 135.3 -28 138.6 -28 142 C-31.25303044 143.62651522 -34.39225602 143.11453156 -38 143 C-39 142 -39 142 -39.09765625 139.49609375 C-39.08605469 138.48675781 -39.07445313 137.47742188 -39.0625 136.4375 C-39.05347656 135.42558594 -39.04445313 134.41367187 -39.03515625 133.37109375 C-39.01775391 132.19740234 -39.01775391 132.19740234 -39 131 C-36.03 131 -33.06 131 -30 131 C-30.01160156 130.28972656 -30.02320312 129.57945312 -30.03515625 128.84765625 C-30.04869141 127.46900391 -30.04869141 127.46900391 -30.0625 126.0625 C-30.07410156 125.14597656 -30.08570312 124.22945313 -30.09765625 123.28515625 C-30 121 -30 121 -29 120 C-25.7 120 -22.4 120 -19 120 C-19 110.43 -19 100.86 -19 91 C-14.545 90.505 -14.545 90.505 -10 90 C-10 87.36 -10 84.72 -10 82 C-11.9490625 82.0309375 -11.9490625 82.0309375 -13.9375 82.0625 C-15.29165633 82.08399454 -16.64756083 82.07148199 -18 82 C-19 81 -19 81 -19.11352539 77.12280273 C-19.11336621 75.39305833 -19.10766849 73.66330919 -19.09765625 71.93359375 C-19.0962413 71.02497086 -19.09482635 70.11634796 -19.09336853 69.18019104 C-19.08775193 66.26592779 -19.07519665 63.35174019 -19.0625 60.4375 C-19.05748714 58.46679798 -19.05292386 56.49609476 -19.04882812 54.52539062 C-19.03777711 49.68356441 -19.02050138 44.84179505 -19 40 C-16.03 40 -13.06 40 -10 40 C-10.00523682 39.12674072 -10.01047363 38.25348145 -10.01586914 37.35375977 C-10.03287751 34.12410727 -10.04543369 30.89447755 -10.05493164 27.66479492 C-10.0599708 26.26504772 -10.06680216 24.8653058 -10.07543945 23.46557617 C-10.0875232 21.45754223 -10.09269807 19.44947043 -10.09765625 17.44140625 C-10.10289307 16.23170166 -10.10812988 15.02199707 -10.11352539 13.77563477 C-10 11 -10 11 -9 10 C-5.99668982 9.85806663 -3.00782866 9.95763622 0 10 C0 6.7 0 3.4 0 0 Z " fill="#FEFEFD" transform="translate(144,148)"/>
<path d="M0 0 C10.56 0 21.12 0 32 0 C32 3.3 32 6.6 32 10 C37.94 10 43.88 10 50 10 C50 7.36 50 4.72 50 2 C50.33 1.34 50.66 0.68 51 0 C56.82071622 -0.02464638 62.64140234 -0.0428343 68.4621582 -0.05493164 C70.44393441 -0.05997267 72.42570689 -0.06680538 74.4074707 -0.07543945 C77.24952109 -0.08751515 80.09152247 -0.09323045 82.93359375 -0.09765625 C83.82525742 -0.10281754 84.71692108 -0.10797882 85.63560486 -0.11329651 C87.75740601 -0.11349177 89.8791078 -0.0621003 92 0 C93 1 93 1 93.09765625 3.06640625 C93.08025391 4.30197266 93.08025391 4.30197266 93.0625 5.5625 C93.05347656 6.38878906 93.04445312 7.21507812 93.03515625 8.06640625 C93.01775391 9.02353516 93.01775391 9.02353516 93 10 C93.63808594 9.98839844 94.27617187 9.97679687 94.93359375 9.96484375 C95.75988281 9.95582031 96.58617187 9.94679687 97.4375 9.9375 C98.26121094 9.92589844 99.08492187 9.91429687 99.93359375 9.90234375 C102 10 102 10 103 11 C103.07179964 12.51928038 103.08392007 14.04167482 103.0625 15.5625 C103.05347656 16.38878906 103.04445312 17.21507812 103.03515625 18.06640625 C103.01775391 19.02353516 103.01775391 19.02353516 103 20 C103.68238235 19.99777939 104.36476471 19.99555878 105.06782532 19.99327087 C112.15645831 19.97118377 119.24508156 19.95607901 126.33374023 19.94506836 C128.98087969 19.940033 131.62801635 19.93320437 134.27514648 19.92456055 C138.07536507 19.91246021 141.87554695 19.90676378 145.67578125 19.90234375 C146.86335526 19.89718246 148.05092926 19.89202118 149.27449036 19.88670349 C150.9258625 19.88659019 150.9258625 19.88659019 152.6105957 19.88647461 C154.06620659 19.88314369 154.06620659 19.88314369 155.55122375 19.87974548 C158 20 158 20 161 21 C161 17.37 161 13.74 161 10 C166.96313166 9.97535426 172.92623395 9.957166 178.8894043 9.94506836 C180.91968298 9.94002722 182.94995802 9.93319443 184.98022461 9.92456055 C187.89177347 9.91248533 190.8032745 9.90676966 193.71484375 9.90234375 C195.08514992 9.89460182 195.08514992 9.89460182 196.48313904 9.88670349 C198.65575427 9.88650832 200.82827296 9.93788195 203 10 C204 11 204 11 204.09765625 13.28515625 C204.08025391 14.65994141 204.08025391 14.65994141 204.0625 16.0625 C204.05347656 16.98160156 204.04445313 17.90070313 204.03515625 18.84765625 C204.01775391 19.91306641 204.01775391 19.91306641 204 21 C206.97 21 209.94 21 213 21 C213 27.27 213 33.54 213 40 C216.3 40 219.6 40 223 40 C223 46.93 223 53.86 223 61 C218.05 61.495 218.05 61.495 213 62 C213 67.94 213 73.88 213 80 C215.97 80 218.94 80 222 80 C224.16154208 84.32308416 224.26009056 87.37211133 224.1953125 92.046875 C224.19106766 93.20367767 224.19106766 93.20367767 224.18673706 94.3838501 C224.17557013 96.83939332 224.15047229 99.2945676 224.125 101.75 C224.11496568 103.41796347 224.10584061 105.08593268 224.09765625 106.75390625 C224.07564225 110.83607897 224.04113667 114.917977 224 119 C226.97 119.33 229.94 119.66 233 120 C234.1577506 123.47325181 234.06866652 126.36067448 234 130 C237.3 130.33 240.6 130.66 244 131 C244 134.63 244 138.26 244 142 C241.59454362 143.20272819 240.05003047 143.10071472 237.375 143.0625 C236.55773437 143.05347656 235.74046875 143.04445313 234.8984375 143.03515625 C233.95871094 143.01775391 233.95871094 143.01775391 233 143 C230.96315288 138.92630576 230.9742741 136.41062136 232 132 C229.36 132.33 226.72 132.66 224 133 C223.67 142.24 223.34 151.48 223 161 C226.3 161 229.6 161 233 161 C233 164.63 233 168.26 233 172 C229.37 172 225.74 172 222 172 C222 169.03 222 166.06 222 163 C219.03 163 216.06 163 213 163 C213 165.97 213 168.94 213 172 C210.03 172 207.06 172 204 172 C204.0309375 174.1965625 204.0309375 174.1965625 204.0625 176.4375 C204.08392007 177.95832518 204.07179964 179.48071962 204 181 C203 182 203 182 200.71484375 182.09765625 C198.14322917 182.06510417 195.57161458 182.03255208 193 182 C193 185.3 193 188.6 193 192 C186.4 192 179.8 192 173 192 C173 194.97 173 197.94 173 201 C169.59063457 203.27291028 168.40816723 203.24938865 164.4069519 203.24723816 C163.24311981 203.25143265 162.07928772 203.25562714 160.88018799 203.25994873 C159.60214294 203.25432922 158.3240979 203.24870972 157.00732422 203.24291992 C155.64891468 203.24399275 154.29050559 203.24593145 152.93209839 203.24867249 C149.24219879 203.25352293 145.55241999 203.24586337 141.862535 203.23571944 C138.00594307 203.22694513 134.149355 203.22869625 130.29275513 203.2290802 C123.81803359 203.22814347 117.34335891 203.21945713 110.86865234 203.20581055 C103.37334639 203.19007168 95.87809171 203.18481289 88.38277042 203.1855461 C81.18156589 203.1861555 73.98037812 203.181059 66.77917862 203.17275429 C63.70980829 203.16921567 60.64044389 203.16739022 57.57107162 203.16686058 C53.96123743 203.16585928 50.35144663 203.15978021 46.74162674 203.14969444 C44.77734064 203.14535957 42.81304564 203.14594264 40.84875488 203.14663696 C39.11146622 203.14023949 39.11146622 203.14023949 37.33908081 203.13371277 C36.3262396 203.13203692 35.3133984 203.13036108 34.26986504 203.12863445 C32 203 32 203 31 202 C30.76712992 200.31816052 30.58735834 198.6287584 30.4375 196.9375 C30.35371094 196.01839844 30.26992187 195.09929687 30.18359375 194.15234375 C30.12300781 193.44207031 30.06242187 192.73179687 30 192 C29.42967041 192.00523682 28.85934082 192.01047363 28.27172852 192.01586914 C25.70199677 192.03658221 23.13228253 192.0496419 20.5625 192.0625 C19.66466797 192.07087891 18.76683594 192.07925781 17.84179688 192.08789062 C16.98779297 192.09111328 16.13378906 192.09433594 15.25390625 192.09765625 C14.46314697 192.10289307 13.6723877 192.10812988 12.85766602 192.11352539 C11 192 11 192 10 191 C9.92820036 189.48071962 9.91607993 187.95832518 9.9375 186.4375 C9.94652344 185.61121094 9.95554688 184.78492188 9.96484375 183.93359375 C9.97644531 183.29550781 9.98804688 182.65742188 10 182 C7.36 182.33 4.72 182.66 2 183 C2.020625 184.299375 2.04125 185.59875 2.0625 186.9375 C2.08399454 188.29165633 2.07148199 189.64756083 2 191 C1 192 1 192 -1.25 192.1328125 C-2.1575 192.13023437 -3.065 192.12765625 -4 192.125 C-4.9075 192.12757813 -5.815 192.13015625 -6.75 192.1328125 C-9 192 -9 192 -10 191 C-10.16796875 189.00390625 -10.16796875 189.00390625 -10.1875 186.5625 C-10.20167969 185.75941406 -10.21585938 184.95632813 -10.23046875 184.12890625 C-10 182 -10 182 -8 180 C-5.31160615 179.73008094 -2.70858064 179.91262643 0 180 C0 177.36 0 174.72 0 172 C-0.63808594 172.01160156 -1.27617187 172.02320313 -1.93359375 172.03515625 C-2.75988281 172.04417969 -3.58617187 172.05320312 -4.4375 172.0625 C-5.26121094 172.07410156 -6.08492187 172.08570313 -6.93359375 172.09765625 C-9 172 -9 172 -10 171 C-10.07179964 169.48071962 -10.08392007 167.95832518 -10.0625 166.4375 C-10.05347656 165.61121094 -10.04445312 164.78492188 -10.03515625 163.93359375 C-10.02355469 163.29550781 -10.01195312 162.65742188 -10 162 C-12.64 162 -15.28 162 -18 162 C-18 165.3 -18 168.6 -18 172 C-21.96 172 -25.92 172 -30 172 C-30.09765625 164.28515625 -30.09765625 164.28515625 -30 162 C-29.67 161.67 -29.34 161.34 -29 161 C-25.7 161 -22.4 161 -19 161 C-19 151.43 -19 141.86 -19 132 C-21.97 132 -24.94 132 -28 132 C-28 135.3 -28 138.6 -28 142 C-31.25303044 143.62651522 -34.39225602 143.11453156 -38 143 C-39 142 -39 142 -39.09765625 139.49609375 C-39.08605469 138.48675781 -39.07445313 137.47742188 -39.0625 136.4375 C-39.05347656 135.42558594 -39.04445313 134.41367187 -39.03515625 133.37109375 C-39.01775391 132.19740234 -39.01775391 132.19740234 -39 131 C-36.03 131 -33.06 131 -30 131 C-30.01160156 130.28972656 -30.02320312 129.57945312 -30.03515625 128.84765625 C-30.04869141 127.46900391 -30.04869141 127.46900391 -30.0625 126.0625 C-30.07410156 125.14597656 -30.08570312 124.22945313 -30.09765625 123.28515625 C-30 121 -30 121 -29 120 C-25.7 120 -22.4 120 -19 120 C-19 110.43 -19 100.86 -19 91 C-14.545 90.505 -14.545 90.505 -10 90 C-10 87.36 -10 84.72 -10 82 C-11.9490625 82.0309375 -11.9490625 82.0309375 -13.9375 82.0625 C-15.29165633 82.08399454 -16.64756083 82.07148199 -18 82 C-19 81 -19 81 -19.11352539 77.12280273 C-19.11336621 75.39305833 -19.10766849 73.66330919 -19.09765625 71.93359375 C-19.0962413 71.02497086 -19.09482635 70.11634796 -19.09336853 69.18019104 C-19.08775193 66.26592779 -19.07519665 63.35174019 -19.0625 60.4375 C-19.05748714 58.46679798 -19.05292386 56.49609476 -19.04882812 54.52539062 C-19.03777711 49.68356441 -19.02050138 44.84179505 -19 40 C-16.03 40 -13.06 40 -10 40 C-10.00523682 39.12674072 -10.01047363 38.25348145 -10.01586914 37.35375977 C-10.03287751 34.12410727 -10.04543369 30.89447755 -10.05493164 27.66479492 C-10.0599708 26.26504772 -10.06680216 24.8653058 -10.07543945 23.46557617 C-10.0875232 21.45754223 -10.09269807 19.44947043 -10.09765625 17.44140625 C-10.10289307 16.23170166 -10.10812988 15.02199707 -10.11352539 13.77563477 C-10 11 -10 11 -9 10 C-5.99668982 9.85806663 -3.00782866 9.95763622 0 10 C0 6.7 0 3.4 0 0 Z M164 23 C164 26.3 164 29.6 164 33 C158.39 33 152.78 33 147 33 C147 32.67 147 32.34 147 32 C135.45 32 123.9 32 112 32 C112 41.57 112 51.14 112 61 C108.7 61 105.4 61 102 61 C102 64.3 102 67.6 102 71 C88.8 71 75.6 71 62 71 C61.505 75.95 61.505 75.95 61 81 C51.43 81.33 41.86 81.66 32 82 C32 84.97 32 87.94 32 91 C28.7 91 25.4 91 22 91 C22 94.63 22 98.26 22 102 C15.07 102 8.14 102 1 102 C1 98.37 1 94.74 1 91 C-1.97 91 -4.94 91 -8 91 C-8 100.9 -8 110.8 -8 121 C-5.03 121 -2.06 121 1 121 C1 124.63 1 128.26 1 132 C-1.97 132 -4.94 132 -8 132 C-8 138.27 -8 144.54 -8 151 C-1.4 151 5.2 151 12 151 C12 154.63 12 158.26 12 162 C8.7 162 5.4 162 2 162 C2 164.97 2 167.94 2 171 C4.97 171.33 7.94 171.66 11 172 C11.33 174.97 11.66 177.94 12 181 C18.27 181.33 24.54 181.66 31 182 C31.495 186.455 31.495 186.455 32 191 C78.2 191 124.4 191 172 191 C172 187.7 172 184.4 172 181 C178.6 181 185.2 181 192 181 C192 178.03 192 175.06 192 172 C195.3 172 198.6 172 202 172 C202 168.7 202 165.4 202 162 C198.7 162 195.4 162 192 162 C192 158.37 192 154.74 192 151 C198.6 151 205.2 151 212 151 C212 144.73 212 138.46 212 132 C209.03 132 206.06 132 203 132 C203 128.37 203 124.74 203 121 C205.97 121 208.94 121 212 121 C212 107.8 212 94.6 212 81 C208.7 81 205.4 81 202 81 C202 74.07 202 67.14 202 60 C204.97 60 207.94 60 211 60 C211 54.06 211 48.12 211 42 C208.36 41.67 205.72 41.34 203 41 C202.67 34.73 202.34 28.46 202 22 C197.72912293 21.97279696 193.45842264 21.95306297 189.1875 21.9375 C187.3940918 21.92493164 187.3940918 21.92493164 185.56445312 21.91210938 C178.30299246 21.89232338 171.220612 22.22352437 164 23 Z " fill="#8A5F47" transform="translate(144,148)"/>
<path d="M0 0 C3.63 0 7.26 0 11 0 C11 6.6 11 13.2 11 20 C7.7 20.33 4.4 20.66 1 21 C1 26.94 1 32.88 1 39 C3.97 39 6.94 39 10 39 C12.16154208 43.32308416 12.26009056 46.37211133 12.1953125 51.046875 C12.19106766 52.20367767 12.19106766 52.20367767 12.18673706 53.3838501 C12.17557013 55.83939332 12.15047229 58.2945676 12.125 60.75 C12.11496568 62.41796347 12.10584061 64.08593268 12.09765625 65.75390625 C12.07564225 69.83607897 12.04113667 73.917977 12 78 C14.97 78.33 17.94 78.66 21 79 C22.1577506 82.47325181 22.06866652 85.36067448 22 89 C25.3 89.33 28.6 89.66 32 90 C32 93.63 32 97.26 32 101 C29.59454362 102.20272819 28.05003047 102.10071472 25.375 102.0625 C24.55773437 102.05347656 23.74046875 102.04445313 22.8984375 102.03515625 C22.27195312 102.02355469 21.64546875 102.01195312 21 102 C18.96315288 97.92630576 18.9742741 95.41062136 20 91 C17.36 91.33 14.72 91.66 12 92 C11.67 101.24 11.34 110.48 11 120 C14.3 120 17.6 120 21 120 C21 123.63 21 127.26 21 131 C17.37 131 13.74 131 10 131 C10 128.03 10 125.06 10 122 C7.03 122 4.06 122 1 122 C1 124.97 1 127.94 1 131 C-1.97 131 -4.94 131 -8 131 C-7.9690625 133.1965625 -7.9690625 133.1965625 -7.9375 135.4375 C-7.91607993 136.95832518 -7.92820036 138.48071962 -8 140 C-9 141 -9 141 -11.28515625 141.09765625 C-13.85677083 141.06510417 -16.42838542 141.03255208 -19 141 C-19 144.3 -19 147.6 -19 151 C-25.6 151 -32.2 151 -39 151 C-39 153.97 -39 156.94 -39 160 C-42.40936543 162.27291028 -43.59183277 162.24938865 -47.5930481 162.24723816 C-48.75688019 162.25143265 -49.92071228 162.25562714 -51.11981201 162.25994873 C-52.39785706 162.25432922 -53.6759021 162.24870972 -54.99267578 162.24291992 C-56.35108532 162.24399275 -57.70949441 162.24593145 -59.06790161 162.24867249 C-62.75780121 162.25352293 -66.44758001 162.24586337 -70.137465 162.23571944 C-73.99405693 162.22694513 -77.850645 162.22869625 -81.70724487 162.2290802 C-88.18196641 162.22814347 -94.65664109 162.21945713 -101.13134766 162.20581055 C-108.62665361 162.19007168 -116.12190829 162.18481289 -123.61722958 162.1855461 C-130.81843411 162.1861555 -138.01962188 162.181059 -145.22082138 162.17275429 C-148.29019171 162.16921567 -151.35955611 162.16739022 -154.42892838 162.16686058 C-158.03876257 162.16585928 -161.64855337 162.15978021 -165.25837326 162.14969444 C-167.22265936 162.14535957 -169.18695436 162.14594264 -171.15124512 162.14663696 C-172.88853378 162.14023949 -172.88853378 162.14023949 -174.66091919 162.13371277 C-175.6737604 162.13203692 -176.6866016 162.13036108 -177.73013496 162.12863445 C-180 162 -180 162 -181 161 C-181.23287008 159.31816052 -181.41264166 157.6287584 -181.5625 155.9375 C-181.64628906 155.01839844 -181.73007813 154.09929687 -181.81640625 153.15234375 C-181.87699219 152.44207031 -181.93757813 151.73179687 -182 151 C-182.57032959 151.00523682 -183.14065918 151.01047363 -183.72827148 151.01586914 C-186.29800323 151.03658221 -188.86771747 151.0496419 -191.4375 151.0625 C-192.33533203 151.07087891 -193.23316406 151.07925781 -194.15820312 151.08789062 C-195.01220703 151.09111328 -195.86621094 151.09433594 -196.74609375 151.09765625 C-197.53685303 151.10289307 -198.3276123 151.10812988 -199.14233398 151.11352539 C-201 151 -201 151 -202 150 C-202.07179964 148.48071962 -202.08392007 146.95832518 -202.0625 145.4375 C-202.05347656 144.61121094 -202.04445312 143.78492188 -202.03515625 142.93359375 C-202.02355469 142.29550781 -202.01195312 141.65742188 -202 141 C-204.64 141.33 -207.28 141.66 -210 142 C-209.979375 143.299375 -209.95875 144.59875 -209.9375 145.9375 C-209.91600546 147.29165633 -209.92851801 148.64756083 -210 150 C-211 151 -211 151 -213.25 151.1328125 C-214.1575 151.13023437 -215.065 151.12765625 -216 151.125 C-216.9075 151.12757813 -217.815 151.13015625 -218.75 151.1328125 C-221 151 -221 151 -222 150 C-222.16796875 148.00390625 -222.16796875 148.00390625 -222.1875 145.5625 C-222.20167969 144.75941406 -222.21585938 143.95632813 -222.23046875 143.12890625 C-222 141 -222 141 -220 139 C-217.31160615 138.73008094 -214.70858064 138.91262643 -212 139 C-212 136.36 -212 133.72 -212 131 C-212.63808594 131.01160156 -213.27617187 131.02320313 -213.93359375 131.03515625 C-214.75988281 131.04417969 -215.58617187 131.05320312 -216.4375 131.0625 C-217.26121094 131.07410156 -218.08492187 131.08570313 -218.93359375 131.09765625 C-221 131 -221 131 -222 130 C-222.07179964 128.48071962 -222.08392007 126.95832518 -222.0625 125.4375 C-222.05347656 124.61121094 -222.04445312 123.78492188 -222.03515625 122.93359375 C-222.02355469 122.29550781 -222.01195312 121.65742188 -222 121 C-224.64 121 -227.28 121 -230 121 C-230 124.3 -230 127.6 -230 131 C-233.96 131 -237.92 131 -242 131 C-242.09765625 123.28515625 -242.09765625 123.28515625 -242 121 C-241.505 120.505 -241.505 120.505 -241 120 C-237.7 120 -234.4 120 -231 120 C-231 110.43 -231 100.86 -231 91 C-233.97 91 -236.94 91 -240 91 C-240 94.3 -240 97.6 -240 101 C-243.25303044 102.62651522 -246.39225602 102.11453156 -250 102 C-251 101 -251 101 -251.09765625 98.49609375 C-251.08605469 97.48675781 -251.07445312 96.47742188 -251.0625 95.4375 C-251.05347656 94.42558594 -251.04445313 93.41367187 -251.03515625 92.37109375 C-251.02355469 91.58863281 -251.01195312 90.80617188 -251 90 C-248.03 90 -245.06 90 -242 90 C-242.01160156 89.28972656 -242.02320313 88.57945312 -242.03515625 87.84765625 C-242.04869141 86.46900391 -242.04869141 86.46900391 -242.0625 85.0625 C-242.07410156 84.14597656 -242.08570313 83.22945313 -242.09765625 82.28515625 C-242 80 -242 80 -241 79 C-237.7 79 -234.4 79 -231 79 C-231 69.43 -231 59.86 -231 50 C-227.7 50 -224.4 50 -221 50 C-221 47.03 -221 44.06 -221 41 C-217.7 41 -214.4 41 -211 41 C-211 43.97 -211 46.94 -211 50 C-213.97 50 -216.94 50 -220 50 C-220 59.9 -220 69.8 -220 80 C-217.03 80 -214.06 80 -211 80 C-211 83.63 -211 87.26 -211 91 C-213.97 91 -216.94 91 -220 91 C-220 97.27 -220 103.54 -220 110 C-213.4 110 -206.8 110 -200 110 C-200 113.63 -200 117.26 -200 121 C-203.3 121 -206.6 121 -210 121 C-210 123.97 -210 126.94 -210 130 C-207.8034375 129.9690625 -207.8034375 129.9690625 -205.5625 129.9375 C-204.04167482 129.91607993 -202.51928038 129.92820036 -201 130 C-200 131 -200 131 -199.90234375 133.06640625 C-199.91394531 133.89011719 -199.92554688 134.71382812 -199.9375 135.5625 C-199.94652344 136.38878906 -199.95554688 137.21507812 -199.96484375 138.06640625 C-199.97644531 138.70449219 -199.98804688 139.34257812 -200 140 C-199.42967041 139.99476318 -198.85934082 139.98952637 -198.27172852 139.98413086 C-195.70199677 139.96341779 -193.13228253 139.9503581 -190.5625 139.9375 C-189.66466797 139.92912109 -188.76683594 139.92074219 -187.84179688 139.91210938 C-186.56079102 139.90727539 -186.56079102 139.90727539 -185.25390625 139.90234375 C-184.46314697 139.89710693 -183.6723877 139.89187012 -182.85766602 139.88647461 C-181 140 -181 140 -180 141 C-180 143.97 -180 146.94 -180 150 C-133.8 150 -87.6 150 -40 150 C-40 146.7 -40 143.4 -40 140 C-33.4 140 -26.8 140 -20 140 C-20 137.03 -20 134.06 -20 131 C-16.7 131 -13.4 131 -10 131 C-10 127.7 -10 124.4 -10 121 C-13.3 121 -16.6 121 -20 121 C-20 117.37 -20 113.74 -20 110 C-13.4 110 -6.8 110 0 110 C0 103.73 0 97.46 0 91 C-2.97 91 -5.94 91 -9 91 C-9 87.37 -9 83.74 -9 80 C-6.03 80 -3.06 80 0 80 C0 66.8 0 53.6 0 40 C-2.97 40 -5.94 40 -9 40 C-9 33.4 -9 26.8 -9 20 C-6.03 20 -3.06 20 0 20 C0 13.4 0 6.8 0 0 Z " fill="#74512E" transform="translate(356,189)"/>
<path d="M0 0 C12.87 0 25.74 0 39 0 C39 3.3 39 6.6 39 10 C42.63 10 46.26 10 50 10 C50 26.5 50 43 50 60 C36.8 60 23.6 60 10 60 C10 63.3 10 66.6 10 70 C9.67 70 9.34 70 9 70 C9 66.7 9 63.4 9 60 C-0.57 60 -10.14 60 -20 60 C-20 50.1 -20 40.2 -20 30 C-10.43 30 -0.86 30 9 30 C9 26.7 9 23.4 9 20 C6.03 20 3.06 20 0 20 C0 13.4 0 6.8 0 0 Z " fill="#FA9AC7" transform="translate(196,159)"/>
<path d="M0 0 C0.33 0 0.66 0 1 0 C1 9.57 1 19.14 1 29 C10.9 29 20.8 29 31 29 C31 26.36 31 23.72 31 21 C24.4 21 17.8 21 11 21 C11 14.07 11 7.14 11 0 C20.9 0 30.8 0 41 0 C41 3.3 41 6.6 41 10 C44.3 10 47.6 10 51 10 C51 13.3 51 16.6 51 20 C47.7 20 44.4 20 41 20 C41 23.3 41 26.6 41 30 C38.03 30 35.06 30 32 30 C32 36.6 32 43.2 32 50 C28.7 50 25.4 50 22 50 C22 53.3 22 56.6 22 60 C28.27 60 34.54 60 41 60 C41 63.3 41 66.6 41 70 C37.7 70 34.4 70 31 70 C31 73.3 31 76.6 31 80 C24.4 80 17.8 80 11 80 C11 77.03 11 74.06 11 71 C7.7 71 4.4 71 1 71 C1 73.97 1 76.94 1 80 C-0.65 80 -2.3 80 -4 80 C-2.02 79.505 -2.02 79.505 0 79 C0 76.36 0 73.72 0 71 C-1.299375 71.020625 -2.59875 71.04125 -3.9375 71.0625 C-5.29165633 71.08399454 -6.64756083 71.07148199 -8 71 C-9 70 -9 70 -9.11352539 66.12280273 C-9.11336621 64.39305833 -9.10766849 62.66330919 -9.09765625 60.93359375 C-9.0962413 60.02497086 -9.09482635 59.11634796 -9.09336853 58.18019104 C-9.08775193 55.26592779 -9.07519665 52.35174019 -9.0625 49.4375 C-9.05748714 47.46679798 -9.05292386 45.49609476 -9.04882812 43.52539062 C-9.03777711 38.68356441 -9.02050138 33.84179505 -9 29 C-6.03 29 -3.06 29 0 29 C0 19.43 0 9.86 0 0 Z " fill="#F197BE" transform="translate(134,159)"/>
<path d="M0 0 C5.96313166 -0.02464574 11.92623395 -0.042834 17.8894043 -0.05493164 C19.91968298 -0.05997278 21.94995802 -0.06680557 23.98022461 -0.07543945 C26.89177347 -0.08751467 29.8032745 -0.09323034 32.71484375 -0.09765625 C34.08514992 -0.10539818 34.08514992 -0.10539818 35.48313904 -0.11329651 C37.65575427 -0.11349168 39.82827296 -0.06211805 42 0 C43 1 43 1 43.09765625 3.28515625 C43.08605469 4.20167969 43.07445312 5.11820313 43.0625 6.0625 C43.05347656 6.98160156 43.04445313 7.90070313 43.03515625 8.84765625 C43.02355469 9.55792969 43.01195312 10.26820313 43 11 C45.97 11 48.94 11 52 11 C52 17.27 52 23.54 52 30 C55.3 30 58.6 30 62 30 C62 30.33 62 30.66 62 31 C58.37 31 54.74 31 51 31 C51 37.6 51 44.2 51 51 C48.03 51 45.06 51 42 51 C42 57.6 42 64.2 42 71 C41.67 71 41.34 71 41 71 C41 64.07 41 57.14 41 50 C43.97 50 46.94 50 50 50 C50 44.06 50 38.12 50 32 C47.36 32 44.72 32 42 32 C41.67 31.67 41.34 31.34 41 31 C41 24.73 41 18.46 41 12 C28.46 12.33 15.92 12.66 3 13 C3.495 15.475 3.495 15.475 4 18 C4.0370279 19.6662553 4.04759962 21.33401319 4 23 C-0.15626368 24.00926479 -4.04365094 24.10239579 -8.3125 24.0625 C-9.56675781 24.05347656 -10.82101562 24.04445312 -12.11328125 24.03515625 C-13.06589844 24.02355469 -14.01851563 24.01195312 -15 24 C-15 23.67 -15 23.34 -15 23 C-26.22 22.67 -37.44 22.34 -49 22 C-49 31.57 -49 41.14 -49 51 C-52.3 51 -55.6 51 -59 51 C-59 37.8 -59 24.6 -59 11 C-62.3 11 -65.6 11 -69 11 C-69 7.7 -69 4.4 -69 1 C-65.37 1 -61.74 1 -58 1 C-58 3.97 -58 6.94 -58 10 C-57.31761765 9.99777939 -56.63523529 9.99555878 -55.93217468 9.99327087 C-48.84354169 9.97118377 -41.75491844 9.95607901 -34.66625977 9.94506836 C-32.01912031 9.940033 -29.37198365 9.93320437 -26.72485352 9.92456055 C-22.92463493 9.91246021 -19.12445305 9.90676378 -15.32421875 9.90234375 C-14.13664474 9.89718246 -12.94907074 9.89202118 -11.72550964 9.88670349 C-10.0741375 9.88659019 -10.0741375 9.88659019 -8.3894043 9.88647461 C-6.93379341 9.88314369 -6.93379341 9.88314369 -5.44877625 9.87974548 C-3 10 -3 10 0 11 C0 7.37 0 3.74 0 0 Z " fill="#A38373" transform="translate(305,158)"/>
<path d="M0 0 C1.8572168 0.00676758 1.8572168 0.00676758 3.75195312 0.01367188 C6.77215676 0.02533289 9.79233511 0.04326328 12.8125 0.0625 C12.8125 6.3325 12.8125 12.6025 12.8125 19.0625 C9.5125 19.0625 6.2125 19.0625 2.8125 19.0625 C2.8125 15.7625 2.8125 12.4625 2.8125 9.0625 C-3.7875 9.0625 -10.3875 9.0625 -17.1875 9.0625 C-17.1875 12.3625 -17.1875 15.6625 -17.1875 19.0625 C-15.558125 19.041875 -13.92875 19.02125 -12.25 19 C-10.56250659 18.97863932 -8.87358966 18.99044489 -7.1875 19.0625 C-6.1875 20.0625 -6.1875 20.0625 -6.08984375 22.12890625 C-6.12239583 24.44010417 -6.15494792 26.75130208 -6.1875 29.0625 C-9.4875 29.3925 -12.7875 29.7225 -16.1875 30.0625 C-16.1875 33.0325 -16.1875 36.0025 -16.1875 39.0625 C-19.8175 39.0625 -23.4475 39.0625 -27.1875 39.0625 C-27.6825 34.6075 -27.6825 34.6075 -28.1875 30.0625 C-31.1575 29.7325 -34.1275 29.4025 -37.1875 29.0625 C-37.1875 25.7625 -37.1875 22.4625 -37.1875 19.0625 C-47.0875 19.0625 -56.9875 19.0625 -67.1875 19.0625 C-67.1875 25.6625 -67.1875 32.2625 -67.1875 39.0625 C-70.4875 39.0625 -73.7875 39.0625 -77.1875 39.0625 C-77.1875 29.4925 -77.1875 19.9225 -77.1875 10.0625 C-72.27614574 10.03952589 -67.36497849 10.01961783 -62.45361328 10.00756836 C-60.78335945 10.00254431 -59.11311001 9.99572395 -57.44287109 9.98706055 C-55.04002804 9.97491054 -52.63724321 9.96925237 -50.234375 9.96484375 C-49.48943787 9.95968246 -48.74450073 9.95452118 -47.97698975 9.94920349 C-44.54581013 9.94883349 -41.4814812 10.09323657 -38.1875 11.0625 C-35.93842848 11.13040675 -33.68748395 11.14749984 -31.4375 11.125 C-30.26703125 11.11597656 -29.0965625 11.10695312 -27.890625 11.09765625 C-26.99859375 11.08605469 -26.1065625 11.07445312 -25.1875 11.0625 C-25.1875 7.7625 -25.1875 4.4625 -25.1875 1.0625 C-16.75678082 0.1558943 -8.47520886 -0.05939499 0 0 Z " fill="#E4E2E2" transform="translate(333.1875,169.9375)"/>
<path d="M0 0 C17.94115087 -0.02334397 35.88229781 -0.04098656 53.82346058 -0.05181217 C62.15355245 -0.05697194 70.48363489 -0.06400858 78.8137207 -0.07543945 C86.0728761 -0.08539602 93.33202467 -0.09185576 100.5911867 -0.09408849 C104.43605722 -0.09539394 108.28090821 -0.09846936 112.12577248 -0.10573006 C115.7429482 -0.11250559 119.36009629 -0.11461382 122.97727776 -0.11310768 C124.94121528 -0.11351497 126.90514978 -0.11890221 128.86907959 -0.12442017 C130.03435684 -0.1230455 131.19963409 -0.12167084 132.40022278 -0.12025452 C133.41511685 -0.12117631 134.43001093 -0.1220981 135.47565937 -0.12304783 C138 0 138 0 141 1 C141 3.97 141 6.94 141 10 C94.8 10 48.6 10 1 10 C0.67 6.7 0.34 3.4 0 0 Z " fill="#E7E3E2" transform="translate(175,329)"/>
<path d="M0 0 C9.9 0 19.8 0 30 0 C30 3.3 30 6.6 30 10 C33.3 10 36.6 10 40 10 C40 13.3 40 16.6 40 20 C36.7 20 33.4 20 30 20 C30 23.3 30 26.6 30 30 C27.03 30 24.06 30 21 30 C21 26.7 21 23.4 21 20 C14.07 20 7.14 20 0 20 C0 13.4 0 6.8 0 0 Z " fill="#E4DFDA" transform="translate(145,159)"/>
<path d="M0 0 C19.14 0 38.28 0 58 0 C58 2.97 58 5.94 58 9 C41.5 9 25 9 8 9 C8 18.9 8 28.8 8 39 C5.36 39 2.72 39 0 39 C0 26.13 0 13.26 0 0 Z " fill="#724C28" transform="translate(247,169)"/>
<path d="M0 0 C1.6097168 0.01450195 1.6097168 0.01450195 3.25195312 0.02929688 C4.37150391 0.05443359 5.49105469 0.07957031 6.64453125 0.10546875 C7.77568359 0.11900391 8.90683594 0.13253906 10.07226562 0.14648438 C12.86766442 0.18186917 15.66211017 0.23123927 18.45703125 0.29296875 C18.54399302 4.23032998 18.5974096 8.16744503 18.64453125 12.10546875 C18.66966797 13.22501953 18.69480469 14.34457031 18.72070312 15.49804688 C18.73037109 16.57119141 18.74003906 17.64433594 18.75 18.75 C18.76571045 19.7397583 18.7814209 20.7295166 18.79760742 21.74926758 C18.45703125 24.29296875 18.45703125 24.29296875 17.28515625 26.12109375 C14.74273793 27.75084908 12.91980411 27.63364768 9.9140625 27.5859375 C8.3043457 27.57143555 8.3043457 27.57143555 6.66210938 27.55664062 C5.54255859 27.53150391 4.42300781 27.50636719 3.26953125 27.48046875 C2.13837891 27.46693359 1.00722656 27.45339844 -0.15820312 27.43945312 C-2.95360192 27.40406833 -5.74804767 27.35469823 -8.54296875 27.29296875 C-8.62993052 23.35560752 -8.6833471 19.41849247 -8.73046875 15.48046875 C-8.75560547 14.36091797 -8.78074219 13.24136719 -8.80664062 12.08789062 C-8.81630859 11.01474609 -8.82597656 9.94160156 -8.8359375 8.8359375 C-8.85164795 7.8461792 -8.8673584 6.8564209 -8.88354492 5.83666992 C-8.54296875 3.29296875 -8.54296875 3.29296875 -7.37109375 1.46484375 C-4.82867543 -0.16491158 -3.00574161 -0.04771018 0 0 Z " fill="#FC9ACA" transform="translate(185.54296875,189.70703125)"/>
<path d="M0 0 C6.27 0 12.54 0 19 0 C19 3.3 19 6.6 19 10 C16.03 10 13.06 10 10 10 C10 13.3 10 16.6 10 20 C19.9 20 29.8 20 40 20 C40 23.3 40 26.6 40 30 C26.8 30 13.6 30 0 30 C0 20.1 0 10.2 0 0 Z " fill="#784D2B" transform="translate(206,189)"/>
<path d="M0 0 C3.3 0 6.6 0 10 0 C10 13.2 10 26.4 10 40 C7.03 40 4.06 40 1 40 C1 43.63 1 47.26 1 51 C3.97 51 6.94 51 10 51 C10 57.27 10 63.54 10 70 C3.4 70 -3.2 70 -10 70 C-10 67.03 -10 64.06 -10 61 C-6.37 61 -2.74 61 1 61 C0.83701416 59.76773682 0.67402832 58.53547363 0.50610352 57.26586914 C-0.13991565 51.4220699 -0.12544258 45.61952843 -0.09765625 39.74609375 C-0.0962413 38.60463394 -0.09482635 37.46317413 -0.09336853 36.28712463 C-0.08780751 32.67055551 -0.07526231 29.05405016 -0.0625 25.4375 C-0.05747996 22.97330819 -0.05291794 20.5091154 -0.04882812 18.04492188 C-0.03785086 12.02992365 -0.02061334 6.01497261 0 0 Z " fill="#E4E0DD" transform="translate(346,229)"/>
<path d="M0 0 C6.93 0 13.86 0 21 0 C21.0229132 4.25421714 21.04283889 8.50822157 21.05493164 12.76245117 C21.05997101 14.21070073 21.06680253 15.65894517 21.07543945 17.10717773 C21.08752247 19.18474588 21.09323211 21.26224697 21.09765625 23.33984375 C21.10551147 25.21724243 21.10551147 25.21724243 21.11352539 27.13256836 C21 30 21 30 20 31 C18.5112814 31.08669432 17.018555 31.10703494 15.52734375 31.09765625 C14.71773193 31.09515869 13.90812012 31.09266113 13.07397461 31.09008789 C12.03893799 31.08098389 11.00390137 31.07187988 9.9375 31.0625 C6.658125 31.041875 3.37875 31.02125 0 31 C0 20.77 0 10.54 0 0 Z " fill="#835F3B" transform="translate(175,269)"/>
<path d="M0 0 C6.6 0 13.2 0 20 0 C20 9.9 20 19.8 20 30 C13.4 30 6.8 30 0 30 C0 20.1 0 10.2 0 0 Z " fill="#754C24" transform="translate(296,269)"/>
<path d="M0 0 C3.63 0 7.26 0 11 0 C11 6.6 11 13.2 11 20 C6.05 20.495 6.05 20.495 1 21 C1 26.94 1 32.88 1 39 C3.97 39 6.94 39 10 39 C12.16154208 43.32308416 12.26009056 46.37211133 12.1953125 51.046875 C12.1924826 51.81807678 12.18965271 52.58927856 12.18673706 53.3838501 C12.17557013 55.83939332 12.15047229 58.2945676 12.125 60.75 C12.11496568 62.41796347 12.10584061 64.08593268 12.09765625 65.75390625 C12.07564225 69.83607897 12.04113667 73.917977 12 78 C14.97 78.33 17.94 78.66 21 79 C21.33 79.99 21.66 80.98 22 82 C21.34 82 20.68 82 20 82 C20 81.34 20 80.68 20 80 C16.7 80 13.4 80 10 80 C8.79938895 76.39816685 8.97814574 73.22311412 9.12109375 69.48828125 C9.14470474 68.76005661 9.16831573 68.03183197 9.19264221 67.28153992 C9.2691435 64.9583216 9.3532256 62.63544807 9.4375 60.3125 C9.49073427 58.73634493 9.54347458 57.16017309 9.59570312 55.58398438 C9.72474022 51.7224384 9.86057625 47.86118434 10 44 C7.69 44 5.38 44 3 44 C3.020625 44.94875 3.04125 45.8975 3.0625 46.875 C3 50 3 50 2 52 C1.84558791 54.10374996 1.75007361 56.21195119 1.68359375 58.3203125 C1.64169922 59.57714844 1.59980469 60.83398438 1.55664062 62.12890625 C1.51732422 63.44761719 1.47800781 64.76632813 1.4375 66.125 C1.39430488 67.46485751 1.35069027 68.80470156 1.30664062 70.14453125 C1.20029019 73.42957815 1.09826192 76.71470281 1 80 C0.67 80 0.34 80 0 80 C0 66.8 0 53.6 0 40 C-2.97 40 -5.94 40 -9 40 C-9 33.4 -9 26.8 -9 20 C-6.03 20 -3.06 20 0 20 C0 13.4 0 6.8 0 0 Z " fill="#927C6B" transform="translate(356,189)"/>
<path d="M0 0 C0.66 0 1.32 0 2 0 C3.15941038 3.47823115 2.70820884 5.45895578 2 9 C4.64 9 7.28 9 10 9 C10 6.03 10 3.06 10 0 C11.65 0 13.3 0 15 0 C13.68 0.33 12.36 0.66 11 1 C11 3.97 11 6.94 11 10 C8.03 10 5.06 10 2 10 C2.0309375 12.1965625 2.0309375 12.1965625 2.0625 14.4375 C2.08392007 15.95832518 2.07179964 17.48071962 2 19 C1 20 1 20 -1.28515625 20.09765625 C-3.85677083 20.06510417 -6.42838542 20.03255208 -9 20 C-9 23.3 -9 26.6 -9 30 C-15.6 30 -22.2 30 -29 30 C-29 32.97 -29 35.94 -29 39 C-29.33 39 -29.66 39 -30 39 C-30 36.03 -30 33.06 -30 30 C-76.53 30 -123.06 30 -171 30 C-171 26.7 -171 23.4 -171 20 C-170.67 20 -170.34 20 -170 20 C-170 22.97 -170 25.94 -170 29 C-123.8 29 -77.6 29 -30 29 C-30 25.7 -30 22.4 -30 19 C-23.4 19 -16.8 19 -10 19 C-10 16.03 -10 13.06 -10 10 C-6.7 10 -3.4 10 0 10 C0 6.7 0 3.4 0 0 Z " fill="#AF9D8B" transform="translate(346,310)"/>
<path d="M0 0 C6.27 0 12.54 0 19 0 C19 6.93 19 13.86 19 21 C22.3 21 25.6 21 29 21 C29 23.97 29 26.94 29 30 C19.43 30 9.86 30 0 30 C0 27.03 0 24.06 0 21 C3.3 21 6.6 21 10 21 C10 17.04 10 13.08 10 9 C6.7 9 3.4 9 0 9 C0 6.03 0 3.06 0 0 Z " fill="#744B28" transform="translate(176,159)"/>
<path d="M0 0 C2.97 0 5.94 0 9 0 C9 3.63 9 7.26 9 11 C15.93 11 22.86 11 30 11 C30 14.3 30 17.6 30 21 C23.4 21 16.8 21 10 21 C9.67 23.97 9.34 26.94 9 30 C6.03 30 3.06 30 0 30 C0 20.1 0 10.2 0 0 Z " fill="#E5E1DD" transform="translate(136,239)"/>
<path d="M0 0 C0.33 0 0.66 0 1 0 C1 3.3 1 6.6 1 10 C3.97 10 6.94 10 10 10 C10 16.27 10 22.54 10 29 C13.3 29 16.6 29 20 29 C20 29.33 20 29.66 20 30 C16.37 30 12.74 30 9 30 C9 36.6 9 43.2 9 50 C6.03 50 3.06 50 0 50 C0 56.6 0 63.2 0 70 C-0.33 70 -0.66 70 -1 70 C-1 63.07 -1 56.14 -1 49 C1.97 49 4.94 49 8 49 C8 43.06 8 37.12 8 31 C5.36 31 2.72 31 0 31 C-0.33 30.67 -0.66 30.34 -1 30 C-1 23.73 -1 17.46 -1 11 C-13.54 11.33 -26.08 11.66 -39 12 C-38.505 14.475 -38.505 14.475 -38 17 C-37.9629721 18.6662553 -37.95240038 20.33401319 -38 22 C-42.15626368 23.00926479 -46.04365094 23.10239579 -50.3125 23.0625 C-51.56675781 23.05347656 -52.82101562 23.04445312 -54.11328125 23.03515625 C-55.06589844 23.02355469 -56.01851563 23.01195312 -57 23 C-57 22.67 -57 22.34 -57 22 C-68.22 21.67 -79.44 21.34 -91 21 C-91 20.67 -91 20.34 -91 20 C-74.5 20 -58 20 -41 20 C-41 16.7 -41 13.4 -41 10 C-27.47 9.67 -13.94 9.34 0 9 C0 6.03 0 3.06 0 0 Z " fill="#C8B6A5" transform="translate(347,159)"/>
<path d="M0 0 C2.97 0 5.94 0 9 0 C9.33 6.6 9.66 13.2 10 20 C16.6 20.33 23.2 20.66 30 21 C30 23.64 30 26.28 30 29 C20.1 29 10.2 29 0 29 C0 19.43 0 9.86 0 0 Z " fill="#724B27" transform="translate(135,159)"/>
<path d="M0 0 C3.31255326 -0.02683436 6.62489183 -0.0467578 9.9375 -0.0625 C10.88302734 -0.07087891 11.82855469 -0.07925781 12.80273438 -0.08789062 C14.15141602 -0.09272461 14.15141602 -0.09272461 15.52734375 -0.09765625 C16.77632446 -0.10551147 16.77632446 -0.10551147 18.05053711 -0.11352539 C20 0 20 0 21 1 C21.07205511 2.68608966 21.08386068 4.37500659 21.0625 6.0625 C21.05347656 6.98160156 21.04445313 7.90070313 21.03515625 8.84765625 C21.02355469 9.55792969 21.01195312 10.26820313 21 11 C23.97 11 26.94 11 30 11 C30 13.97 30 16.94 30 20 C23.4 20 16.8 20 10 20 C10 17.03 10 14.06 10 11 C6.7 11 3.4 11 0 11 C0 7.37 0 3.74 0 0 Z " fill="#E9DCDA" transform="translate(306,309)"/>
<path d="M0 0 C13.53 0 27.06 0 41 0 C41 3.3 41 6.6 41 10 C35.32169922 10.02464705 29.64342931 10.04283462 23.96508789 10.05493164 C22.03181415 10.05997256 20.09854424 10.06680519 18.1652832 10.07543945 C15.39273128 10.08751565 12.62022959 10.09323057 9.84765625 10.09765625 C8.54297142 10.10539818 8.54297142 10.10539818 7.21192932 10.11329651 C5.14094186 10.11349185 3.07005676 10.06208168 1 10 C0.67 9.67 0.34 9.34 0 9 C0 6.03 0 3.06 0 0 Z " fill="#865F3C" transform="translate(195,148)"/>
<path d="M0 0 C0.33 0 0.66 0 1 0 C1 6.27 1 12.54 1 19 C7.6 19 14.2 19 21 19 C21 22.63 21 26.26 21 30 C17.7 30 14.4 30 11 30 C11 32.97 11 35.94 11 39 C13.1965625 38.9690625 13.1965625 38.9690625 15.4375 38.9375 C16.95832518 38.91607993 18.48071962 38.92820036 20 39 C21 40 21 40 21 49 C27.27 49 33.54 49 40 49 C40 49.33 40 49.66 40 50 C33.4 50 26.8 50 20 50 C20 52.97 20 55.94 20 59 C19.67 59 19.34 59 19 59 C19 56.03 19 53.06 19 50 C16.36 50.33 13.72 50.66 11 51 C11.020625 52.299375 11.04125 53.59875 11.0625 54.9375 C11.08399454 56.29165633 11.07148199 57.64756083 11 59 C10 60 10 60 7.75 60.1328125 C6.8425 60.13023437 5.935 60.12765625 5 60.125 C3.63875 60.12886719 3.63875 60.12886719 2.25 60.1328125 C0 60 0 60 -1 59 C-1.16796875 57.00390625 -1.16796875 57.00390625 -1.1875 54.5625 C-1.20167969 53.75941406 -1.21585938 52.95632813 -1.23046875 52.12890625 C-1 50 -1 50 1 48 C3.68839385 47.73008094 6.29141936 47.91262643 9 48 C9 45.36 9 42.72 9 40 C8.36191406 40.01160156 7.72382813 40.02320313 7.06640625 40.03515625 C6.24011719 40.04417969 5.41382813 40.05320312 4.5625 40.0625 C3.73878906 40.07410156 2.91507813 40.08570313 2.06640625 40.09765625 C0 40 0 40 -1 39 C-1.07179964 37.48071962 -1.08392007 35.95832518 -1.0625 34.4375 C-1.05347656 33.61121094 -1.04445312 32.78492188 -1.03515625 31.93359375 C-1.02355469 31.29550781 -1.01195312 30.65742188 -1 30 C-0.01 30 0.98 30 2 30 C2 32.97 2 35.94 2 39 C4.31 39 6.62 39 9 39 C8.98839844 38.36191406 8.97679687 37.72382813 8.96484375 37.06640625 C8.95582031 36.24011719 8.94679687 35.41382813 8.9375 34.5625 C8.92589844 33.73878906 8.91429687 32.91507812 8.90234375 32.06640625 C9 30 9 30 10 29 C11.68608966 28.92794489 13.37500659 28.91613932 15.0625 28.9375 C15.98160156 28.94652344 16.90070313 28.95554687 17.84765625 28.96484375 C18.55792969 28.97644531 19.26820313 28.98804688 20 29 C20 26.03 20 23.06 20 20 C13.4 20 6.8 20 0 20 C0 13.4 0 6.8 0 0 Z " fill="#AE9A88" transform="translate(135,280)"/>
<path d="M0 0 C13.2 0 26.4 0 40 0 C40 3.3 40 6.6 40 10 C26.8 10 13.6 10 0 10 C0 6.7 0 3.4 0 0 Z " fill="#E2DEDB" transform="translate(206,219)"/>
<path d="M0 0 C3.3 0 6.6 0 10 0 C10 13.2 10 26.4 10 40 C6.7 40 3.4 40 0 40 C0 26.8 0 13.6 0 0 Z " fill="#764928" transform="translate(125,189)"/>
<path d="M0 0 C9.9 0 19.8 0 30 0 C30 3.3 30 6.6 30 10 C26.7 10 23.4 10 20 10 C20 13.3 20 16.6 20 20 C17.03 20 14.06 20 11 20 C11 16.37 11 12.74 11 9 C7.37 9 3.74 9 0 9 C0 6.03 0 3.06 0 0 Z " fill="#FBF9F6" transform="translate(155,169)"/>
<path d="M0 0 C1.60279192 0.00015914 3.20558896 0.00585476 4.80834961 0.01586914 C5.65038437 0.01728409 6.49241913 0.01869904 7.35997009 0.02015686 C10.06024671 0.02577276 12.76044163 0.03832791 15.46069336 0.05102539 C17.28686404 0.05603834 19.11303602 0.06060161 20.93920898 0.06469727 C25.42556878 0.07574735 29.9118672 0.0930226 34.39819336 0.11352539 C34.39819336 2.75352539 34.39819336 5.39352539 34.39819336 8.11352539 C21.85819336 8.11352539 9.31819336 8.11352539 -3.60180664 8.11352539 C-3.93180664 5.80352539 -4.26180664 3.49352539 -4.60180664 1.11352539 C-3.60180664 0.11352539 -3.60180664 0.11352539 0 0 Z " fill="#724C26" transform="translate(311.601806640625,159.886474609375)"/>
<path d="M0 0 C0.33 0 0.66 0 1 0 C1 6.6 1 13.2 1 20 C3.97 20 6.94 20 10 20 C10 23.3 10 26.6 10 30 C3.73 30 -2.54 30 -9 30 C-9 23.73 -9 17.46 -9 11 C-6.03 11 -3.06 11 0 11 C0 7.37 0 3.74 0 0 Z " fill="#E5E3E1" transform="translate(145,269)"/>
<path d="M0 0 C1 2 1 2 0 10 C-9.57 10 -19.14 10 -29 10 C-29 7.03 -29 4.06 -29 1 C-19.43 0.67 -9.86 0.34 0 0 Z " fill="#E5E1DF" transform="translate(205,229)"/>
<path d="M0 0 C9.57 0 19.14 0 29 0 C29 2.97 29 5.94 29 9 C19.43 9 9.86 9 0 9 C0 6.03 0 3.06 0 0 Z " fill="#754B2A" transform="translate(176,220)"/>
<path d="M0 0 C10.23 0 20.46 0 31 0 C31 1.65 31 3.3 31 5 C30.34 4.67 29.68 4.34 29 4 C28.835 4.639375 28.67 5.27875 28.5 5.9375 C27 8 27 8 23.8125 8.75 C22.21051101 8.86801024 20.60535608 8.94408048 19 9 C17.77152344 9.0515625 16.54304688 9.103125 15.27734375 9.15625 C4.91150472 9.42382067 4.91150472 9.42382067 1.546875 7.859375 C0 6 0 6 0 0 Z " fill="#6F4A27" transform="translate(144,149)"/>
<path d="M0 0 C2.15025244 4.30050489 1.22697178 10.02727382 1.24023438 14.8034668 C1.24994745 16.92601601 1.28097427 19.04759968 1.3125 21.16992188 C1.31902955 22.51822342 1.32428021 23.86653188 1.328125 25.21484375 C1.34214355 27.05743774 1.34214355 27.05743774 1.35644531 28.93725586 C1 32 1 32 -0.38378906 33.94360352 C-2 35 -2 35 -4.1875 34.6875 C-4.785625 34.460625 -5.38375 34.23375 -6 34 C-8.60431655 11.21223022 -8.60431655 11.21223022 -5 1 C-3 0 -3 0 0 0 Z " fill="#734C24" transform="translate(364,232)"/>
<path d="M0 0 C0.33 0 0.66 0 1 0 C1 2.64 1 5.28 1 8 C7.6 8 14.2 8 21 8 C21 11.63 21 15.26 21 19 C20.67 19 20.34 19 20 19 C20 15.7 20 12.4 20 9 C13.73 9 7.46 9 1 9 C1 22.2 1 35.4 1 49 C0.67 49 0.34 49 0 49 C0 45.7 0 42.4 0 39 C-9.57 39 -19.14 39 -29 39 C-29 29.1 -29 19.2 -29 9 C-19.43 9 -9.86 9 0 9 C0 6.03 0 3.06 0 0 Z M-26.828125 11.171875 C-28.45788033 13.71429332 -28.34067893 15.53722714 -28.29296875 18.54296875 C-28.28330078 19.61611328 -28.27363281 20.68925781 -28.26367188 21.79492188 C-28.23853516 22.91447266 -28.21339844 24.03402344 -28.1875 25.1875 C-28.17396484 26.31865234 -28.16042969 27.44980469 -28.14648438 28.61523438 C-28.11109958 31.41063317 -28.06172948 34.20507892 -28 37 C-24.06263877 37.08696177 -20.12552372 37.14037835 -16.1875 37.1875 C-15.06794922 37.21263672 -13.94839844 37.23777344 -12.79492188 37.26367188 C-11.18520508 37.27817383 -11.18520508 37.27817383 -9.54296875 37.29296875 C-8.0583313 37.31653442 -8.0583313 37.31653442 -6.54370117 37.34057617 C-4.00138711 37.18280513 -4.00138711 37.18280513 -2.171875 35.828125 C-0.54211967 33.28570668 -0.65932107 31.46277286 -0.70703125 28.45703125 C-0.71669922 27.38388672 -0.72636719 26.31074219 -0.73632812 25.20507812 C-0.76146484 24.08552734 -0.78660156 22.96597656 -0.8125 21.8125 C-0.82603516 20.68134766 -0.83957031 19.55019531 -0.85351562 18.38476562 C-0.88890042 15.58936683 -0.93827052 12.79492108 -1 10 C-4.93736123 9.91303823 -8.87447628 9.85962165 -12.8125 9.8125 C-13.93205078 9.78736328 -15.05160156 9.76222656 -16.20507812 9.73632812 C-17.81479492 9.72182617 -17.81479492 9.72182617 -19.45703125 9.70703125 C-20.44678955 9.6913208 -21.43654785 9.67561035 -22.45629883 9.65942383 C-24.99861289 9.81719487 -24.99861289 9.81719487 -26.828125 11.171875 Z " fill="#DD90A1" transform="translate(205,180)"/>
<path d="M0 0 C6.6 0 13.2 0 20 0 C20 3.63 20 7.26 20 11 C13.4 11 6.8 11 0 11 C0 7.37 0 3.74 0 0 Z " fill="#F9AEB5" transform="translate(166,309)"/>
<path d="M0 0 C6.6 0 13.2 0 20 0 C20 3.63 20 7.26 20 11 C13.4 11 6.8 11 0 11 C0 7.37 0 3.74 0 0 Z " fill="#EEDF59" transform="translate(236,299)"/>
<path d="M0 0 C3.63 0 7.26 0 11 0 C11 6.6 11 13.2 11 20 C7.37 20 3.74 20 0 20 C0 13.4 0 6.8 0 0 Z " fill="#75502C" transform="translate(356,189)"/>
<path d="M0 0 C5.61 0 11.22 0 17 0 C17.33 2.31 17.66 4.62 18 7 C15.03 7 12.06 7 9 7 C8.67 10.63 8.34 14.26 8 18 C5.69 18 3.38 18 1 18 C0.93941406 17.37351562 0.87882813 16.74703125 0.81640625 16.1015625 C0.73261719 15.28429687 0.64882812 14.46703125 0.5625 13.625 C0.44068359 12.40683594 0.44068359 12.40683594 0.31640625 11.1640625 C0.10909886 8.95727195 0.10909886 8.95727195 -1 7 C-0.67 6.34 -0.34 5.68 0 5 C-0.66 5 -1.32 5 -2 5 C-1.34 3.35 -0.68 1.7 0 0 Z " fill="#724C24" transform="translate(136,301)"/>
<path d="M0 0 C13.86 0 27.72 0 42 0 C42 3.3 42 6.6 42 10 C41.67 10 41.34 10 41 10 C41 7.36 41 4.72 41 2 C28.46 2.33 15.92 2.66 3 3 C3 5.31 3 7.62 3 10 C12.24 10 21.48 10 31 10 C31 10.33 31 10.66 31 11 C21.1 11 11.2 11 1 11 C1 14.3 1 17.6 1 21 C-15.83 21 -32.66 21 -50 21 C-50 20.67 -50 20.34 -50 20 C-33.5 20 -17 20 0 20 C0 13.4 0 6.8 0 0 Z " fill="#7E664F" transform="translate(305,158)"/>
<path d="M0 0 C6.6 0 13.2 0 20 0 C20 3.3 20 6.6 20 10 C13.4 10 6.8 10 0 10 C0 6.7 0 3.4 0 0 Z " fill="#774F31" transform="translate(145,239)"/>
<path d="M0 0 C3.3 0 6.6 0 10 0 C10 6.6 10 13.2 10 20 C6.7 20 3.4 20 0 20 C0 13.4 0 6.8 0 0 Z " fill="#E5E1E1" transform="translate(336,209)"/>
<path d="M0 0 C0.33 0 0.66 0 1 0 C1 3.3 1 6.6 1 10 C3.97 10 6.94 10 10 10 C10 12.97 10 15.94 10 19 C3.73 19 -2.54 19 -9 19 C-9.33 15.7 -9.66 12.4 -10 9 C-6.7 9.33 -3.4 9.66 0 10 C0 6.7 0 3.4 0 0 Z " fill="#E7E0DD" transform="translate(165,310)"/>
<path d="M0 0 C6.6 0 13.2 0 20 0 C20 2.97 20 5.94 20 9 C13.4 9 6.8 9 0 9 C0 6.03 0 3.06 0 0 Z " fill="#734D28" transform="translate(155,330)"/>
<path d="M0 0 C6.27 0 12.54 0 19 0 C19 3.3 19 6.6 19 10 C12.56888577 10.10372765 6.39246827 9.72027812 0 9 C0 6.03 0 3.06 0 0 Z " fill="#FAAFB4" transform="translate(307,310)"/>
<path d="M0 0 C2.97 0 5.94 0 9 0 C9 6.6 9 13.2 9 20 C6.03 20 3.06 20 0 20 C0 13.4 0 6.8 0 0 Z " fill="#744B24" transform="translate(347,209)"/>
<path d="M0 0 C6.6 0 13.2 0 20 0 C20 9.9 20 19.8 20 30 C13.4 30 6.8 30 0 30 C0 20.1 0 10.2 0 0 Z M1 1 C1 10.24 1 19.48 1 29 C6.94 29 12.88 29 19 29 C19 22.73 19 16.46 19 10 C16.03 10 13.06 10 10 10 C10 7.03 10 4.06 10 1 C7.03 1 4.06 1 1 1 Z " fill="#8D6D4A" transform="translate(296,269)"/>
<path d="M0 0 C6.27 0 12.54 0 19 0 C19 2.97 19 5.94 19 9 C12.73 9 6.46 9 0 9 C0 6.03 0 3.06 0 0 Z " fill="#6F4A2A" transform="translate(317,330)"/>
<path d="M0 0 C2.97 0 5.94 0 9 0 C9 6.27 9 12.54 9 19 C6.03 19 3.06 19 0 19 C0 12.73 0 6.46 0 0 Z " fill="#6F4C29" transform="translate(347,169)"/>
<path d="M0 0 C1.37478516 0.01740234 1.37478516 0.01740234 2.77734375 0.03515625 C3.69644531 0.04417969 4.61554688 0.05320312 5.5625 0.0625 C6.27277344 0.07410156 6.98304687 0.08570313 7.71484375 0.09765625 C7.71484375 0.42765625 7.71484375 0.75765625 7.71484375 1.09765625 C5.07484375 1.42765625 2.43484375 1.75765625 -0.28515625 2.09765625 C0.04484375 4.73765625 0.37484375 7.37765625 0.71484375 10.09765625 C-0.27515625 10.42765625 -1.26515625 10.75765625 -2.28515625 11.09765625 C0.68484375 11.09765625 3.65484375 11.09765625 6.71484375 11.09765625 C6.71484375 11.42765625 6.71484375 11.75765625 6.71484375 12.09765625 C4.07484375 12.09765625 1.43484375 12.09765625 -1.28515625 12.09765625 C-1.28515625 15.39765625 -1.28515625 18.69765625 -1.28515625 22.09765625 C-4.53818669 23.72417147 -7.67741227 23.21218781 -11.28515625 23.09765625 C-12.28515625 22.09765625 -12.28515625 22.09765625 -12.3828125 19.59375 C-12.37121094 18.58441406 -12.35960938 17.57507813 -12.34765625 16.53515625 C-12.33863281 15.52324219 -12.32960938 14.51132812 -12.3203125 13.46875 C-12.30871094 12.68628906 -12.29710938 11.90382813 -12.28515625 11.09765625 C-9.31515625 11.09765625 -6.34515625 11.09765625 -3.28515625 11.09765625 C-3.29675781 10.38738281 -3.30835937 9.67710937 -3.3203125 8.9453125 C-3.33384766 7.56666016 -3.33384766 7.56666016 -3.34765625 6.16015625 C-3.35925781 5.24363281 -3.37085937 4.32710938 -3.3828125 3.3828125 C-3.25079574 0.2936203 -3.0891922 0.13201676 0 0 Z " fill="#8C7460" transform="translate(117.28515625,267.90234375)"/>
<path d="M0 0 C13.2 0 26.4 0 40 0 C40 0.33 40 0.66 40 1 C30.43 1 20.86 1 11 1 C11 3.97 11 6.94 11 10 C7.7 10 4.4 10 1 10 C1 13.63 1 17.26 1 21 C-5.93 21 -12.86 21 -20 21 C-20 20.67 -20 20.34 -20 20 C-13.4 20 -6.8 20 0 20 C0 13.4 0 6.8 0 0 Z " fill="#BB9B8D" transform="translate(165,229)"/>
<path d="M0 0 C2.97 0.33 5.94 0.66 9 1 C9 6.94 9 12.88 9 19 C6.03 19 3.06 19 0 19 C0 12.73 0 6.46 0 0 Z " fill="#E6E3E1" transform="translate(346,189)"/>
<path d="M0 0 C0.66 0.33 1.32 0.66 2 1 C3.70363822 1.22622081 5.41328701 1.40888473 7.125 1.5625 C8.73375 1.706875 10.3425 1.85125 12 2 C12 5.63 12 9.26 12 13 C9.59454362 14.20272819 8.05003047 14.10071472 5.375 14.0625 C4.14910156 14.04896484 4.14910156 14.04896484 2.8984375 14.03515625 C1.95871094 14.01775391 1.95871094 14.01775391 1 14 C-1.03684712 9.92630576 -1.0257259 7.41062136 0 3 C-4.455 3.495 -4.455 3.495 -9 4 C-9 3.01 -9 2.02 -9 1 C-6.03 1.33 -3.06 1.66 0 2 C0 1.34 0 0.68 0 0 Z " fill="#6B4B31" transform="translate(376,277)"/>
<path d="M0 0 C1.65 0 3.3 0 5 0 C5.33 0.66 5.66 1.32 6 2 C5.01 2.33 4.02 2.66 3 3 C3.66 4.32 4.32 5.64 5 7 C15.23 7 25.46 7 36 7 C36.66 5.35 37.32 3.7 38 2 C28.43 2 18.86 2 9 2 C11 0 11 0 13.98095703 -0.22705078 C15.22731934 -0.21657715 16.47368164 -0.20610352 17.7578125 -0.1953125 C18.75238968 -0.19106766 18.75238968 -0.19106766 19.76705933 -0.18673706 C21.88655583 -0.17553435 24.00563104 -0.15043051 26.125 -0.125 C27.56119182 -0.11497028 28.99739025 -0.10584441 30.43359375 -0.09765625 C33.95586628 -0.075595 37.47789203 -0.04106494 41 0 C41 2.97 41 5.94 41 9 C35.32169922 9.02464705 29.64342931 9.04283462 23.96508789 9.05493164 C22.03181415 9.05997256 20.09854424 9.06680519 18.1652832 9.07543945 C15.39273128 9.08751565 12.62022959 9.09323057 9.84765625 9.09765625 C8.54297142 9.10539818 8.54297142 9.10539818 7.21192932 9.11329651 C5.14094186 9.11349185 3.07005676 9.06208168 1 9 C0 8 0 8 -0.09765625 6.15234375 C-0.06510417 4.1015625 -0.03255208 2.05078125 0 0 Z " fill="#66472A" transform="translate(195,149)"/>
<path d="M0 0 C3.3 0 6.6 0 10 0 C10 2.97 10 5.94 10 9 C7.03 9 4.06 9 1 9 C1 18.9 1 28.8 1 39 C3.97 39 6.94 39 10 39 C10 42.63 10 46.26 10 50 C7.03 50 4.06 50 1 50 C1 49.67 1 49.34 1 49 C3.64 49 6.28 49 9 49 C9 46.03 9 43.06 9 40 C6.03 40 3.06 40 0 40 C0 26.8 0 13.6 0 0 Z " fill="#89694F" transform="translate(135,230)"/>
<path d="M0 0 C0.19466332 1.79090253 0.38051213 3.58276505 0.5625 5.375 C0.66691406 6.37273437 0.77132813 7.37046875 0.87890625 8.3984375 C1 11 1 11 0 13 C-2.78946776 13.92982259 -4.49610007 14.12857619 -7.37890625 14.1328125 C-8.21744141 14.13410156 -9.05597656 14.13539063 -9.91992188 14.13671875 C-10.79197266 14.13285156 -11.66402344 14.12898438 -12.5625 14.125 C-13.87637695 14.13080078 -13.87637695 14.13080078 -15.21679688 14.13671875 C-16.05404297 14.13542969 -16.89128906 14.13414062 -17.75390625 14.1328125 C-18.52033447 14.13168457 -19.2867627 14.13055664 -20.07641602 14.12939453 C-22 14 -22 14 -24 13 C-24.02685938 10.85423363 -24.04633088 8.70837355 -24.0625 6.5625 C-24.07410156 5.36753906 -24.08570313 4.17257812 -24.09765625 2.94140625 C-24 0 -24 0 -23 -1 C-20.45021883 -1.29420552 -17.93346528 -1.51647959 -15.375 -1.6875 C-14.32505859 -1.77741211 -14.32505859 -1.77741211 -13.25390625 -1.86914062 C-8.36232432 -2.20038875 -4.64034273 -1.58940873 0 0 Z M-21 1 C-21 4.63 -21 8.26 -21 12 C-14.4 12 -7.8 12 -1 12 C-1 8.37 -1 4.74 -1 1 C-7.6 1 -14.2 1 -21 1 Z " fill="#FEFCD2" transform="translate(257,298)"/>
<path d="M0 0 C0.66 0.33 1.32 0.66 2 1 C2 10.9 2 20.8 2 31 C-2.50292765 33.25146382 -2.50292765 33.25146382 -6.0390625 33.01171875 C-6.78414063 32.96466797 -7.52921875 32.91761719 -8.296875 32.86914062 C-9.06515625 32.80919922 -9.8334375 32.74925781 -10.625 32.6875 C-11.78902344 32.61499023 -11.78902344 32.61499023 -12.9765625 32.54101562 C-18.70342367 32.14828817 -18.70342367 32.14828817 -21 31 C-21 21.1 -21 11.2 -21 1 C-20.67 1 -20.34 1 -20 1 C-20 10.57 -20 20.14 -20 30 C-13.4 30 -6.8 30 0 30 C0 20.1 0 10.2 0 0 Z " fill="#EDE2D3" transform="translate(316,269)"/>
<path d="M0 0 C0.33 0 0.66 0 1 0 C1 2.97 1 5.94 1 9 C3.97 9 6.94 9 10 9 C10 9.33 10 9.66 10 10 C6.7 10 3.4 10 0 10 C0 13.3 0 16.6 0 20 C-0.33 20 -0.66 20 -1 20 C-1 16.7 -1 13.4 -1 10 C-13.87 10 -26.74 10 -40 10 C-40 16.6 -40 23.2 -40 30 C-37.03 30 -34.06 30 -31 30 C-31 30.33 -31 30.66 -31 31 C-34.3 31 -37.6 31 -41 31 C-41 24.07 -41 17.14 -41 10 C-43.64 10 -46.28 10 -49 10 C-49 9.67 -49 9.34 -49 9 C-46.69 9 -44.38 9 -42 9 C-42 6.36 -42 3.72 -42 1 C-41.67 1 -41.34 1 -41 1 C-40.67 3.31 -40.34 5.62 -40 8 C-20.2 8.495 -20.2 8.495 0 9 C0 6.03 0 3.06 0 0 Z " fill="#B77F7E" transform="translate(236,149)"/>
<path d="M0 0 C0.33 0 0.66 0 1 0 C1 3.63 1 7.26 1 11 C4.3 11 7.6 11 11 11 C11 14.3 11 17.6 11 21 C7.7 21 4.4 21 1 21 C0.06145994 13.96094956 -0.10808032 7.09727428 0 0 Z " fill="#E6DDD6" transform="translate(335,299)"/>
<path d="M0 0 C3.3 0 6.6 0 10 0 C10 3.3 10 6.6 10 10 C6.7 10 3.4 10 0 10 C0 6.7 0 3.4 0 0 Z " fill="#E6E3E3" transform="translate(246,209)"/>
<path d="M0 0 C3.3 0 6.6 0 10 0 C10 3.3 10 6.6 10 10 C6.7 10 3.4 10 0 10 C0 6.7 0 3.4 0 0 Z " fill="#E5E4E1" transform="translate(175,169)"/>
<path d="M0 0 C6.6 0 13.2 0 20 0 C20 3.63 20 7.26 20 11 C13.4 11 6.8 11 0 11 C0 7.37 0 3.74 0 0 Z M1 2 C1 4.64 1 7.28 1 10 C6.61 10 12.22 10 18 10 C18 7.69 18 5.38 18 3 C12.39 2.67 6.78 2.34 1 2 Z " fill="#F1C5C9" transform="translate(166,309)"/>
<path d="M0 0 C12.87 0 25.74 0 39 0 C39 3.3 39 6.6 39 10 C38.67 10 38.34 10 38 10 C38 7.36 38 4.72 38 2 C26.12 2 14.24 2 2 2 C2 6.95 2 11.9 2 17 C5.96 17.99 5.96 17.99 10 19 C9.67 19.66 9.34 20.32 9 21 C6.03 20.67 3.06 20.34 0 20 C0 13.4 0 6.8 0 0 Z " fill="#F09EB5" transform="translate(196,159)"/>
<path d="M0 0 C6.93 0.495 6.93 0.495 14 1 C14 2.65 14 4.3 14 6 C12.02 6 10.04 6 8 6 C8 6.66 8 7.32 8 8 C5.36 8 2.72 8 0 8 C0 5.36 0 2.72 0 0 Z " fill="#EBE11C" transform="translate(238,301)"/>
<path d="M0 0 C3.3 0 6.6 0 10 0 C10 2.97 10 5.94 10 9 C6.7 9 3.4 9 0 9 C0 6.03 0 3.06 0 0 Z " fill="#6A482A" transform="translate(145,320)"/>
<path d="M0 0 C3.3 0 6.6 0 10 0 C10 2.97 10 5.94 10 9 C6.7 9 3.4 9 0 9 C0 6.03 0 3.06 0 0 Z " fill="#6A472A" transform="translate(115,310)"/>
<path d="M0 0 C3.3 0 6.6 0 10 0 C10 2.97 10 5.94 10 9 C0.43 9 -9.14 9 -19 9 C-19 8.34 -19 7.68 -19 7 C-15.50007304 6.20293232 -12.2857769 5.88136973 -8.69921875 5.90234375 C-7.72275391 5.90556641 -6.74628906 5.90878906 -5.74023438 5.91210938 C-4.73283203 5.92048828 -3.72542969 5.92886719 -2.6875 5.9375 C-1.66076172 5.94201172 -0.63402344 5.94652344 0.42382812 5.95117188 C2.94927882 5.96291816 5.47460905 5.97934435 8 6 C8 4.35 8 2.7 8 1 C7.05125 1.20625 6.1025 1.4125 5.125 1.625 C4.09375 1.74875 3.0625 1.8725 2 2 C1.34 1.34 0.68 0.68 0 0 Z " fill="#864D3C" transform="translate(195,180)"/>
<path d="M0 0 C3.3 0 6.6 0 10 0 C10 2.97 10 5.94 10 9 C6.7 9 3.4 9 0 9 C0 6.03 0 3.06 0 0 Z " fill="#6D4927" transform="translate(236,159)"/>
<path d="M0 0 C2.97 0 5.94 0 9 0 C9.09765625 6.93359375 9.09765625 6.93359375 9 9 C8 10 8 10 6.15234375 10.09765625 C4.1015625 10.06510417 2.05078125 10.03255208 0 10 C0 6.7 0 3.4 0 0 Z " fill="#E4DED9" transform="translate(166,239)"/>
<path d="M0 0 C6.27 0 12.54 0 19 0 C19 3.3 19 6.6 19 10 C15.7 10 12.4 10 9 10 C9 13.3 9 16.6 9 20 C2.4 20 -4.2 20 -11 20 C-11 16.7 -11 13.4 -11 10 C-10.67 10 -10.34 10 -10 10 C-10 12.97 -10 15.94 -10 19 C-1.09 18.01 -1.09 18.01 8 17 C7.67 14.36 7.34 11.72 7 9 C10.63 9 14.26 9 18 9 C18 6.36 18 3.72 18 1 C12.06 1 6.12 1 0 1 C0 0.67 0 0.34 0 0 Z " fill="#E394A6" transform="translate(156,219)"/>
<path d="M0 0 C2.97 0 5.94 0 9 0 C9 6.6 9 13.2 9 20 C6.03 20 3.06 20 0 20 C0 13.4 0 6.8 0 0 Z M1 3 C0.87416034 4.934419 0.82421991 6.87402763 0.8125 8.8125 C0.79832031 9.87082031 0.78414063 10.92914063 0.76953125 12.01953125 C0.99384966 14.9204626 1.49803979 16.54818353 3 19 C5.8509288 18.2981424 5.8509288 18.2981424 7 17 C7.07313567 14.46950598 7.09247527 11.96695163 7.0625 9.4375 C7.05798828 8.72658203 7.05347656 8.01566406 7.04882812 7.28320312 C7.03700864 5.52209987 7.01907263 3.76103964 7 2 C3.71069596 1.63314303 3.71069596 1.63314303 1 3 Z " fill="#684A2C" transform="translate(347,209)"/>
<path d="M0 0 C3.3 0 6.6 0 10 0 C8.515 1.485 8.515 1.485 7 3 C4.3125 2.6875 4.3125 2.6875 2 2 C2.01047363 2.77714355 2.02094727 3.55428711 2.03173828 4.35498047 C2.07320282 7.861621 2.09929578 11.36821006 2.125 14.875 C2.14175781 16.09832031 2.15851563 17.32164062 2.17578125 18.58203125 C2.18222656 19.74863281 2.18867187 20.91523438 2.1953125 22.1171875 C2.20578613 23.19597168 2.21625977 24.27475586 2.22705078 25.38623047 C2 28 2 28 0 30 C0 20.1 0 10.2 0 0 Z M-9 30 C-6.03 30 -3.06 30 0 30 C-0.33 30.66 -0.66 31.32 -1 32 C-3.64 31.67 -6.28 31.34 -9 31 C-9 30.67 -9 30.34 -9 30 Z " fill="#674C33" transform="translate(125,239)"/>
<path d="M0 0 C2.475 0.495 2.475 0.495 5 1 C4.67 9.25 4.34 17.5 4 26 C7.3 26 10.6 26 14 26 C14 26.33 14 26.66 14 27 C10.7 27 7.4 27 4 27 C4.33 30.3 4.66 33.6 5 37 C4.34 37 3.68 37 3 37 C3 34.03 3 31.06 3 28 C2.01 27.67 1.02 27.34 0 27 C0.99 27 1.98 27 3 27 C3 26.01 3 25.02 3 24 C2.34 24 1.68 24 1 24 C1.01740234 22.02966797 1.01740234 22.02966797 1.03515625 20.01953125 C1.04453828 18.28385559 1.05363804 16.54817839 1.0625 14.8125 C1.07087891 13.94818359 1.07925781 13.08386719 1.08789062 12.19335938 C1.10396812 7.99713231 1.07559038 4.09063114 0 0 Z " fill="#8F7965" transform="translate(363,283)"/>
<path d="M0 0 C2.97 0 5.94 0 9 0 C9 3.3 9 6.6 9 10 C6.03 10 3.06 10 0 10 C0 6.7 0 3.4 0 0 Z " fill="#8E5F30" transform="translate(186,270)"/>
<path d="M0 0 C0.33 0 0.66 0 1 0 C1 6.27 1 12.54 1 19 C-5.27 19 -11.54 19 -18 19 C-18 14.38 -18 9.76 -18 5 C-17.67 5 -17.34 5 -17 5 C-17 8.96 -17 12.92 -17 17 C-11.72 17 -6.44 17 -1 17 C-1.020625 14.751875 -1.04125 12.50375 -1.0625 10.1875 C-1.125 3.375 -1.125 3.375 0 0 Z " fill="#6F5336" transform="translate(194,280)"/>
<path d="M0 0 C2.97 0 5.94 0 9 0 C9 2.97 9 5.94 9 9 C6.03 9 3.06 9 0 9 C0 6.03 0 3.06 0 0 Z " fill="#7C513E" transform="translate(166,230)"/>
<path d="M0 0 C3.3 0 6.6 0 10 0 C10 2.64 10 5.28 10 8 C6.7 8 3.4 8 0 8 C0 5.36 0 2.72 0 0 Z " fill="#704C27" transform="translate(337,321)"/>
<path d="M0 0 C2.97 0 5.94 0 9 0 C9 2.97 9 5.94 9 9 C6.03 9 3.06 9 0 9 C0 6.03 0 3.06 0 0 Z " fill="#E6E1DF" transform="translate(146,310)"/>
<path d="M0 0 C6.27 0 12.54 0 19 0 C19 2.97 19 5.94 19 9 C16.03 9 13.06 9 10 9 C10 8.67 10 8.34 10 8 C12.31 7.34 14.62 6.68 17 6 C17.33 4.35 17.66 2.7 18 1 C10.08 1.495 10.08 1.495 2 2 C1.67 10.91 1.34 19.82 1 29 C0.67 29 0.34 29 0 29 C0 19.43 0 9.86 0 0 Z " fill="#82483A" transform="translate(206,189)"/>
<path d="M0 0 C1.670625 0.061875 1.670625 0.061875 3.375 0.125 C3.375 3.425 3.375 6.725 3.375 10.125 C0.405 10.125 -2.565 10.125 -5.625 10.125 C-5.8203125 4.0703125 -5.8203125 4.0703125 -5.625 2.125 C-3.625 0.125 -3.625 0.125 0 0 Z " fill="#6D492B" transform="translate(140.625,328.875)"/>
<path d="M0 0 C11.55 0 23.1 0 35 0 C35 0.33 35 0.66 35 1 C30.94377781 1.31134287 26.88702098 1.61424162 22.82958984 1.90942383 C21.45018648 2.01096009 20.07094905 2.11477806 18.69189453 2.22094727 C16.7065095 2.37339392 14.72044308 2.51688268 12.734375 2.66015625 C11.54038086 2.74918213 10.34638672 2.83820801 9.11621094 2.92993164 C6 3 6 3 2 2 C1.67 10.58 1.34 19.16 1 28 C0.67 28 0.34 28 0 28 C0 18.76 0 9.52 0 0 Z " fill="#E7DCD1" transform="translate(256,180)"/>
<path d="M0 0 C2.97 0 5.94 0 9 0 C9 0.33 9 0.66 9 1 C6.69 1.33 4.38 1.66 2 2 C2.99 3.485 2.99 3.485 4 5 C4 5.99 4 6.98 4 8 C4.804375 8.144375 5.60875 8.28875 6.4375 8.4375 C9 9 9 9 10 10 C10.08669432 11.4887186 10.10703494 12.981445 10.09765625 14.47265625 C10.09443359 15.37177734 10.09121094 16.27089844 10.08789062 17.19726562 C10.07951172 18.14279297 10.07113281 19.08832031 10.0625 20.0625 C10.05798828 21.01189453 10.05347656 21.96128906 10.04882812 22.93945312 C10.0370011 25.29303065 10.02052025 27.64648477 10 30 C9.67 30 9.34 30 9 30 C9 23.73 9 17.46 9 11 C6.03 11 3.06 11 0 11 C0 7.37 0 3.74 0 0 Z " fill="#80654A" transform="translate(347,269)"/>
<path d="M0 0 C3.3 0 6.6 0 10 0 C10 6.6 10 13.2 10 20 C6.7 20 3.4 20 0 20 C0 19.34 0 18.68 0 18 C2.64 18 5.28 18 8 18 C7.67 13.05 7.34 8.1 7 3 C4.69 3 2.38 3 0 3 C0 2.01 0 1.02 0 0 Z " fill="#6C523D" transform="translate(357,189)"/>
<path d="M0 0 C1.65 0 3.3 0 5 0 C5.33 0.66 5.66 1.32 6 2 C5.01 2.33 4.02 2.66 3 3 C3.66 4.32 4.32 5.64 5 7 C16.22 7 27.44 7 39 7 C39 7.66 39 8.32 39 9 C33.60653012 9.02464849 28.21309275 9.04283531 22.81958008 9.05493164 C20.98331125 9.05997231 19.14704646 9.06680477 17.31079102 9.07543945 C14.67723599 9.08751672 12.04373384 9.09323081 9.41015625 9.09765625 C8.17109276 9.10539818 8.17109276 9.10539818 6.90699768 9.11329651 C4.93763632 9.11349205 2.96838386 9.06204152 1 9 C0 8 0 8 -0.09765625 6.15234375 C-0.06510417 4.1015625 -0.03255208 2.05078125 0 0 Z " fill="#7A4631" transform="translate(195,149)"/>
<path d="M0 0 C9.57 0 19.14 0 29 0 C29 0.33 29 0.66 29 1 C27.97845825 1.03758423 27.97845825 1.03758423 26.9362793 1.07592773 C23.85316245 1.19190952 20.77034954 1.31462616 17.6875 1.4375 C16.61564453 1.47681641 15.54378906 1.51613281 14.43945312 1.55664062 C12.89741211 1.61948242 12.89741211 1.61948242 11.32421875 1.68359375 C10.37635498 1.72025146 9.42849121 1.75690918 8.4519043 1.79467773 C5.863829 1.91430187 5.863829 1.91430187 3 3 C2.95101562 4.10859375 2.90203125 5.2171875 2.8515625 6.359375 C2.77650785 7.82294065 2.70096119 9.28648112 2.625 10.75 C2.5940625 11.47960937 2.563125 12.20921875 2.53125 12.9609375 C2.31050269 17.00797144 1.85079003 19.29841994 0 23 C0 15.41 0 7.82 0 0 Z " fill="#ED9AB1" transform="translate(136,189)"/>
<path d="M0 0 C0 2.97 0 5.94 0 9 C-2.97 8.67 -5.94 8.34 -9 8 C-9 5.69 -9 3.38 -9 1 C-2.25 0 -2.25 0 0 0 Z " fill="#724C26" transform="translate(115,280)"/>
<path d="M0 0 C0.33 1.32 0.66 2.64 1 4 C10.57 4.33 20.14 4.66 30 5 C30 5.33 30 5.66 30 6 C20.1 6 10.2 6 0 6 C0 12.6 0 19.2 0 26 C-0.33 26 -0.66 26 -1 26 C-1 19.4 -1 12.8 -1 6 C-3.97 6 -6.94 6 -10 6 C-10 5.67 -10 5.34 -10 5 C-7.03 5 -4.06 5 -1 5 C-0.67 3.35 -0.34 1.7 0 0 Z " fill="#89705A" transform="translate(145,153)"/>
<path d="M0 0 C0.33 0 0.66 0 1 0 C1.33 4.62 1.66 9.24 2 14 C4.475 14.99 4.475 14.99 7 16 C7 16.33 7 16.66 7 17 C5.02 17 3.04 17 1 17 C1 20.3 1 23.6 1 27 C-2.96 27 -6.92 27 -11 27 C-11.09765625 19.28515625 -11.09765625 19.28515625 -11 17 C-10 16 -10 16 -7.71484375 15.90234375 C-5.14322917 15.93489583 -2.57161458 15.96744792 0 16 C0 10.72 0 5.44 0 0 Z M-10 17 C-10 19.97 -10 22.94 -10 26 C-6.7 26 -3.4 26 0 26 C0 23.03 0 20.06 0 17 C-3.3 17 -6.6 17 -10 17 Z " fill="#958171" transform="translate(125,293)"/>
<path d="M0 0 C0.33 0 0.66 0 1 0 C1 3.63 1 7.26 1 11 C3.97 11 6.94 11 10 11 C10 17.27 10 23.54 10 30 C3.73 30 -2.54 30 -9 30 C-9 29.67 -9 29.34 -9 29 C-3.06 29 2.88 29 9 29 C8.855625 27.081875 8.71125 25.16375 8.5625 23.1875 C8.48128906 22.10855469 8.40007812 21.02960938 8.31640625 19.91796875 C8.09787539 16.94010095 8.09787539 16.94010095 7 14 C3.48809191 12.77030122 3.48809191 12.77030122 0 12 C0 8.04 0 4.08 0 0 Z " fill="#E4D2C2" transform="translate(346,269)"/>
<path d="M0 0 C6.27 0 12.54 0 19 0 C19 3.3 19 6.6 19 10 C12.56888577 10.10372765 6.39246827 9.72027812 0 9 C0 6.03 0 3.06 0 0 Z M1 3 C1.32041397 5.60280568 1.32041397 5.60280568 2 8 C3.79158489 8.02696365 5.58328473 8.04637917 7.375 8.0625 C8.87160156 8.07990234 8.87160156 8.07990234 10.3984375 8.09765625 C12.98432453 8.18006602 12.98432453 8.18006602 15 7 C15 7.66 15 8.32 15 9 C15.99 9 16.98 9 18 9 C18 6.36 18 3.72 18 1 C15.54137599 0.94616152 13.0839245 0.90640962 10.625 0.875 C9.92632812 0.85824219 9.22765625 0.84148437 8.5078125 0.82421875 C4.29509535 0.63142218 4.29509535 0.63142218 1 3 Z " fill="#EEB7BB" transform="translate(307,310)"/>
<path d="M0 0 C2.64 0 5.28 0 8 0 C8 0.33 8 0.66 8 1 C6.02 1.33 4.04 1.66 2 2 C1.67 6.62 1.34 11.24 1 16 C2.13179687 16.04898437 3.26359375 16.09796875 4.4296875 16.1484375 C5.91148339 16.22346514 7.393253 16.29901297 8.875 16.375 C9.62136719 16.4059375 10.36773437 16.436875 11.13671875 16.46875 C16.7734375 16.7734375 16.7734375 16.7734375 19 19 C12.73 19 6.46 19 0 19 C0 12.73 0 6.46 0 0 Z " fill="#EADCCE" transform="translate(136,280)"/>
<path d="M0 0 C0.99 0.33 1.98 0.66 3 1 C3.23808624 3.85703482 3.42918681 6.19955607 3 9 C0.57106439 11.63713009 -1.42332485 12.77719369 -4.75 14.0625 C-5.4925 14.371875 -6.235 14.68125 -7 15 C-7.33 15.99 -7.66 16.98 -8 18 C-7.34 18.33 -6.68 18.66 -6 19 C-6.99 19 -7.98 19 -9 19 C-9 16.36 -9 13.72 -9 11 C-6.36 10.67 -3.72 10.34 -1 10 C-0.67 6.7 -0.34 3.4 0 0 Z " fill="#F59EBC" transform="translate(226,189)"/>
<path d="M0 0 C2.31 0 4.62 0 7 0 C7 0.33 7 0.66 7 1 C5.02 1 3.04 1 1 1 C1.11826743 5.78735926 1.24251713 10.57451171 1.37231445 15.36157227 C1.41562749 16.99011004 1.45730518 18.61869216 1.49731445 20.24731445 C1.55510503 22.58818935 1.61877398 24.92884176 1.68359375 27.26953125 C1.70030624 27.99775589 1.71701874 28.72598053 1.73423767 29.47627258 C1.82467238 32.56166939 2.01723993 35.05171978 3 38 C2.67 38.66 2.34 39.32 2 40 C1.34 40 0.68 40 0 40 C0 26.8 0 13.6 0 0 Z " fill="#67503E" transform="translate(125,189)"/>
<path d="M0 0 C1.32 0.33 2.64 0.66 4 1 C3.34 1 2.68 1 2 1 C2 3.31 2 5.62 2 8 C9.59 8 17.18 8 25 8 C25 8.33 25 8.66 25 9 C21.02119772 9.19585353 17.04194844 9.3802867 13.0625 9.5625 C11.35803711 9.64661133 11.35803711 9.64661133 9.61914062 9.73242188 C8.53955078 9.78076172 7.45996094 9.82910156 6.34765625 9.87890625 C4.84730835 9.94960327 4.84730835 9.94960327 3.31665039 10.02172852 C1 10 1 10 0 9 C-0.07179964 7.48071962 -0.08392007 5.95832518 -0.0625 4.4375 C-0.05347656 3.61121094 -0.04445312 2.78492188 -0.03515625 1.93359375 C-0.02355469 1.29550781 -0.01195312 0.65742188 0 0 Z " fill="#694F3A" transform="translate(175,341)"/>
<path d="M0 0 C2.31 0.33 4.62 0.66 7 1 C5.68 1.33 4.36 1.66 3 2 C3.33 3.65 3.66 5.3 4 7 C8.62 7 13.24 7 18 7 C18.33 7.66 18.66 8.32 19 9 C12.73 9 6.46 9 0 9 C0 6.03 0 3.06 0 0 Z " fill="#66482D" transform="translate(155,330)"/>
<path d="M0 0 C-0.33 0.99 -0.66 1.98 -1 3 C-2.98 3 -4.96 3 -7 3 C-7 13.56 -7 24.12 -7 35 C-7.33 35 -7.66 35 -8 35 C-8 23.78 -8 12.56 -8 1 C-2 0 -2 0 0 0 Z " fill="#68472B" transform="translate(134,189)"/>
<path d="M0 0 C3.3 0 6.6 0 10 0 C9.67 0.99 9.34 1.98 9 3 C7.02 3.33 5.04 3.66 3 4 C2.67 5.65 2.34 7.3 2 9 C1.34 9 0.68 9 0 9 C0 6.03 0 3.06 0 0 Z " fill="#804834" transform="translate(156,209)"/>
<path d="M0 0 C0 0.99 0 1.98 0 3 C-3.3 3 -6.6 3 -10 3 C-10 5.97 -10 8.94 -10 12 C-12.64 12 -15.28 12 -18 12 C-15 10 -15 10 -12 10 C-11.67 7.36 -11.34 4.72 -11 2 C-3.375 0 -3.375 0 0 0 Z " fill="#624329" transform="translate(366,307)"/>
<path d="M0 0 C3.3 0 6.6 0 10 0 C10 0.66 10 1.32 10 2 C8.68 2 7.36 2 6 2 C6 2.66 6 3.32 6 4 C5.38125 4.2475 4.7625 4.495 4.125 4.75 C1.54131114 6.01039254 1.54131114 6.01039254 0 10 C0 6.7 0 3.4 0 0 Z " fill="#DFD5C8" transform="translate(246,209)"/>
<path d="M0 0 C0.99 0 1.98 0 3 0 C3 0.66 3 1.32 3 2 C2.34 2 1.68 2 1 2 C1.08097224 5.58425201 1.19380698 9.16681439 1.3125 12.75 C1.33505859 13.76578125 1.35761719 14.7815625 1.38085938 15.828125 C1.41630859 16.8078125 1.45175781 17.7875 1.48828125 18.796875 C1.51446533 19.69760742 1.54064941 20.59833984 1.56762695 21.52636719 C2.07012061 24.4011643 3.09621932 25.82804998 5 28 C3.35 28 1.7 28 0 28 C0 18.76 0 9.52 0 0 Z " fill="#6A4F31" transform="translate(297,270)"/>
<path d="M0 0 C2.97 0 5.94 0 9 0 C9 0.33 9 0.66 9 1 C6.36 1 3.72 1 1 1 C1.14139481 3.25028329 1.28828003 5.50022206 1.4375 7.75 C1.51871094 9.00296875 1.59992188 10.2559375 1.68359375 11.546875 C1.96582832 15.36769339 1.96582832 15.36769339 3 19 C3.99 19.33 4.98 19.66 6 20 C4.02 20 2.04 20 0 20 C0 13.4 0 6.8 0 0 Z " fill="#6F5537" transform="translate(347,209)"/>
<path d="M0 0 C0.33 0 0.66 0 1 0 C1 3.63 1 7.26 1 11 C-1.40545638 12.20272819 -2.94996953 12.10071472 -5.625 12.0625 C-6.85089844 12.04896484 -6.85089844 12.04896484 -8.1015625 12.03515625 C-9.04128906 12.01775391 -9.04128906 12.01775391 -10 12 C-10 11.01 -10 10.02 -10 9 C-2.25 8.875 -2.25 8.875 0 10 C0 6.7 0 3.4 0 0 Z " fill="#B1A196" transform="translate(387,279)"/>
<path d="M0 0 C3.3 0 6.6 0 10 0 C10 3.3 10 6.6 10 10 C6.7 10 3.4 10 0 10 C0 9.67 0 9.34 0 9 C1.7015625 8.5978125 1.7015625 8.5978125 3.4375 8.1875 C4.613125 7.795625 5.78875 7.40375 7 7 C8.15811388 4.05270463 8.15811388 4.05270463 8 1 C5.36 1 2.72 1 0 1 C0 0.67 0 0.34 0 0 Z " fill="#E2D3C4" transform="translate(175,169)"/>
<path d="M0 0 C0 2.31 0 4.62 0 7 C-1.65 7 -3.3 7 -5 7 C-5.33 5.35 -5.66 3.7 -6 2 C-3 0 -3 0 0 0 Z " fill="#724A29" transform="translate(174,231)"/>
<path d="M0 0 C2.97 0 5.94 0 9 0 C8.34 0.66 7.68 1.32 7 2 C5.68 2 4.36 2 3 2 C3 4.31 3 6.62 3 9 C2.01 9 1.02 9 0 9 C0 6.03 0 3.06 0 0 Z " fill="#EADFD2" transform="translate(146,310)"/>
<path d="M0 0 C0.99 0 1.98 0 3 0 C3 2.97 3 5.94 3 9 C5.31 9 7.62 9 10 9 C10 9.33 10 9.66 10 10 C8.52093108 10.02689216 7.04172517 10.04634621 5.5625 10.0625 C4.32693359 10.07990234 4.32693359 10.07990234 3.06640625 10.09765625 C1 10 1 10 0 9 C-0.07179964 7.48071962 -0.08392007 5.95832518 -0.0625 4.4375 C-0.05347656 3.61121094 -0.04445312 2.78492188 -0.03515625 1.93359375 C-0.02355469 1.29550781 -0.01195312 0.65742188 0 0 Z " fill="#836E56" transform="translate(134,310)"/>
<path d="M0 0 C1.98 0 3.96 0 6 0 C6.5625 1.9375 6.5625 1.9375 7 4 C6 5 6 5 3.4375 5.0625 C2.2309375 5.0315625 2.2309375 5.0315625 1 5 C0.67 3.35 0.34 1.7 0 0 Z " fill="#EDE602" transform="translate(238,302)"/>
<path d="M0 0 C1.98 0 3.96 0 6 0 C6 1.65 6 3.3 6 5 C4.02 5 2.04 5 0 5 C0 3.35 0 1.7 0 0 Z " fill="#F6D822" transform="translate(246,302)"/>
<path d="M0 0 C0.33 0 0.66 0 1 0 C1 3.3 1 6.6 1 10 C-2.21451269 11.60725635 -5.43612536 11.05748185 -9 11 C-9 10.01 -9 9.02 -9 8 C-6.03 8.33 -3.06 8.66 0 9 C0 6.03 0 3.06 0 0 Z " fill="#AA9E92" transform="translate(115,280)"/>
<path d="M0 0 C1.65 0 3.3 0 5 0 C5.33 0.66 5.66 1.32 6 2 C5.01 2.33 4.02 2.66 3 3 C3.33 4.32 3.66 5.64 4 7 C3.01 7.66 2.02 8.32 1 9 C0 8 0 8 -0.09765625 6.15234375 C-0.06510417 4.1015625 -0.03255208 2.05078125 0 0 Z " fill="#644930" transform="translate(195,149)"/>
<path d="M0 0 C0.33 0 0.66 0 1 0 C1 3.63 1 7.26 1 11 C3.64 11 6.28 11 9 11 C9 12.98 9 14.96 9 17 C8.443125 16.360625 7.88625 15.72125 7.3125 15.0625 C4.87218173 12.53561833 4.87218173 12.53561833 0 12 C0 8.04 0 4.08 0 0 Z " fill="#D7CBBC" transform="translate(346,269)"/>
<path d="M0 0 C0.99 0.99 1.98 1.98 3 3 C2.34 3 1.68 3 1 3 C1 5.64 1 8.28 1 11 C0.34 10.34 -0.32 9.68 -1 9 C-0.625 5.875 -0.625 5.875 0 3 C-4.455 3.495 -4.455 3.495 -9 4 C-9 3.01 -9 2.02 -9 1 C-6.03 1.33 -3.06 1.66 0 2 C0 1.34 0 0.68 0 0 Z " fill="#876F60" transform="translate(376,277)"/>
<path d="M0 0 C0.99 0 1.98 0 3 0 C2.67 2.31 2.34 4.62 2 7 C4.97 7 7.94 7 11 7 C11 7.33 11 7.66 11 8 C7.37 8 3.74 8 0 8 C0 5.36 0 2.72 0 0 Z " fill="#F59FBC" transform="translate(146,230)"/>
<path d="M0 0 C3.3 0 6.6 0 10 0 C10 2.97 10 5.94 10 9 C9.67 9 9.34 9 9 9 C9 6.69 9 4.38 9 2 C6.36 2.33 3.72 2.66 1 3 C0.67 2.01 0.34 1.02 0 0 Z " fill="#70543B" transform="translate(145,320)"/>
<path d="M0 0 C2.97 0 5.94 0 9 0 C9 3.3 9 6.6 9 10 C8.34 9.67 7.68 9.34 7 9 C6.59270772 6.67843403 6.25561323 4.3431213 6 2 C3.03 1.505 3.03 1.505 0 1 C0 0.67 0 0.34 0 0 Z " fill="#876640" transform="translate(186,270)"/>
<path d="M0 0 C0.99 0 1.98 0 3 0 C3 2.97 3 5.94 3 9 C-0.3 8.67 -3.6 8.34 -7 8 C-7 7.67 -7 7.34 -7 7 C-4.36 7 -1.72 7 1 7 C0.67 4.69 0.34 2.38 0 0 Z " fill="#694A2C" transform="translate(313,341)"/>
<path d="M0 0 C0.33 0 0.66 0 1 0 C1 2.97 1 5.94 1 9 C-2.63 9 -6.26 9 -10 9 C-10 8.67 -10 8.34 -10 8 C-7.36 7.67 -4.72 7.34 -2 7 C-1.34 4.69 -0.68 2.38 0 0 Z " fill="#E9DDD2" transform="translate(315,330)"/>
<path d="M0 0 C0.99 0 1.98 0 3 0 C3 2.64 3 5.28 3 8 C-0.3 8 -3.6 8 -7 8 C-7 7.67 -7 7.34 -7 7 C-4.36 7 -1.72 7 1 7 C0.67 4.69 0.34 2.38 0 0 Z " fill="#634934" transform="translate(344,321)"/>
<path d="M0 0 C3.3 0 6.6 0 10 0 C10 2.97 10 5.94 10 9 C8 6 8 6 8 2 C5.36 2 2.72 2 0 2 C0 1.34 0 0.68 0 0 Z " fill="#896645" transform="translate(306,270)"/>
<path d="M0 0 C2.31 0 4.62 0 7 0 C5.02 0.99 5.02 0.99 3 2 C3 4.31 3 6.62 3 9 C2.01 9 1.02 9 0 9 C0 6.03 0 3.06 0 0 Z " fill="#664E39" transform="translate(305,159)"/>
<path d="M0 0 C0.99 0.495 0.99 0.495 2 1 C2.625 4.0625 2.625 4.0625 3 7 C5.97 7.495 5.97 7.495 9 8 C9 8.33 9 8.66 9 9 C6.03 9 3.06 9 0 9 C0 6.03 0 3.06 0 0 Z " fill="#804839" transform="translate(236,159)"/>
<path d="M0 0 C0.66 0 1.32 0 2 0 C2 2.97 2 5.94 2 9 C0.68 8.67 -0.64 8.34 -2 8 C-2 7.34 -2 6.68 -2 6 C-1.34 6 -0.68 6 0 6 C0 4.02 0 2.04 0 0 Z " fill="#66462D" transform="translate(113,280)"/>
<path d="M0 0 C1.98 0 3.96 0 6 0 C5.01 0.66 4.02 1.32 3 2 C1.78715124 5.05429073 1.78715124 5.05429073 1 8 C0.67 8 0.34 8 0 8 C0 5.36 0 2.72 0 0 Z " fill="#ECE0D7" transform="translate(146,160)"/>
<path d="M0 0 C1.65 0.33 3.3 0.66 5 1 C4.67 1.99 4.34 2.98 4 4 C2.35 3.67 0.7 3.34 -1 3 C-0.67 2.01 -0.34 1.02 0 0 Z " fill="#744D1E" transform="translate(149,323)"/>
<path d="M0 0 C0.66 0 1.32 0 2 0 C2.33 0.99 2.66 1.98 3 3 C2.34 3.66 1.68 4.32 1 5 C0.01 5 -0.98 5 -2 5 C-1.125 1.125 -1.125 1.125 0 0 Z " fill="#784A23" transform="translate(381,282)"/>
<path d="" fill="#FFFFFF" transform="translate(0,0)"/>
<path d="" fill="#FFFFFF" transform="translate(0,0)"/>
<path d="" fill="#FFFFFF" transform="translate(0,0)"/>
<path d="" fill="#FFFFFF" transform="translate(0,0)"/>
<path d="" fill="#FFFFFF" transform="translate(0,0)"/>
<path d="" fill="#FFFFFF" transform="translate(0,0)"/>
<path d="" fill="#FFFFFF" transform="translate(0,0)"/>
<path d="" fill="#FFFFFF" transform="translate(0,0)"/>
<path d="" fill="#FFFFFF" transform="translate(0,0)"/>
<path d="" fill="#FFFFFF" transform="translate(0,0)"/>
<path d="" fill="#FFFFFF" transform="translate(0,0)"/>
<path d="" fill="#FFFFFF" transform="translate(0,0)"/>
<path d="" fill="#FFFFFF" transform="translate(0,0)"/>
<path d="" fill="#FFFFFF" transform="translate(0,0)"/>
<path d="" fill="#FFFFFF" transform="translate(0,0)"/>
<path d="" fill="#FFFFFF" transform="translate(0,0)"/>
<path d="" fill="#FFFFFF" transform="translate(0,0)"/>
<path d="" fill="#FFFFFF" transform="translate(0,0)"/>
<path d="" fill="#FFFFFF" transform="translate(0,0)"/>
<path d="" fill="#FFFFFF" transform="translate(0,0)"/>
<path d="" fill="#FFFFFF" transform="translate(0,0)"/>
<path d="" fill="#FFFFFF" transform="translate(0,0)"/>
<path d="" fill="#FFFFFF" transform="translate(0,0)"/>
<path d="" fill="#FFFFFF" transform="translate(0,0)"/>
<path d="" fill="#FFFFFF" transform="translate(0,0)"/>
<path d="" fill="#FFFFFF" transform="translate(0,0)"/>
<path d="" fill="#FFFFFF" transform="translate(0,0)"/>
<path d="" fill="#FFFFFF" transform="translate(0,0)"/>
<path d="" fill="#FFFFFF" transform="translate(0,0)"/>
<path d="" fill="#FFFFFF" transform="translate(0,0)"/>
<path d="" fill="#FFFFFF" transform="translate(0,0)"/>
<path d="" fill="#FFFFFF" transform="translate(0,0)"/>
<path d="" fill="#FFFFFF" transform="translate(0,0)"/>
<path d="" fill="#FFFFFF" transform="translate(0,0)"/>
<path d="" fill="#FFFFFF" transform="translate(0,0)"/>
<path d="" fill="#FFFFFF" transform="translate(0,0)"/>
<path d="" fill="#FFFFFF" transform="translate(0,0)"/>
<path d="" fill="#FFFFFF" transform="translate(0,0)"/>
<path d="" fill="#FFFFFF" transform="translate(0,0)"/>
<path d="" fill="#FFFFFF" transform="translate(0,0)"/>
<path d="" fill="#FFFFFF" transform="translate(0,0)"/>
<path d="" fill="#FFFFFF" transform="translate(0,0)"/>
<path d="" fill="#FFFFFF" transform="translate(0,0)"/>
<path d="" fill="#FFFFFF" transform="translate(0,0)"/>
<path d="" fill="#FFFFFF" transform="translate(0,0)"/>
<path d="" fill="#FFFFFF" transform="translate(0,0)"/>
<path d="" fill="#FFFFFF" transform="translate(0,0)"/>
<path d="" fill="#FFFFFF" transform="translate(0,0)"/>
<path d="" fill="#FFFFFF" transform="translate(0,0)"/>
<path d="" fill="#FFFFFF" transform="translate(0,0)"/>
<path d="" fill="#FFFFFF" transform="translate(0,0)"/>
<path d="" fill="#FFFFFF" transform="translate(0,0)"/>
<path d="" fill="#FFFFFF" transform="translate(0,0)"/>
<path d="" fill="#FFFFFF" transform="translate(0,0)"/>
<path d="" fill="#FFFFFF" transform="translate(0,0)"/>
<path d="" fill="#FFFFFF" transform="translate(0,0)"/>
<path d="" fill="#FFFFFF" transform="translate(0,0)"/>
<path d="" fill="#FFFFFF" transform="translate(0,0)"/>
<path d="" fill="#FFFFFF" transform="translate(0,0)"/>
<path d="" fill="#FFFFFF" transform="translate(0,0)"/>
<path d="" fill="#FFFFFF" transform="translate(0,0)"/>
<path d="" fill="#FFFFFF" transform="translate(0,0)"/>
<path d="" fill="#FFFFFF" transform="translate(0,0)"/>
<path d="" fill="#FFFFFF" transform="translate(0,0)"/>
<path d="" fill="#FFFFFF" transform="translate(0,0)"/>
<path d="" fill="#FFFFFF" transform="translate(0,0)"/>
<path d="" fill="#FFFFFF" transform="translate(0,0)"/>
<path d="" fill="#FFFFFF" transform="translate(0,0)"/>
<path d="" fill="#FFFFFF" transform="translate(0,0)"/>
<path d="" fill="#FFFFFF" transform="translate(0,0)"/>
<path d="" fill="#FFFFFF" transform="translate(0,0)"/>
<path d="" fill="#FFFFFF" transform="translate(0,0)"/>
</svg>
