<?xml version="1.0" encoding="UTF-8"?>
<svg version="1.1" xmlns="http://www.w3.org/2000/svg" width="500" height="500">
<path d="M0 0 C2.33294775 -0.04241723 4.66702567 -0.04092937 7 0 C8 1 8 1 8.0625 4.5625 C8.041875 5.696875 8.02125 6.83125 8 8 C8.99902344 7.98839844 9.99804688 7.97679687 11.02734375 7.96484375 C12.31769531 7.95582031 13.60804688 7.94679687 14.9375 7.9375 C16.22527344 7.92589844 17.51304687 7.91429687 18.83984375 7.90234375 C22 8 22 8 23 9 C23.04080783 10.99958364 23.04254356 13.00045254 23 15 C25.31 15 27.62 15 30 15 C30.309375 16.670625 30.309375 16.670625 30.625 18.375 C31.07875 19.57125 31.5325 20.7675 32 22 C35.00847418 23.22520264 35.00847418 23.22520264 38 24 C38.9375 26 38.9375 26 39 28 C38.67 28.66 38.34 29.32 38 30 C39.37285156 29.98259766 39.37285156 29.98259766 40.7734375 29.96484375 C42.55621094 29.95130859 42.55621094 29.95130859 44.375 29.9375 C45.55835938 29.92589844 46.74171875 29.91429687 47.9609375 29.90234375 C51 30 51 30 53 31 C53.625 34.0625 53.625 34.0625 54 37 C56.31 37.33 58.62 37.66 61 38 C61 40.31 61 42.62 61 45 C61.94875 44.979375 62.8975 44.95875 63.875 44.9375 C67 45 67 45 69 46 C69 48.31 69 50.62 69 53 C70.49853516 52.98259766 70.49853516 52.98259766 72.02734375 52.96484375 C73.31769531 52.95582031 74.60804688 52.94679687 75.9375 52.9375 C77.22527344 52.92589844 78.51304687 52.91429687 79.83984375 52.90234375 C83 53 83 53 84 54 C84.04092937 56.33297433 84.04241723 58.66705225 84 61 C85.7015625 60.9690625 85.7015625 60.9690625 87.4375 60.9375 C91 61 91 61 92 62 C92.25156269 65.63899175 92.18522226 69.29083673 92.1875 72.9375 C92.19974609 73.96552734 92.21199219 74.99355469 92.22460938 76.05273438 C92.22654297 77.03435547 92.22847656 78.01597656 92.23046875 79.02734375 C92.23457764 79.93218506 92.23868652 80.83702637 92.24291992 81.76928711 C92 84 92 84 90 86 C86.875 86.125 86.875 86.125 84 86 C84.0309375 87.4540625 84.0309375 87.4540625 84.0625 88.9375 C84 92 84 92 83 93 C80.64686445 93.07271741 78.29166332 93.08370868 75.9375 93.0625 C74.00197266 93.04896484 74.00197266 93.04896484 72.02734375 93.03515625 C71.02832031 93.02355469 70.02929688 93.01195312 69 93 C69 94.65 69 96.3 69 98 C69.59014893 97.98952637 70.18029785 97.97905273 70.78833008 97.96826172 C73.46301004 97.92667956 76.13762197 97.9006671 78.8125 97.875 C79.74126953 97.85824219 80.67003906 97.84148437 81.62695312 97.82421875 C82.51962891 97.81777344 83.41230469 97.81132812 84.33203125 97.8046875 C85.15421143 97.79421387 85.9763916 97.78374023 86.82348633 97.77294922 C89 98 89 98 92 100 C92.1875 103.125 92.1875 103.125 92 106 C92.969375 105.979375 93.93875 105.95875 94.9375 105.9375 C98 106 98 106 99 107 C99.14115161 109.67058851 99.04247107 112.32432238 99 115 C94.125 116 94.125 116 93 116 C92.67 117.65 92.34 119.3 92 121 C94.31 121.33 96.62 121.66 99 122 C99 132.23 99 142.46 99 153 C96.69 153.33 94.38 153.66 92 154 C92.020625 154.969375 92.04125 155.93875 92.0625 156.9375 C92 160 92 160 91 161 C83.23715937 162.05377927 75.74432196 162.13630006 68 161 C67.01 158.69 66.02 156.38 65 154 C58.73 154 52.46 154 46 154 C45.67 156.31 45.34 158.62 45 161 C37.44397112 161.15626908 29.88781564 161.30435887 22.33144283 161.4429636 C18.81991438 161.5076114 15.30847498 161.57472358 11.79711914 161.64819336 C-1.95374292 161.93420138 -15.68595214 162.17494124 -29.43359375 161.58984375 C-30.39918716 161.54896133 -31.36478058 161.50807892 -32.3596344 161.46595764 C-38.86539966 161.13460034 -38.86539966 161.13460034 -40 160 C-40.04092937 157.66702567 -40.04241723 155.33294775 -40 153 C-41.00160156 153.08378906 -42.00320312 153.16757812 -43.03515625 153.25390625 C-44.37757359 153.35716912 -45.72002334 153.46001121 -47.0625 153.5625 C-48.37347656 153.66691406 -49.68445313 153.77132812 -51.03515625 153.87890625 C-54.92325897 153.99765619 -58.19110223 153.66866216 -62 153 C-63 148.125 -63 148.125 -63 147 C-65.31 146.34 -67.62 145.68 -70 145 C-70.04241723 142.66705225 -70.04092937 140.33297433 -70 138 C-69 137 -69 137 -65.9375 136.9375 C-64.968125 136.958125 -63.99875 136.97875 -63 137 C-63.01047363 136.37432129 -63.02094727 135.74864258 -63.03173828 135.10400391 C-63.07323191 132.2777099 -63.09930473 129.45147989 -63.125 126.625 C-63.15013672 125.14773438 -63.15013672 125.14773438 -63.17578125 123.640625 C-63.18222656 122.69960938 -63.18867188 121.75859375 -63.1953125 120.7890625 C-63.20578613 119.91975098 -63.21625977 119.05043945 -63.22705078 118.15478516 C-63 116 -63 116 -61 114 C-57.875 113.875 -57.875 113.875 -55 114 C-55.01160156 113.08476562 -55.02320313 112.16953125 -55.03515625 111.2265625 C-55.04417969 110.03804688 -55.05320313 108.84953125 -55.0625 107.625 C-55.07410156 106.44164062 -55.08570313 105.25828125 -55.09765625 104.0390625 C-55 101 -55 101 -54 99 C-51.67843403 98.59270772 -49.3431213 98.25561323 -47 98 C-47.33 96.68 -47.66 95.36 -48 94 C-49.26444946 93.96241577 -49.26444946 93.96241577 -50.55444336 93.92407227 C-53.67241674 93.82911845 -56.79021503 93.72987552 -59.90795898 93.62768555 C-61.25914147 93.58428777 -62.61038053 93.5426163 -63.96166992 93.50268555 C-65.90036701 93.44510048 -67.83886276 93.38085702 -69.77734375 93.31640625 C-70.94515381 93.27974854 -72.11296387 93.24309082 -73.31616211 93.20532227 C-76 93 -76 93 -77 92 C-77.04080783 90.00041636 -77.04254356 87.99954746 -77 86 C-78.98 86 -80.96 86 -83 86 C-84.69605909 83.03977401 -85.24880481 80.92531611 -85.23046875 77.5234375 C-85.22853516 76.688125 -85.22660156 75.8528125 -85.22460938 74.9921875 C-85.21236328 74.12851563 -85.20011719 73.26484375 -85.1875 72.375 C-85.18685547 71.50359375 -85.18621094 70.6321875 -85.18554688 69.734375 C-85.14059434 63.28118868 -85.14059434 63.28118868 -84 61 C-80.9375 60.375 -80.9375 60.375 -78 60 C-77.855625 59.030625 -77.71125 58.06125 -77.5625 57.0625 C-77 54 -77 54 -76 53 C-73.81360547 52.92741054 -71.62499611 52.91626217 -69.4375 52.9375 C-67.64119141 52.95103516 -67.64119141 52.95103516 -65.80859375 52.96484375 C-64.88175781 52.97644531 -63.95492187 52.98804688 -63 53 C-63.04125 52.05125 -63.0825 51.1025 -63.125 50.125 C-63 47 -63 47 -61 45 C-57.875 44.875 -57.875 44.875 -55 45 C-55.020625 44.030625 -55.04125 43.06125 -55.0625 42.0625 C-55 39 -55 39 -54 38 C-51.66702567 37.95907063 -49.33294775 37.95758277 -47 38 C-47 35.69 -47 33.38 -47 31 C-44.11584117 29.55792059 -41.58278472 29.90605113 -38.375 29.9375 C-37.18648437 29.94652344 -35.99796875 29.95554688 -34.7734375 29.96484375 C-33.85820312 29.97644531 -32.94296875 29.98804688 -32 30 C-32 28.02 -32 26.04 -32 24 C-30.88625 23.814375 -29.7725 23.62875 -28.625 23.4375 C-27.42875 22.963125 -26.2325 22.48875 -25 22 C-23.45913678 18.48599332 -23.45913678 18.48599332 -23 15 C-21.02 15 -19.04 15 -17 15 C-16.67 12.69 -16.34 10.38 -16 8 C-11.38 7.67 -6.76 7.34 -2 7 C-1.34 4.69 -0.68 2.38 0 0 Z M61 102 C61 103.32 61 104.64 61 106 C62.65 106 64.3 106 66 106 C66 104.02 66 102.04 66 100 C63.67642489 99.81509993 63.67642489 99.81509993 61 102 Z M53 116 C53 117.65 53 119.3 53 121 C57.29 121 61.58 121 66 121 C66 119.35 66 117.7 66 116 C61.71 116 57.42 116 53 116 Z " fill="#FAF8A6" transform="translate(228,169)"/>
<path d="M0 0 C1.39456452 0.00667256 2.78911118 0.01863093 4.18359375 0.03515625 C5.2499707 0.04192383 5.2499707 0.04192383 6.33789062 0.04882812 C8.09899388 0.06064761 9.86005411 0.07858362 11.62109375 0.09765625 C11.62109375 2.40765625 11.62109375 4.71765625 11.62109375 7.09765625 C12.75546875 7.07703125 13.88984375 7.05640625 15.05859375 7.03515625 C18.62109375 7.09765625 18.62109375 7.09765625 19.62109375 8.09765625 C19.87265644 11.736648 19.80631601 15.38849298 19.80859375 19.03515625 C19.82083984 20.06318359 19.83308594 21.09121094 19.84570312 22.15039062 C19.84763672 23.13201172 19.84957031 24.11363281 19.8515625 25.125 C19.85567139 26.02984131 19.85978027 26.93468262 19.86401367 27.86694336 C19.62109375 30.09765625 19.62109375 30.09765625 17.62109375 32.09765625 C14.49609375 32.22265625 14.49609375 32.22265625 11.62109375 32.09765625 C11.64171875 33.06703125 11.66234375 34.03640625 11.68359375 35.03515625 C11.62109375 38.09765625 11.62109375 38.09765625 10.62109375 39.09765625 C8.2679582 39.17037366 5.91275707 39.18136493 3.55859375 39.16015625 C1.62306641 39.14662109 1.62306641 39.14662109 -0.3515625 39.1328125 C-1.35058594 39.12121094 -2.34960938 39.10960937 -3.37890625 39.09765625 C-3.37890625 40.74765625 -3.37890625 42.39765625 -3.37890625 44.09765625 C-2.78875732 44.08718262 -2.1986084 44.07670898 -1.59057617 44.06591797 C1.08410379 44.02433581 3.75871572 43.99832335 6.43359375 43.97265625 C7.36236328 43.95589844 8.29113281 43.93914062 9.24804688 43.921875 C10.14072266 43.91542969 11.03339844 43.90898437 11.953125 43.90234375 C12.77530518 43.89187012 13.59748535 43.88139648 14.44458008 43.87060547 C16.62109375 44.09765625 16.62109375 44.09765625 19.62109375 46.09765625 C19.80859375 49.22265625 19.80859375 49.22265625 19.62109375 52.09765625 C20.59046875 52.07703125 21.55984375 52.05640625 22.55859375 52.03515625 C25.62109375 52.09765625 25.62109375 52.09765625 26.62109375 53.09765625 C26.76224536 55.76824476 26.66356482 58.42197863 26.62109375 61.09765625 C21.74609375 62.09765625 21.74609375 62.09765625 20.62109375 62.09765625 C20.29109375 63.74765625 19.96109375 65.39765625 19.62109375 67.09765625 C21.93109375 67.42765625 24.24109375 67.75765625 26.62109375 68.09765625 C26.62109375 78.32765625 26.62109375 88.55765625 26.62109375 99.09765625 C23.15609375 99.59265625 23.15609375 99.59265625 19.62109375 100.09765625 C19.64171875 101.06703125 19.66234375 102.03640625 19.68359375 103.03515625 C19.62109375 106.09765625 19.62109375 106.09765625 18.62109375 107.09765625 C10.85825312 108.15143552 3.36541571 108.23395631 -4.37890625 107.09765625 C-5.36890625 104.78765625 -6.35890625 102.47765625 -7.37890625 100.09765625 C-13.97890625 99.43765625 -20.57890625 98.77765625 -27.37890625 98.09765625 C-27.37890625 96.11765625 -27.37890625 94.13765625 -27.37890625 92.09765625 C-22.42890625 92.09765625 -17.47890625 92.09765625 -12.37890625 92.09765625 C-12.37890625 86.81765625 -12.37890625 81.53765625 -12.37890625 76.09765625 C-17.32890625 76.09765625 -22.27890625 76.09765625 -27.37890625 76.09765625 C-27.37890625 73.45765625 -27.37890625 70.81765625 -27.37890625 68.09765625 C-32.32890625 68.09765625 -37.27890625 68.09765625 -42.37890625 68.09765625 C-42.37890625 63.14765625 -42.37890625 58.19765625 -42.37890625 53.09765625 C-40.06890625 53.09765625 -37.75890625 53.09765625 -35.37890625 53.09765625 C-35.37890625 48.47765625 -35.37890625 43.85765625 -35.37890625 39.09765625 C-37.08433594 39.34890259 -37.08433594 39.34890259 -38.82421875 39.60522461 C-43.33618383 40.1664337 -47.71745957 40.13624585 -52.25390625 39.9765625 C-53.06384033 39.95295151 -53.87377441 39.92934052 -54.70825195 39.90501404 C-57.26535083 39.82915925 -59.82208493 39.74480483 -62.37890625 39.66015625 C-64.12498285 39.60685701 -65.87107662 39.55411733 -67.6171875 39.50195312 C-71.87138896 39.37469069 -76.12499135 39.23590848 -80.37890625 39.09765625 C-80.37890625 48.66765625 -80.37890625 58.23765625 -80.37890625 68.09765625 C-87.96890625 68.09765625 -95.55890625 68.09765625 -103.37890625 68.09765625 C-103.37890625 65.78765625 -103.37890625 63.47765625 -103.37890625 61.09765625 C-98.42890625 61.09765625 -93.47890625 61.09765625 -88.37890625 61.09765625 C-88.37890625 58.45765625 -88.37890625 55.81765625 -88.37890625 53.09765625 C-93.32890625 53.09765625 -98.27890625 53.09765625 -103.37890625 53.09765625 C-103.37890625 50.78765625 -103.37890625 48.47765625 -103.37890625 46.09765625 C-100.73890625 46.09765625 -98.09890625 46.09765625 -95.37890625 46.09765625 C-95.37890625 43.45765625 -95.37890625 40.81765625 -95.37890625 38.09765625 C-93.06890625 38.09765625 -90.75890625 38.09765625 -88.37890625 38.09765625 C-88.37890625 35.78765625 -88.37890625 33.47765625 -88.37890625 31.09765625 C-85.73890625 31.09765625 -83.09890625 31.09765625 -80.37890625 31.09765625 C-80.37890625 26.14765625 -80.37890625 21.19765625 -80.37890625 16.09765625 C-78.06890625 16.09765625 -75.75890625 16.09765625 -73.37890625 16.09765625 C-73.37890625 18.40765625 -73.37890625 20.71765625 -73.37890625 23.09765625 C-70.73890625 23.09765625 -68.09890625 23.09765625 -65.37890625 23.09765625 C-65.37890625 18.14765625 -65.37890625 13.19765625 -65.37890625 8.09765625 C-62.73890625 8.09765625 -60.09890625 8.09765625 -57.37890625 8.09765625 C-57.37890625 12.71765625 -57.37890625 17.33765625 -57.37890625 22.09765625 C-55.06890625 22.09765625 -52.75890625 22.09765625 -50.37890625 22.09765625 C-50.37890625 19.78765625 -50.37890625 17.47765625 -50.37890625 15.09765625 C-47.73890625 15.09765625 -45.09890625 15.09765625 -42.37890625 15.09765625 C-42.37890625 20.37765625 -42.37890625 25.65765625 -42.37890625 31.09765625 C-39.73890625 31.09765625 -37.09890625 31.09765625 -34.37890625 31.09765625 C-34.37890625 33.40765625 -34.37890625 35.71765625 -34.37890625 38.09765625 C-29.42890625 38.09765625 -24.47890625 38.09765625 -19.37890625 38.09765625 C-19.37890625 40.40765625 -19.37890625 42.71765625 -19.37890625 45.09765625 C-17.06890625 45.09765625 -14.75890625 45.09765625 -12.37890625 45.09765625 C-12.37890625 35.52765625 -12.37890625 25.95765625 -12.37890625 16.09765625 C-15.01890625 16.09765625 -17.65890625 16.09765625 -20.37890625 16.09765625 C-20.37890625 13.45765625 -20.37890625 10.81765625 -20.37890625 8.09765625 C-17.40890625 8.09765625 -14.43890625 8.09765625 -11.37890625 8.09765625 C-11.37890625 10.40765625 -11.37890625 12.71765625 -11.37890625 15.09765625 C-9.06890625 15.09765625 -6.75890625 15.09765625 -4.37890625 15.09765625 C-4.37890625 20.04765625 -4.37890625 24.99765625 -4.37890625 30.09765625 C0.57109375 30.09765625 5.52109375 30.09765625 10.62109375 30.09765625 C10.62109375 22.83765625 10.62109375 15.57765625 10.62109375 8.09765625 C5.67109375 8.09765625 0.72109375 8.09765625 -4.37890625 8.09765625 C-4.37890625 0.12655798 -4.37890625 0.12655798 0 0 Z M-11.37890625 48.09765625 C-11.37890625 49.41765625 -11.37890625 50.73765625 -11.37890625 52.09765625 C-9.72890625 52.09765625 -8.07890625 52.09765625 -6.37890625 52.09765625 C-6.37890625 50.11765625 -6.37890625 48.13765625 -6.37890625 46.09765625 C-8.70248136 45.91275618 -8.70248136 45.91275618 -11.37890625 48.09765625 Z M-19.37890625 62.09765625 C-19.37890625 63.74765625 -19.37890625 65.39765625 -19.37890625 67.09765625 C-15.08890625 67.09765625 -10.79890625 67.09765625 -6.37890625 67.09765625 C-6.37890625 65.44765625 -6.37890625 63.79765625 -6.37890625 62.09765625 C-10.66890625 62.09765625 -14.95890625 62.09765625 -19.37890625 62.09765625 Z " fill="#9A8F89" transform="translate(300.37890625,222.90234375)"/>
<path d="M0 0 C14.85 0 29.7 0 45 0 C45 4.62 45 9.24 45 14 C42.69 14 40.38 14 38 14 C38 18.95 38 23.9 38 29 C42.95 29 47.9 29 53 29 C53 31.64 53 34.28 53 37 C57.95 37 62.9 37 68 37 C68 42.28 68 47.56 68 53 C63.05 53 58.1 53 53 53 C53 54.98 53 56.96 53 59 C53.86882812 58.98839844 54.73765625 58.97679687 55.6328125 58.96484375 C56.78523438 58.95582031 57.93765625 58.94679688 59.125 58.9375 C60.26195312 58.92589844 61.39890625 58.91429687 62.5703125 58.90234375 C65.8129156 58.994673 68.81932612 59.38610094 72 60 C72 60.33 72 60.66 72 61 C66.06 61 60.12 61 54 61 C54 62.65 54 64.3 54 66 C52.24560837 67.75439163 49.94502544 67.11982963 47.60829163 67.12442017 C46.8357756 67.12082489 46.06325958 67.11722961 45.26733398 67.11352539 C44.05279541 67.11374443 44.05279541 67.11374443 42.8137207 67.1139679 C40.12448492 67.11326854 37.43531751 67.1054751 34.74609375 67.09765625 C32.88664284 67.09579215 31.02719144 67.09436821 29.16773987 67.09336853 C24.26370904 67.08954271 19.35970764 67.07971188 14.45568848 67.06866455 C9.45548908 67.05845181 4.45528494 67.05387121 -0.54492188 67.04882812 C-10.36329421 67.03808967 -20.18164466 67.02101248 -30 67 C-30.04254356 65.00045254 -30.04080783 62.99958364 -30 61 C-29 60 -29 60 -27.20933533 59.87974548 C-26.42990067 59.88196609 -25.650466 59.88418671 -24.84741211 59.88647461 C-23.52615578 59.88658791 -23.52615578 59.88658791 -22.1782074 59.88670349 C-21.22092239 59.89186478 -20.26363739 59.89702606 -19.27734375 59.90234375 C-17.81452721 59.90446617 -17.81452721 59.90446617 -16.32215881 59.90663147 C-13.19390857 59.91224867 -10.06572877 59.92480407 -6.9375 59.9375 C-4.82226666 59.94251278 -2.70703219 59.94707607 -0.59179688 59.95117188 C4.60549296 59.96222369 9.80274145 59.97897854 15 60 C15 57.36 15 54.72 15 52 C17.31 52 19.62 52 22 52 C22 47.05 22 42.1 22 37 C17.38 37 12.76 37 8 37 C8 39.64 8 42.28 8 45 C5.03 45 2.06 45 -1 45 C-1 40.05 -1 35.1 -1 30 C-8.59 30 -16.18 30 -24 30 C-24 27.36 -24 24.72 -24 22 C-23.67 22 -23.34 22 -23 22 C-23 24.31 -23 26.62 -23 29 C-15.41 29 -7.82 29 0 29 C0 19.43 0 9.86 0 0 Z " fill="#FBFAA7" transform="translate(220,262)"/>
<path d="M0 0 C2.33294775 -0.04241723 4.66702567 -0.04092937 7 0 C8 1 8 1 8.0625 4.5625 C8.041875 5.696875 8.02125 6.83125 8 8 C8.99902344 7.98839844 9.99804688 7.97679687 11.02734375 7.96484375 C12.31769531 7.95582031 13.60804688 7.94679687 14.9375 7.9375 C16.22527344 7.92589844 17.51304687 7.91429687 18.83984375 7.90234375 C22 8 22 8 23 9 C23.04080783 10.99958364 23.04254356 13.00045254 23 15 C25.31 15 27.62 15 30 15 C30.99 18.465 30.99 18.465 32 22 C33.65 22.33 35.3 22.66 37 23 C37 25.64 37 28.28 37 31 C34.69 31 32.38 31 30 31 C30 33.64 30 36.28 30 39 C12.51 39 -4.98 39 -23 39 C-23 36.69 -23 34.38 -23 32 C-25.64 32 -28.28 32 -31 32 C-31 34.31 -31 36.62 -31 39 C-35.95 39 -40.9 39 -46 39 C-46 41.64 -46 44.28 -46 47 C-48.31 47 -50.62 47 -53 47 C-52.979375 48.134375 -52.95875 49.26875 -52.9375 50.4375 C-53 54 -53 54 -54 55 C-56.33297433 55.04092937 -58.66705225 55.04241723 -61 55 C-61 57.31 -61 59.62 -61 62 C-65.95 62 -70.9 62 -76 62 C-76 69.26 -76 76.52 -76 84 C-68.74 84 -61.48 84 -54 84 C-54 79.05 -54 74.1 -54 69 C-51.36 69 -48.72 69 -46 69 C-46 64.38 -46 59.76 -46 55 C-43.69 55 -41.38 55 -39 55 C-39 59.95 -39 64.9 -39 70 C-41.31 70 -43.62 70 -46 70 C-46 77.26 -46 84.52 -46 92 C-43.69 92 -41.38 92 -39 92 C-39 94.31 -39 96.62 -39 99 C-41.31 99 -43.62 99 -46 99 C-46.33 97.02 -46.66 95.04 -47 93 C-61.85 92.505 -61.85 92.505 -77 92 C-77 90.02 -77 88.04 -77 86 C-78.98 86 -80.96 86 -83 86 C-84.69605909 83.03977401 -85.24880481 80.92531611 -85.23046875 77.5234375 C-85.22853516 76.688125 -85.22660156 75.8528125 -85.22460938 74.9921875 C-85.21236328 74.12851563 -85.20011719 73.26484375 -85.1875 72.375 C-85.18685547 71.50359375 -85.18621094 70.6321875 -85.18554688 69.734375 C-85.14059434 63.28118868 -85.14059434 63.28118868 -84 61 C-80.9375 60.375 -80.9375 60.375 -78 60 C-77.855625 59.030625 -77.71125 58.06125 -77.5625 57.0625 C-77 54 -77 54 -76 53 C-73.81360547 52.92741054 -71.62499611 52.91626217 -69.4375 52.9375 C-67.64119141 52.95103516 -67.64119141 52.95103516 -65.80859375 52.96484375 C-64.88175781 52.97644531 -63.95492187 52.98804688 -63 53 C-63.04125 52.05125 -63.0825 51.1025 -63.125 50.125 C-63 47 -63 47 -61 45 C-57.875 44.875 -57.875 44.875 -55 45 C-55.020625 44.030625 -55.04125 43.06125 -55.0625 42.0625 C-55 39 -55 39 -54 38 C-51.66702567 37.95907063 -49.33294775 37.95758277 -47 38 C-47 35.69 -47 33.38 -47 31 C-44.11584117 29.55792059 -41.58278472 29.90605113 -38.375 29.9375 C-37.18648437 29.94652344 -35.99796875 29.95554688 -34.7734375 29.96484375 C-33.85820312 29.97644531 -32.94296875 29.98804688 -32 30 C-32 28.02 -32 26.04 -32 24 C-30.88625 23.814375 -29.7725 23.62875 -28.625 23.4375 C-27.42875 22.963125 -26.2325 22.48875 -25 22 C-23.45913678 18.48599332 -23.45913678 18.48599332 -23 15 C-21.02 15 -19.04 15 -17 15 C-16.67 12.69 -16.34 10.38 -16 8 C-11.38 7.67 -6.76 7.34 -2 7 C-1.34 4.69 -0.68 2.38 0 0 Z " fill="#734E1B" transform="translate(228,169)"/>
<path d="M0 0 C2.64 0 5.28 0 8 0 C8 4.62 8 9.24 8 14 C10.31 14 12.62 14 15 14 C15 11.69 15 9.38 15 7 C17.64 7 20.28 7 23 7 C23 12.28 23 17.56 23 23 C25.64 23 28.28 23 31 23 C31 25.31 31 27.62 31 30 C35.62 30 40.24 30 45 30 C45 32.64 45 35.28 45 38 C46.299375 37.979375 47.59875 37.95875 48.9375 37.9375 C50.29165633 37.91600546 51.64756083 37.92851801 53 38 C54 39 54 39 54.0625 41.5625 C54.041875 42.366875 54.02125 43.17125 54 44 C54.804375 43.979375 55.60875 43.95875 56.4375 43.9375 C59 44 59 44 60 45 C60.14115161 47.67058851 60.04247107 50.32432238 60 53 C55.38 53.33 50.76 53.66 46 54 C45.67 55.98 45.34 57.96 45 60 C49.95 60 54.9 60 60 60 C60 70.23 60 80.46 60 91 C49.11 90.505 49.11 90.505 38 90 C38 88.02 38 86.04 38 84 C42.95 84 47.9 84 53 84 C53 78.72 53 73.44 53 68 C48.05 68 43.1 68 38 68 C38 65.36 38 62.72 38 60 C33.05 60 28.1 60 23 60 C23 55.05 23 50.1 23 45 C25.31 45 27.62 45 30 45 C30 40.38 30 35.76 30 31 C28.86304688 31.16749756 27.72609375 31.33499512 26.5546875 31.50756836 C22.04272242 32.06877745 17.66144668 32.0385896 13.125 31.87890625 C11.91009888 31.84348976 11.91009888 31.84348976 10.6706543 31.80735779 C8.11355542 31.731503 5.55682132 31.64714858 3 31.5625 C1.2539234 31.50920076 -0.49217037 31.45646108 -2.23828125 31.40429688 C-6.49248271 31.27703444 -10.7460851 31.13825223 -15 31 C-15 40.57 -15 50.14 -15 60 C-22.59 60 -30.18 60 -38 60 C-38 57.69 -38 55.38 -38 53 C-33.05 53 -28.1 53 -23 53 C-23 50.36 -23 47.72 -23 45 C-27.95 45 -32.9 45 -38 45 C-38 42.69 -38 40.38 -38 38 C-35.36 38 -32.72 38 -30 38 C-30 35.36 -30 32.72 -30 30 C-27.69 30 -25.38 30 -23 30 C-23 27.69 -23 25.38 -23 23 C-20.36 23 -17.72 23 -15 23 C-15 18.05 -15 13.1 -15 8 C-12.69 8 -10.38 8 -8 8 C-8 10.31 -8 12.62 -8 15 C-5.36 15 -2.72 15 0 15 C0 10.05 0 5.1 0 0 Z " fill="#F3D79E" transform="translate(235,231)"/>
<path d="M0 0 C0.33 0 0.66 0 1 0 C1 2.31 1 4.62 1 7 C3.64 7 6.28 7 9 7 C9 7.33 9 7.66 9 8 C6.36 8 3.72 8 1 8 C1 10.31 1 12.62 1 15 C-3.95 15 -8.9 15 -14 15 C-14 17.64 -14 20.28 -14 23 C-16.31 23 -18.62 23 -21 23 C-20.979375 24.134375 -20.95875 25.26875 -20.9375 26.4375 C-21 30 -21 30 -22 31 C-24.33297433 31.04092937 -26.66705225 31.04241723 -29 31 C-29 33.31 -29 35.62 -29 38 C-33.95 38 -38.9 38 -44 38 C-44 45.26 -44 52.52 -44 60 C-36.74 60 -29.48 60 -22 60 C-22 55.05 -22 50.1 -22 45 C-19.36 45 -16.72 45 -14 45 C-14 40.38 -14 35.76 -14 31 C-11.69 31 -9.38 31 -7 31 C-7 35.95 -7 40.9 -7 46 C-9.31 46 -11.62 46 -14 46 C-14 53.26 -14 60.52 -14 68 C-11.69 68 -9.38 68 -7 68 C-7 70.31 -7 72.62 -7 75 C-9.31 75 -11.62 75 -14 75 C-14.33 73.02 -14.66 71.04 -15 69 C-29.85 68.505 -29.85 68.505 -45 68 C-45 66.02 -45 64.04 -45 62 C-46.98 62 -48.96 62 -51 62 C-52.69605909 59.03977401 -53.24880481 56.92531611 -53.23046875 53.5234375 C-53.22853516 52.688125 -53.22660156 51.8528125 -53.22460938 50.9921875 C-53.21236328 50.12851563 -53.20011719 49.26484375 -53.1875 48.375 C-53.18685547 47.50359375 -53.18621094 46.6321875 -53.18554688 45.734375 C-53.14059434 39.28118868 -53.14059434 39.28118868 -52 37 C-48.9375 36.375 -48.9375 36.375 -46 36 C-45.855625 35.030625 -45.71125 34.06125 -45.5625 33.0625 C-45 30 -45 30 -44 29 C-41.81360547 28.92741054 -39.62499611 28.91626217 -37.4375 28.9375 C-35.64119141 28.95103516 -35.64119141 28.95103516 -33.80859375 28.96484375 C-32.88175781 28.97644531 -31.95492187 28.98804688 -31 29 C-31.04125 28.05125 -31.0825 27.1025 -31.125 26.125 C-31 23 -31 23 -29 21 C-25.875 20.875 -25.875 20.875 -23 21 C-23.020625 20.030625 -23.04125 19.06125 -23.0625 18.0625 C-23 15 -23 15 -22 14 C-19.66702567 13.95907063 -17.33294775 13.95758277 -15 14 C-15 11.69 -15 9.38 -15 7 C-12.11584117 5.55792059 -9.58278472 5.90605113 -6.375 5.9375 C-5.18648437 5.94652344 -3.99796875 5.95554688 -2.7734375 5.96484375 C-1.85820312 5.97644531 -0.94296875 5.98804688 0 6 C0 4.02 0 2.04 0 0 Z " fill="#9A9073" transform="translate(196,193)"/>
<path d="M0 0 C4.62 0 9.24 0 14 0 C14 2.64 14 5.28 14 8 C15.299375 7.979375 16.59875 7.95875 17.9375 7.9375 C19.29165633 7.91600546 20.64756083 7.92851801 22 8 C23 9 23 9 23.0625 11.5625 C23.041875 12.366875 23.02125 13.17125 23 14 C23.804375 13.979375 24.60875 13.95875 25.4375 13.9375 C28 14 28 14 29 15 C29.14115161 17.67058851 29.04247107 20.32432238 29 23 C24.38 23.33 19.76 23.66 15 24 C14.67 25.98 14.34 27.96 14 30 C18.95 30 23.9 30 29 30 C29 40.23 29 50.46 29 61 C21.74 60.67 14.48 60.34 7 60 C7 58.02 7 56.04 7 54 C11.95 54 16.9 54 22 54 C22 48.72 22 43.44 22 38 C17.05 38 12.1 38 7 38 C7 35.36 7 32.72 7 30 C2.05 30 -2.9 30 -8 30 C-8 25.05 -8 20.1 -8 15 C-5.69 15 -3.38 15 -1 15 C-1 17.64 -1 20.28 -1 23 C1.64 23 4.28 23 7 23 C7 20.36 7 17.72 7 15 C4.69 15 2.38 15 0 15 C0 10.05 0 5.1 0 0 Z " fill="#523C25" transform="translate(266,261)"/>
<path d="M0 0 C14.85 0 29.7 0 45 0 C45 4.62 45 9.24 45 14 C42.69 14 40.38 14 38 14 C38 16.64 38 19.28 38 22 C25.46 22 12.92 22 0 22 C0 14.74 0 7.48 0 0 Z " fill="#D9A25B" transform="translate(220,262)"/>
<path d="M0 0 C7.26 0 14.52 0 22 0 C22 2.64 22 5.28 22 8 C19.69 8 17.38 8 15 8 C15 10.64 15 13.28 15 16 C17.31 16 19.62 16 22 16 C22 25.57 22 35.14 22 45 C14.74 45 7.48 45 0 45 C0 35.43 0 25.86 0 16 C2.31 16 4.62 16 7 16 C7 13.36 7 10.72 7 8 C4.69 8 2.38 8 0 8 C0 5.36 0 2.72 0 0 Z " fill="#E5F0F7" transform="translate(296,276)"/>
<path d="M0 0 C1.39456452 0.00667256 2.78911118 0.01863093 4.18359375 0.03515625 C4.89451172 0.03966797 5.60542969 0.04417969 6.33789062 0.04882812 C8.09899388 0.06064761 9.86005411 0.07858362 11.62109375 0.09765625 C11.62109375 2.40765625 11.62109375 4.71765625 11.62109375 7.09765625 C13.32265625 7.06671875 13.32265625 7.06671875 15.05859375 7.03515625 C18.62109375 7.09765625 18.62109375 7.09765625 19.62109375 8.09765625 C19.87265644 11.736648 19.80631601 15.38849298 19.80859375 19.03515625 C19.82083984 20.06318359 19.83308594 21.09121094 19.84570312 22.15039062 C19.84763672 23.13201172 19.84957031 24.11363281 19.8515625 25.125 C19.85567139 26.02984131 19.85978027 26.93468262 19.86401367 27.86694336 C19.62109375 30.09765625 19.62109375 30.09765625 17.62109375 32.09765625 C14.49609375 32.22265625 14.49609375 32.22265625 11.62109375 32.09765625 C11.62109375 34.07765625 11.62109375 36.05765625 11.62109375 38.09765625 C6.01109375 38.09765625 0.40109375 38.09765625 -5.37890625 38.09765625 C-5.70890625 40.07765625 -6.03890625 42.05765625 -6.37890625 44.09765625 C-8.02890625 44.09765625 -9.67890625 44.09765625 -11.37890625 44.09765625 C-12.36110565 40.8213925 -12.49471539 37.86977506 -12.4765625 34.45703125 C-12.47333984 33.38710938 -12.47011719 32.3171875 -12.46679688 31.21484375 C-12.45841797 30.10367188 -12.45003906 28.9925 -12.44140625 27.84765625 C-12.43689453 26.72101563 -12.43238281 25.594375 -12.42773438 24.43359375 C-12.41596022 21.65489408 -12.39951465 18.87630216 -12.37890625 16.09765625 C-15.01890625 16.09765625 -17.65890625 16.09765625 -20.37890625 16.09765625 C-20.37890625 13.45765625 -20.37890625 10.81765625 -20.37890625 8.09765625 C-17.40890625 8.09765625 -14.43890625 8.09765625 -11.37890625 8.09765625 C-11.37890625 10.40765625 -11.37890625 12.71765625 -11.37890625 15.09765625 C-9.06890625 15.09765625 -6.75890625 15.09765625 -4.37890625 15.09765625 C-4.37890625 20.04765625 -4.37890625 24.99765625 -4.37890625 30.09765625 C0.57109375 30.09765625 5.52109375 30.09765625 10.62109375 30.09765625 C10.62109375 22.83765625 10.62109375 15.57765625 10.62109375 8.09765625 C5.67109375 8.09765625 0.72109375 8.09765625 -4.37890625 8.09765625 C-4.37890625 0.12655798 -4.37890625 0.12655798 0 0 Z " fill="#A3966A" transform="translate(300.37890625,222.90234375)"/>
<path d="M0 0 C2.64 0 5.28 0 8 0 C8 2.31 8 4.62 8 7 C20.54 7 33.08 7 46 7 C46 4.69 46 2.38 46 0 C48.64 0 51.28 0 54 0 C54 7.26 54 14.52 54 22 C56.31 22 58.62 22 61 22 C61 24.64 61 27.28 61 30 C58.36 30 55.72 30 53 30 C53 22.74 53 15.48 53 8 C50.36 8.33 47.72 8.66 45 9 C43.56595248 9.04986215 42.12952648 9.0665477 40.6953125 9.02172852 C39.58506714 8.99158409 39.58506714 8.99158409 38.45239258 8.96083069 C37.30033325 8.92027809 37.30033325 8.92027809 36.125 8.87890625 C35.31506592 8.85529526 34.50513184 8.83168427 33.6706543 8.80735779 C31.11355542 8.731503 28.55682132 8.64714858 26 8.5625 C24.2539234 8.50920076 22.50782963 8.45646108 20.76171875 8.40429688 C16.50751729 8.27703444 12.2539149 8.13825223 8 8 C8 17.57 8 27.14 8 37 C0.41 37 -7.18 37 -15 37 C-15 34.69 -15 32.38 -15 30 C-10.05 30 -5.1 30 0 30 C0 27.36 0 24.72 0 22 C-4.95 22 -9.9 22 -15 22 C-15 19.69 -15 17.38 -15 15 C-12.36 15 -9.72 15 -7 15 C-7 12.36 -7 9.72 -7 7 C-4.69 7 -2.38 7 0 7 C0 4.69 0 2.38 0 0 Z " fill="#CAAB76" transform="translate(212,254)"/>
<path d="M0 0 C1.65 0 3.3 0 5 0 C5.33 1.32 5.66 2.64 6 4 C7.7015625 3.9690625 7.7015625 3.9690625 9.4375 3.9375 C13 4 13 4 14 5 C14.07313567 7.53049402 14.09247527 10.03304837 14.0625 12.5625 C14.05798828 13.27341797 14.05347656 13.98433594 14.04882812 14.71679688 C14.03700864 16.47790013 14.01907263 18.23896036 14 20 C13.67 20 13.34 20 13 20 C13 15.38 13 10.76 13 6 C10.69 6 8.38 6 6 6 C6 10.62 6 15.24 6 20 C3.36 20 0.72 20 -2 20 C-2 24.95 -2 29.9 -2 35 C-9.26 35 -16.52 35 -24 35 C-24 27.74 -24 20.48 -24 13 C-19.05 13 -14.1 13 -9 13 C-9 10.69 -9 8.38 -9 6 C-4.545 5.505 -4.545 5.505 0 5 C0 3.35 0 1.7 0 0 Z " fill="#F9F8A5" transform="translate(176,218)"/>
<path d="M0 0 C2.31 0 4.62 0 7 0 C7 2.31 7 4.62 7 7 C16.9 7 26.8 7 37 7 C37.495 10.465 37.495 10.465 38 14 C10.61 14 -16.78 14 -45 14 C-45 8 -45 8 -44 7 C-42.61839885 6.9072167 -41.23211962 6.88252957 -39.84741211 6.88647461 C-38.52615578 6.88658791 -38.52615578 6.88658791 -37.1782074 6.88670349 C-36.22092239 6.89186478 -35.26363739 6.89702606 -34.27734375 6.90234375 C-32.81452721 6.90446617 -32.81452721 6.90446617 -31.32215881 6.90663147 C-28.19390857 6.91224867 -25.06572877 6.92480407 -21.9375 6.9375 C-19.82226666 6.94251278 -17.70703219 6.94707607 -15.59179688 6.95117188 C-10.39450704 6.96222369 -5.19725855 6.97897854 0 7 C0 4.69 0 2.38 0 0 Z " fill="#4F392C" transform="translate(235,315)"/>
<path d="M0 0 C0.33 0 0.66 0 1 0 C1 2.31 1 4.62 1 7 C3.31 7 5.62 7 8 7 C8 5.35 8 3.7 8 2 C8.33 3.32 8.66 4.64 9 6 C9.99 6 10.98 6 12 6 C12.33 5.34 12.66 4.68 13 4 C13.66 2.68 14.32 1.36 15 0 C20.28 0 25.56 0 31 0 C31 0.33 31 0.66 31 1 C26.38 1 21.76 1 17 1 C17 2.65 17 4.3 17 6 C17.59538574 5.99476318 18.19077148 5.98952637 18.80419922 5.98413086 C21.49445547 5.96338001 24.18469489 5.95034593 26.875 5.9375 C27.81214844 5.92912109 28.74929688 5.92074219 29.71484375 5.91210938 C31.05869141 5.90727539 31.05869141 5.90727539 32.4296875 5.90234375 C33.67081299 5.89448853 33.67081299 5.89448853 34.93701172 5.88647461 C37 6 37 6 39 7 C38.67 7.66 38.34 8.32 38 9 C30.74 8.67 23.48 8.34 16 8 C16 12.95 16 17.9 16 23 C18.31 23 20.62 23 23 23 C23 25.64 23 28.28 23 31 C20.69 31 18.38 31 16 31 C16 40.57 16 50.14 16 60 C23.26 60 30.52 60 38 60 C38 50.43 38 40.86 38 31 C38.33 31 38.66 31 39 31 C39 40.9 39 50.8 39 61 C40.98 61 42.96 61 45 61 C45 61.33 45 61.66 45 62 C43.35 62 41.7 62 40 62 C40.020625 62.969375 40.04125 63.93875 40.0625 64.9375 C40 68 40 68 39 69 C31.23715937 70.05377927 23.74432196 70.13630006 16 69 C15.01 66.69 14.02 64.38 13 62 C13.99 61.505 13.99 61.505 15 61 C15 50.77 15 40.54 15 30 C10.05 30 5.1 30 0 30 C0 24 0 24 1 23 C5.66845228 22.85573386 10.32865953 22.95791585 15 23 C14.67 18.05 14.34 13.1 14 8 C12.35 8.66 10.7 9.32 9 10 C8.67 9.67 8.34 9.34 8 9 C6.65252916 8.76924918 5.29622435 8.58846937 3.9375 8.4375 C2.638125 8.293125 1.33875 8.14875 0 8 C0 5.36 0 2.72 0 0 Z M1 24 C1 25.65 1 27.3 1 29 C5.29 29 9.58 29 14 29 C14 27.35 14 25.7 14 24 C9.71 24 5.42 24 1 24 Z " fill="#A39C97" transform="translate(280,261)"/>
<path d="M0 0 C2.64 0 5.28 0 8 0 C8 7.59 8 15.18 8 23 C5.69 23 3.38 23 1 23 C1 25.31 1 27.62 1 30 C3.64 30 6.28 30 9 30 C9 27.69 9 25.38 9 23 C11.31 23 13.62 23 16 23 C16 25.64 16 28.28 16 31 C18.31 31 20.62 31 23 31 C23 33.31 23 35.62 23 38 C20.47958689 38.19667089 17.95911728 38.38254317 15.4375 38.5625 C14.38079102 38.64661133 14.38079102 38.64661133 13.30273438 38.73242188 C8.68561569 39.05157754 4.5591248 38.80878035 0 38 C-1 33.125 -1 33.125 -1 32 C-3.31 31.34 -5.62 30.68 -8 30 C-8.04241723 27.66705225 -8.04092937 25.33297433 -8 23 C-7 22 -7 22 -3.9375 21.9375 C-2.4834375 21.9684375 -2.4834375 21.9684375 -1 22 C-1.00523682 21.36908447 -1.01047363 20.73816895 -1.01586914 20.08813477 C-1.03657826 17.24626653 -1.04964066 14.40441412 -1.0625 11.5625 C-1.07087891 10.56927734 -1.07925781 9.57605469 -1.08789062 8.55273438 C-1.09111328 7.60849609 -1.09433594 6.66425781 -1.09765625 5.69140625 C-1.10289307 4.81685791 -1.10812988 3.94230957 -1.11352539 3.04125977 C-1 1 -1 1 0 0 Z " fill="#533E22" transform="translate(166,284)"/>
<path d="M0 0 C0.33 0 0.66 0 1 0 C1 2.31 1 4.62 1 7 C3.64 7 6.28 7 9 7 C9 7.33 9 7.66 9 8 C6.36 8 3.72 8 1 8 C1 10.31 1 12.62 1 15 C-3.95 15 -8.9 15 -14 15 C-14 17.64 -14 20.28 -14 23 C-16.31 23 -18.62 23 -21 23 C-20.979375 24.134375 -20.95875 25.26875 -20.9375 26.4375 C-21 30 -21 30 -22 31 C-24.33297433 31.04092937 -26.66705225 31.04241723 -29 31 C-29 33.31 -29 35.62 -29 38 C-33.95 37.67 -38.9 37.34 -44 37 C-44.66 35.35 -45.32 33.7 -46 32 C-45.01 30.515 -45.01 30.515 -44 29 C-40.9609375 28.70703125 -40.9609375 28.70703125 -37.375 28.8125 C-36.18648437 28.83957031 -34.99796875 28.86664063 -33.7734375 28.89453125 C-32.85820312 28.92933594 -31.94296875 28.96414062 -31 29 C-31.04125 28.05125 -31.0825 27.1025 -31.125 26.125 C-31 23 -31 23 -29 21 C-25.875 20.875 -25.875 20.875 -23 21 C-23.020625 20.030625 -23.04125 19.06125 -23.0625 18.0625 C-23 15 -23 15 -22 14 C-19.66702567 13.95907063 -17.33294775 13.95758277 -15 14 C-15 11.69 -15 9.38 -15 7 C-12.11584117 5.55792059 -9.58278472 5.90605113 -6.375 5.9375 C-5.18648437 5.94652344 -3.99796875 5.95554688 -2.7734375 5.96484375 C-1.85820312 5.97644531 -0.94296875 5.98804688 0 6 C0 4.02 0 2.04 0 0 Z " fill="#A8A18D" transform="translate(196,193)"/>
<path d="M0 0 C12.54 0 25.08 0 38 0 C38 2.31 38 4.62 38 7 C35.36 7 32.72 7 30 7 C30 11.95 30 16.9 30 22 C27.69 22 25.38 22 23 22 C23 17.05 23 12.1 23 7 C18.05 7 13.1 7 8 7 C8 9.64 8 12.28 8 15 C5.36 15 2.72 15 0 15 C0 10.05 0 5.1 0 0 Z " fill="#543F25" transform="translate(220,292)"/>
<path d="M0 0 C0.33 0 0.66 0 1 0 C1 2.31 1 4.62 1 7 C8.59 7 16.18 7 24 7 C24 4.69 24 2.38 24 0 C36.54 0 49.08 0 62 0 C62 2.31 62 4.62 62 7 C66.95 7 71.9 7 77 7 C77 7.33 77 7.66 77 8 C59.51 8 42.02 8 24 8 C24 12.95 24 17.9 24 23 C23.67 23 23.34 23 23 23 C23 18.05 23 13.1 23 8 C15.41 8 7.82 8 0 8 C0 5.36 0 2.72 0 0 Z " fill="#E0C68F" transform="translate(196,284)"/>
<path d="M0 0 C2.31 0 4.62 0 7 0 C7 7.26 7 14.52 7 22 C9.31 22 11.62 22 14 22 C14 24.31 14 26.62 14 29 C11.69 29 9.38 29 7 29 C6.67 27.02 6.34 25.04 6 23 C-3.57 22.67 -13.14 22.34 -23 22 C-23 19.69 -23 17.38 -23 15 C-15.41 15 -7.82 15 0 15 C0 10.05 0 5.1 0 0 Z " fill="#503D21" transform="translate(175,239)"/>
<path d="M0 0 C2.64 0 5.28 0 8 0 C8 4.62 8 9.24 8 14 C10.31 14 12.62 14 15 14 C15 11.69 15 9.38 15 7 C17.64 7 20.28 7 23 7 C23 12.28 23 17.56 23 23 C17.72 23 12.44 23 7 23 C7 20.36 7 17.72 7 15 C4.69 15 2.38 15 0 15 C0 10.05 0 5.1 0 0 Z " fill="#695832" transform="translate(235,231)"/>
<path d="M0 0 C1.98 0 3.96 0 6 0 C6 4.95 6 9.9 6 15 C11.28 15 16.56 15 22 15 C22 17.31 22 19.62 22 22 C16.72 22 11.44 22 6 22 C5.67 23.98 5.34 25.96 5 28 C3.35 28 1.7 28 0 28 C0 18.76 0 9.52 0 0 Z " fill="#4D3920" transform="translate(289,239)"/>
<path d="M0 0 C4.95 0 9.9 0 15 0 C15.33 1.98 15.66 3.96 16 6 C18.31 6.33 20.62 6.66 23 7 C23 9.31 23 11.62 23 14 C23.969375 13.979375 24.93875 13.95875 25.9375 13.9375 C29 14 29 14 30 15 C30.14115161 17.67058851 30.04247107 20.32432238 30 23 C27.36 23 24.72 23 22 23 C22 20.69 22 18.38 22 16 C19.36 16 16.72 16 14 16 C14 13.36 14 10.72 14 8 C9.38 8 4.76 8 0 8 C0 5.36 0 2.72 0 0 Z " fill="#5F4E39" transform="translate(266,200)"/>
<path d="M0 0 C2.31 0 4.62 0 7 0 C7 2.31 7 4.62 7 7 C16.9 7 26.8 7 37 7 C37 7.66 37 8.32 37 9 C36.25314941 9.01458252 35.50629883 9.02916504 34.73681641 9.04418945 C31.36567748 9.11847946 27.99554995 9.21520199 24.625 9.3125 C23.449375 9.33505859 22.27375 9.35761719 21.0625 9.38085938 C19.94101563 9.41630859 18.81953125 9.45175781 17.6640625 9.48828125 C16.10872803 9.52755737 16.10872803 9.52755737 14.52197266 9.56762695 C13.68972168 9.71031006 12.8574707 9.85299316 12 10 C11.34 10.99 10.68 11.98 10 13 C6.9609375 13.29296875 6.9609375 13.29296875 3.375 13.1875 C2.18648437 13.16042969 0.99796875 13.13335937 -0.2265625 13.10546875 C-1.14179688 13.07066406 -2.05703125 13.03585937 -3 13 C-3 12.01 -3 11.02 -3 10 C-16.86 9.67 -30.72 9.34 -45 9 C-44.67 8.34 -44.34 7.68 -44 7 C-29.48 7 -14.96 7 0 7 C0 4.69 0 2.38 0 0 Z " fill="#4F3C1D" transform="translate(235,315)"/>
<path d="M0 0 C2.31 0 4.62 0 7 0 C7.33 1.98 7.66 3.96 8 6 C8.90492188 6.09087891 8.90492188 6.09087891 9.828125 6.18359375 C10.62734375 6.26738281 11.4265625 6.35117188 12.25 6.4375 C13.43335938 6.55931641 13.43335938 6.55931641 14.640625 6.68359375 C16.82364639 6.97634993 18.8773182 7.42064419 21 8 C21 9.98 21 11.96 21 14 C9.12 14 -2.76 14 -15 14 C-15 13.01 -15 12.02 -15 11 C-11.04 11 -7.08 11 -3 11 C-2.67 10.01 -2.34 9.02 -2 8 C-1.34 7.67 -0.68 7.34 0 7 C0 4.69 0 2.38 0 0 Z " fill="#513A2B" transform="translate(228,171)"/>
<path d="M0 0 C2.64 0 5.28 0 8 0 C8 4.95 8 9.9 8 15 C0.41 15 -7.18 15 -15 15 C-15 12.69 -15 10.38 -15 8 C-10.05 8 -5.1 8 0 8 C0 5.36 0 2.72 0 0 Z " fill="#5C4427" transform="translate(212,276)"/>
<path d="M0 0 C0.33 0 0.66 0 1 0 C1 2.31 1 4.62 1 7 C3.64 7 6.28 7 9 7 C9 7.33 9 7.66 9 8 C6.36 8 3.72 8 1 8 C1 10.31 1 12.62 1 15 C-3.95 15 -8.9 15 -14 15 C-14 17.31 -14 19.62 -14 22 C-16.64 22 -19.28 22 -22 22 C-22 19.36 -22 16.72 -22 14 C-19.69 14 -17.38 14 -15 14 C-15 11.69 -15 9.38 -15 7 C-12.11584117 5.55792059 -9.58278472 5.90605113 -6.375 5.9375 C-5.18648437 5.94652344 -3.99796875 5.95554688 -2.7734375 5.96484375 C-1.85820312 5.97644531 -0.94296875 5.98804688 0 6 C0 4.02 0 2.04 0 0 Z " fill="#918774" transform="translate(196,193)"/>
<path d="M0 0 C4.06969018 4.06969018 3 6.87081401 3 13 C-3.27 13 -9.54 13 -16 13 C-17.50934217 9.98131566 -17.17510672 7.32702771 -17 4 C-16.34 3.01 -15.68 2.02 -15 1 C-14.34 1.165 -13.68 1.33 -13 1.5 C-9.21171499 2.13138083 -5.84388013 2.18904328 -2 2 C-1.34 1.34 -0.68 0.68 0 0 Z " fill="#D5EBFB" transform="translate(314,299)"/>
<path d="M0 0 C2.31 0 4.62 0 7 0 C7 9.9 7 19.8 7 30 C4.69 30 2.38 30 0 30 C0 20.1 0 10.2 0 0 Z " fill="#513F33" transform="translate(319,292)"/>
<path d="M0 0 C7.26 0 14.52 0 22 0 C22 2.64 22 5.28 22 8 C19.69 8 17.38 8 15 8 C15 10.31 15 12.62 15 15 C13 12 13 12 13 10 C11.35 9.67 9.7 9.34 8 9 C8 10.98 8 12.96 8 15 C7.67 15 7.34 15 7 15 C7 12.69 7 10.38 7 8 C4.69 8 2.38 8 0 8 C0 5.36 0 2.72 0 0 Z " fill="#D9E5EE" transform="translate(296,276)"/>
<path d="M0 0 C0.33 0 0.66 0 1 0 C1 2.31 1 4.62 1 7 C3.31 7 5.62 7 8 7 C8 5.35 8 3.7 8 2 C8.33 3.32 8.66 4.64 9 6 C9.99 6 10.98 6 12 6 C12.33 5.34 12.66 4.68 13 4 C13.66 2.68 14.32 1.36 15 0 C20.28 0 25.56 0 31 0 C31 0.33 31 0.66 31 1 C26.38 1 21.76 1 17 1 C17 2.65 17 4.3 17 6 C17.59538574 5.99476318 18.19077148 5.98952637 18.80419922 5.98413086 C21.49445547 5.96338001 24.18469489 5.95034593 26.875 5.9375 C27.81214844 5.92912109 28.74929688 5.92074219 29.71484375 5.91210938 C31.05869141 5.90727539 31.05869141 5.90727539 32.4296875 5.90234375 C33.67081299 5.89448853 33.67081299 5.89448853 34.93701172 5.88647461 C37 6 37 6 39 7 C38.67 7.66 38.34 8.32 38 9 C30.74 8.67 23.48 8.34 16 8 C16.40559078 12.9965319 16.40559078 12.9965319 16.83837891 17.99072266 C16.90677979 18.94277588 16.90677979 18.94277588 16.9765625 19.9140625 C17.02893066 20.5529541 17.08129883 21.1918457 17.13525391 21.85009766 C17 24 17 24 15 30 C10.05 30 5.1 30 0 30 C0 24 0 24 1 23 C5.66845228 22.85573386 10.32865953 22.95791585 15 23 C14.67 18.05 14.34 13.1 14 8 C12.35 8.66 10.7 9.32 9 10 C8.67 9.67 8.34 9.34 8 9 C6.65252916 8.76924918 5.29622435 8.58846937 3.9375 8.4375 C2.638125 8.293125 1.33875 8.14875 0 8 C0 5.36 0 2.72 0 0 Z M1 24 C1 25.65 1 27.3 1 29 C5.29 29 9.58 29 14 29 C14 27.35 14 25.7 14 24 C9.71 24 5.42 24 1 24 Z " fill="#93897A" transform="translate(280,261)"/>
<path d="M0 0 C2.64 0 5.28 0 8 0 C8 4.95 8 9.9 8 15 C3.88679709 15.82264058 1.66876212 16.04025145 -2.3125 15.5625 C-3.63701172 15.40974609 -3.63701172 15.40974609 -4.98828125 15.25390625 C-5.65214844 15.17011719 -6.31601563 15.08632812 -7 15 C-7 12.36 -7 9.72 -7 7 C-5.02 6.67 -3.04 6.34 -1 6 C-0.67 4.02 -0.34 2.04 0 0 Z " fill="#594535" transform="translate(204,185)"/>
<path d="M0 0 C2.31 0 4.62 0 7 0 C7 2.31 7 4.62 7 7 C9.64 7 12.28 7 15 7 C15 9.64 15 12.28 15 15 C10.05 15 5.1 15 0 15 C0 10.05 0 5.1 0 0 Z " fill="#503927" transform="translate(220,239)"/>
<path d="M0 0 C0.66 0.33 1.32 0.66 2 1 C2.33 7.6 2.66 14.2 3 21 C-6.57 21 -16.14 21 -26 21 C-26 19.35 -26 17.7 -26 16 C-22.87507749 15.94208156 -19.75029234 15.90643254 -16.625 15.875 C-15.73554688 15.85824219 -14.84609375 15.84148437 -13.9296875 15.82421875 C-13.07890625 15.81777344 -12.228125 15.81132812 -11.3515625 15.8046875 C-10.17327881 15.78897705 -10.17327881 15.78897705 -8.97119141 15.77294922 C-7 16 -7 16 -5 18 C-4.01 18.33 -3.02 18.66 -2 19 C-1.41753807 14.50672228 -0.93341417 10.09865939 -1 5.5625 C-1 2 -1 2 0 0 Z " fill="#4C3625" transform="translate(178,240)"/>
<path d="M0 0 C0.33 0 0.66 0 1 0 C1 8.25 1 16.5 1 25 C-6.26 24.67 -13.52 24.34 -21 24 C-21 22.02 -21 20.04 -21 18 C-20.67 18.66 -20.34 19.32 -20 20 C-17.70774565 19.88628503 -15.41617612 19.75869036 -13.125 19.625 C-11.21074219 19.52058594 -11.21074219 19.52058594 -9.2578125 19.4140625 C-5.91938301 19.32758894 -5.91938301 19.32758894 -4 17 C-3.53993654 14.79749008 -3.53993654 14.79749008 -3.375 12.375 C-3.30023438 11.55773437 -3.22546875 10.74046875 -3.1484375 9.8984375 C-3.09945313 9.27195312 -3.05046875 8.64546875 -3 8 C-2.01 7.67 -1.02 7.34 0 7 C0 4.69 0 2.38 0 0 Z " fill="#4E3B2A" transform="translate(294,297)"/>
<path d="M0 0 C2.31 0 4.62 0 7 0 C7 4.95 7 9.9 7 15 C2.05 15 -2.9 15 -8 15 C-8 12.69 -8 10.38 -8 8 C-5.36 8 -2.72 8 0 8 C0 5.36 0 2.72 0 0 Z " fill="#523F1E" transform="translate(205,261)"/>
<path d="M0 0 C2.31 0 4.62 0 7 0 C7 7.59 7 15.18 7 23 C5.02 23 3.04 23 1 23 C0 22 0 22 -0.11352539 19.86694336 C-0.10828857 18.95050049 -0.10305176 18.03405762 -0.09765625 17.08984375 C-0.09443359 16.10048828 -0.09121094 15.11113281 -0.08789062 14.09179688 C-0.07951172 13.05087891 -0.07113281 12.00996094 -0.0625 10.9375 C-0.05798828 9.89271484 -0.05347656 8.84792969 -0.04882812 7.77148438 C-0.03699913 5.1809334 -0.02051689 2.59049441 0 0 Z " fill="#503C26" transform="translate(167,284)"/>
<path d="M0 0 C1.98 0 3.96 0 6 0 C6.33 1.98 6.66 3.96 7 6 C9.31 6.33 11.62 6.66 14 7 C13.67 8.98 13.34 10.96 13 13 C6.4 13 -0.2 13 -7 13 C-7 11.35 -7 9.7 -7 8 C-5.02 8 -3.04 8 -1 8 C-0.67 5.36 -0.34 2.72 0 0 Z " fill="#F5F4F4" transform="translate(304,285)"/>
<path d="M0 0 C7.26 0 14.52 0 22 0 C23 3 23 3 22 7 C14.74 7 7.48 7 0 7 C0 4.69 0 2.38 0 0 Z " fill="#514035" transform="translate(296,269)"/>
<path d="M0 0 C2.31 0 4.62 0 7 0 C7 4.62 7 9.24 7 14 C2.38 14 -2.24 14 -7 14 C-7 11.69 -7 9.38 -7 7 C-4.69 7 -2.38 7 0 7 C0 4.69 0 2.38 0 0 Z " fill="#4E3A20" transform="translate(250,239)"/>
<path d="M0 0 C0.33 0 0.66 0 1 0 C1.1984578 3.68699487 1.38178602 7.37459622 1.5625 11.0625 C1.61857422 12.10083984 1.67464844 13.13917969 1.73242188 14.20898438 C1.99110625 19.64135615 2.02407652 24.65204485 1 30 C3.31 30 5.62 30 8 30 C8 30.33 8 30.66 8 31 C5.69 31 3.38 31 1 31 C1 33.31 1 35.62 1 38 C0.34 37.67 -0.32 37.34 -1 37 C-1 35.35 -1 33.7 -1 32 C-3.31 31.34 -5.62 30.68 -8 30 C-8.04241723 27.66705225 -8.04092937 25.33297433 -8 23 C-7 22 -7 22 -3.9375 21.9375 C-2.4834375 21.9684375 -2.4834375 21.9684375 -1 22 C-1.00523682 21.36908447 -1.01047363 20.73816895 -1.01586914 20.08813477 C-1.03657826 17.24626653 -1.04964066 14.40441412 -1.0625 11.5625 C-1.07087891 10.56927734 -1.07925781 9.57605469 -1.08789062 8.55273438 C-1.09111328 7.60849609 -1.09433594 6.66425781 -1.09765625 5.69140625 C-1.10289307 4.81685791 -1.10812988 3.94230957 -1.11352539 3.04125977 C-1 1 -1 1 0 0 Z " fill="#8A8079" transform="translate(166,284)"/>
<path d="M0 0 C3.29164829 -0.02895225 6.58326399 -0.0467823 9.875 -0.0625 C10.81214844 -0.07087891 11.74929688 -0.07925781 12.71484375 -0.08789062 C14.05869141 -0.09272461 14.05869141 -0.09272461 15.4296875 -0.09765625 C16.67081299 -0.10551147 16.67081299 -0.10551147 17.93701172 -0.11352539 C20 0 20 0 22 1 C22 2.98 22 4.96 22 7 C14.74 7 7.48 7 0 7 C0 4.69 0 2.38 0 0 Z " fill="#564232" transform="translate(296,322)"/>
<path d="M0 0 C2.31 0 4.62 0 7 0 C7.0272616 2.04159095 7.04651345 4.08328963 7.0625 6.125 C7.07410156 7.26195312 7.08570313 8.39890625 7.09765625 9.5703125 C7.005327 12.8129156 6.61389906 15.81932612 6 19 C5.01 19 4.02 19 3 19 C3 19.66 3 20.32 3 21 C2.01 21.33 1.02 21.66 0 22 C0 14.74 0 7.48 0 0 Z " fill="#503A29" transform="translate(312,231)"/>
<path d="M0 0 C0 7.59 0 15.18 0 23 C-1.98 23 -3.96 23 -6 23 C-6 16.07 -6 9.14 -6 2 C-1 0 -1 0 0 0 Z " fill="#50392D" transform="translate(151,231)"/>
<path d="M0 0 C0.33 0 0.66 0 1 0 C1 4.95 1 9.9 1 15 C3.31 15 5.62 15 8 15 C8 15.33 8 15.66 8 16 C5.69 16 3.38 16 1 16 C1 17.98 1 19.96 1 22 C10.57 22 20.14 22 30 22 C30 19.69 30 17.38 30 15 C35.28 15 40.56 15 46 15 C46 15.33 46 15.66 46 16 C41.05 16 36.1 16 31 16 C31 17.98 31 19.96 31 22 C32.30324219 21.98259766 32.30324219 21.98259766 33.6328125 21.96484375 C34.78523438 21.95582031 35.93765625 21.94679688 37.125 21.9375 C38.26195312 21.92589844 39.39890625 21.91429687 40.5703125 21.90234375 C43.8129156 21.994673 46.81932612 22.38610094 50 23 C50 23.33 50 23.66 50 24 C44.06 24 38.12 24 32 24 C32 25.65 32 27.3 32 29 C30 25.25 30 25.25 30 23 C20.1 23 10.2 23 0 23 C0 20.69 0 18.38 0 16 C-2.31 16 -4.62 16 -7 16 C-7 15.67 -7 15.34 -7 15 C-4.69 15 -2.38 15 0 15 C0 10.05 0 5.1 0 0 Z " fill="#C5BC85" transform="translate(242,299)"/>
<path d="M0 0 C1.2065625 0.2475 1.2065625 0.2475 2.4375 0.5 C4.97658116 1.26597109 4.97658116 1.26597109 7 0 C8.875 0.015625 8.875 0.015625 11 0.25 C11.70125 0.31703125 12.4025 0.3840625 13.125 0.453125 C15 1 15 1 17 4 C17.99 2.68 18.98 1.36 20 0 C20 2.31 20 4.62 20 7 C13.07 7 6.14 7 -1 7 C-1 1 -1 1 0 0 Z " fill="#F4F5F4" transform="translate(298,314)"/>
<path d="M0 0 C2.33294775 -0.04241723 4.66702567 -0.04092937 7 0 C8 1 8 1 8.0625 4.5625 C8.041875 5.696875 8.02125 6.83125 8 8 C7.67 8 7.34 8 7 8 C7 6.02 7 4.04 7 2 C4.69 2 2.38 2 0 2 C0.33 4.64 0.66 7.28 1 10 C0.01 10.33 -0.98 10.66 -2 11 C-2.33 11.66 -2.66 12.32 -3 13 C-6.96 13 -10.92 13 -15 13 C-15 13.99 -15 14.98 -15 16 C-17.64 16 -20.28 16 -23 16 C-23 15.67 -23 15.34 -23 15 C-21.02 15 -19.04 15 -17 15 C-16.67 12.69 -16.34 10.38 -16 8 C-11.38 7.67 -6.76 7.34 -2 7 C-1.34 4.69 -0.68 2.38 0 0 Z " fill="#68574F" transform="translate(228,169)"/>
<path d="M0 0 C2.64 0 5.28 0 8 0 C8.19839025 1.37347099 8.38310983 2.74891846 8.5625 4.125 C8.66691406 4.89070313 8.77132812 5.65640625 8.87890625 6.4453125 C9 9 9 9 8 15 C35.39 15 62.78 15 91 15 C91 15.33 91 15.66 91 16 C83.44397112 16.15626908 75.88781564 16.30435887 68.33144283 16.4429636 C64.81991438 16.5076114 61.30847498 16.57472358 57.79711914 16.64819336 C44.04625708 16.93420138 30.31404786 17.17494124 16.56640625 16.58984375 C15.60081284 16.54896133 14.63521942 16.50807892 13.6403656 16.46595764 C7.13460034 16.13460034 7.13460034 16.13460034 6 15 C6.09031574 12.64305046 6.24688128 10.28846418 6.4375 7.9375 C6.53933594 6.64714844 6.64117187 5.35679687 6.74609375 4.02734375 C6.87177734 2.52880859 6.87177734 2.52880859 7 1 C4.69 1 2.38 1 0 1 C0 0.67 0 0.34 0 0 Z " fill="#998F87" transform="translate(182,314)"/>
<path d="M0 0 C2.31 0.33 4.62 0.66 7 1 C7.66 2.98 8.32 4.96 9 7 C11.97 7.495 11.97 7.495 15 8 C15 10.31 15 12.62 15 15 C12.69 15 10.38 15 8 15 C7.67 13.02 7.34 11.04 7 9 C4.69 8.67 2.38 8.34 0 8 C0 5.36 0 2.72 0 0 Z " fill="#543F27" transform="translate(250,185)"/>
<path d="M0 0 C1.98 0 3.96 0 6 0 C7 1 7 1 7.09765625 4.16015625 C7.08605469 5.44792969 7.07445312 6.73570312 7.0625 8.0625 C7.05347656 9.35285156 7.04445312 10.64320313 7.03515625 11.97265625 C7.02355469 12.97167969 7.01195312 13.97070312 7 15 C4.69 15 2.38 15 0 15 C0 10.05 0 5.1 0 0 Z " fill="#544223" transform="translate(175,269)"/>
<path d="M0 0 C4.1117256 -0.02465746 8.22342278 -0.04283959 12.33520508 -0.05493164 C13.73495228 -0.0599708 15.1346942 -0.06680216 16.53442383 -0.07543945 C18.54245777 -0.0875232 20.55052957 -0.09269807 22.55859375 -0.09765625 C24.37315063 -0.10551147 24.37315063 -0.10551147 26.22436523 -0.11352539 C29 0 29 0 30 1 C30.04080783 2.99958364 30.04254356 5.00045254 30 7 C32.31 7 34.62 7 37 7 C37 4.69 37 2.38 37 0 C37.33 0 37.66 0 38 0 C38 2.64 38 5.28 38 8 C36.62652901 8.19839025 35.25108154 8.38310983 33.875 8.5625 C32.72644531 8.71912109 32.72644531 8.71912109 31.5546875 8.87890625 C29 9 29 9 23 8 C23 12.95 23 17.9 23 23 C20.36 23 17.72 23 15 23 C15 22.67 15 22.34 15 22 C16.98 22 18.96 22 21 22 C20.98839844 21.08476562 20.97679687 20.16953125 20.96484375 19.2265625 C20.95582031 18.03804688 20.94679687 16.84953125 20.9375 15.625 C20.92589844 14.44164062 20.91429687 13.25828125 20.90234375 12.0390625 C21 9 21 9 22 7 C24.32156597 6.59270772 26.6568787 6.25561323 29 6 C28.67 4.68 28.34 3.36 28 2 C14.14 1.505 14.14 1.505 0 1 C0 0.67 0 0.34 0 0 Z " fill="#A2968A" transform="translate(152,261)"/>
<path d="M0 0 C2.31 0 4.62 0 7 0 C7 4.62 7 9.24 7 14 C4.69 14 2.38 14 0 14 C0 9.38 0 4.76 0 0 Z " fill="#F5DBA7" transform="translate(258,262)"/>
<path d="M0 0 C2.31 0 4.62 0 7 0 C7 4.62 7 9.24 7 14 C4.69 14 2.38 14 0 14 C0 9.38 0 4.76 0 0 Z " fill="#4F3A24" transform="translate(182,224)"/>
<path d="M0 0 C4.29 0 8.58 0 13 0 C13 0.66 13 1.32 13 2 C12.28972656 2.06058594 11.57945312 2.12117187 10.84765625 2.18359375 C9.92855469 2.26738281 9.00945312 2.35117188 8.0625 2.4375 C7.14597656 2.51871094 6.22945312 2.59992188 5.28515625 2.68359375 C3.03840268 2.76044976 3.03840268 2.76044976 2 4 C2.22562739 6.40362243 2.58511611 8.77655125 2.94140625 11.1640625 C3 14 3 14 1 21 C7.27 21 13.54 21 20 21 C20.33 17.04 20.66 13.08 21 9 C21.33 9 21.66 9 22 9 C22 13.29 22 17.58 22 22 C14.74 22 7.48 22 0 22 C0 14.74 0 7.48 0 0 Z " fill="#FDF8B5" transform="translate(152,231)"/>
<path d="M0 0 C4.62 0 9.24 0 14 0 C14 2.31 14 4.62 14 7 C12.04174127 7.02694851 10.08337774 7.04637218 8.125 7.0625 C7.03445312 7.07410156 5.94390625 7.08570313 4.8203125 7.09765625 C2 7 2 7 0 6 C0 4.02 0 2.04 0 0 Z " fill="#534020" transform="translate(182,201)"/>
<path d="M0 0 C14.52 0 29.04 0 44 0 C44.495 1.485 44.495 1.485 45 3 C30.15 3 15.3 3 0 3 C0 2.01 0 1.02 0 0 Z " fill="#ECE6A5" transform="translate(190,319)"/>
<path d="M0 0 C4.95 0 9.9 0 15 0 C15 1.98 15 3.96 15 6 C10.05 6 5.1 6 0 6 C0 4.02 0 2.04 0 0 Z " fill="#4F3A27" transform="translate(296,224)"/>
<path d="M0 0 C4.98046875 0.09765625 4.98046875 0.09765625 9.9609375 0.1953125 C9.9609375 7.4553125 9.9609375 14.7153125 9.9609375 22.1953125 C5.0109375 22.1953125 0.0609375 22.1953125 -5.0390625 22.1953125 C-5.0390625 17.5753125 -5.0390625 12.9553125 -5.0390625 8.1953125 C-4.0490625 8.6903125 -4.0490625 8.6903125 -3.0390625 9.1953125 C-2.43522703 12.84680811 -2.29399334 16.49881525 -2.0390625 20.1953125 C1.5909375 20.5253125 5.2209375 20.8553125 8.9609375 21.1953125 C8.6309375 15.2553125 8.3009375 9.3153125 7.9609375 3.1953125 C3.6709375 2.8653125 -0.6190625 2.5353125 -5.0390625 2.1953125 C-3.0390625 0.1953125 -3.0390625 0.1953125 0 0 Z " fill="#FBF5B5" transform="translate(301.0390625,230.8046875)"/>
<path d="M0 0 C0.66 0 1.32 0 2 0 C2 6.93 2 13.86 2 21 C-10.54 21 -23.08 21 -36 21 C-36 18.69 -36 16.38 -36 14 C-34 16 -34 16 -33 19 C-16.665 19.495 -16.665 19.495 0 20 C0 13.4 0 6.8 0 0 Z " fill="#D0A565" transform="translate(256,263)"/>
<path d="M0 0 C4.62 0 9.24 0 14 0 C14 1.98 14 3.96 14 6 C9.38 6 4.76 6 0 6 C0 4.02 0 2.04 0 0 Z " fill="#4D3825" transform="translate(152,224)"/>
<path d="M0 0 C0 4.95 0 9.9 0 15 C1.32 15 2.64 15 4 15 C4 10.71 4 6.42 4 2 C3.34 1.67 2.68 1.34 2 1 C3.32 1 4.64 1 6 1 C6 6.28 6 11.56 6 17 C3.69 17 1.38 17 -1 17 C-1 11.72 -1 6.44 -1 1 C-5.95 1 -10.9 1 -16 1 C-11.02179569 -2.31880288 -5.82252509 -0.57648763 0 0 Z " fill="#4D3C18" transform="translate(244,297)"/>
<path d="M0 0 C2.97 0 5.94 0 9 0 C8.67 0.66 8.34 1.32 8 2 C5.4375 2.625 5.4375 2.625 3 3 C3.03480469 3.66386719 3.06960937 4.32773437 3.10546875 5.01171875 C3.39247417 14.3735621 3.39247417 14.3735621 0 18 C-2.6875 18.8125 -2.6875 18.8125 -5 19 C-5 19.66 -5 20.32 -5 21 C-4.34 21.33 -3.68 21.66 -3 22 C-4.32 22 -5.64 22 -7 22 C-7 20.02 -7 18.04 -7 16 C-4.69 16 -2.38 16 0 16 C0 10.72 0 5.44 0 0 Z " fill="#FAF5B2" transform="translate(250,299)"/>
<path d="M0 0 C1.98 0 3.96 0 6 0 C6 4.29 6 8.58 6 13 C4.02 13 2.04 13 0 13 C0 8.71 0 4.42 0 0 Z " fill="#F5D8A1" transform="translate(213,262)"/>
<path d="M0 0 C1.93719378 -0.05406122 3.87481921 -0.09282025 5.8125 -0.125 C6.89144531 -0.14820313 7.97039062 -0.17140625 9.08203125 -0.1953125 C12 0 12 0 15 2 C13.33657163 3.66342837 11.2174291 3.36048097 8.9375 3.5625 C6.4934375 3.7790625 6.4934375 3.7790625 4 4 C9.61 4 15.22 4 21 4 C21.33 2.68 21.66 1.36 22 0 C22 1.98 22 3.96 22 6 C14.74 6 7.48 6 0 6 C0 4.02 0 2.04 0 0 Z " fill="#4C381C" transform="translate(197,285)"/>
<path d="M0 0 C2.31 0 4.62 0 7 0 C7 0.33 7 0.66 7 1 C5.02 1 3.04 1 1 1 C1 2.98 1 4.96 1 7 C6.61 7 12.22 7 18 7 C17.01 8.485 17.01 8.485 16 10 C11.45145106 10.2982655 7.43848796 10.10962199 3 9 C1.88176185 11.23647631 1.80603939 12.64891529 1.68359375 15.1328125 C1.62075195 16.34130859 1.62075195 16.34130859 1.55664062 17.57421875 C1.51732422 18.41597656 1.47800781 19.25773437 1.4375 20.125 C1.39431641 20.97449219 1.35113281 21.82398438 1.30664062 22.69921875 C1.20045764 24.79928223 1.09971503 26.89961948 1 29 C0.67 29 0.34 29 0 29 C0 19.43 0 9.86 0 0 Z " fill="#DFE5EA" transform="translate(296,292)"/>
<path d="M0 0 C0.33 0 0.66 0 1 0 C1 7.26 1 14.52 1 22 C3.31 22 5.62 22 8 22 C8 24.31 8 26.62 8 29 C5.69 29 3.38 29 1 29 C-0.30433619 23.06372979 -0.11086318 17.16667748 -0.0625 11.125 C-0.05798828 10.05507812 -0.05347656 8.98515625 -0.04882812 7.8828125 C-0.03709749 5.25515014 -0.02068228 2.62760462 0 0 Z " fill="#615328" transform="translate(181,239)"/>
<path d="M0 0 C2.64 0 5.28 0 8 0 C8 2.64 8 5.28 8 8 C3.05 8 -1.9 8 -7 8 C-7 6.35 -7 4.7 -7 3 C-6.01 3 -5.02 3 -4 3 C-4 3.66 -4 4.32 -4 5 C-0.7 5.33 2.6 5.66 6 6 C6 4.68 6 3.36 6 2 C4.02 2 2.04 2 0 2 C0 1.34 0 0.68 0 0 Z " fill="#584220" transform="translate(227,246)"/>
<path d="M0 0 C2.97 0 5.94 0 9 0 C9 0.33 9 0.66 9 1 C7.35 1 5.7 1 4 1 C4.020625 1.969375 4.04125 2.93875 4.0625 3.9375 C4 7 4 7 3 8 C-4.76284063 9.05377927 -12.25567804 9.13630006 -20 8 C-20 7.67 -20 7.34 -20 7 C-15.5621439 5.88834768 -11.23043614 5.88472237 -6.6875 5.9375 C-5.94693359 5.94201172 -5.20636719 5.94652344 -4.44335938 5.95117188 C-2.62887101 5.96287825 -0.81442466 5.98081102 1 6 C1.33 4.35 1.66 2.7 2 1 C1.34 0.67 0.68 0.34 0 0 Z " fill="#796C67" transform="translate(316,322)"/>
<path d="M0 0 C2.64 0 5.28 0 8 0 C8 2.64 8 5.28 8 8 C5.36 8 2.72 8 0 8 C0 5.36 0 2.72 0 0 Z " fill="#5B4D25" transform="translate(265,299)"/>
<path d="M0 0 C4.95 0 9.9 0 15 0 C15 2.31 15 4.62 15 7 C17.31 7 19.62 7 22 7 C22 7.33 22 7.66 22 8 C19.69 8 17.38 8 15 8 C15 14.27 15 20.54 15 27 C14.67 27 14.34 27 14 27 C14 20.73 14 14.46 14 8 C9.05 8 4.1 8 -1 8 C-1 7.67 -1 7.34 -1 7 C3.95 7 8.9 7 14 7 C14 5.02 14 3.04 14 1 C9.38 1 4.76 1 0 1 C0 0.67 0 0.34 0 0 Z " fill="#7B6F52" transform="translate(297,223)"/>
<path d="M0 0 C2.31243792 -0.02685412 4.6249627 -0.04632841 6.9375 -0.0625 C8.22527344 -0.07410156 9.51304687 -0.08570313 10.83984375 -0.09765625 C14 0 14 0 15 1 C15.04080783 2.99958364 15.04254356 5.00045254 15 7 C17.31 7 19.62 7 22 7 C22.66 9.31 23.32 11.62 24 14 C26.475 14.495 26.475 14.495 29 15 C29 15.33 29 15.66 29 16 C27.02 16 25.04 16 23 16 C21.5393715 13.35261084 21 12.10551666 21 9 C18.36 8.67 15.72 8.34 13 8 C12.67 6.35 12.34 4.7 12 3 C6.06 2.01 6.06 2.01 0 1 C0 0.67 0 0.34 0 0 Z " fill="#7C6C64" transform="translate(236,177)"/>
<path d="M0 0 C2.31 0 4.62 0 7 0 C4 2 4 2 2 2 C2 7.94 2 13.88 2 20 C3.65 20 5.3 20 7 20 C7 20.66 7 21.32 7 22 C4.69 22 2.38 22 0 22 C0 14.74 0 7.48 0 0 Z " fill="#FBF3B1" transform="translate(182,239)"/>
<path d="M0 0 C0.33 0 0.66 0 1 0 C1 2.97 1 5.94 1 9 C-4.03733166 10.5111995 -8.88171027 9.64599773 -14 9 C-14 6.69 -14 4.38 -14 2 C-13.01 2.495 -13.01 2.495 -12 3 C-12 3.66 -12 4.32 -12 5 C-9.03 5.33 -6.06 5.66 -3 6 C-2.01 4.02 -1.02 2.04 0 0 Z " fill="#50381B" transform="translate(211,191)"/>
<path d="M0 0 C0.66 0 1.32 0 2 0 C2 4.62 2 9.24 2 14 C-0.31 14 -2.62 14 -5 14 C-5 16.64 -5 19.28 -5 22 C-7.31 22 -9.62 22 -12 22 C-12 21.34 -12 20.68 -12 20 C-11.195625 19.773125 -10.39125 19.54625 -9.5625 19.3125 C-8.716875 18.879375 -7.87125 18.44625 -7 18 C-6.10613836 15.45224694 -6.10613836 15.45224694 -6 13 C-4.02 12.67 -2.04 12.34 0 12 C0 8.04 0 4.08 0 0 Z " fill="#FEFAB5" transform="translate(217,239)"/>
<path d="M0 0 C0.66 0 1.32 0 2 0 C2 6.6 2 13.2 2 20 C1.01 20 0.02 20 -1 20 C-1.02888514 16.85418577 -1.04675923 13.70840531 -1.0625 10.5625 C-1.07087891 9.66466797 -1.07925781 8.76683594 -1.08789062 7.84179688 C-1.09111328 6.98779297 -1.09433594 6.13378906 -1.09765625 5.25390625 C-1.10551147 4.06776733 -1.10551147 4.06776733 -1.11352539 2.85766602 C-1 1 -1 1 0 0 Z " fill="#4C361A" transform="translate(149,233)"/>
<path d="M0 0 C4.62 0 9.24 0 14 0 C14 4.95 14 9.9 14 15 C11.69 15 9.38 15 7 15 C7 16.98 7 18.96 7 21 C6.67 21 6.34 21 6 21 C5.95758277 18.66705225 5.95907063 16.33297433 6 14 C7 13 7 13 10.0625 12.9375 C11.5165625 12.9684375 11.5165625 12.9684375 13 13 C12.85892253 11.54119891 12.71197585 10.08296449 12.5625 8.625 C12.48128906 7.81289063 12.40007812 7.00078125 12.31640625 6.1640625 C12.10909886 3.95727195 12.10909886 3.95727195 11 2 C8.64400765 1.53248212 8.64400765 1.53248212 5.9375 1.375 C5.01839844 1.30023438 4.09929687 1.22546875 3.15234375 1.1484375 C2.08693359 1.07496094 2.08693359 1.07496094 1 1 C1 3.31 1 5.62 1 8 C0.67 8 0.34 8 0 8 C0 5.36 0 2.72 0 0 Z " fill="#F8F0B0" transform="translate(228,299)"/>
<path d="M0 0 C0.33 0 0.66 0 1 0 C1.39252444 2.37326315 1.76427274 4.74687214 2.125 7.125 C2.23714844 7.79015625 2.34929687 8.4553125 2.46484375 9.140625 C3.19570116 14.1104554 2.69636043 15.91091872 1 21 C-3.95 21 -8.9 21 -14 21 C-14 15 -14 15 -13 14 C-8.33154772 13.85573386 -3.67134047 13.95791585 1 14 C0.67 9.38 0.34 4.76 0 0 Z M-13 15 C-13 16.65 -13 18.3 -13 20 C-8.71 20 -4.42 20 0 20 C0 18.35 0 16.7 0 15 C-4.29 15 -8.58 15 -13 15 Z " fill="#B2A39F" transform="translate(294,270)"/>
<path d="M0 0 C2.31 0 4.62 0 7 0 C7 2.64 7 5.28 7 8 C4.69 8 2.38 8 0 8 C0 5.36 0 2.72 0 0 Z " fill="#F4EFAC" transform="translate(266,276)"/>
<path d="M0 0 C2.64 0 5.28 0 8 0 C8 2.31 8 4.62 8 7 C5.36 7 2.72 7 0 7 C0 4.69 0 2.38 0 0 Z " fill="#5B4821" transform="translate(212,254)"/>
<path d="M0 0 C2.64 0 5.28 0 8 0 C8 2.31 8 4.62 8 7 C5.36 7 2.72 7 0 7 C0 4.69 0 2.38 0 0 Z " fill="#594A24" transform="translate(265,231)"/>
<path d="M0 0 C2.64 0 5.28 0 8 0 C8 2.31 8 4.62 8 7 C5.36 7 2.72 7 0 7 C0 4.69 0 2.38 0 0 Z " fill="#53421F" transform="translate(280,231)"/>
<path d="M0 0 C0.94875 0.04125 1.8975 0.0825 2.875 0.125 C2.875 2.435 2.875 4.745 2.875 7.125 C0.235 7.125 -2.405 7.125 -5.125 7.125 C-5.25 4.75 -5.25 4.75 -5.125 2.125 C-3.125 0.125 -3.125 0.125 0 0 Z " fill="#56453B" transform="translate(300.125,283.875)"/>
<path d="M0 0 C2.64 0 5.28 0 8 0 C8 1.98 8 3.96 8 6 C1.07 5.505 1.07 5.505 -6 5 C-5.67 4.34 -5.34 3.68 -5 3 C-3.02 3 -1.04 3 1 3 C0.67 2.01 0.34 1.02 0 0 Z " fill="#4F382B" transform="translate(310,323)"/>
<path d="M0 0 C0.66 0 1.32 0 2 0 C2 4.62 2 9.24 2 14 C-2.95 14 -7.9 14 -13 14 C-13 13.34 -13 12.68 -13 12 C-8.71 12 -4.42 12 0 12 C0 8.04 0 4.08 0 0 Z " fill="#FDF8B7" transform="translate(286,300)"/>
<path d="M0 0 C4.62 0 9.24 0 14 0 C13.67 1.98 13.34 3.96 13 6 C12.34 6 11.68 6 11 6 C11 4.68 11 3.36 11 2 C6.545 2.495 6.545 2.495 2 3 C1.67 6.3 1.34 9.6 1 13 C0.67 13 0.34 13 0 13 C0 8.71 0 4.42 0 0 Z " fill="#57451D" transform="translate(266,261)"/>
<path d="M0 0 C2.31 0 4.62 0 7 0 C7 2.31 7 4.62 7 7 C4.69 7 2.38 7 0 7 C0 4.69 0 2.38 0 0 Z " fill="#513E1A" transform="translate(258,254)"/>
<path d="M0 0 C0.33 0 0.66 0 1 0 C1.02887512 3.64581687 1.04675585 7.29160463 1.0625 10.9375 C1.07087891 11.97841797 1.07925781 13.01933594 1.08789062 14.09179688 C1.09111328 15.08115234 1.09433594 16.07050781 1.09765625 17.08984375 C1.10289307 18.00628662 1.10812988 18.92272949 1.11352539 19.86694336 C1 22 1 22 0 23 C-2.33297433 23.04092937 -4.66705225 23.04241723 -7 23 C-6.67 22.34 -6.34 21.68 -6 21 C-5.34 21 -4.68 21 -4 21 C-4 20.34 -4 19.68 -4 19 C-3.01 19 -2.02 19 -1 19 C-0.67 12.73 -0.34 6.46 0 0 Z " fill="#857873" transform="translate(319,231)"/>
<path d="M0 0 C2.31 0 4.62 0 7 0 C7 2.31 7 4.62 7 7 C4.69 7 2.38 7 0 7 C0 4.69 0 2.38 0 0 Z " fill="#4C3E1A" transform="translate(205,231)"/>
<path d="M0 0 C2.31 0 4.62 0 7 0 C7 2.31 7 4.62 7 7 C4.69 7 2.38 7 0 7 C0 4.69 0 2.38 0 0 Z " fill="#514135" transform="translate(289,216)"/>
<path d="M0 0 C2.31 0 4.62 0 7 0 C7 2.31 7 4.62 7 7 C4.69 7 2.38 7 0 7 C0 4.69 0 2.38 0 0 Z " fill="#4F3C2E" transform="translate(167,216)"/>
<path d="M0 0 C2.31 0 4.62 0 7 0 C7 2.31 7 4.62 7 7 C4.69 7 2.38 7 0 7 C0 4.69 0 2.38 0 0 Z " fill="#473918" transform="translate(281,208)"/>
<path d="M0 0 C2.31 0 4.62 0 7 0 C7 2.31 7 4.62 7 7 C4.69 7 2.38 7 0 7 C0 4.69 0 2.38 0 0 Z " fill="#51412A" transform="translate(174,208)"/>
<path d="M0 0 C1.98 0 3.96 0 6 0 C6 2.64 6 5.28 6 8 C4.02 8 2.04 8 0 8 C0 5.36 0 2.72 0 0 Z " fill="#4E3E32" transform="translate(319,276)"/>
<path d="M0 0 C0 0.66 0 1.32 0 2 C0.66 2.33 1.32 2.66 2 3 C-3.61 3 -9.22 3 -15 3 C-15 2.01 -15 1.02 -15 0 C-13.06325815 -0.19517554 -11.12555991 -0.38087873 -9.1875 -0.5625 C-8.10855469 -0.66691406 -7.02960938 -0.77132812 -5.91796875 -0.87890625 C-3 -1 -3 -1 0 0 Z " fill="#56381C" transform="translate(228,182)"/>
<path d="M0 0 C2.31 0.33 4.62 0.66 7 1 C7 2.98 7 4.96 7 7 C4.69 7 2.38 7 0 7 C0 4.69 0 2.38 0 0 Z " fill="#55443A" transform="translate(312,284)"/>
<path d="M0 0 C2.64 0.33 5.28 0.66 8 1 C8 3.31 8 5.62 8 8 C9.98 8 11.96 8 14 8 C14.33 8.66 14.66 9.32 15 10 C12.69 10 10.38 10 8 10 C8 12.31 8 14.62 8 17 C7.67 17 7.34 17 7 17 C7 14.69 7 12.38 7 10 C4.36 10 1.72 10 -1 10 C-1 9.67 -1 9.34 -1 9 C1.64 9 4.28 9 7 9 C7 6.69 7 4.38 7 2 C4.69 2 2.38 2 0 2 C0 1.34 0 0.68 0 0 Z " fill="#978C77" transform="translate(281,206)"/>
<path d="M0 0 C0.33 0.99 0.66 1.98 1 3 C2.65 3 4.3 3 6 3 C6 3.66 6 4.32 6 5 C10.29 5.33 14.58 5.66 19 6 C19 6.33 19 6.66 19 7 C16.95920995 7.1968121 14.91729993 7.38202831 12.875 7.5625 C11.16957031 7.71912109 11.16957031 7.71912109 9.4296875 7.87890625 C6.11102007 7.99608016 3.2437314 7.6655072 0 7 C0 4.69 0 2.38 0 0 Z " fill="#5B453E" transform="translate(167,315)"/>
<path d="M0 0 C1.98 0 3.96 0 6 0 C5.01 1.485 5.01 1.485 4 3 C3.54398739 5.50896686 3.54398739 5.50896686 3.375 8.1875 C3.30023438 9.08855469 3.22546875 9.98960937 3.1484375 10.91796875 C3.09945312 11.60503906 3.05046875 12.29210937 3 13 C2.01 13 1.02 13 0 13 C0 8.71 0 4.42 0 0 Z " fill="#513B2D" transform="translate(175,269)"/>
<path d="M0 0 C1.98 0.99 1.98 0.99 4 2 C4.125 7.75 4.125 7.75 3 10 C2.34 10 1.68 10 1 10 C1 10.99 1 11.98 1 13 C2.98 13 4.96 13 7 13 C7 13.33 7 13.66 7 14 C4.69 14 2.38 14 0 14 C0 9.38 0 4.76 0 0 Z " fill="#F2D195" transform="translate(258,262)"/>
<path d="M0 0 C0.33 0.99 0.66 1.98 1 3 C-3.95 3 -8.9 3 -14 3 C-14 2.01 -14 1.02 -14 0 C-9.02936879 -0.91297308 -4.97063121 -0.91297308 0 0 Z " fill="#543A1D" transform="translate(248,182)"/>
<path d="M0 0 C4.62 0 9.24 0 14 0 C13 2 13 2 11.0390625 2.88671875 C9.84410156 3.28310547 9.84410156 3.28310547 8.625 3.6875 C7.83351563 3.95949219 7.04203125 4.23148437 6.2265625 4.51171875 C4 5 4 5 1 4 C1.33 3.01 1.66 2.02 2 1 C1.34 0.67 0.68 0.34 0 0 Z " fill="#554135" transform="translate(281,291)"/>
<path d="M0 0 C2.31 0 4.62 0 7 0 C7 2.31 7 4.62 7 7 C6.34 7 5.68 7 5 7 C5.33 5.02 5.66 3.04 6 1 C5.01 1 4.02 1 3 1 C3 3.97 3 6.94 3 10 C2.01 10 1.02 10 0 10 C0 6.7 0 3.4 0 0 Z " fill="#4B3917" transform="translate(220,239)"/>
<path d="M0 0 C0.33 0 0.66 0 1 0 C1.06058594 0.62648437 1.12117187 1.25296875 1.18359375 1.8984375 C1.26738281 2.71570313 1.35117188 3.53296875 1.4375 4.375 C1.51871094 5.18710938 1.59992188 5.99921875 1.68359375 6.8359375 C1.89090114 9.04272805 1.89090114 9.04272805 3 11 C3.99 11.33 4.98 11.66 6 12 C6 8.04 6 4.08 6 0 C6.33 0 6.66 0 7 0 C7 4.62 7 9.24 7 14 C4.69 14 2.38 14 0 14 C0 9.38 0 4.76 0 0 Z " fill="#504217" transform="translate(182,224)"/>
<path d="M0 0 C2.04159095 -0.0272616 4.08328963 -0.04651345 6.125 -0.0625 C7.26195312 -0.07410156 8.39890625 -0.08570313 9.5703125 -0.09765625 C12.8129156 -0.005327 15.81932612 0.38610094 19 1 C19 1.33 19 1.66 19 2 C13.06 2 7.12 2 1 2 C1 3.65 1 5.3 1 7 C-0.0625 5.1875 -0.0625 5.1875 -1 3 C-0.67 2.01 -0.34 1.02 0 0 Z " fill="#837B75" transform="translate(273,321)"/>
<path d="M0 0 C0.66 0 1.32 0 2 0 C2 3.96 2 7.92 2 12 C2.99 12 3.98 12 5 12 C5.33 10.68 5.66 9.36 6 8 C6 9.98 6 11.96 6 14 C4.02 14 2.04 14 0 14 C0 9.38 0 4.76 0 0 Z " fill="#4A3718" transform="translate(221,292)"/>
<path d="M0 0 C0.73605469 0.05220703 1.47210938 0.10441406 2.23046875 0.15820312 C4.02910629 0.28667723 5.82712909 0.42370949 7.625 0.5625 C7.625 0.8925 7.625 1.2225 7.625 1.5625 C3.005 1.5625 -1.615 1.5625 -6.375 1.5625 C-6.375 6.5125 -6.375 11.4625 -6.375 16.5625 C-6.705 16.5625 -7.035 16.5625 -7.375 16.5625 C-7.375 11.6125 -7.375 6.6625 -7.375 1.5625 C-9.685 1.5625 -11.995 1.5625 -14.375 1.5625 C-14.375 1.2325 -14.375 0.9025 -14.375 0.5625 C-9.42149325 -0.49226879 -4.99660651 -0.39304228 0 0 Z " fill="#8A7F58" transform="translate(158.375,229.4375)"/>
<path d="M0 0 C2.31 0 4.62 0 7 0 C7 0.33 7 0.66 7 1 C5.02 1 3.04 1 1 1 C1.33 3.97 1.66 6.94 2 10 C-1.153368 10.70074844 -3.72724974 11 -7 11 C-7.33 10.01 -7.66 9.02 -8 8 C-5.36 8 -2.72 8 0 8 C0 5.36 0 2.72 0 0 Z " fill="#574822" transform="translate(205,261)"/>
<path d="M0 0 C2.9719385 1.12451727 5.33440687 2.22293791 8 4 C9.65549531 4.38499891 11.3222433 4.72793135 13 5 C13 5.33 13 5.66 13 6 C8.71 6 4.42 6 0 6 C0 4.02 0 2.04 0 0 Z " fill="#4E3A1D" transform="translate(266,201)"/>
<path d="M0 0 C0.33 0.66 0.66 1.32 1 2 C-3.62 2 -8.24 2 -13 2 C-12.34 3.32 -11.68 4.64 -11 6 C-11.66 6 -12.32 6 -13 6 C-13 6.99 -13 7.98 -13 9 C-15.64 9 -18.28 9 -21 9 C-21 8.67 -21 8.34 -21 8 C-19.02 8 -17.04 8 -15 8 C-14.67 5.69 -14.34 3.38 -14 1 C-9.38 0.67 -4.76 0.34 0 0 Z " fill="#8E8071" transform="translate(226,176)"/>
<path d="M0 0 C0.33 0 0.66 0 1 0 C1 4.95 1 9.9 1 15 C3.31 15 5.62 15 8 15 C8 15.33 8 15.66 8 16 C5.69 16 3.38 16 1 16 C1 18.31 1 20.62 1 23 C0.67 23 0.34 23 0 23 C0 20.69 0 18.38 0 16 C-2.31 16 -4.62 16 -7 16 C-7 15.67 -7 15.34 -7 15 C-4.69 15 -2.38 15 0 15 C0 10.05 0 5.1 0 0 Z " fill="#A69B68" transform="translate(242,299)"/>
<path d="M0 0 C1.0209375 0.2165625 1.0209375 0.2165625 2.0625 0.4375 C5.36273082 1.06945909 8.67144426 1.54313941 12 2 C10.29171079 4.10633718 9.47851584 4.93801608 6.73828125 5.29296875 C5.93777344 5.25816406 5.13726562 5.22335937 4.3125 5.1875 C3.50425781 5.16042969 2.69601563 5.13335937 1.86328125 5.10546875 C1.24839844 5.07066406 0.63351563 5.03585937 0 5 C0 3.35 0 1.7 0 0 Z " fill="#483719" transform="translate(197,270)"/>
<path d="M0 0 C4.29 0 8.58 0 13 0 C13 0.99 13 1.98 13 3 C8.71 3 4.42 3 0 3 C0 2.01 0 1.02 0 0 Z " fill="#4B3619" transform="translate(296,227)"/>
<path d="M0 0 C1.98 0 3.96 0 6 0 C6 1.98 6 3.96 6 6 C4.02 6 2.04 6 0 6 C0 4.02 0 2.04 0 0 Z " fill="#4D3A28" transform="translate(160,308)"/>
<path d="M0 0 C4.62 0 9.24 0 14 0 C10 2 10 2 6.4375 3 C2.91945123 3.83688497 2.91945123 3.83688497 0 6 C0 4.02 0 2.04 0 0 Z " fill="#513D32" transform="translate(182,201)"/>
<path d="M0 0 C0.33 1.32 0.66 2.64 1 4 C1.804375 3.979375 2.60875 3.95875 3.4375 3.9375 C6 4 6 4 7 5 C7.14115161 7.67058851 7.04247107 10.32432238 7 13 C5.02 13 3.04 13 1 13 C1.66 12.34 2.32 11.68 3 11 C3.99 11 4.98 11 6 11 C5.28436734 8.9837767 5.28436734 8.9837767 4 7 C1.94999129 6.19471111 1.94999129 6.19471111 0 6 C0 4.02 0 2.04 0 0 Z " fill="#5D4E44" transform="translate(288,271)"/>
<path d="M0 0 C0.33 0 0.66 0 1 0 C1 2.31 1 4.62 1 7 C3.31 7 5.62 7 8 7 C8 7.33 8 7.66 8 8 C5.69 8 3.38 8 1 8 C1 10.31 1 12.62 1 15 C0.34 14.67 -0.32 14.34 -1 14 C-1 12.35 -1 10.7 -1 9 C-3.97 8.505 -3.97 8.505 -7 8 C-7 7.67 -7 7.34 -7 7 C-4.69 7 -2.38 7 0 7 C0 4.69 0 2.38 0 0 Z " fill="#9A8D75" transform="translate(166,307)"/>
<path d="M0 0 C2.97 0 5.94 0 9 0 C9 1.32 9 2.64 9 4 C6.03 4 3.06 4 0 4 C0 2.68 0 1.36 0 0 Z " fill="#4E3623" transform="translate(297,270)"/>
<path d="M0 0 C2.64 0 5.28 0 8 0 C8 0.99 8 1.98 8 3 C8.66 3.33 9.32 3.66 10 4 C3.07 3.505 3.07 3.505 -4 3 C-2.68 2.67 -1.36 2.34 0 2 C0 1.34 0 0.68 0 0 Z " fill="#50392E" transform="translate(179,318)"/>
<path d="M0 0 C0.33 0 0.66 0 1 0 C1.33 4.62 1.66 9.24 2 14 C1.01 13.34 0.02 12.68 -1 12 C-1.66 11.67 -2.32 11.34 -3 11 C-2.67 10.67 -2.34 10.34 -2 10 C-1.79300437 8.50503158 -1.63320741 7.0033408 -1.5 5.5 C-1.11111111 1.11111111 -1.11111111 1.11111111 0 0 Z " fill="#4A3421" transform="translate(292,304)"/>
<path d="M0 0 C2.64 0 5.28 0 8 0 C8.75612577 5.23471686 9.2063366 9.77254141 8 15 C7.34 15 6.68 15 6 15 C6.33 10.38 6.66 5.76 7 1 C4.69 1 2.38 1 0 1 C0 0.67 0 0.34 0 0 Z " fill="#9E9576" transform="translate(182,314)"/>
<path d="M0 0 C0.99 0.33 1.98 0.66 3 1 C2.34 2.98 1.68 4.96 1 7 C0.67 7 0.34 7 0 7 C0 4.69 0 2.38 0 0 Z M-7 7 C-4.69 7 -2.38 7 0 7 C-1.32 7.99 -2.64 8.98 -4 10 C-4.66 9.67 -5.32 9.34 -6 9 C-6 10.65 -6 12.3 -6 14 C-6.33 14 -6.66 14 -7 14 C-7 11.69 -7 9.38 -7 7 Z " fill="#FBF6B5" transform="translate(182,209)"/>
<path d="M0 0 C0.33 0 0.66 0 1 0 C1 2.31 1 4.62 1 7 C-3.62 7 -8.24 7 -13 7 C-13 6.67 -13 6.34 -13 6 C-10.69 6 -8.38 6 -6 6 C-6 5.34 -6 4.68 -6 4 C-5.34 4 -4.68 4 -4 4 C-4 4.66 -4 5.32 -4 6 C-1.2160817 4.60804085 -1.02101003 2.84424221 0 0 Z " fill="#513F30" transform="translate(310,254)"/>
<path d="M0 0 C1.65 0 3.3 0 5 0 C5.66 2.31 6.32 4.62 7 7 C8.65 7.33 10.3 7.66 12 8 C12 8.33 12 8.66 12 9 C10.02 9 8.04 9 6 9 C4.5393715 6.35261084 4 5.10551666 4 2 C2.68 2 1.36 2 0 2 C0 1.34 0 0.68 0 0 Z " fill="#8E847B" transform="translate(253,184)"/>
<path d="M0 0 C0.99 0 1.98 0 3 0 C3 1.65 3 3.3 3 5 C-0.96 5 -4.92 5 -9 5 C-9 4.67 -9 4.34 -9 4 C-4.545 3.505 -4.545 3.505 0 3 C0 2.01 0 1.02 0 0 Z " fill="#473715" transform="translate(163,225)"/>
<path d="M0 0 C4.95 0 9.9 0 15 0 C15 1.98 15 3.96 15 6 C13 5 13 5 12 2 C8.04 1.67 4.08 1.34 0 1 C0 0.67 0 0.34 0 0 Z " fill="#544135" transform="translate(296,224)"/>
<path d="M0 0 C0.66 0.33 1.32 0.66 2 1 C1.67 2.32 1.34 3.64 1 5 C4.63 5 8.26 5 12 5 C12 5.33 12 5.66 12 6 C7.05 6 2.1 6 -3 6 C-2.01 4.02 -1.02 2.04 0 0 Z " fill="#4A3717" transform="translate(276,292)"/>
<path d="M0 0 C2.31 0 4.62 0 7 0 C7 1.65 7 3.3 7 5 C4.625 4.75 4.625 4.75 2 4 C0.6875 1.9375 0.6875 1.9375 0 0 Z " fill="#523F33" transform="translate(281,208)"/>
<path d="M0 0 C1.98 0 3.96 0 6 0 C6 1.98 6 3.96 6 6 C5.54625 5.505 5.0925 5.01 4.625 4.5 C3.12364481 2.77390663 3.12364481 2.77390663 1 3 C0.67 3.99 0.34 4.98 0 6 C0 4.02 0 2.04 0 0 Z " fill="#453913" transform="translate(236,315)"/>
<path d="M0 0 C0.99 0.33 1.98 0.66 3 1 C3 1.99 3 2.98 3 4 C3.99 4 4.98 4 6 4 C6 4.66 6 5.32 6 6 C4.02 6 2.04 6 0 6 C0 4.02 0 2.04 0 0 Z " fill="#4D3B1C" transform="translate(289,217)"/>
<path d="M0 0 C1.98 0 3.96 0 6 0 C6 1.98 6 3.96 6 6 C5.34 6 4.68 6 4 6 C4 5.01 4 4.02 4 3 C3.01 3 2.02 3 1 3 C0.67 2.01 0.34 1.02 0 0 Z " fill="#4B3A17" transform="translate(183,315)"/>
<path d="M0 0 C3.96 0 7.92 0 12 0 C11.67 0.66 11.34 1.32 11 2 C8.36 2 5.72 2 3 2 C2.67 3.32 2.34 4.64 2 6 C1.34 6 0.68 6 0 6 C0 4.02 0 2.04 0 0 Z " fill="#463711" transform="translate(197,285)"/>
<path d="M0 0 C4.62 0 9.24 0 14 0 C14 0.33 14 0.66 14 1 C13.24074219 1.02578125 12.48148438 1.0515625 11.69921875 1.078125 C10.70535156 1.13484375 9.71148437 1.1915625 8.6875 1.25 C7.70136719 1.29640625 6.71523437 1.3428125 5.69921875 1.390625 C2.86059908 1.75970238 2.86059908 1.75970238 1.14453125 4.046875 C0.76683594 4.69140625 0.38914063 5.3359375 0 6 C0 4.02 0 2.04 0 0 Z " fill="#524231" transform="translate(152,224)"/>
<path d="M0 0 C0.33 0 0.66 0 1 0 C1.33 2.31 1.66 4.62 2 7 C-2.61073111 8.29676812 -6.33840089 7.71109139 -11 7 C-11 6.67 -11 6.34 -11 6 C-7.37 6 -3.74 6 0 6 C0 4.02 0 2.04 0 0 Z " fill="#554239" transform="translate(227,172)"/>
<path d="M0 0 C1.65 0 3.3 0 5 0 C4.6875 1.875 4.6875 1.875 4 4 C3.01 4.66 2.02 5.32 1 6 C0.67 4.02 0.34 2.04 0 0 Z " fill="#48371D" transform="translate(176,308)"/>
<path d="M0 0 C0.33 0 0.66 0 1 0 C1 2.31 1 4.62 1 7 C-0.98 7 -2.96 7 -5 7 C-5 6.34 -5 5.68 -5 5 C-3.68 5 -2.36 5 -1 5 C-0.67 3.35 -0.34 1.7 0 0 Z " fill="#4E3C19" transform="translate(173,216)"/>
<path d="M0 0 C0.99 0 1.98 0 3 0 C3 2.31 3 4.62 3 7 C2.67 6.34 2.34 5.68 2 5 C1.01 5 0.02 5 -1 5 C-0.67 3.35 -0.34 1.7 0 0 Z " fill="#4E3D30" transform="translate(262,193)"/>
<path d="M0 0 C1.32 1.65 2.64 3.3 4 5 C3.34 6.32 2.68 7.64 2 9 C0.68 8.34 -0.64 7.68 -2 7 C-1.34 7 -0.68 7 0 7 C0 4.69 0 2.38 0 0 Z " fill="#564622" transform="translate(235,315)"/>
<path d="M0 0 C0.33 0 0.66 0 1 0 C1 2.64 1 5.28 1 8 C-1.97 8 -4.94 8 -8 8 C-8 7.67 -8 7.34 -8 7 C-6.02 6.67 -4.04 6.34 -2 6 C-1.34 4.02 -0.68 2.04 0 0 Z " fill="#534038" transform="translate(294,314)"/>
<path d="M0 0 C2.475 0.495 2.475 0.495 5 1 C4.1875 2.9375 4.1875 2.9375 3 5 C2.01 5.33 1.02 5.66 0 6 C0 4.02 0 2.04 0 0 Z " fill="#52402A" transform="translate(182,262)"/>
<path d="M0 0 C0.66 0 1.32 0 2 0 C2 1.32 2 2.64 2 4 C2.99 4 3.98 4 5 4 C5 4.66 5 5.32 5 6 C3.02 6 1.04 6 -1 6 C-0.67 4.02 -0.34 2.04 0 0 Z " fill="#4E3718" transform="translate(259,194)"/>
<path d="M0 0 C2 3 2 3 2 5 C3.65 5.33 5.3 5.66 7 6 C7 6.33 7 6.66 7 7 C4.69 7 2.38 7 0 7 C0 4.69 0 2.38 0 0 Z " fill="#F9F2AF" transform="translate(182,307)"/>
<path d="M0 0 C1.4370809 -0.05422947 2.87475462 -0.09289723 4.3125 -0.125 C5.11300781 -0.14820313 5.91351563 -0.17140625 6.73828125 -0.1953125 C9 0 9 0 12 2 C11.67 2.66 11.34 3.32 11 4 C10.484375 3.690625 9.96875 3.38125 9.4375 3.0625 C6.33334577 1.70940713 3.34884993 1.38640576 0 1 C0 0.67 0 0.34 0 0 Z " fill="#5A462B" transform="translate(265,284)"/>
<path d="M0 0 C1.32 0.33 2.64 0.66 4 1 C3.34 2.32 2.68 3.64 2 5 C2.99 5.33 3.98 5.66 5 6 C3.35 6 1.7 6 0 6 C0 4.02 0 2.04 0 0 Z " fill="#4B3B32" transform="translate(296,323)"/>
<path d="M0 0 C0.33 1.32 0.66 2.64 1 4 C-1.31 4 -3.62 4 -6 4 C-6 3.34 -6 2.68 -6 2 C-2.25 0.875 -2.25 0.875 0 2 C0 1.34 0 0.68 0 0 Z " fill="#F7F0B1" transform="translate(211,257)"/>
<path d="M0 0 C2.475 0.99 2.475 0.99 5 2 C4.67 2.99 4.34 3.98 4 5 C2.68 5 1.36 5 0 5 C0 3.35 0 1.7 0 0 Z " fill="#503A31" transform="translate(152,256)"/>
<path d="M0 0 C0.99 0.495 0.99 0.495 2 1 C2 1.66 2 2.32 2 3 C2.99 3.33 3.98 3.66 5 4 C2.525 5.485 2.525 5.485 0 7 C0 4.69 0 2.38 0 0 Z " fill="#4B392A" transform="translate(197,193)"/>
<path d="M0 0 C0.99 0.33 1.98 0.66 3 1 C3.33 2.65 3.66 4.3 4 6 C2.68 6 1.36 6 0 6 C0 4.02 0 2.04 0 0 Z " fill="#56381B" transform="translate(250,186)"/>
<path d="" fill="#FFFFFF" transform="translate(0,0)"/>
<path d="" fill="#FFFFFF" transform="translate(0,0)"/>
<path d="" fill="#FFFFFF" transform="translate(0,0)"/>
<path d="" fill="#FFFFFF" transform="translate(0,0)"/>
<path d="" fill="#FFFFFF" transform="translate(0,0)"/>
<path d="" fill="#FFFFFF" transform="translate(0,0)"/>
<path d="" fill="#FFFFFF" transform="translate(0,0)"/>
<path d="" fill="#FFFFFF" transform="translate(0,0)"/>
<path d="" fill="#FFFFFF" transform="translate(0,0)"/>
<path d="" fill="#FFFFFF" transform="translate(0,0)"/>
<path d="" fill="#FFFFFF" transform="translate(0,0)"/>
<path d="" fill="#FFFFFF" transform="translate(0,0)"/>
<path d="" fill="#FFFFFF" transform="translate(0,0)"/>
<path d="" fill="#FFFFFF" transform="translate(0,0)"/>
<path d="" fill="#FFFFFF" transform="translate(0,0)"/>
<path d="" fill="#FFFFFF" transform="translate(0,0)"/>
<path d="" fill="#FFFFFF" transform="translate(0,0)"/>
<path d="" fill="#FFFFFF" transform="translate(0,0)"/>
<path d="" fill="#FFFFFF" transform="translate(0,0)"/>
<path d="" fill="#FFFFFF" transform="translate(0,0)"/>
<path d="" fill="#FFFFFF" transform="translate(0,0)"/>
<path d="" fill="#FFFF00" transform="translate(0,0)"/>
<path d="" fill="#FFFFFF" transform="translate(0,0)"/>
<path d="" fill="#FFFFFF" transform="translate(0,0)"/>
<path d="" fill="#FFFFFF" transform="translate(0,0)"/>
<path d="" fill="#FFFFFF" transform="translate(0,0)"/>
<path d="" fill="#FFFFFF" transform="translate(0,0)"/>
<path d="" fill="#FFFFFF" transform="translate(0,0)"/>
<path d="" fill="#FFFFFF" transform="translate(0,0)"/>
<path d="" fill="#FFFFFF" transform="translate(0,0)"/>
<path d="" fill="#FFFFFF" transform="translate(0,0)"/>
<path d="" fill="#FFFFFF" transform="translate(0,0)"/>
<path d="" fill="#FFFFFF" transform="translate(0,0)"/>
<path d="" fill="#FFFFFF" transform="translate(0,0)"/>
<path d="" fill="#FFFFFF" transform="translate(0,0)"/>
<path d="" fill="#FFFFFF" transform="translate(0,0)"/>
<path d="" fill="#FFFFFF" transform="translate(0,0)"/>
<path d="" fill="#FFFFFF" transform="translate(0,0)"/>
<path d="" fill="#FFFFFF" transform="translate(0,0)"/>
<path d="" fill="#FFFFFF" transform="translate(0,0)"/>
<path d="" fill="#FFFFFF" transform="translate(0,0)"/>
<path d="" fill="#FFFFFF" transform="translate(0,0)"/>
<path d="" fill="#FFFFFF" transform="translate(0,0)"/>
<path d="" fill="#FFFFFF" transform="translate(0,0)"/>
<path d="" fill="#FFFFFF" transform="translate(0,0)"/>
<path d="" fill="#FFFFFF" transform="translate(0,0)"/>
<path d="" fill="#FFFFFF" transform="translate(0,0)"/>
<path d="" fill="#FFFFFF" transform="translate(0,0)"/>
<path d="" fill="#FFFFFF" transform="translate(0,0)"/>
<path d="" fill="#FFFFFF" transform="translate(0,0)"/>
<path d="" fill="#FFFFFF" transform="translate(0,0)"/>
<path d="" fill="#FFFFFF" transform="translate(0,0)"/>
<path d="" fill="#FFFFFF" transform="translate(0,0)"/>
<path d="" fill="#FFFFFF" transform="translate(0,0)"/>
<path d="" fill="#FFFFFF" transform="translate(0,0)"/>
<path d="" fill="#FFFFFF" transform="translate(0,0)"/>
<path d="" fill="#FFFFFF" transform="translate(0,0)"/>
<path d="" fill="#FFFFFF" transform="translate(0,0)"/>
<path d="" fill="#FFFFFF" transform="translate(0,0)"/>
<path d="" fill="#FFFFFF" transform="translate(0,0)"/>
<path d="" fill="#FFFFFF" transform="translate(0,0)"/>
<path d="" fill="#FFFFFF" transform="translate(0,0)"/>
<path d="" fill="#FFFFFF" transform="translate(0,0)"/>
<path d="" fill="#FFFFFF" transform="translate(0,0)"/>
<path d="" fill="#FFFFFF" transform="translate(0,0)"/>
<path d="" fill="#FFFFFF" transform="translate(0,0)"/>
<path d="" fill="#FFFFFF" transform="translate(0,0)"/>
<path d="" fill="#FFFFFF" transform="translate(0,0)"/>
<path d="" fill="#FFFFFF" transform="translate(0,0)"/>
<path d="" fill="#FFFFFF" transform="translate(0,0)"/>
<path d="" fill="#FFFFFF" transform="translate(0,0)"/>
<path d="" fill="#FFFFFF" transform="translate(0,0)"/>
<path d="" fill="#FFFFFF" transform="translate(0,0)"/>
<path d="" fill="#FFFFFF" transform="translate(0,0)"/>
<path d="" fill="#FFFFFF" transform="translate(0,0)"/>
<path d="" fill="#FFFFFF" transform="translate(0,0)"/>
<path d="" fill="#FFFFFF" transform="translate(0,0)"/>
<path d="" fill="#FFFFFF" transform="translate(0,0)"/>
<path d="" fill="#FFFFFF" transform="translate(0,0)"/>
<path d="" fill="#FFFFFF" transform="translate(0,0)"/>
<path d="" fill="#FFFFFF" transform="translate(0,0)"/>
<path d="" fill="#FFFFFF" transform="translate(0,0)"/>
<path d="" fill="#FFFFFF" transform="translate(0,0)"/>
<path d="" fill="#FFFFFF" transform="translate(0,0)"/>
<path d="" fill="#FFFFFF" transform="translate(0,0)"/>
<path d="" fill="#FFFFFF" transform="translate(0,0)"/>
</svg>
