<?xml version="1.0" encoding="UTF-8"?>
<svg version="1.1" xmlns="http://www.w3.org/2000/svg" width="500" height="500">
<path d="M0 0 C0.77472656 0.58652344 1.54945313 1.17304688 2.34765625 1.77734375 C4.47096004 3.36905781 6.59745739 4.85497557 8.80859375 6.31640625 C17.64078691 12.17106373 25.49913348 18.37654088 33.0625 25.8125 C33.92230469 26.65039062 34.78210938 27.48828125 35.66796875 28.3515625 C39.88143941 32.68188308 43.71110549 37.42157125 46.6875 42.6875 C47.93923639 44.98722563 47.93923639 44.98722563 50.43359375 46.12890625 C53.46101623 48.06771619 54.66022254 49.80870423 56.5 52.875 C57.38558594 54.33679688 57.38558594 54.33679688 58.2890625 55.828125 C58.87429688 56.81296875 59.45953125 57.7978125 60.0625 58.8125 C60.62710937 59.71484375 61.19171875 60.6171875 61.7734375 61.546875 C65.22559672 67.10400936 67.70565059 71.85574773 68.5 78.4375 C68.77930104 81.75506586 68.77930104 81.75506586 70.52734375 83.70703125 C72.3039047 86.14358685 72.69707741 87.91908931 73.1875 90.875 C73.66473713 93.65888328 74.16610077 96.12330231 75.0625 98.8125 C75.15867307 101.32431429 75.20184762 103.80166622 75.1875 106.3125 C75.19136719 106.98925781 75.19523437 107.66601562 75.19921875 108.36328125 C75.19312416 111.45323767 75.0469023 113.85929311 74.0625 116.8125 C74.3925 117.4725 74.7225 118.1325 75.0625 118.8125 C76.24011328 131.82101876 73.01690407 144.71783994 69.75 157.1875 C69.46632568 158.29287109 69.18265137 159.39824219 68.89038086 160.53710938 C67.28660746 166.44420027 65.41913508 171.59477489 62.20361328 176.81762695 C60.942264 179.02269433 60.09564802 181.23261979 59.25 183.625 C56.55778162 190.65345535 52.40737626 198.58258249 46.0625 202.8125 C45.3509375 204.2975 45.3509375 204.2975 44.625 205.8125 C43.0625 208.8125 43.0625 208.8125 41.10546875 209.76953125 C38.64099964 211.02768279 38.08635442 212.08062724 36.8125 214.5 C28.51502777 228.37895506 8.09922167 240.01930338 -6.9375 244.8125 C-9.15077421 245.63262061 -11.35909311 246.46622663 -13.5625 247.3125 C-14.66851562 247.7353125 -15.77453125 248.158125 -16.9140625 248.59375 C-19.82152223 249.69277296 -19.82152223 249.69277296 -21.96484375 250.94140625 C-25.44883187 252.47988021 -29.20471015 252.22373074 -32.96484375 252.37109375 C-35.95094015 252.59540888 -35.95094015 252.59540888 -38.08911133 254.26831055 C-41.79797553 256.27898734 -45.35436939 256.60520906 -49.484375 256.9609375 C-50.31636414 257.04000336 -51.14835327 257.11906921 -52.0055542 257.20053101 C-61.3866015 258.03481387 -70.77531323 258.26453485 -80.1875 258.4375 C-81.90105703 258.47588264 -83.61459899 258.51494412 -85.328125 258.5546875 C-95.19936279 258.77415614 -105.06367436 258.86793726 -114.9375 258.8125 C-116.22479004 258.8132251 -116.22479004 258.8132251 -117.53808594 258.81396484 C-145.87845586 258.69915311 -175.80736433 251.45230027 -196.953125 231.94921875 C-198.9375 229.8125 -198.9375 229.8125 -198.9375 227.8125 C-199.5975 227.8125 -200.2575 227.8125 -200.9375 227.8125 C-204.18590536 224.01146136 -207.03564712 219.8824465 -209.9375 215.8125 C-210.62714844 214.8534375 -211.31679687 213.894375 -212.02734375 212.90625 C-230.71449983 185.96714182 -238.45276223 153.21466557 -232.9375 120.8125 C-232.80778167 119.35457879 -232.68345147 117.89617469 -232.5625 116.4375 C-231.26775237 103.73754898 -228.81245485 93.10683073 -222.9375 81.77148438 C-221.86608805 79.67260511 -220.85180681 77.55186171 -219.84375 75.421875 C-219.14648063 73.96843929 -218.44857879 72.5153068 -217.75 71.0625 C-217.42942627 70.38251953 -217.10885254 69.70253906 -216.77856445 69.00195312 C-215.00348188 65.39409895 -213.50622396 62.79266153 -209.9375 60.8125 C-209.2775 60.8125 -208.6175 60.8125 -207.9375 60.8125 C-207.77894531 60.13703125 -207.62039062 59.4615625 -207.45703125 58.765625 C-205.98927519 53.15409353 -204.9754238 50.08715047 -199.9375 46.8125 C-199.421875 46.11125 -198.90625 45.41 -198.375 44.6875 C-196.9375 42.8125 -196.9375 42.8125 -195.04296875 41.92578125 C-192.60924513 40.63893295 -191.50108011 39.28451577 -189.8125 37.125 C-185.78240024 32.36449837 -181.1072787 29.23034159 -175.9375 25.8125 C-174.39482275 24.68888618 -172.85316635 23.56386952 -171.3125 22.4375 C-144.79840549 3.96792952 -113.7260406 -9.5665872 -81.9375 -15.1875 C-80.93847656 -15.373125 -79.93945312 -15.55875 -78.91015625 -15.75 C-54.97457554 -19.27271359 -20.32191365 -14.15759985 0 0 Z M-22.28125 98.4375 C-24.48165803 101.59280208 -24.17879423 103.29591091 -23.6875 107.0625 C-23.55859375 108.14015625 -23.4296875 109.2178125 -23.296875 110.328125 C-23.17828125 111.14796875 -23.0596875 111.9678125 -22.9375 112.8125 C-20.9575 112.8125 -18.9775 112.8125 -16.9375 112.8125 C-16.6075 113.4725 -16.2775 114.1325 -15.9375 114.8125 C-14.2875 114.4825 -12.6375 114.1525 -10.9375 113.8125 C-10.6075 112.8225 -10.2775 111.8325 -9.9375 110.8125 C-7.875 110.125 -7.875 110.125 -5.9375 109.8125 C-5.15947813 107.5109589 -5.15947813 107.5109589 -4.9375 104.8125 C-6.21229815 102.69597363 -6.21229815 102.69597363 -7.9375 100.8125 C-8.62647022 99.49055361 -9.29670148 98.15845672 -9.9375 96.8125 C-11.51929615 96.70382698 -13.10327153 96.62660173 -14.6875 96.5625 C-15.56921875 96.51609375 -16.4509375 96.4696875 -17.359375 96.421875 C-20.05031977 96.63608552 -20.05031977 96.63608552 -22.28125 98.4375 Z M3.0625 107.8125 C0.71962582 110.48497634 0.71962582 110.48497634 0.0625 113.8125 C2.91076598 116.17942966 2.91076598 116.17942966 6.25 115.4375 C7.178125 115.23125 8.10625 115.025 9.0625 114.8125 C7.77105022 111.81257271 7.77105022 111.81257271 6.0625 108.8125 C5.0725 108.4825 4.0825 108.1525 3.0625 107.8125 Z M-125.10546875 112.10546875 C-125.77191406 112.73066406 -126.43835938 113.35585937 -127.125 114 C-127.79917969 114.61230469 -128.47335938 115.22460938 -129.16796875 115.85546875 C-130.96355143 117.84131184 -132.1095377 119.26566859 -132.9375 121.8125 C-132.26158069 125.16393326 -130.9041892 128.02070557 -128.9375 130.8125 C-125.821475 132.03040719 -125.821475 132.03040719 -122.9375 131.8125 C-122.9375 132.4725 -122.9375 133.1325 -122.9375 133.8125 C-120.6275 133.8125 -118.3175 133.8125 -115.9375 133.8125 C-115.6075 133.1525 -115.2775 132.4925 -114.9375 131.8125 C-113.9475 131.4825 -112.9575 131.1525 -111.9375 130.8125 C-111.97875 129.69875 -112.02 128.585 -112.0625 127.4375 C-111.9375 123.8125 -111.9375 123.8125 -109.9375 121.8125 C-110.24517335 118.36516001 -111.6031152 116.81049063 -114.1875 114.625 C-115.06148437 113.86123047 -115.06148437 113.86123047 -115.953125 113.08203125 C-119.23601599 110.9817565 -121.62315157 110.02862733 -125.10546875 112.10546875 Z M-137.4375 139.5 C-139.20959555 141.7725832 -139.20959555 141.7725832 -138.9375 144.8125 C-138.2775 144.8125 -137.6175 144.8125 -136.9375 144.8125 C-136.9375 145.8025 -136.9375 146.7925 -136.9375 147.8125 C-133.6375 147.4825 -130.3375 147.1525 -126.9375 146.8125 C-125.59236576 142.95311025 -125.59236576 142.95311025 -126.9375 139.8125 C-130.72818485 137.87812306 -133.84694463 137.07637512 -137.4375 139.5 Z " fill="#FEE6AA" transform="translate(325.9375,132.1875)"/>
<path d="M0 0 C0 0.66 0 1.32 0 2 C1.0725 1.9175 2.145 1.835 3.25 1.75 C7 2 7 2 9.25 3.9375 C9.8275 4.618125 10.405 5.29875 11 6 C11.99 6.33 12.98 6.66 14 7 C16.03960471 9.9025144 17.35341074 12.50841798 18 16 C18.66 16 19.32 16 20 16 C22.11685483 22.3505645 22.31815272 32.0128153 19.5625 38.25 C18.7890625 39.61125 18.7890625 39.61125 18 41 C17.67 41.99 17.34 42.98 17 44 C16.01 44 15.02 44 14 44 C14 44.99 14 45.98 14 47 C13.01 47 12.02 47 11 47 C11 47.99 11 48.98 11 50 C10.195625 50.28875 9.39125 50.5775 8.5625 50.875 C5.8673532 51.73262568 5.8673532 51.73262568 5 54 C2.96875 54.59765625 2.96875 54.59765625 0.5 55.0625 C-2.53773221 55.45864843 -2.53773221 55.45864843 -5 57 C-10.23311859 57.34887457 -13.80052286 57.54330884 -18 54 C-18 53.01 -18 52.02 -18 51 C-18.66 50.67 -19.32 50.34 -20 50 C-18.68 50 -17.36 50 -16 50 C-16 49.34 -16 48.68 -16 48 C-14.02 48 -12.04 48 -10 48 C-10 45.36 -10 42.72 -10 40 C-10.680625 40.04125 -11.36125 40.0825 -12.0625 40.125 C-15.59924168 39.97450035 -18.63323033 39.05624147 -22 38 C-22 38.99 -22 39.98 -22 41 C-22.66 41 -23.32 41 -24 41 C-23.67 42.65 -23.34 44.3 -23 46 C-23.66 46 -24.32 46 -25 46 C-25 46.66 -25 47.32 -25 48 C-27.8125 47.5 -27.8125 47.5 -31 46 C-34.33370289 41.00555135 -34.66282762 34.82523508 -34 29 C-33.67 28.67 -33.34 28.34 -33 28 C-32.84168746 26.25269861 -32.72335745 24.50169941 -32.625 22.75 C-32.2557798 18.34775919 -31.75016964 15.56503471 -29 12 C-28.34 10.906875 -27.68 9.81375 -27 8.6875 C-26.01 7.3571875 -26.01 7.3571875 -25 6 C-24.01 6 -23.02 6 -22 6 C-22 5.01 -22 4.02 -22 3 C-21.01 3 -20.02 3 -19 3 C-19 2.34 -19 1.68 -19 1 C-12.62641289 0.03794912 -6.44070471 -0.10655578 0 0 Z M-8.16796875 12.29296875 C-8.83441406 12.91816406 -9.50085938 13.54335937 -10.1875 14.1875 C-10.86167969 14.79980469 -11.53585938 15.41210938 -12.23046875 16.04296875 C-14.02605143 18.02881184 -15.1720377 19.45316859 -16 22 C-15.32408069 25.35143326 -13.9666892 28.20820557 -12 31 C-8.883975 32.21790719 -8.883975 32.21790719 -6 32 C-6 32.66 -6 33.32 -6 34 C-3.69 34 -1.38 34 1 34 C1.33 33.34 1.66 32.68 2 32 C2.99 31.67 3.98 31.34 5 31 C4.95875 29.88625 4.9175 28.7725 4.875 27.625 C5 24 5 24 7 22 C6.69232665 18.55266001 5.3343848 16.99799063 2.75 14.8125 C1.87601563 14.04873047 1.87601563 14.04873047 0.984375 13.26953125 C-2.29851599 11.1692565 -4.68565157 10.21612733 -8.16796875 12.29296875 Z " fill="#65625E" transform="translate(209,232)"/>
<path d="M0 0 C0 0.66 0 1.32 0 2 C1.98 2 3.96 2 6 2 C6 3.65 6 5.3 6 7 C8.475 7.495 8.475 7.495 11 8 C11 9.65 11 11.3 11 13 C11.99 13 12.98 13 14 13 C13.67 14.98 13.34 16.96 13 19 C13.66 19 14.32 19 15 19 C14.91253716 20.43861294 14.80434652 21.87597508 14.6875 23.3125 C14.60048828 24.51326172 14.60048828 24.51326172 14.51171875 25.73828125 C13.90698993 28.41109031 13.19537752 29.38866591 11 31 C10.01 31 9.02 31 8 31 C8 32.98 8 34.96 8 37 C7.34 37 6.68 37 6 37 C5.67 39.31 5.34 41.62 5 44 C3.02 44 1.04 44 -1 44 C-1.33 44.99 -1.66 45.98 -2 47 C-3.65 47 -5.3 47 -7 47 C-7 47.66 -7 48.32 -7 49 C-9.29141286 49.05384521 -11.58318188 49.09272087 -13.875 49.125 C-15.15117187 49.14820313 -16.42734375 49.17140625 -17.7421875 49.1953125 C-21 49 -21 49 -23 47 C-24.48918875 46.67493454 -25.99211065 46.41025638 -27.5 46.1875 C-29.94921875 45.703125 -29.94921875 45.703125 -32 45 C-33.3125 42.4375 -33.3125 42.4375 -34 40 C-36.04105639 39.11306697 -36.04105639 39.11306697 -38 39 C-38 37.02 -38 35.04 -38 33 C-38.66 33 -39.32 33 -40 33 C-41.48235925 24.64488425 -40.49592836 17.79136133 -36.0625 10.4375 C-34 8 -34 8 -31.75 7.125 C-31.1725 7.08375 -30.595 7.0425 -30 7 C-30 5.68 -30 4.36 -30 3 C-28.68 3 -27.36 3 -26 3 C-26 2.34 -26 1.68 -26 1 C-19.31126593 -4.39414038 -7.21519317 -4.50949573 0 0 Z M-29.34375 13.625 C-31.54415803 16.78030208 -31.24129423 18.48341091 -30.75 22.25 C-30.62109375 23.32765625 -30.4921875 24.4053125 -30.359375 25.515625 C-30.24078125 26.33546875 -30.1221875 27.1553125 -30 28 C-28.02 28 -26.04 28 -24 28 C-23.67 28.66 -23.34 29.32 -23 30 C-21.35 29.67 -19.7 29.34 -18 29 C-17.67 28.01 -17.34 27.02 -17 26 C-14.9375 25.3125 -14.9375 25.3125 -13 25 C-12.22197813 22.6984589 -12.22197813 22.6984589 -12 20 C-13.27479815 17.88347363 -13.27479815 17.88347363 -15 16 C-15.68897022 14.67805361 -16.35920148 13.34595672 -17 12 C-18.58179615 11.89132698 -20.16577153 11.81410173 -21.75 11.75 C-22.63171875 11.70359375 -23.5134375 11.6571875 -24.421875 11.609375 C-27.11281977 11.82358552 -27.11281977 11.82358552 -29.34375 13.625 Z M-4 23 C-6.34287418 25.67247634 -6.34287418 25.67247634 -7 29 C-4.15173402 31.36692966 -4.15173402 31.36692966 -0.8125 30.625 C0.115625 30.41875 1.04375 30.2125 2 30 C0.70855022 27.00007271 0.70855022 27.00007271 -1 24 C-1.99 23.67 -2.98 23.34 -4 23 Z " fill="#706D69" transform="translate(333,217)"/>
<path d="M0 0 C0.66 0 1.32 0 2 0 C1.67 0.99 1.34 1.98 1 3 C0.67 2.01 0.34 1.02 0 0 Z M-2.25 2.625 C-1.13625 2.810625 -1.13625 2.810625 0 3 C0 3.99 0 4.98 0 6 C-0.99 6.66 -1.98 7.32 -3 8 C-3.05632424 10.80435411 -2.95814702 13.35146678 -2.6875 16.125 C-2.62626953 16.87910156 -2.56503906 17.63320312 -2.50195312 18.41015625 C-2.3485467 20.27463438 -2.17606541 22.13752498 -2 24 C0.31 24 2.62 24 5 24 C5 24.66 5 25.32 5 26 C8.96 25.505 8.96 25.505 13 25 C13 24.01 13 23.02 13 22 C13.598125 22.185625 14.19625 22.37125 14.8125 22.5625 C17.16408762 23.22093687 17.16408762 23.22093687 20 22 C20.66 22.99 21.32 23.98 22 25 C22.99 25.33 23.98 25.66 25 26 C25 26.66 25 27.32 25 28 C26.8871875 27.7525 26.8871875 27.7525 28.8125 27.5 C31.26456585 27.17841759 33.51650694 27 36 27 C36.33 25.68 36.66 24.36 37 23 C38.98 22.67 40.96 22.34 43 22 C42.505 23.485 42.505 23.485 42 25 C40.35 25.33 38.7 25.66 37 26 C37 27.98 37 29.96 37 32 C36.34 32 35.68 32 35 32 C34.67 34.31 34.34 36.62 34 39 C32.02 39 30.04 39 28 39 C27.67 39.99 27.34 40.98 27 42 C25.35 42 23.7 42 22 42 C22 42.66 22 43.32 22 44 C19.70858714 44.05384521 17.41681812 44.09272087 15.125 44.125 C13.84882813 44.14820313 12.57265625 44.17140625 11.2578125 44.1953125 C8 44 8 44 6 42 C4.51081125 41.67493454 3.00788935 41.41025638 1.5 41.1875 C-0.94921875 40.703125 -0.94921875 40.703125 -3 40 C-4.3125 37.4375 -4.3125 37.4375 -5 35 C-7.04105639 34.11306697 -7.04105639 34.11306697 -9 34 C-9 32.02 -9 30.04 -9 28 C-9.66 28 -10.32 28 -11 28 C-12.48884945 19.60830313 -11.41830515 12.82257015 -7.125 5.375 C-5 3 -5 3 -2.25 2.625 Z " fill="#605E5A" transform="translate(304,222)"/>
<path d="M0 0 C2.72998676 0.11437651 5.4584582 0.24111406 8.1875 0.375 C8.95642578 0.4059375 9.72535156 0.436875 10.51757812 0.46875 C14.73897711 0.68616111 18.14072328 1.09743072 22 3 C21.67 4.32 21.34 5.64 21 7 C20.34 7 19.68 7 19 7 C19 7.99 19 8.98 19 10 C16.36 10 13.72 10 11 10 C10.773125 10.804375 10.54625 11.60875 10.3125 12.4375 C9.6628125 13.7059375 9.6628125 13.7059375 9 15 C6.375 15.8125 6.375 15.8125 4 16 C3.16779149 19.97610732 2.76901558 23.0832314 4 27 C4.66 27.33 5.32 27.66 6 28 C6.73075648 30.3140622 7.40138258 32.64828869 8 35 C6.68 34.67 5.36 34.34 4 34 C4 34.99 4 35.98 4 37 C1.69 37 -0.62 37 -3 37 C-3 37.99 -3 38.98 -3 40 C-3.66 40 -4.32 40 -5 40 C-4.67 41.65 -4.34 43.3 -4 45 C-4.66 45 -5.32 45 -6 45 C-6 45.66 -6 46.32 -6 47 C-8.8125 46.5 -8.8125 46.5 -12 45 C-15.33370289 40.00555135 -15.66282762 33.82523508 -15 28 C-14.67 27.67 -14.34 27.34 -14 27 C-13.84168746 25.25269861 -13.72335745 23.50169941 -13.625 21.75 C-13.2557798 17.34775919 -12.75016964 14.56503471 -10 11 C-9.34 9.906875 -8.68 8.81375 -8 7.6875 C-7.01 6.3571875 -7.01 6.3571875 -6 5 C-5.01 5 -4.02 5 -3 5 C-3 4.01 -3 3.02 -3 2 C-2.01 2 -1.02 2 0 2 C0 1.34 0 0.68 0 0 Z " fill="#605E5A" transform="translate(190,233)"/>
<path d="M0 0 C4.51315789 2.02631579 4.51315789 2.02631579 6 5 C6.05436961 11.6548404 5.43971296 16.79919339 1 22 C0.319375 22.66 -0.36125 23.32 -1.0625 24 C-3.40563338 26.41871833 -4.55430285 28.97717869 -6 32 C-8 34 -8 34 -11.8125 34.5 C-15.233628 34.36290562 -16.04261437 33.96981482 -19 31.875 C-22.61052759 26.72234876 -21.70552949 19.93709718 -21 14 C-19.61665315 8.30386593 -17.10509861 3.94935021 -12.0625 0.80859375 C-8.07914772 -0.7530614 -4.18065253 -0.66494304 0 0 Z " fill="#FBE7AE" transform="translate(364,94)"/>
<path d="M0 0 C1.85546875 1.26953125 1.85546875 1.26953125 2.46484375 3.23828125 C2.63222038 6.25106064 2.77938078 9.25247797 2.85546875 12.26953125 C2.87593262 13.00558594 2.89639648 13.74164063 2.91748047 14.5 C2.97727098 16.92324527 3.01483004 19.34572072 3.04296875 21.76953125 C3.05618164 22.55908203 3.06939453 23.34863281 3.08300781 24.16210938 C3.08804921 28.05743181 3.06534924 29.95471051 0.85546875 33.26953125 C-2.70636783 34.72064986 -6.3655509 34.64742928 -10.14453125 34.26953125 C-13.0970831 32.95611851 -15.76878163 31.47144553 -18.14453125 29.26953125 C-21.08690231 21.54783924 -19.13570862 13.02322185 -16.41015625 5.58203125 C-13.08240142 -0.49831091 -6.4118922 -2.18401428 0 0 Z " fill="#FCE6AC" transform="translate(265.14453125,72.73046875)"/>
<path d="M0 0 C7.10069271 6.54270299 11.46434523 13.70259918 14 23 C14.33 23.99 14.66 24.98 15 26 C15.47469459 33.05061082 15.47469459 33.05061082 14 36 C5.83148649 35.33318257 0.25298217 31.91893185 -5.359375 26.06640625 C-10.82504865 19.18226016 -13.47660293 11.73772047 -13 3 C-11 0 -11 0 -8.1875 -0.75 C-4.97019825 -1.00233739 -3.05477639 -0.99394217 0 0 Z " fill="#FBE7AE" transform="translate(130,106)"/>
<path d="M0 0 C4.02190802 0.6581304 4.96539096 1.40842985 7.4375 4.5625 C8.18 5.34625 8.9225 6.13 9.6875 6.9375 C11.77577599 10.06991398 11.78079116 11.87212004 11.4375 15.5625 C12.4275 15.8925 13.4175 16.2225 14.4375 16.5625 C16.87511152 21.55960361 16.56274171 25.28251967 15.4375 30.5625 C14.375 32.5625 14.375 32.5625 12.4375 33.5625 C6.25948726 34.42958951 2.19194461 32.91078893 -3.36328125 30.2421875 C-6.7346212 27.66727422 -8.21999695 24.77028168 -8.87231445 20.56542969 C-9.03614258 18.36796858 -9.070197 16.20326753 -9.0625 14 C-9.09085937 13.25814453 -9.11921875 12.51628906 -9.1484375 11.75195312 C-9.16329837 7.57976519 -8.89021509 5.98725424 -6.25390625 2.5703125 C-3.5625 0.5625 -3.5625 0.5625 0 0 Z " fill="#FCE7AF" transform="translate(294.5625,405.4375)"/>
<path d="M0 0 C2.52029777 2.12810858 3.65897797 4.14744492 4.875 7.1875 C6.23034577 10.45193202 7.74371037 13.14037112 9.8125 16 C12.17597172 19.71191013 12.75718458 22.59094457 11.96484375 26.9375 C10.34482976 30.40052585 7.88541459 31.76018612 4.4765625 33.296875 C1.23722984 34.21655935 -0.94239058 34.35585677 -4.140625 33.28125 C-8.05736977 30.58231663 -9.89082198 26.13807591 -12 22 C-12.33 21.67 -12.66 21.34 -13 21 C-14.02144109 7.26947454 -14.02144109 7.26947454 -10 2 C-6.47279461 -0.87745703 -4.31806583 -1.59086636 0 0 Z " fill="#FBE7AF" transform="translate(379,365)"/>
<path d="M0 0 C1.2684375 -0.01675781 2.536875 -0.03351563 3.84375 -0.05078125 C8.60085901 0.42188022 11.94494083 1.85776722 15.4375 5.125 C16.98953621 8.32036867 16.57581192 9.95058775 15.5 13.3125 C12.69369368 18.24772836 10.26804706 19.70730032 4.8125 21.25 C-2.16955428 22.68596437 -8.37423105 23.29002729 -14.5625 19.375 C-17.24347171 15.13733504 -17.92208291 11.30152001 -17.5 6.3125 C-13.73095124 0.28202198 -6.53824553 0.01993368 0 0 Z " fill="#FBE7AF" transform="translate(69.5,306.6875)"/>
<path d="M0 0 C3.98770002 2.42290634 6.76057496 4.84371457 8.03515625 9.4921875 C9.04139985 15.45149427 9.04139985 15.45149427 6.859375 18.5625 C2.10497114 21.99794021 -3.95765137 20.83112033 -9.5625 20.3125 C-12.74161038 19.66360669 -14.67368702 18.89851497 -17.5625 17.3125 C-18.26171875 15.203125 -18.26171875 15.203125 -18.5625 13.3125 C-19.738125 13.0959375 -19.738125 13.0959375 -20.9375 12.875 C-23.5625 12.3125 -23.5625 12.3125 -25.5625 11.3125 C-25.97893471 8.24129404 -26.23486943 6.26983221 -25.5625 3.3125 C-19.74695795 -3.90975133 -7.78005527 -3.54828689 0 0 Z " fill="#FAE7B0" transform="translate(82.5625,192.6875)"/>
<path d="M0 0 C1.3828125 1.23828125 1.3828125 1.23828125 2.9453125 3.98828125 C2.9453125 8.07404144 0.96360426 11.49508398 -1.0546875 14.98828125 C-4.0546875 16.98828125 -4.0546875 16.98828125 -7.6171875 17.98828125 C-11.08542075 18.69805131 -11.08542075 18.69805131 -13.0546875 20.98828125 C-16.09375 21.40234375 -16.09375 21.40234375 -19.6796875 21.61328125 C-20.86820312 21.68804687 -22.05671875 21.7628125 -23.28125 21.83984375 C-24.65410156 21.91332031 -24.65410156 21.91332031 -26.0546875 21.98828125 C-28.42491063 17.1490757 -30.0166883 13.4716858 -29.0546875 7.98828125 C-22.75438287 -1.96909676 -10.96096117 -5.39712727 0 0 Z " fill="#FCE6AC" transform="translate(427.0546875,159.01171875)"/>
<path d="M0 0 C2.86792416 2.03773559 5.14685739 3.95006764 7.375 6.6875 C7.875 9.875 7.875 9.875 7.375 12.6875 C1.34115561 16.71006292 -6.85338713 15.81289082 -13.9375 15.9375 C-14.61901123 15.95893066 -15.30052246 15.98036133 -16.00268555 16.00244141 C-20.40305783 16.03165819 -23.16376712 15.44003437 -26.625 12.6875 C-29.73088235 6.99338235 -29.73088235 6.99338235 -29.4375 3.375 C-28.31882337 1.05159469 -27.08453206 -0.10466185 -24.7421875 -1.1640625 C-15.97216446 -4.18926208 -8.5388058 -4.2694029 0 0 Z " fill="#FBE7AB" transform="translate(445.625,235.3125)"/>
<path d="M0 0 C2.32407813 6.06842622 1.6964159 9.83988977 0 16 C-0.12375 16.71800781 -0.2475 17.43601562 -0.375 18.17578125 C-1.07018609 22.02102934 -2.00556542 24.00622797 -4.625 26.9375 C-8.85282464 29.52117061 -11.05580434 30.07974509 -16 30 C-18.4375 28.5 -18.4375 28.5 -20 26 C-20.75 22.25 -20.75 22.25 -21 19 C-21.66 19 -22.32 19 -23 19 C-23.1875 15.625 -23.1875 15.625 -23 12 C-20 10 -20 10 -17 10 C-16.938125 9.0925 -16.87625 8.185 -16.8125 7.25 C-16 4 -16 4 -14.125 1.625 C-9.49478795 -0.78271027 -5.11864142 -0.32271645 0 0 Z " fill="#FCE6AD" transform="translate(135,388)"/>
<path d="M0 0 C8.37397608 1.55601541 17.03241616 3.97176476 23.31640625 9.94921875 C24.75390625 12.51171875 24.75390625 12.51171875 24.75390625 15.19921875 C23.75390625 17.51171875 23.75390625 17.51171875 21.953125 18.640625 C15.83108825 21.065517 7.79984192 19.72440655 1.75390625 17.51171875 C-2.60993286 15.09429042 -6.99724254 12.35218176 -10.24609375 8.51171875 C-10.88649779 3.38848643 -10.88649779 3.38848643 -9.0078125 0.81640625 C-6.06658191 -1.36179999 -3.47260396 -0.47009049 0 0 Z " fill="#FAE6B2" transform="translate(410.24609375,321.48828125)"/>
<path d="M0 0 C3.93586008 3.58857831 6.63222659 7.34796813 9.375 11.9140625 C10.91427915 14.15361513 10.91427915 14.15361513 13.47265625 15.45703125 C16.48586656 17.29662642 17.63020253 19.05033755 19.4375 22.0625 C20.02789062 23.03703125 20.61828125 24.0115625 21.2265625 25.015625 C21.81179688 26.00046875 22.39703125 26.9853125 23 28 C23.84691406 29.35351562 23.84691406 29.35351562 24.7109375 30.734375 C28.16309672 36.29150936 30.64315059 41.04324773 31.4375 47.625 C31.71680104 50.94256586 31.71680104 50.94256586 33.46484375 52.89453125 C35.2414047 55.33108685 35.63457741 57.10658931 36.125 60.0625 C36.60223713 62.84638328 37.10360077 65.31080231 38 68 C38.09617307 70.51181429 38.13934762 72.98916622 38.125 75.5 C38.13080078 76.51513672 38.13080078 76.51513672 38.13671875 77.55078125 C38.13062416 80.64073767 37.9844023 83.04679311 37 86 C37.33 86.66 37.66 87.32 38 88 C39.17761328 101.00851876 35.95440407 113.90533994 32.6875 126.375 C32.40382568 127.48037109 32.12015137 128.58574219 31.82788086 129.72460938 C30.22410746 135.63170027 28.35663508 140.78227489 25.14111328 146.00512695 C23.87972932 148.21025497 23.03265872 150.419864 22.1875 152.8125 C19.78229741 159.14985953 15.89584721 164.49664302 12 170 C11.34 169.67 10.68 169.34 10 169 C12.17953762 164.22356648 14.19950897 160.67789455 18 157 C20.87709348 152.31140322 21.53650876 148.37649842 22 143 C22.99 143 23.98 143 25 143 C25.66 139.7 26.32 136.4 27 133 C27.66 133 28.32 133 29 133 C28.814375 131.700625 28.62875 130.40125 28.4375 129.0625 C28.12109375 126.84765625 28.12109375 126.84765625 28 125 C28.33 124.67 28.66 124.34 29 124 C29.53817715 121.5578516 29.96378293 119.10246222 30.40234375 116.640625 C31 114 31 114 32.01367188 111.71875 C33.1335215 108.63195657 33.30117932 106.13740186 33.37890625 102.859375 C33.41306641 101.70695312 33.44722656 100.55453125 33.48242188 99.3671875 C33.50884766 98.17351562 33.53527344 96.97984375 33.5625 95.75 C33.62213479 93.36968361 33.68571276 90.98946157 33.75390625 88.609375 C33.77783447 87.55717773 33.8017627 86.50498047 33.82641602 85.42089844 C34 83 34 83 35 82 C35.12713954 79.38329079 35.18521024 76.80469287 35.1875 74.1875 C35.20586914 73.09985352 35.20586914 73.09985352 35.22460938 71.99023438 C35.23532217 68.087205 34.97554315 65.36865526 33 62 C33.04125 61.030625 33.0825 60.06125 33.125 59.0625 C33.29735904 55.86575055 33.29735904 55.86575055 31 53.5 C28.50254516 50.37818145 28.83751954 48.89953095 29 45 C28.08742694 42.21433941 28.08742694 42.21433941 27 40 C26.34 40 25.68 40 25 40 C22 34.375 22 34.375 22 31 C21.34 31 20.68 31 20 31 C19.54625 29.9275 19.0925 28.855 18.625 27.75 C18.34527344 27.110625 18.06554687 26.47125 17.77734375 25.8125 C17.20417029 24.47605534 16.681401 23.11772584 16.1875 21.75 C14.37974998 19.08594734 11.88999388 18.25651908 9 17 C9 15.68 9 14.36 9 13 C8.01 13 7.02 13 6 13 C5.731875 12.195625 5.46375 11.39125 5.1875 10.5625 C4.795625 9.716875 4.40375 8.87125 4 8 C3.01 7.67 2.02 7.34 1 7 C0.67 4.69 0.34 2.38 0 0 Z " fill="#FBF1D1" transform="translate(363,163)"/>
<path d="M0 0 C0.845625 0.70125 1.69125 1.4025 2.5625 2.125 C1.9025 2.455 1.2425 2.785 0.5625 3.125 C-1.46894641 2.19053465 -3.47283587 1.19275224 -5.4375 0.125 C-5.4375 -0.535 -5.4375 -1.195 -5.4375 -1.875 C-6.118125 -1.978125 -6.79875 -2.08125 -7.5 -2.1875 C-10.4375 -2.875 -10.4375 -2.875 -13.53125 -4.32421875 C-17.86882103 -6.21512951 -22.20906625 -6.78116208 -26.875 -7.375 C-37.2040531 -8.77298066 -37.2040531 -8.77298066 -41.45703125 -9.73046875 C-56.9139084 -13.17791884 -73.97861703 -13.55089074 -89.4375 -9.875 C-90.24960938 -9.70742187 -91.06171875 -9.53984375 -91.8984375 -9.3671875 C-95.23876146 -8.66804993 -98.48113252 -7.86182792 -101.75 -6.875 C-106.91495099 -5.47433532 -112.15292296 -4.69068184 -117.4375 -3.875 C-117.51097656 -3.25882813 -117.58445313 -2.64265625 -117.66015625 -2.0078125 C-118.4375 0.125 -118.4375 0.125 -120.43359375 1.3203125 C-121.64208984 1.78050781 -121.64208984 1.78050781 -122.875 2.25 C-126.48637035 3.65153197 -126.48637035 3.65153197 -129.4375 6.125 C-131.68233884 6.93859434 -133.95221383 7.58476099 -136.24609375 8.24609375 C-138.50443557 8.96934864 -138.50443557 8.96934864 -139.8984375 10.7109375 C-142.10270964 12.73618246 -143.69345772 12.42671593 -146.625 12.3125 C-147.97658203 12.27189453 -147.97658203 12.27189453 -149.35546875 12.23046875 C-150.04253906 12.19566406 -150.72960937 12.16085938 -151.4375 12.125 C-148.56693549 9.83869496 -145.7159672 8.17102869 -142.40234375 6.6015625 C-141.42716797 6.1375 -140.45199219 5.6734375 -139.44726562 5.1953125 C-138.43341797 4.71835938 -137.41957031 4.24140625 -136.375 3.75 C-135.38822266 3.28078125 -134.40144531 2.8115625 -133.38476562 2.328125 C-130.40724485 0.91638627 -127.42338981 -0.48106066 -124.4375 -1.875 C-123.47763184 -2.3282666 -122.51776367 -2.7815332 -121.52880859 -3.24853516 C-116.16410445 -5.74661767 -110.8865662 -7.90490173 -105.1875 -9.5 C-104.47295654 -9.7052832 -103.75841309 -9.91056641 -103.0222168 -10.12207031 C-95.90399795 -12.11614508 -88.71491264 -13.58819346 -81.4375 -14.875 C-80.43847656 -15.060625 -79.43945312 -15.24625 -78.41015625 -15.4375 C-54.98621359 -18.88491337 -19.84559238 -14.03906635 0 0 Z " fill="#F9EECC" transform="translate(325.4375,131.875)"/>
<path d="M0 0 C-1.70478591 0.96462975 -3.41401412 1.92141054 -5.125 2.875 C-6.55199219 3.67550781 -6.55199219 3.67550781 -8.0078125 4.4921875 C-10.97174235 5.9857605 -13.83872384 7.00298213 -17 8 C-19.21327421 8.82012061 -21.42159311 9.65372663 -23.625 10.5 C-24.73101562 10.9228125 -25.83703125 11.345625 -26.9765625 11.78125 C-29.88402223 12.88027296 -29.88402223 12.88027296 -32.02734375 14.12890625 C-35.51133187 15.66738021 -39.26721015 15.41123074 -43.02734375 15.55859375 C-46.01344015 15.78290888 -46.01344015 15.78290888 -48.15161133 17.45581055 C-51.86047553 19.46648734 -55.41686939 19.79270906 -59.546875 20.1484375 C-60.37886414 20.22750336 -61.21085327 20.30656921 -62.0680542 20.38803101 C-71.4491015 21.22231387 -80.83781323 21.45203485 -90.25 21.625 C-91.96355703 21.66338264 -93.67709899 21.70244412 -95.390625 21.7421875 C-108.6957465 22.03835127 -122.01517369 22.29802418 -135.3125 21.625 C-136.5814209 21.56227905 -136.5814209 21.56227905 -137.87597656 21.49829102 C-143.73937704 21.16783925 -149.29011878 20.42747031 -155 19 C-155 18.67 -155 18.34 -155 18 C-153.98808594 18.0721875 -152.97617188 18.144375 -151.93359375 18.21875 C-132.08664706 19.50917972 -111.28834192 20.62390001 -91.60546875 17.33984375 C-89 17 -89 17 -87 18 C-87 17.34 -87 16.68 -87 16 C-86.01 16 -85.02 16 -84 16 C-84 16.66 -84 17.32 -84 18 C-82.20755859 17.80083984 -82.20755859 17.80083984 -80.37890625 17.59765625 C-78.7734375 17.41927083 -77.16796875 17.24088542 -75.5625 17.0625 C-74.77939453 16.97548828 -73.99628906 16.88847656 -73.18945312 16.79882812 C-72.40634766 16.71181641 -71.62324219 16.62480469 -70.81640625 16.53515625 C-70.02371338 16.44580811 -69.23102051 16.35645996 -68.41430664 16.2644043 C-66.78957009 16.08647026 -65.1636749 15.91884604 -63.53686523 15.76098633 C-62.75126221 15.68259521 -61.96565918 15.6042041 -61.15625 15.5234375 C-60.45435547 15.45688965 -59.75246094 15.3903418 -59.02929688 15.32177734 C-56.85992203 14.97778841 -54.98362486 14.35190648 -52.9375 13.5625 C-47.93540298 11.72662397 -42.86178124 11.26780811 -37.58374023 10.82250977 C-33.38611035 10.40993747 -31.25366642 9.57498753 -28 7 C-24.984375 6.26953125 -24.984375 6.26953125 -21.75 5.8125 C-20.67234375 5.65394531 -19.5946875 5.49539063 -18.484375 5.33203125 C-17.66453125 5.22246094 -16.8446875 5.11289062 -16 5 C-16 4.34 -16 3.68 -16 3 C-13.89936424 2.30178583 -11.79434263 1.61675528 -9.6875 0.9375 C-7.92986328 0.36322266 -7.92986328 0.36322266 -6.13671875 -0.22265625 C-3 -1 -3 -1 0 0 Z " fill="#F9EFCB" transform="translate(336,369)"/>
<path d="M0 0 C0.70125 0.07863281 1.4025 0.15726562 2.125 0.23828125 C4 0.6875 4 0.6875 6 2.6875 C6.625 5.3125 6.625 5.3125 7 8.6875 C7.144375 9.904375 7.28875 11.12125 7.4375 12.375 C7.37178445 18.02653696 4.49862758 23.36923732 1 27.6875 C-2.18337203 28.78453898 -3.49043758 28.86525433 -6.6875 27.75 C-9.91471642 24.87167184 -10.58159861 21.84162813 -11 17.6875 C-10.80176881 11.44321758 -9.14687817 6.11438046 -6 0.6875 C-3.63106495 -0.49696753 -2.5933174 -0.31939755 0 0 Z " fill="#FBE7AC" transform="translate(210,410.3125)"/>
<path d="M0 0 C2.11966903 1.58354665 2.90521779 2.45576665 3.36328125 5.0859375 C3.24137074 10.58128799 3.07527375 14.92472625 -1 19 C-5.81989758 19.37076135 -9.51023509 18.75210338 -14 17 C-14 16.01 -14 15.02 -14 14 C-14.66 14 -15.32 14 -16 14 C-17.99785435 9.8794254 -18.17835515 6.54805635 -18 2 C-5.36543422 -0.5588994 -5.36543422 -0.5588994 0 0 Z " fill="#635B53" transform="translate(268,247)"/>
<path d="M0 0 C1.85546875 1.26953125 1.85546875 1.26953125 2.46484375 3.23828125 C2.63222038 6.25106064 2.77938078 9.25247797 2.85546875 12.26953125 C2.87593262 13.00558594 2.89639648 13.74164063 2.91748047 14.5 C2.97727098 16.92324527 3.01483004 19.34572072 3.04296875 21.76953125 C3.05618164 22.55908203 3.06939453 23.34863281 3.08300781 24.16210938 C3.08804921 28.05743181 3.06534924 29.95471051 0.85546875 33.26953125 C-2.70636783 34.72064986 -6.3655509 34.64742928 -10.14453125 34.26953125 C-13.0970831 32.95611851 -15.76878163 31.47144553 -18.14453125 29.26953125 C-21.08690231 21.54783924 -19.13570862 13.02322185 -16.41015625 5.58203125 C-13.08240142 -0.49831091 -6.4118922 -2.18401428 0 0 Z M-9.875 3.55078125 C-14.67488118 8.95509191 -16.46061298 14.12626203 -16.28125 21.30078125 C-16.09398456 23.99740353 -15.67430067 26.62068416 -15.14453125 29.26953125 C-13.49453125 29.26953125 -11.84453125 29.26953125 -10.14453125 29.26953125 C-10.14453125 29.92953125 -10.14453125 30.58953125 -10.14453125 31.26953125 C-6.6663001 32.42894163 -4.68557547 31.97774009 -1.14453125 31.26953125 C0.6710933 25.94091668 1.03353224 21.72535027 0.54296875 16.14453125 C0.49462891 15.45488281 0.44628906 14.76523438 0.39648438 14.0546875 C0.12005335 10.39460075 -0.32980348 6.84876266 -1.14453125 3.26953125 C-5.69123329 1.82754633 -5.69123329 1.82754633 -9.875 3.55078125 Z " fill="#F9EDCC" transform="translate(265.14453125,72.73046875)"/>
<path d="M0 0 C2.32407813 6.06842622 1.6964159 9.83988977 0 16 C-0.12375 16.71800781 -0.2475 17.43601562 -0.375 18.17578125 C-1.07018609 22.02102934 -2.00556542 24.00622797 -4.625 26.9375 C-8.85282464 29.52117061 -11.05580434 30.07974509 -16 30 C-18.4375 28.5 -18.4375 28.5 -20 26 C-20.75 22.25 -20.75 22.25 -21 19 C-21.66 19 -22.32 19 -23 19 C-23.1875 15.625 -23.1875 15.625 -23 12 C-20 10 -20 10 -17 10 C-16.938125 9.0925 -16.87625 8.185 -16.8125 7.25 C-16 4 -16 4 -14.125 1.625 C-9.49478795 -0.78271027 -5.11864142 -0.32271645 0 0 Z M-11.62890625 4.12109375 C-12.65868272 5.89932931 -13.65198673 7.69924739 -14.60546875 9.51953125 C-16 12 -16 12 -17.7265625 13.4375 C-19.32423866 15.04190778 -19.32423866 15.04190778 -18.85546875 17.91796875 C-18.63503906 18.99691406 -18.41460937 20.07585937 -18.1875 21.1875 C-17.97480469 22.27417969 -17.76210937 23.36085938 -17.54296875 24.48046875 C-17.36378906 25.31191406 -17.18460937 26.14335937 -17 27 C-11.53506117 26.2074329 -7.95744056 24.95744056 -4 21 C-3.23417839 18.09100439 -3.23417839 18.09100439 -2.75 14.75 C-2.55921875 13.63109375 -2.3684375 12.5121875 -2.171875 11.359375 C-1.98605361 7.72741146 -2.64175381 5.34493463 -4 2 C-7.57863828 1.14794327 -9.32125763 1.11617001 -11.62890625 4.12109375 Z " fill="#F7E9BE" transform="translate(135,388)"/>
<path d="M0 0 C2.86792416 2.03773559 5.14685739 3.95006764 7.375 6.6875 C7.875 9.875 7.875 9.875 7.375 12.6875 C1.34115561 16.71006292 -6.85338713 15.81289082 -13.9375 15.9375 C-14.61901123 15.95893066 -15.30052246 15.98036133 -16.00268555 16.00244141 C-20.40305783 16.03165819 -23.16376712 15.44003437 -26.625 12.6875 C-29.73088235 6.99338235 -29.73088235 6.99338235 -29.4375 3.375 C-28.31882337 1.05159469 -27.08453206 -0.10466185 -24.7421875 -1.1640625 C-15.97216446 -4.18926208 -8.5388058 -4.2694029 0 0 Z M-24.625 5.6875 C-25.04166667 9.1875 -25.04166667 9.1875 -24.625 12.6875 C-20.94412647 15.14141569 -18.18144412 14.91552759 -13.9375 14.8125 C-13.23560547 14.80347656 -12.53371094 14.79445312 -11.81054688 14.78515625 C-10.08188475 14.76163704 -8.35339855 14.72576713 -6.625 14.6875 C-6.295 13.3675 -5.965 12.0475 -5.625 10.6875 C-2.985 11.0175 -0.345 11.3475 2.375 11.6875 C2.82718674 7.80878967 2.82718674 7.80878967 0.875 6.0625 C0.38 5.60875 -0.115 5.155 -0.625 4.6875 C-0.625 4.0275 -0.625 3.3675 -0.625 2.6875 C-1.57375 2.378125 -2.5225 2.06875 -3.5 1.75 C-6.625 0.6875 -6.625 0.6875 -8.625 -0.3125 C-15.78418528 -0.90909877 -19.42093602 0.48343602 -24.625 5.6875 Z " fill="#F9F0CE" transform="translate(445.625,235.3125)"/>
<path d="M0 0 C1.32 0.33 2.64 0.66 4 1 C3.2884375 1.6496875 3.2884375 1.6496875 2.5625 2.3125 C0.76313043 4.02309613 0.76313043 4.02309613 0 7 C0.66 7 1.32 7 2 7 C2 7.99 2 8.98 2 10 C2.99 9.67 3.98 9.34 5 9 C7.33299825 8.96045766 9.66708189 8.95598268 12 9 C12 9.33 12 9.66 12 10 C10.02 10 8.04 10 6 10 C6 10.66 6 11.32 6 12 C5.01 12.495 5.01 12.495 4 13 C4 13.99 4 14.98 4 16 C4.66 16.33 5.32 16.66 6 17 C5.34 17.33 4.68 17.66 4 18 C3.835 18.825 3.67 19.65 3.5 20.5 C3.335 21.325 3.17 22.15 3 23 C0.52224905 24.23887548 -1.23653707 24.16741669 -4 24.1875 C-5.3303125 24.20876953 -5.3303125 24.20876953 -6.6875 24.23046875 C-9 24 -9 24 -11 22 C-11.31537716 17.66356399 -11.44897847 15.67346771 -9 12 C-8.34 12 -7.68 12 -7 12 C-7 11.01 -7 10.02 -7 9 C-5.68 9.33 -4.36 9.66 -3 10 C-2.67 7.69 -2.34 5.38 -2 3 C-1.34 3 -0.68 3 0 3 C0 2.01 0 1.02 0 0 Z " fill="#E4947B" transform="translate(187,270)"/>
<path d="M0 0 C0.33 0 0.66 0 1 0 C1.50130606 5.26371362 0.31168629 7.9090934 -3 12 C-3.66 12 -4.32 12 -5 12 C-4.95875 12.763125 -4.9175 13.52625 -4.875 14.3125 C-5 17 -5 17 -7 20 C-7.60299434 22.85584819 -8.01311613 25.71423652 -8.4375 28.6015625 C-8.623125 29.39304688 -8.80875 30.18453125 -9 31 C-9.66 31.33 -10.32 31.66 -11 32 C-11.39354302 34.45291361 -11.39354302 34.45291361 -11.5 37.3125 C-11.78047495 42.56439343 -11.78047495 42.56439343 -12.99609375 44.9765625 C-14.339205 47.68368945 -14.38749609 50.05764558 -14.5625 53.0625 C-14.76051635 56.33179031 -14.96130434 58.88391303 -16 62 C-16.66 62 -17.32 62 -18 62 C-18.33 71.24 -18.66 80.48 -19 90 C-19.33 90 -19.66 90 -20 90 C-20.92336722 78.67809728 -20.91400417 68.24477449 -19 57 C-18.87028167 55.54207879 -18.74595147 54.08367469 -18.625 52.625 C-17.33164995 39.93875763 -14.88109119 29.29940912 -9.01757812 17.97216797 C-7.9107249 15.82697594 -6.83608586 13.66747589 -5.765625 11.50390625 C-3.86166339 7.66005135 -1.93643073 3.82759426 0 0 Z " fill="#F9ECC7" transform="translate(112,196)"/>
<path d="M0 0 C1.29550781 -0.02578125 2.59101562 -0.0515625 3.92578125 -0.078125 C8.75812908 0.34338821 12.08254085 1.74858661 15.625 5.0625 C17.17703621 8.25786867 16.76331192 9.88808775 15.6875 13.25 C12.88119368 18.18522836 10.45554706 19.64480032 5 21.1875 C-1.98205428 22.62346437 -8.18673105 23.22752729 -14.375 19.3125 C-17.04048888 15.09930789 -17.78159264 11.217356 -17.3125 6.25 C-15.375 3.625 -15.375 3.625 -13.3125 2.25 C-12.6525 2.58 -11.9925 2.91 -11.3125 3.25 C-13.2925 4.24 -13.2925 4.24 -15.3125 5.25 C-15.168125 6.466875 -15.02375 7.68375 -14.875 8.9375 C-14.79378906 9.62199219 -14.71257813 10.30648438 -14.62890625 11.01171875 C-14.28454104 13.44778377 -13.81436317 15.84190025 -13.3125 18.25 C-5.24155177 18.35466648 2.6749678 18.28387512 10.6875 17.25 C10.83058594 16.66734375 10.97367188 16.0846875 11.12109375 15.484375 C11.90653171 12.38595766 12.80164037 9.32098004 13.6875 6.25 C12.6975 5.92 11.7075 5.59 10.6875 5.25 C10.6875 4.59 10.6875 3.93 10.6875 3.25 C9.6975 3.58 8.7075 3.91 7.6875 4.25 C6.6975 3.92 5.7075 3.59 4.6875 3.25 C1.91211439 3.22033939 -0.84735645 3.31581144 -3.62109375 3.41015625 C-6.39594632 3.2450344 -7.95559367 2.67083006 -10.3125 1.25 C-6.73937005 0.05895668 -3.76696678 0.04471177 0 0 Z " fill="#FBF2D6" transform="translate(69.3125,306.75)"/>
<path d="M0 0 C6.64224321 6.28320303 10.35280653 13.15337433 11.22265625 22.35546875 C11.25861546 25.17569815 11.27713487 27.44573027 10 30 C1.74552488 29.3261653 -3.80452445 25.83733535 -9.48828125 19.94921875 C-11.89083559 16.85135153 -12.8845487 13.74004259 -14 10 C-12.68 10.33 -11.36 10.66 -10 11 C-9.7525 12.11375 -9.505 13.2275 -9.25 14.375 C-8.38994661 18.04615198 -8.38994661 18.04615198 -5.875 19.4375 C-5.25625 19.623125 -4.6375 19.80875 -4 20 C-4 20.66 -4 21.32 -4 22 C-3.0925 22.28875 -2.185 22.5775 -1.25 22.875 C1.32202908 23.76531776 3.61346766 24.71494413 6 26 C6.33 25.67 6.66 25.34 7 25 C6.2934895 18.21749921 4.66908041 11.60180911 3 5 C2.01 5 1.02 5 0 5 C0 3.35 0 1.7 0 0 Z " fill="#F7EECD" transform="translate(134,112)"/>
<path d="M0 0 C0.70125 0.07863281 1.4025 0.15726562 2.125 0.23828125 C4 0.6875 4 0.6875 6 2.6875 C6.625 5.3125 6.625 5.3125 7 8.6875 C7.144375 9.904375 7.28875 11.12125 7.4375 12.375 C7.37178445 18.02653696 4.49862758 23.36923732 1 27.6875 C-2.18337203 28.78453898 -3.49043758 28.86525433 -6.6875 27.75 C-9.91471642 24.87167184 -10.58159861 21.84162813 -11 17.6875 C-10.80176881 11.44321758 -9.14687817 6.11438046 -6 0.6875 C-3.63106495 -0.49696753 -2.5933174 -0.31939755 0 0 Z M-5 1.6875 C-5.309375 2.491875 -5.61875 3.29625 -5.9375 4.125 C-7 6.6875 -7 6.6875 -8 7.6875 C-8.43634266 13.64408462 -8.40312827 19.13026587 -6 24.6875 C-2.41672247 25.68967064 -2.41672247 25.68967064 1 24.6875 C1 23.6975 1 22.7075 1 21.6875 C1.66 21.6875 2.32 21.6875 3 21.6875 C4.582626 14.38307232 5.47075377 8.8252331 3 1.6875 C0.36 1.6875 -2.28 1.6875 -5 1.6875 Z " fill="#FBF4DA" transform="translate(210,410.3125)"/>
<path d="M0 0 C1.3828125 1.23828125 1.3828125 1.23828125 2.9453125 3.98828125 C2.9453125 8.07404144 0.96360426 11.49508398 -1.0546875 14.98828125 C-4.0546875 16.98828125 -4.0546875 16.98828125 -7.6171875 17.98828125 C-11.08542075 18.69805131 -11.08542075 18.69805131 -13.0546875 20.98828125 C-16.09375 21.40234375 -16.09375 21.40234375 -19.6796875 21.61328125 C-20.86820312 21.68804687 -22.05671875 21.7628125 -23.28125 21.83984375 C-24.65410156 21.91332031 -24.65410156 21.91332031 -26.0546875 21.98828125 C-28.42491063 17.1490757 -30.0166883 13.4716858 -29.0546875 7.98828125 C-22.75438287 -1.96909676 -10.96096117 -5.39712727 0 0 Z M-22.9296875 3.55078125 C-24.26012359 4.94655204 -24.26012359 4.94655204 -24.0546875 6.98828125 C-26.0346875 7.97828125 -26.0346875 7.97828125 -28.0546875 8.98828125 C-27.7246875 11.62828125 -27.3946875 14.26828125 -27.0546875 16.98828125 C-26.3946875 16.98828125 -25.7346875 16.98828125 -25.0546875 16.98828125 C-25.0546875 17.64828125 -25.0546875 18.30828125 -25.0546875 18.98828125 C-21.0946875 18.98828125 -17.1346875 18.98828125 -13.0546875 18.98828125 C-13.0546875 18.32828125 -13.0546875 17.66828125 -13.0546875 16.98828125 C-12.3946875 16.98828125 -11.7346875 16.98828125 -11.0546875 16.98828125 C-11.0546875 16.32828125 -11.0546875 15.66828125 -11.0546875 14.98828125 C-9.03645833 15.02083333 -7.01822917 15.05338542 -5 15.0859375 C-2.97283346 15.11477367 -2.97283346 15.11477367 -1.0546875 13.98828125 C0.65707941 9.80396213 1.42239913 6.26051226 -0.1796875 1.98828125 C-7.43402768 -3.05821627 -16.34999188 -1.93229844 -22.9296875 3.55078125 Z " fill="#FCF6DB" transform="translate(427.0546875,159.01171875)"/>
<path d="M0 0 C0.9354491 3.42255584 1.15817644 6.44103015 1 10 C0.67 10.33 0.34 10.66 0 11 C-0.23287008 12.68183948 -0.41264166 14.3712416 -0.5625 16.0625 C-0.68818359 17.44115234 -0.68818359 17.44115234 -0.81640625 18.84765625 C-0.87699219 19.55792969 -0.93757813 20.26820312 -1 21 C-0.34 21 0.32 21 1 21 C1.4021875 21.9590625 1.4021875 21.9590625 1.8125 22.9375 C2.88667752 25.33131686 2.88667752 25.33131686 6 26 C7.175625 24.5459375 7.175625 24.5459375 8.375 23.0625 C9.91288705 21.16037654 10.79259913 20.10370043 13 19 C13.33 18.01 13.66 17.02 14 16 C14.66 16 15.32 16 16 16 C16 15.34 16 14.68 16 14 C17.32 14.33 18.64 14.66 20 15 C19.071875 15.86625 18.14375 16.7325 17.1875 17.625 C14.31700094 20.47523671 12.68078208 23.30227943 11 27 C9 29 9 29 5.1875 29.5 C1.766372 29.36290562 0.95738563 28.96981482 -2 26.875 C-5.59788409 21.74039254 -4.74540354 14.91705287 -4 9 C-2.99085262 5.77332705 -1.72199811 2.90587181 0 0 Z " fill="#F8EBC6" transform="translate(347,99)"/>
<path d="M0 0 C0 0.99 0 1.98 0 3 C-0.66 3 -1.32 3 -2 3 C-2 2.34 -2 1.68 -2 1 C-10.415 1.495 -10.415 1.495 -19 2 C-18.67 3.32 -18.34 4.64 -18 6 C-14.37 6.33 -10.74 6.66 -7 7 C-7 7.66 -7 8.32 -7 9 C-6.34 9 -5.68 9 -5 9 C-5 10.98 -5 12.96 -5 15 C-5.7425 15.144375 -6.485 15.28875 -7.25 15.4375 C-9.92165768 15.94746381 -9.92165768 15.94746381 -12.1875 16.625 C-14 17 -14 17 -16 16 C-16 15.01 -16 14.02 -16 13 C-16.66 13 -17.32 13 -18 13 C-19.99785435 8.8794254 -20.17835515 5.54805635 -20 1 C-4.34234234 -2.17117117 -4.34234234 -2.17117117 0 0 Z " fill="#826C5B" transform="translate(270,248)"/>
<path d="M0 0 C1.32 0.33 2.64 0.66 4 1 C2.68 2.32 1.36 3.64 0 5 C0.495 6.093125 0.99 7.18625 1.5 8.3125 C3 12 3 12 3 15 C5.97 15.495 5.97 15.495 9 16 C9 16.66 9 17.32 9 18 C11.31 18 13.62 18 16 18 C16.33 17.01 16.66 16.02 17 15 C17.99 15 18.98 15 20 15 C19.67 12.69 19.34 10.38 19 8 C19.99 7.34 20.98 6.68 22 6 C22 9.63 22 13.26 22 17 C20.68 17.33 19.36 17.66 18 18 C17.67 18.66 17.34 19.32 17 20 C14.03 20 11.06 20 8 20 C8 20.66 8 21.32 8 22 C7.34 22 6.68 22 6 22 C6.33 24.97 6.66 27.94 7 31 C6.34 31 5.68 31 5 31 C5 28.69 5 26.38 5 24 C3.35 24 1.7 24 0 24 C-0.33 23.34 -0.66 22.68 -1 22 C-0.67 21.01 -0.34 20.02 0 19 C0.99 18.67 1.98 18.34 3 18 C2.67 16.35 2.34 14.7 2 13 C1.01 12.67 0.02 12.34 -1 12 C-2.42857143 3.42857143 -2.42857143 3.42857143 0 0 Z " fill="#8E8D8C" transform="translate(194,248)"/>
<path d="M0 0 C0.33 0.66 0.66 1.32 1 2 C1.99 2 2.98 2 4 2 C4 2.66 4 3.32 4 4 C5.32 4.33 6.64 4.66 8 5 C8 9 8 9 7 12 C3.3962102 13.52160014 0.94779314 14 -3 14 C-3 13.01 -3 12.02 -3 11 C-3.66 11 -4.32 11 -5 11 C-5.33 11.99 -5.66 12.98 -6 14 C-6.66 13.67 -7.32 13.34 -8 13 C-7.67 11.68 -7.34 10.36 -7 9 C-6.34 9 -5.68 9 -5 9 C-5 7.02 -5 5.04 -5 3 C-3.35 2.67 -1.7 2.34 0 2 C0 1.34 0 0.68 0 0 Z " fill="#D48C7B" transform="translate(346,245)"/>
<path d="M0 0 C0 0.66 0 1.32 0 2 C-4.38461538 5 -4.38461538 5 -7 5 C-7.24878906 5.58652344 -7.49757812 6.17304688 -7.75390625 6.77734375 C-9.17411196 9.31056333 -10.71183746 10.70985353 -12.9375 12.5625 C-15.86700278 15.01846861 -15.86700278 15.01846861 -18.6171875 17.66796875 C-20 19 -20 19 -22.1875 19.75 C-27.23916955 21.99518647 -31.12080817 26.12080817 -35 30 C-34.87747396 25.95664073 -33.38486072 24.11161979 -30.625 21.375 C-29.42231466 20.243964 -28.21415263 19.11871705 -27 18 C-26.56816406 17.5359375 -26.13632813 17.071875 -25.69140625 16.59375 C-23.10758064 14.15910601 -20.20562787 12.17003683 -17.3125 10.125 C-16.68762695 9.68172363 -16.06275391 9.23844727 -15.41894531 8.78173828 C-2.96766038 0 -2.96766038 0 0 0 Z " fill="#F6E3B3" transform="translate(170,146)"/>
<path d="M0 0 C0.33 0 0.66 0 1 0 C1.33 3.3 1.66 6.6 2 10 C2.66 10 3.32 10 4 10 C4.2475 11.051875 4.495 12.10375 4.75 13.1875 C5.68079839 16.95058493 6.81931895 20.62066896 8 24.3125 C9.82881186 30.15377968 11.07910731 35.95361247 12 42 C12.66 42 13.32 42 14 42 C14.26554687 42.56589844 14.53109375 43.13179688 14.8046875 43.71484375 C15.33449219 44.81505859 15.33449219 44.81505859 15.875 45.9375 C16.22304687 46.66839844 16.57109375 47.39929688 16.9296875 48.15234375 C17.8684977 50.16332459 17.8684977 50.16332459 20 51 C20 52.65 20 54.3 20 56 C7.80378365 41.26846515 -1.41678423 19.48078316 0 0 Z " fill="#F9EEC7" transform="translate(93,286)"/>
<path d="M0 0 C0.99 0.33 1.98 0.66 3 1 C-0.50068266 7.75131656 -0.50068266 7.75131656 -3 8.99609375 C-5.44356132 10.22264699 -5.99061365 11.29560578 -7.25 13.6875 C-11.88588793 21.50349397 -19.4573895 26.2334892 -27 31 C-27.09765625 28.6015625 -27.09765625 28.6015625 -27 26 C-24.73241591 23.64171254 -22.71009529 22.90036608 -19.6015625 21.83203125 C-14.81558479 19.80717055 -13.26223648 15.99331082 -11.02929688 11.47460938 C-10.08984375 9.73828125 -10.08984375 9.73828125 -8 7 C-4.75390625 6.60546875 -4.75390625 6.60546875 -2 7 C-1.855625 6.030625 -1.71125 5.06125 -1.5625 4.0625 C-1 1 -1 1 0 0 Z " fill="#F9ECC3" transform="translate(370,333)"/>
<path d="M0 0 C0 0.66 0 1.32 0 2 C-3 4 -3 4 -6 4 C-5.67 6.31 -5.34 8.62 -5 11 C-2.03 11.495 -2.03 11.495 1 12 C1.33 13.32 1.66 14.64 2 16 C8.28569622 18.28570772 14.34643 18.43414797 21 18 C21.66 17.67 22.32 17.34 23 17 C23 13.37 23 9.74 23 6 C25.30653763 8.30653763 25.44533688 9.2206439 25.875 12.375 C25.99617188 13.14585937 26.11734375 13.91671875 26.2421875 14.7109375 C26 17 26 17 24.4296875 19.26171875 C19.65865904 22.67507512 13.60860741 21.51896813 8 21 C4.82088962 20.35110669 2.88881298 19.58601497 0 18 C-0.69921875 15.890625 -0.69921875 15.890625 -1 14 C-2.175625 13.7834375 -2.175625 13.7834375 -3.375 13.5625 C-6 13 -6 13 -8 12 C-8.52493438 6.75065617 -8.52493438 6.75065617 -8 4 C-3.4 0 -3.4 0 0 0 Z " fill="#FBF5DA" transform="translate(65,192)"/>
<path d="M0 0 C1.94116975 3.54404436 2.64378263 6.83465103 3.33984375 10.78125 C3.88365248 13.08754952 3.88365248 13.08754952 5.49609375 14.96484375 C7.26625397 17.36030732 7.64044354 19.14194604 8.125 22.0625 C8.60223713 24.84638328 9.10360077 27.31080231 10 30 C10.09617307 32.51181429 10.13934762 34.98916622 10.125 37.5 C10.12886719 38.17675781 10.13273437 38.85351562 10.13671875 39.55078125 C10.13062416 42.64073767 9.9844023 45.04679311 9 48 C9.33 48.66 9.66 49.32 10 50 C10.43764725 56.6934286 9.79144136 63.35754569 9 70 C8.67 70 8.34 70 8 70 C7.97494385 69.42032471 7.9498877 68.84064941 7.92407227 68.2434082 C7.80753766 65.59957893 7.68507318 62.95605591 7.5625 60.3125 C7.52318359 59.40048828 7.48386719 58.48847656 7.44335938 57.54882812 C7.38051758 56.21948242 7.38051758 56.21948242 7.31640625 54.86328125 C7.27974854 54.05157471 7.24309082 53.23986816 7.20532227 52.40356445 C7.04377436 49.92787343 7.04377436 49.92787343 6.41772461 47.25854492 C6.27987549 46.5132251 6.14202637 45.76790527 6 45 C6.495 44.505 6.495 44.505 7 44 C7.12713954 41.38329079 7.18521024 38.80469287 7.1875 36.1875 C7.19974609 35.46240234 7.21199219 34.73730469 7.22460938 33.99023438 C7.23532217 30.087205 6.97554315 27.36865526 5 24 C5.04125 23.030625 5.0825 22.06125 5.125 21.0625 C5.29735904 17.86575055 5.29735904 17.86575055 3 15.5 C0.482564 12.353205 0.76316848 10.94719196 1 7 C0.69836866 4.66235715 0.37238718 2.32741989 0 0 Z " fill="#FDF8E1" transform="translate(391,201)"/>
<path d="M0 0 C0.33 0 0.66 0 1 0 C1.125 5.75 1.125 5.75 0 8 C-0.99 8 -1.98 8 -3 8 C-3.67801034 10.90073181 -3.67801034 10.90073181 -4 14 C-3.34 14.66 -2.68 15.32 -2 16 C-1.60235737 17.98821313 -1.26224651 19.98944339 -1 22 C2.3 22.33 5.6 22.66 9 23 C9 22.34 9 21.68 9 21 C9.47050781 20.58105469 9.94101563 20.16210938 10.42578125 19.73046875 C12.56104907 17.38326368 12.71210589 15.42084609 13.1875 12.3125 C13.42533203 10.82169922 13.42533203 10.82169922 13.66796875 9.30078125 C13.83232422 8.16189453 13.83232422 8.16189453 14 7 C14.99 7 15.98 7 17 7 C16.68676972 8.67056149 16.34665557 10.33605325 16 12 C15.85111328 12.9590625 15.85111328 12.9590625 15.69921875 13.9375 C14.94592359 17.95507418 14.17823536 19.80054614 11.375 22.9375 C7.14717536 25.52117061 4.94419566 26.07974509 0 26 C-2.4375 24.5 -2.4375 24.5 -4 22 C-4.75 18.25 -4.75 18.25 -5 15 C-5.66 15 -6.32 15 -7 15 C-7.1875 11.625 -7.1875 11.625 -7 8 C-4 6 -4 6 -1 6 C-0.67 4.02 -0.34 2.04 0 0 Z " fill="#FBF4D9" transform="translate(119,392)"/>
<path d="M0 0 C4.56383842 2.14362108 8.66870796 4.68419444 12.75 7.625 C13.35835693 8.06086426 13.96671387 8.49672852 14.59350586 8.94580078 C19.26863998 12.34958873 23.59917696 16.03076935 27.81640625 19.9921875 C30.03750359 22.09391624 30.03750359 22.09391624 32.77734375 24.1328125 C33.51082031 24.74898437 34.24429688 25.36515625 35 26 C35 26.66 35 27.32 35 28 C30.32186282 26.91206112 28.34749193 25.4615202 25.48828125 21.65234375 C23.08822915 18.98771897 20.11655049 17.27185636 17.0859375 15.39453125 C15.11976815 14.08006972 13.64296727 12.68533606 12 11 C9.90010348 9.82425289 9.90010348 9.82425289 8 9 C8 8.34 8 7.68 8 7 C7.4225 6.71125 6.845 6.4225 6.25 6.125 C4.16666667 5.08333333 2.08333333 4.04166667 0 3 C0 2.01 0 1.02 0 0 Z " fill="#FBF3D3" transform="translate(328,135)"/>
<path d="M0 0 C0.33 0 0.66 0 1 0 C0.91621094 0.845625 0.83242187 1.69125 0.74609375 2.5625 C0.17484813 8.92574237 -0.11150236 14.70148662 1 21 C2.98 21.33 4.96 21.66 7 22 C7 22.66 7 23.32 7 24 C9.97 24 12.94 24 16 24 C16.33 21.69 16.66 19.38 17 17 C17.66 17 18.32 17 19 17 C19 15.02 19 13.04 19 11 C19.33 11 19.66 11 20 11 C20.05406122 12.93719378 20.09282025 14.87481921 20.125 16.8125 C20.14820313 17.89144531 20.17140625 18.97039062 20.1953125 20.08203125 C20 23 20 23 18 26 C14.43816342 27.45111861 10.77898035 27.37789803 7 27 C-0.3230023 23.7424367 -0.3230023 23.7424367 -1.71484375 20.16015625 C-2.63613175 13.18108414 -2.35919666 6.63524061 0 0 Z " fill="#F8F1D0" transform="translate(248,80)"/>
<path d="M0 0 C0.66 0.33 1.32 0.66 2 1 C2 3.64 2 6.28 2 9 C2.66 9 3.32 9 4 9 C4.33 9.66 4.66 10.32 5 11 C13.4336482 15.77546319 22.5362245 16 32 16 C31.505 12.535 31.505 12.535 31 9 C32.5625 10.1875 32.5625 10.1875 34 12 C33.9375 14.5625 33.9375 14.5625 33 17 C27.71480396 20.34346097 21.42493124 19.39188837 15.5 18.375 C9.27147247 16.85611346 3.13269643 12.92843301 -1 8 C-1.25265405 4.90498792 -1.39935013 2.79870027 0 0 Z " fill="#FAF1D5" transform="translate(401,322)"/>
<path d="M0 0 C3.97184114 0.64993764 4.97147211 1.47996514 7.4375 4.5625 C8.015 5.14 8.5925 5.7175 9.1875 6.3125 C9.6 6.725 10.0125 7.1375 10.4375 7.5625 C10.1075 8.2225 9.7775 8.8825 9.4375 9.5625 C6.5 8.8125 6.5 8.8125 3.4375 7.5625 C3.1075 6.2425 2.7775 4.9225 2.4375 3.5625 C-0.5325 4.2225 -3.5025 4.8825 -6.5625 5.5625 C-6.67709026 12.97267023 -6.47410286 20.20456267 -5.5625 27.5625 C-9.33442249 23.79057751 -8.8440451 19.21707264 -8.9375 14.1875 C-8.97488281 13.43210937 -9.01226562 12.67671875 -9.05078125 11.8984375 C-9.11741724 7.66334993 -8.9269329 6.03830459 -6.26171875 2.55859375 C-3.5625 0.5625 -3.5625 0.5625 0 0 Z " fill="#F6E8C4" transform="translate(294.5625,405.4375)"/>
<path d="M0 0 C3.57779715 2.3851981 4.0184841 5.99843518 5 10 C4.01 10 3.02 10 2 10 C0 7 0 7 0 3 C-3.95007553 4.06348187 -7.32326162 5.16163081 -11 7 C-11 11.95 -11 16.9 -11 22 C-11.66 21.67 -12.32 21.34 -13 21 C-13.57354657 6.68257826 -13.57354657 6.68257826 -10 2 C-6.47279461 -0.87745703 -4.31806583 -1.59086636 0 0 Z " fill="#FBF2D7" transform="translate(379,365)"/>
<path d="M0 0 C-0.33 2.97 -0.66 5.94 -1 9 C-7.93359375 9.09765625 -7.93359375 9.09765625 -10 9 C-11 8 -11 8 -11.3125 5.125 C-11 2 -11 2 -9.4375 0.0625 C-6.03339271 -1.42134164 -3.56538192 -0.75421541 0 0 Z " fill="#F5807C" transform="translate(189,283)"/>
<path d="M0 0 C-1.70478591 0.96462975 -3.41401412 1.92141054 -5.125 2.875 C-6.07632812 3.40867187 -7.02765625 3.94234375 -8.0078125 4.4921875 C-10.97132977 5.9855526 -13.84081348 6.99810965 -17 8 C-20.39925958 9.30436705 -23.7855425 10.63903848 -27.171875 11.9765625 C-30 13 -30 13 -32 13 C-31.6875 11.125 -31.6875 11.125 -31 9 C-27.7188698 6.81257986 -25.66915644 6.45557194 -21.8125 5.875 C-20.72582031 5.70742188 -19.63914062 5.53984375 -18.51953125 5.3671875 C-17.68808594 5.24601562 -16.85664063 5.12484375 -16 5 C-16 4.34 -16 3.68 -16 3 C-13.89936424 2.30178583 -11.79434263 1.61675528 -9.6875 0.9375 C-8.51574219 0.55464844 -7.34398437 0.17179687 -6.13671875 -0.22265625 C-3 -1 -3 -1 0 0 Z " fill="#F9F0CD" transform="translate(336,369)"/>
<path d="M0 0 C0.33 0 0.66 0 1 0 C1.50130606 5.26371362 0.31168629 7.9090934 -3 12 C-3.66 12 -4.32 12 -5 12 C-4.87625 13.051875 -4.87625 13.051875 -4.75 14.125 C-5.02627375 17.30214807 -6.01692901 18.49561447 -7.84765625 21.00390625 C-11.08662929 26.61446633 -12.87752375 33.69992276 -13.5625 40.125 C-14.05089845 43.33447554 -14.67680548 43.91713595 -17 46 C-16.26413536 35.41255975 -13.92067391 27.34107986 -9.03369141 17.98828125 C-7.91594195 15.83831631 -6.8360909 13.67194889 -5.76171875 11.5 C-3.85970603 7.65709826 -1.93565486 3.82606064 0 0 Z " fill="#FCF5D9" transform="translate(112,196)"/>
<path d="M0 0 C0.33 0 0.66 0 1 0 C1.05843491 4.02077152 1.0937424 8.04143259 1.125 12.0625 C1.14175781 13.19623047 1.15851563 14.32996094 1.17578125 15.49804688 C1.21019727 21.40039384 1.04944811 26.44067027 -1 32 C-1.99 32 -2.98 32 -4 32 C-3.938125 32.78375 -3.87625 33.5675 -3.8125 34.375 C-3.874375 35.24125 -3.93625 36.1075 -4 37 C-4.99 37.66 -5.98 38.32 -7 39 C-6.54678672 36.93636888 -6.08720894 34.87413493 -5.625 32.8125 C-5.24214844 31.08966797 -5.24214844 31.08966797 -4.8515625 29.33203125 C-4 26 -4 26 -2.93359375 23.57421875 C-1.67034217 20.09102714 -1.57609323 16.66426988 -1.4375 13 C-1.24625966 8.58926533 -1.01942182 4.31358655 0 0 Z " fill="#F7E9BD" transform="translate(398,251)"/>
<path d="M0 0 C5.42836324 -0.19284975 10.21813321 0.46419187 15.5 1.6875 C16.67477905 1.95759888 16.67477905 1.95759888 17.87329102 2.2331543 C29.97766151 5.10149435 40.79255289 8.6362076 51 16 C50.01 16.495 50.01 16.495 49 17 C46.96855359 16.06553465 44.96466413 15.06775224 43 14 C43 13.34 43 12.68 43 12 C42.3090625 11.88398438 41.618125 11.76796875 40.90625 11.6484375 C37.62834739 10.91707751 34.64095656 9.81366475 31.5 8.625 C21.23610576 4.90339989 10.74035434 2.82951928 0 1 C0 0.67 0 0.34 0 0 Z " fill="#FCF7DE" transform="translate(277,118)"/>
<path d="M0 0 C2.3125 3.0625 2.3125 3.0625 4 6 C2.68 6 1.36 6 0 6 C-0.66 5.34 -1.32 4.68 -2 4 C-5.02270522 3.25999616 -5.02270522 3.25999616 -8 3 C-9.81115956 4.81115956 -9.38199448 7.61278227 -9.5625 10.0625 C-9.68818359 11.71958984 -9.68818359 11.71958984 -9.81640625 13.41015625 C-9.87699219 14.26480469 -9.93757813 15.11945313 -10 16 C-13.02907931 12.97092069 -12.96404875 10.68307369 -13.1875 6.4375 C-13 3 -13 3 -11 0 C-7.11846804 -1.03507519 -3.77510792 -1.49017418 0 0 Z " fill="#FAF2D7" transform="translate(130,106)"/>
<path d="M0 0 C4.87394075 4.71671686 4.87394075 4.71671686 5.1953125 7.98828125 C5.08341316 11.68717615 4.91391515 14.09604035 2.20703125 16.7734375 C-1.49707637 19.08133244 -4.84506355 20.50804415 -9.25 19.9375 C-13.06466594 18.66340157 -14.22838579 16.37344042 -16 12.875 C-16.69465106 11.26176432 -17.37069263 9.63982977 -18 8 C-17.34 8 -16.68 8 -16 8 C-16 8.66 -16 9.32 -16 10 C-15.34 10 -14.68 10 -14 10 C-13.34 11.98 -12.68 13.96 -12 16 C-6.57496919 17.257856 -6.57496919 17.257856 -1.625 15.5625 C-1.08875 15.046875 -0.5525 14.53125 0 14 C0.66 14 1.32 14 2 14 C2.04125 12.72125 2.0825 11.4425 2.125 10.125 C2.14820313 9.40570313 2.17140625 8.68640625 2.1953125 7.9453125 C2.18331689 5.76136355 2.18331689 5.76136355 0 4 C0 2.68 0 1.36 0 0 Z " fill="#FBF3DA" transform="translate(386,379)"/>
<path d="M0 0 C10.30438572 0.63580252 18.91450167 3.12075089 28 8 C28 8.33 28 8.66 28 9 C23.17639811 9.19294408 19.50353262 8.75747614 15 7 C15 6.34 15 5.68 15 5 C11.7 4.67 8.4 4.34 5 4 C5 3.34 5 2.68 5 2 C3.35 1.67 1.7 1.34 0 1 C0 0.67 0 0.34 0 0 Z " fill="#F8F0CA" transform="translate(403,321)"/>
<path d="M0 0 C0.33 0 0.66 0 1 0 C1.33820166 1.5823006 1.67035939 3.16589375 2 4.75 C2.185625 5.63171875 2.37125 6.5134375 2.5625 7.421875 C3 10 3 10 3 14 C5.31 14 7.62 14 10 14 C10 13.01 10 12.02 10 11 C10.66 11 11.32 11 12 11 C12.33 7.37 12.66 3.74 13 0 C13.33 0 13.66 0 14 0 C13.58997722 12.66970387 13.58997722 12.66970387 9 18 C5.26512223 17.5020163 3.18762365 17.12508244 0 15 C-0.22137393 12.37302936 -0.28162025 9.99106036 -0.1875 7.375 C-0.17396484 6.66859375 -0.16042969 5.9621875 -0.14648438 5.234375 C-0.1111104 3.48925872 -0.05730221 1.74453392 0 0 Z " fill="#F8EDC7" transform="translate(201,421)"/>
<path d="M0 0 C10.72429253 1.09431556 21.61283136 2.44432876 31 8 C27.86801798 9.00399874 25.89595145 8.96343682 22.734375 8.109375 C21.92613281 7.89410156 21.11789063 7.67882812 20.28515625 7.45703125 C19.03025391 7.10705078 19.03025391 7.10705078 17.75 6.75 C16.92886719 6.53214844 16.10773438 6.31429688 15.26171875 6.08984375 C10.04428742 4.67592813 5.03282512 2.97138311 0 1 C0 0.67 0 0.34 0 0 Z " fill="#FAEEC9" transform="translate(150,378)"/>
<path d="M0 0 C0.77196875 2.78646574 1.17032918 5.38004103 1.31640625 8.265625 C1.35830078 9.07386719 1.40019531 9.88210938 1.44335938 10.71484375 C1.48267578 11.55144531 1.52199219 12.38804687 1.5625 13.25 C1.62727539 14.48169922 1.62727539 14.48169922 1.69335938 15.73828125 C1.88694698 19.61617895 2.02038498 23.47637636 1.99609375 27.359375 C1.99893973 30.01182507 2.06686224 32.40117343 2.5 35 C2.665 35.99 2.83 36.98 3 38 C2.34 38 1.68 38 1 38 C-0.9825916 30.11905798 -1.27396326 22.60024226 -1.1875 14.5 C-1.18685547 13.32179688 -1.18621094 12.14359375 -1.18554688 10.9296875 C-1.14081555 2.2816311 -1.14081555 2.2816311 0 0 Z " fill="#F4E4B3" transform="translate(94,258)"/>
<path d="M0 0 C1.56814453 0.09667969 1.56814453 0.09667969 3.16796875 0.1953125 C5.8125 0.875 5.8125 0.875 7.17578125 2.9296875 C7.38589844 3.57164062 7.59601563 4.21359375 7.8125 4.875 C6.84828125 4.730625 5.8840625 4.58625 4.890625 4.4375 C2.99570312 4.1590625 2.99570312 4.1590625 1.0625 3.875 C-0.19046875 3.689375 -1.4434375 3.50375 -2.734375 3.3125 C-6.26875794 2.79120531 -6.26875794 2.79120531 -10.1875 2.875 C-10.435 3.4525 -10.6825 4.03 -10.9375 4.625 C-12.1875 6.875 -12.1875 6.875 -14.25 8.6875 C-16.84009178 11.61179717 -16.89364003 14.05482042 -17.1875 17.875 C-18.80699011 15.30286866 -19.23158751 14.19830841 -18.8125 11.125 C-18.60625 10.3825 -18.4 9.64 -18.1875 8.875 C-17.1975 8.545 -16.2075 8.215 -15.1875 7.875 C-15.1875 7.215 -15.1875 6.555 -15.1875 5.875 C-10.82727838 0.70732994 -6.63554865 -0.51106089 0 0 Z " fill="#F7EABF" transform="translate(418.1875,158.125)"/>
<path d="M0 0 C1.32 0.33 2.64 0.66 4 1 C3.2884375 1.6496875 3.2884375 1.6496875 2.5625 2.3125 C0.76313043 4.02309613 0.76313043 4.02309613 0 7 C0.66 7 1.32 7 2 7 C2 7.99 2 8.98 2 10 C2.99 9.67 3.98 9.34 5 9 C7.33299825 8.96045766 9.66708189 8.95598268 12 9 C12 9.33 12 9.66 12 10 C10.02 10 8.04 10 6 10 C6 10.66 6 11.32 6 12 C1.66726186 12.92844389 -1.66726186 12.92844389 -6 12 C-5.67 11.01 -5.34 10.02 -5 9 C-4.34 9.33 -3.68 9.66 -3 10 C-2.67 7.69 -2.34 5.38 -2 3 C-1.34 3 -0.68 3 0 3 C0 2.01 0 1.02 0 0 Z " fill="#B9A2A0" transform="translate(187,270)"/>
<path d="M0 0 C8.11758644 -0.4454773 14.09737858 -0.5583349 21 4 C21.99 5.485 21.99 5.485 23 7 C21.02 6.34 19.04 5.68 17 5 C17 4.34 17 3.68 17 3 C13.04 3.66 9.08 4.32 5 5 C5 4.34 5 3.68 5 3 C2.525 2.01 2.525 2.01 0 1 C0 0.67 0 0.34 0 0 Z " fill="#FBF3D5" transform="translate(65,191)"/>
<path d="M0 0 C0 0.66 0 1.32 0 2 C-4.38461538 5 -4.38461538 5 -7 5 C-7.226875 5.639375 -7.45375 6.27875 -7.6875 6.9375 C-9 9 -9 9 -11.625 9.75 C-12.40875 9.8325 -13.1925 9.915 -14 10 C-14.33 10.99 -14.66 11.98 -15 13 C-16.64551962 13.71727778 -18.31422289 14.38325228 -20 15 C-20.66 15.66 -21.32 16.32 -22 17 C-24.125 16.625 -24.125 16.625 -26 16 C-12.3125 6.875 -12.3125 6.875 -10.078125 5.390625 C-8.76948943 4.5149215 -7.46650366 3.63065638 -6.171875 2.734375 C-2.20510563 0 -2.20510563 0 0 0 Z " fill="#FAF2D6" transform="translate(170,146)"/>
<path d="M0 0 C0 0.66 0 1.32 0 2 C-1.13179688 2.12117188 -2.26359375 2.24234375 -3.4296875 2.3671875 C-4.91151031 2.53600276 -6.39327842 2.70529855 -7.875 2.875 C-8.99455078 2.99294922 -8.99455078 2.99294922 -10.13671875 3.11328125 C-14.52555407 3.5080769 -14.52555407 3.5080769 -18 6 C-20.3828125 6.1953125 -20.3828125 6.1953125 -23.125 6.125 C-24.49011719 6.09792969 -24.49011719 6.09792969 -25.8828125 6.0703125 C-26.58148438 6.04710937 -27.28015625 6.02390625 -28 6 C-19.62999009 0.41999339 -9.80846209 -0.08820559 0 0 Z " fill="#F7E7BA" transform="translate(304,380)"/>
<path d="M0 0 C0.33 0 0.66 0 1 0 C0.91621094 0.845625 0.83242187 1.69125 0.74609375 2.5625 C0.17484813 8.92574237 -0.11150236 14.70148662 1 21 C2.98 21.33 4.96 21.66 7 22 C7.33 23.65 7.66 25.3 8 27 C6.69936032 26.45857092 5.4096591 25.89082518 4.125 25.3125 C3.40570313 24.99925781 2.68640625 24.68601562 1.9453125 24.36328125 C-0.65569832 22.54048451 -1.14619828 21.03231641 -2 18 C-2.63279149 11.69069661 -2.11929088 5.9605056 0 0 Z " fill="#FDF7DD" transform="translate(248,80)"/>
<path d="M0 0 C3.1398451 1.56992255 3.42143346 4.22447002 4.625 7.4375 C5.07101563 8.61183594 5.51703125 9.78617187 5.9765625 10.99609375 C7 14 7 14 7 16 C7.66 16 8.32 16 9 16 C9.26554687 16.56589844 9.53109375 17.13179688 9.8046875 17.71484375 C10.15789062 18.44832031 10.51109375 19.18179687 10.875 19.9375 C11.22304687 20.66839844 11.57109375 21.39929688 11.9296875 22.15234375 C12.8684977 24.16332459 12.8684977 24.16332459 15 25 C15 26.65 15 28.3 15 30 C8.59884667 22.27931067 0 10.50290403 0 0 Z " fill="#FEF8E0" transform="translate(98,312)"/>
<path d="M0 0 C0.99 0.495 0.99 0.495 2 1 C2 1.66 2 2.32 2 3 C3.32 2.67 4.64 2.34 6 2 C8.95534402 6.8916039 11.1074692 11.60628722 13 17 C12.34 17 11.68 17 11 17 C9.40763015 15.13728377 7.94643353 13.28343897 6.5 11.3125 C6.09652344 10.78205078 5.69304687 10.25160156 5.27734375 9.70507812 C2.96841169 6.59983121 1.25056263 3.66333293 0 0 Z " fill="#F8ECC7" transform="translate(114,343)"/>
<path d="M0 0 C0.33 0.99 0.66 1.98 1 3 C-0.109375 4.61328125 -0.109375 4.61328125 -1.75 6.3125 C-3.94197815 8.69684575 -5.20775319 10.41550637 -6.6875 13.375 C-7.120625 14.24125 -7.55375 15.1075 -8 16 C-8.99 16.33 -9.98 16.66 -11 17 C-12.22520264 20.00847418 -12.22520264 20.00847418 -13 23 C-14.32 22.67 -15.64 22.34 -17 22 C-16.54625 21.5875 -16.0925 21.175 -15.625 20.75 C-13.94049626 18.93591905 -13.00734029 17.24714373 -12 15 C-11.34 15 -10.68 15 -10 15 C-9.7525 14.46375 -9.505 13.9275 -9.25 13.375 C-6.69692161 8.52415105 -3.47717325 4.2222818 0 0 Z " fill="#F8E7B9" transform="translate(381,317)"/>
<path d="M0 0 C0.66 0.33 1.32 0.66 2 1 C0.20454479 4.47121341 -1.81135315 5.48973517 -5.375 6.6875 C-8.55414537 7.64176223 -11.71901725 8.47080923 -15 9 C-15 9.66 -15 10.32 -15 11 C-17.31 11.33 -19.62 11.66 -22 12 C-17.89906427 8.79177712 -13.5149361 6.57363309 -8.875 4.25 C-8.05128906 3.82589844 -7.22757813 3.40179688 -6.37890625 2.96484375 C-5.59128906 2.56910156 -4.80367187 2.17335937 -3.9921875 1.765625 C-3.27401855 1.40243164 -2.55584961 1.03923828 -1.81591797 0.66503906 C-1.21666504 0.44557617 -0.61741211 0.22611328 0 0 Z " fill="#FCF6DD" transform="translate(196,132)"/>
<path d="M0 0 C0.6875 1.8125 0.6875 1.8125 1 4 C-0.25 5.75 -0.25 5.75 -2 7 C-2.99 7 -3.98 7 -5 7 C-5.12375 7.680625 -5.2475 8.36125 -5.375 9.0625 C-6.09100877 12.4277412 -7.02945125 15.70013425 -8 19 C-9.98 19 -11.96 19 -14 19 C-12.625 17.5 -12.625 17.5 -11 16 C-10.34 16 -9.68 16 -9 16 C-8.84144531 15.32453125 -8.68289062 14.6490625 -8.51953125 13.953125 C-7.06433203 8.38960093 -6.0684021 5.20109607 -1 2 C-0.67 1.34 -0.34 0.68 0 0 Z " fill="#FCF4D9" transform="translate(127,177)"/>
<path d="M0 0 C1.32 0.33 2.64 0.66 4 1 C2.68 2.32 1.36 3.64 0 5 C0.495 6.093125 0.99 7.18625 1.5 8.3125 C3 12 3 12 3 15 C5.97 15.495 5.97 15.495 9 16 C9 16.66 9 17.32 9 18 C11.31 18 13.62 18 16 18 C16 18.33 16 18.66 16 19 C13.36 19 10.72 19 8 19 C8 18.34 8 17.68 8 17 C6.02 16.67 4.04 16.34 2 16 C2 15.01 2 14.02 2 13 C1.01 12.67 0.02 12.34 -1 12 C-2.42857143 3.42857143 -2.42857143 3.42857143 0 0 Z " fill="#D4D3D2" transform="translate(194,248)"/>
<path d="M0 0 C1.32 0.33 2.64 0.66 4 1 C4.37125 2.670625 4.37125 2.670625 4.75 4.375 C5.57686044 8.04021167 5.57686044 8.04021167 8 9.1875 C8.66 9.455625 9.32 9.72375 10 10 C10.66666667 11.33333333 11.33333333 12.66666667 12 14 C14.53442406 16.22816986 14.53442406 16.22816986 17 18 C13.46167007 17.40632048 11.5845978 16.06937798 8.9375 13.6875 C8.26589844 13.09324219 7.59429687 12.49898437 6.90234375 11.88671875 C3.20764283 8.22236445 1.47754618 5.00092552 0 0 Z " fill="#FCF5DA" transform="translate(120,122)"/>
<path d="M0 0 C0.33 1.32 0.66 2.64 1 4 C-0.32 4.33 -1.64 4.66 -3 5 C-3.11459026 12.41017023 -2.91160286 19.64206267 -2 27 C-5.77192249 23.22807751 -5.2815451 18.65457264 -5.375 13.625 C-5.41238281 12.86960937 -5.44976562 12.11421875 -5.48828125 11.3359375 C-5.55741875 6.94186528 -5.40413427 5.48671279 -2.4765625 1.9609375 C-1.65929687 1.31382812 -0.84203125 0.66671875 0 0 Z " fill="#FCF7E3" transform="translate(291,406)"/>
<path d="M0 0 C1 3 1 3 0 6 C-0.66 6 -1.32 6 -2 6 C-1.97679687 6.70125 -1.95359375 7.4025 -1.9296875 8.125 C-1.81497522 14.15558862 -2.25643433 19.22443873 -4 25 C-3.34 25 -2.68 25 -2 25 C-2.66 26.32 -3.32 27.64 -4 29 C-4.94738023 26.15785932 -5.13460559 24.32391609 -5.125 21.375 C-5.12757813 20.57835937 -5.13015625 19.78171875 -5.1328125 18.9609375 C-5 17 -5 17 -4 16 C-3.84168746 14.25269861 -3.72335745 12.50169941 -3.625 10.75 C-3.28213765 6.42768613 -2.76707562 3.48892144 0 0 Z " fill="#847B61" transform="translate(180,244)"/>
<path d="M0 0 C0.33 0 0.66 0 1 0 C1 1.98 1 3.96 1 6 C1.99 6.33 2.98 6.66 4 7 C6.4311977 11.98395529 6.1407563 15.73497092 5 21 C4.01 21.66 3.02 22.32 2 23 C2 22.01 2 21.02 2 20 C2.66 20 3.32 20 4 20 C3.34 15.71 2.68 11.42 2 7 C1.01 6.67 0.02 6.34 -1 6 C-0.67 4.02 -0.34 2.04 0 0 Z " fill="#FBF6DA" transform="translate(305,415)"/>
<path d="M0 0 C-3.38270494 1.69135247 -7.22006273 1.34703402 -10.95703125 1.5234375 C-14.30586697 2.04790214 -16.13833573 3.25429218 -19 5 C-21.45703125 5.29296875 -21.45703125 5.29296875 -23.8125 5.1875 C-24.60269531 5.16042969 -25.39289063 5.13335937 -26.20703125 5.10546875 C-26.79871094 5.07066406 -27.39039063 5.03585937 -28 5 C-28 4.67 -28 4.34 -28 4 C-27.38511719 3.87882812 -26.77023437 3.75765625 -26.13671875 3.6328125 C-25.32847656 3.46523438 -24.52023437 3.29765625 -23.6875 3.125 C-22.88699219 2.96257812 -22.08648437 2.80015625 -21.26171875 2.6328125 C-18.74698882 2.05521001 -18.74698882 2.05521001 -16 0 C-13.22265625 -0.44921875 -13.22265625 -0.44921875 -10.0625 -0.6875 C-9.02222656 -0.77386719 -7.98195313 -0.86023438 -6.91015625 -0.94921875 C-4.33520501 -0.99415079 -2.432338 -0.77952037 0 0 Z " fill="#FCF5D9" transform="translate(304,383)"/>
<path d="M0 0 C0.99 0.99 1.98 1.98 3 3 C3.66 2.67 4.32 2.34 5 2 C4.42655063 4.86724686 4.1385485 5.8614515 2 8 C-1.625 8.125 -1.625 8.125 -5 8 C-5 7.34 -5 6.68 -5 6 C-5.66 5.67 -6.32 5.34 -7 5 C-4.69 5 -2.38 5 0 5 C0 3.35 0 1.7 0 0 Z " fill="#706251" transform="translate(265,258)"/>
<path d="M0 0 C1.98 0.495 1.98 0.495 4 1 C2.68 3.31 1.36 5.62 0 8 C-1.43088528 5.13822943 -0.59991697 3.06624227 0 0 Z M-4 8 C-3.01 8.33 -2.02 8.66 -1 9 C-1.66 9 -2.32 9 -3 9 C-3.042721 10.66611905 -3.04063832 12.33382885 -3 14 C-2.67 14.33 -2.34 14.66 -2 15 C-1.95907063 17.33297433 -1.95758277 19.66705225 -2 22 C-2.33 22 -2.66 22 -3 22 C-3.67258667 19.66836622 -4.33847444 17.3347961 -5 15 C-5.2475 14.2575 -5.495 13.515 -5.75 12.75 C-6 11 -6 11 -4 8 Z " fill="#F6E7BE" transform="translate(120,392)"/>
<path d="M0 0 C2.875 -0.125 2.875 -0.125 6 0 C8 2 8 2 8 6 C5.69 5.67 3.38 5.34 1 5 C0.67 3.35 0.34 1.7 0 0 Z " fill="#D28680" transform="translate(256,256)"/>
<path d="M0 0 C-1.51671964 4.55015893 -5.16891053 6.50057264 -9 9 C-10.32 8.34 -11.64 7.68 -13 7 C-8.25 4 -8.25 4 -6 4 C-6 3.01 -6 2.02 -6 1 C-4 0 -4 0 0 0 Z " fill="#F6E7B8" transform="translate(176,144)"/>
<path d="M0 0 C0.33 0.66 0.66 1.32 1 2 C1.99 2 2.98 2 4 2 C4 2.66 4 3.32 4 4 C5.32 4.33 6.64 4.66 8 5 C8 9 8 9 6 12 C6 9.69 6 7.38 6 5 C1.39257135 6.21044132 1.39257135 6.21044132 -3 8 C-3 6.68 -3 5.36 -3 4 C-2.01 4 -1.02 4 0 4 C0 2.68 0 1.36 0 0 Z " fill="#E69A83" transform="translate(346,245)"/>
<path d="M0 0 C0.66 1.32 1.32 2.64 2 4 C3.15628906 3.98259766 3.15628906 3.98259766 4.3359375 3.96484375 C5.33882813 3.95582031 6.34171875 3.94679687 7.375 3.9375 C8.37273437 3.92589844 9.37046875 3.91429687 10.3984375 3.90234375 C13 4 13 4 15 5 C15 5.66 15 6.32 15 7 C13.06280622 7.05406122 11.12518079 7.09282025 9.1875 7.125 C8.10855469 7.14820313 7.02960938 7.17140625 5.91796875 7.1953125 C3 7 3 7 0 5 C-0.1875 2.375 -0.1875 2.375 0 0 Z " fill="#F6E8C2" transform="translate(421,243)"/>
<path d="M0 0 C3.63 0 7.26 0 11 0 C11 0.66 11 1.32 11 2 C12.093125 1.95875 13.18625 1.9175 14.3125 1.875 C18 2 18 2 21 4 C20.67 4.66 20.34 5.32 20 6 C19.01 5.67 18.02 5.34 17 5 C17 4.34 17 3.68 17 3 C11.39 2.67 5.78 2.34 0 2 C0 1.34 0 0.68 0 0 Z " fill="#746C56" transform="translate(198,232)"/>
<path d="M0 0 C2.625 0.375 2.625 0.375 5 1 C5 2.65 5 4.3 5 6 C3.02 6 1.04 6 -1 6 C-1.625 4.125 -1.625 4.125 -2 2 C-1.34 1.34 -0.68 0.68 0 0 Z " fill="#F48077" transform="translate(346,250)"/>
<path d="M0 0 C5.94929131 5.627708 8.2687434 10.14275851 10 18 C9.01 17.67 8.02 17.34 7 17 C6.24592899 14.69342986 5.588562 12.354248 5 10 C4.35800351 8.32367583 3.70105843 6.65249487 3 5 C2.01 5 1.02 5 0 5 C0 3.35 0 1.7 0 0 Z " fill="#FCF4D9" transform="translate(134,112)"/>
<path d="M0 0 C1.28487667 3.89745924 0.3215285 5.88001792 -1.23046875 9.62890625 C-2.63616648 13.96016779 -2.75886203 18.47658428 -3 23 C-3.33 23 -3.66 23 -4 23 C-4.43995881 14.40858218 -4.46309065 7.53146548 0 0 Z " fill="#FDF7E0" transform="translate(347,99)"/>
<path d="M0 0 C1.32 0.99 2.64 1.98 4 3 C2.4169423 7.2742558 -0.50568404 9.26531794 -4 12 C-4.99 11.34 -5.98 10.68 -7 10 C-6.01 10 -5.02 10 -4 10 C-4 9.01 -4 8.02 -4 7 C-3.01 7 -2.02 7 -1 7 C-0.67 4.69 -0.34 2.38 0 0 Z " fill="#EDDDAD" transform="translate(227,269)"/>
<path d="M0 0 C1.485 0.99 1.485 0.99 3 2 C3 2.99 3 3.98 3 5 C3.99 5.33 4.98 5.66 6 6 C6.45375 6.495 6.9075 6.99 7.375 7.5 C9.46918881 9.43309736 11.22150692 9.62452796 14 10 C14 10.66 14 11.32 14 12 C11.36 11.67 8.72 11.34 6 11 C5.7525 10.195625 5.505 9.39125 5.25 8.5625 C4.27761141 5.828919 4.27761141 5.828919 1.875 5.1875 C1.25625 5.125625 0.6375 5.06375 0 5 C0 3.35 0 1.7 0 0 Z " fill="#6D6552" transform="translate(295,251)"/>
<path d="M0 0 C2.64 0 5.28 0 8 0 C8.33 0.99 8.66 1.98 9 3 C8.113125 2.87625 7.22625 2.7525 6.3125 2.625 C2.64418661 3.04028076 2.32959535 3.30900395 0.125 6 C-0.57625 6.99 -1.2775 7.98 -2 9 C-2.33 8.01 -2.66 7.02 -3 6 C-2.34 5.34 -1.68 4.68 -1 4 C-0.3574765 1.93125966 -0.3574765 1.93125966 0 0 Z " fill="#F6E7BA" transform="translate(205,412)"/>
<path d="M0 0 C1.74991334 -0.02715383 3.49994945 -0.04646551 5.25 -0.0625 C6.71179688 -0.07990234 6.71179688 -0.07990234 8.203125 -0.09765625 C10.65758678 -0.01195577 12.66168914 0.29293934 15 1 C15 1.66 15 2.32 15 3 C10.38 3 5.76 3 1 3 C0.67 2.01 0.34 1.02 0 0 Z " fill="#736954" transform="translate(311,263)"/>
<path d="M0 0 C0.556875 0.2165625 1.11375 0.433125 1.6875 0.65625 C7.05188593 2.61352595 11.29852383 3.31098961 17 3 C17 3.66 17 4.32 17 5 C11.03654233 6.0006709 6.71271093 6.0662997 1 4 C0.67 2.68 0.34 1.36 0 0 Z " fill="#E9DAAB" transform="translate(251,262)"/>
<path d="M0 0 C3.40312738 1.05875074 6.01353231 2.00902154 9 4 C9 4.66 9 5.32 9 6 C10.98 6.66 12.96 7.32 15 8 C14.67 8.66 14.34 9.32 14 10 C12.22317752 9.09499704 10.45373409 8.1754975 8.6875 7.25 C7.70136719 6.73953125 6.71523437 6.2290625 5.69921875 5.703125 C3.04549724 4.02870737 1.66897803 2.62023855 0 0 Z " fill="#FAF1D0" transform="translate(135,368)"/>
<path d="M0 0 C2 1.625 2 1.625 4 4 C4.1875 7 4.1875 7 4 10 C4.43941523 12.26566343 4.43941523 12.26566343 5 14 C4.34 14 3.68 14 3 14 C0.96006486 9.07015675 -0.40652968 5.42039575 0 0 Z " fill="#F8E8BE" transform="translate(393,215)"/>
<path d="M0 0 C-1.37154504 2.95409701 -2.98863724 5.44008376 -5 8 C-6.32 7.67 -7.64 7.34 -9 7 C-7.16766277 2.5718517 -4.96404317 0 0 0 Z " fill="#F9E1A3" transform="translate(166,152)"/>
<path d="M0 0 C7.81524565 0.14745747 12.71574761 3.57560907 19 8 C18.01 8.495 18.01 8.495 17 9 C14.96855359 8.06553465 12.96466413 7.06775224 11 6 C11 5.34 11 4.68 11 4 C10.29875 3.87625 9.5975 3.7525 8.875 3.625 C5.82343613 2.96161655 2.94659062 2.02788045 0 1 C0 0.67 0 0.34 0 0 Z " fill="#FBF3D1" transform="translate(309,126)"/>
<path d="M0 0 C0.91007812 0.00902344 1.82015625 0.01804687 2.7578125 0.02734375 C3.45648438 0.03894531 4.15515625 0.05054687 4.875 0.0625 C1.2308226 2.4919516 -0.83741272 2.22429575 -5.125 2.0625 C-5.125 3.0525 -5.125 4.0425 -5.125 5.0625 C-7.105 5.0625 -9.085 5.0625 -11.125 5.0625 C-7.2521174 1.06052131 -5.57273276 -0.07144529 0 0 Z " fill="#FCF5DF" transform="translate(359.125,93.9375)"/>
<path d="M0 0 C5.77378925 0.4811491 9.95859836 2.18467181 15 5 C15 5.33 15 5.66 15 6 C11.75 6.25 11.75 6.25 8 6 C5.8125 4.125 5.8125 4.125 4 2 C1.86690808 0.76487921 1.86690808 0.76487921 0 0 Z " fill="#FBF3D9" transform="translate(416,324)"/>
<path d="M0 0 C0.33 0 0.66 0 1 0 C1.1875 2.875 1.1875 2.875 1 6 C-2.31371 8.20914 -3.3446021 8.22481553 -7.1875 8.125 C-8.08855469 8.10695313 -8.98960937 8.08890625 -9.91796875 8.0703125 C-10.60503906 8.04710937 -11.29210937 8.02390625 -12 8 C-12.66 6.68 -13.32 5.36 -14 4 C-13.01 4.495 -13.01 4.495 -12 5 C-9.95944995 5.07065617 -7.91665743 5.08421976 -5.875 5.0625 C-4.77929688 5.05347656 -3.68359375 5.04445313 -2.5546875 5.03515625 C-1.71164063 5.02355469 -0.86859375 5.01195312 0 5 C0 3.35 0 1.7 0 0 Z " fill="#FBCFA3" transform="translate(190,288)"/>
<path d="M0 0 C13.81776765 -0.55353075 13.81776765 -0.55353075 19 3 C19 3.33 19 3.66 19 4 C17.02 4 15.04 4 13 4 C13 3.34 13 2.68 13 2 C8.05 2.33 3.1 2.66 -2 3 C-1.34 2.67 -0.68 2.34 0 2 C0 1.34 0 0.68 0 0 Z " fill="#D4C59F" transform="translate(196,230)"/>
<path d="M0 0 C0.66 0.33 1.32 0.66 2 1 C-0.23407889 4.35111834 -1.26215824 5.81553956 -5.25 6.8125 C-6.61125 6.9053125 -6.61125 6.9053125 -8 7 C-8 7.99 -8 8.98 -8 10 C-9.32 9.67 -10.64 9.34 -12 9 C-11.01 9 -10.02 9 -9 9 C-9 7.68 -9 6.36 -9 5 C-7.68 5 -6.36 5 -5 5 C-5 4.34 -5 3.68 -5 3 C-2.625 1.3125 -2.625 1.3125 0 0 Z " fill="#776C58" transform="translate(312,215)"/>
<path d="M0 0 C0.66 0.33 1.32 0.66 2 1 C1.71872579 2.48117801 1.42466268 3.95993249 1.125 5.4375 C0.88136719 6.67306641 0.88136719 6.67306641 0.6328125 7.93359375 C0.42398437 8.61550781 0.21515625 9.29742187 0 10 C-3.21451269 11.60725635 -6.43612536 11.05748185 -10 11 C-10 10.67 -10 10.34 -10 10 C-7 9 -4 8 -1 7 C-0.67 4.69 -0.34 2.38 0 0 Z " fill="#F6E8BC" transform="translate(426,163)"/>
<path d="M0 0 C0.66 0.33 1.32 0.66 2 1 C1.43410156 1.53109375 0.86820313 2.0621875 0.28515625 2.609375 C-0.44832031 3.31578125 -1.18179688 4.0221875 -1.9375 4.75 C-2.66839844 5.44609375 -3.39929688 6.1421875 -4.15234375 6.859375 C-6.00517646 9.00599725 -6.60771565 10.23532932 -7 13 C-9.31 13.33 -11.62 13.66 -14 14 C-13 12 -13 12 -11.1640625 11.125 C-8.58505951 9.78429087 -7.23132949 8.22432432 -5.375 6 C-3.6266832 3.92339664 -1.92037235 1.92037235 0 0 Z " fill="#FEF8DE" transform="translate(142,163)"/>
<path d="M0 0 C4.875 1.75 4.875 1.75 6 4 C5.96316826 5.83592081 5.84875806 7.6708041 5.6875 9.5 C5.60886719 10.4796875 5.53023438 11.459375 5.44921875 12.46875 C5 15 5 15 3 17 C3.33 12.38 3.66 7.76 4 3 C2.68 3 1.36 3 0 3 C0 2.01 0 1.02 0 0 Z " fill="#FCF8E5" transform="translate(364,95)"/>
<path d="M0 0 C0.98484375 0.02707031 1.9696875 0.05414063 2.984375 0.08203125 C3.73203125 0.11683594 4.4796875 0.15164063 5.25 0.1875 C5.91 2.4975 6.57 4.8075 7.25 7.1875 C6.59 6.8575 5.93 6.5275 5.25 6.1875 C4.625 4.125 4.625 4.125 4.25 2.1875 C0.2399066 2.00885369 0.2399066 2.00885369 -3.75 2.1875 C-4.41 2.8475 -5.07 3.5075 -5.75 4.1875 C-7.875 3.8125 -7.875 3.8125 -9.75 3.1875 C-6.47698081 0.21840402 -4.36934238 -0.15604794 0 0 Z " fill="#FDF5DF" transform="translate(129.75,387.8125)"/>
<path d="M0 0 C0.99 0.33 1.98 0.66 3 1 C-0.74045802 8.21374046 -0.74045802 8.21374046 -5 10 C-6.73425773 12.03317007 -6.73425773 12.03317007 -8 14 C-7.67 12.02 -7.34 10.04 -7 8 C-5.35 7.67 -3.7 7.34 -2 7 C-1.855625 6.030625 -1.71125 5.06125 -1.5625 4.0625 C-1 1 -1 1 0 0 Z " fill="#FCF3D4" transform="translate(370,333)"/>
<path d="M0 0 C0.33 0 0.66 0 1 0 C1 2.64 1 5.28 1 8 C0.34 8 -0.32 8 -1 8 C-0.938125 8.78375 -0.87625 9.5675 -0.8125 10.375 C-0.874375 11.24125 -0.93625 12.1075 -1 13 C-1.99 13.66 -2.98 14.32 -4 15 C-3.52396226 12.87429688 -3.04407402 10.74945573 -2.5625 8.625 C-2.29566406 7.44164062 -2.02882813 6.25828125 -1.75390625 5.0390625 C-1 2 -1 2 0 0 Z " fill="#F8E7BB" transform="translate(395,275)"/>
<path d="M0 0 C0 0.99 0 1.98 0 3 C-3.82517513 5.39073445 -7.59665524 5.55966552 -12 6 C-12 5.34 -12 4.68 -12 4 C-11.195625 3.87625 -10.39125 3.7525 -9.5625 3.625 C-8.716875 3.41875 -7.87125 3.2125 -7 3 C-6.67 2.34 -6.34 1.68 -6 1 C-2.9375 0.375 -2.9375 0.375 0 0 Z " fill="#E3D4AB" transform="translate(338,260)"/>
<path d="M0 0 C0.33 0.99 0.66 1.98 1 3 C1.66 3 2.32 3 3 3 C3.33 4.98 3.66 6.96 4 9 C4.99 9.33 5.98 9.66 7 10 C7.33 10.99 7.66 11.98 8 13 C6.35 13 4.7 13 3 13 C1.38050989 10.42786866 0.95591249 9.32330841 1.375 6.25 C1.58125 5.5075 1.7875 4.765 2 4 C1.34 4 0.68 4 0 4 C0 2.68 0 1.36 0 0 Z " fill="#D4C39D" transform="translate(292,247)"/>
<path d="M0 0 C0.598125 0.20625 1.19625 0.4125 1.8125 0.625 C0.5 2.125 0.5 2.125 -1.1875 3.625 C-2.1775 3.625 -3.1675 3.625 -4.1875 3.625 C-4.1875 5.605 -4.1875 7.585 -4.1875 9.625 C-4.8475 9.625 -5.5075 9.625 -6.1875 9.625 C-5.69921875 3.5703125 -5.69921875 3.5703125 -5.1875 1.625 C-2.1875 -0.375 -2.1875 -0.375 0 0 Z " fill="#7A5B53" transform="translate(345.1875,244.375)"/>
<path d="M0 0 C0 0.99 0 1.98 0 3 C0.103125 3.78375 0.20625 4.5675 0.3125 5.375 C-0.1385127 9.16350666 -2.21010364 10.55884069 -5 13 C-4.54996653 7.37458159 -3.31558515 4.38512875 0 0 Z " fill="#746C57" transform="translate(299,225)"/>
<path d="M0 0 C4.80210329 -0.33503046 6.9829296 0.489331 11 3 C14.19395026 3.71401232 14.19395026 3.71401232 17 4 C17 4.33 17 4.66 17 5 C10.29873464 5.48736475 5.93438408 4.07708804 0 1 C0 0.67 0 0.34 0 0 Z " fill="#FCF3D8" transform="translate(290,434)"/>
<path d="M0 0 C1.5625 1.1875 1.5625 1.1875 3 3 C2.9375 5.5625 2.9375 5.5625 2 8 C0.1875 9.375 0.1875 9.375 -2 10 C-4.25 9.625 -4.25 9.625 -6 9 C-5.01 9 -4.02 9 -3 9 C-3 8.34 -3 7.68 -3 7 C-1.68 7 -0.36 7 1 7 C0.67 4.69 0.34 2.38 0 0 Z " fill="#FAF4E1" transform="translate(432,331)"/>
<path d="M0 0 C-0.78375 0.61875 -1.5675 1.2375 -2.375 1.875 C-6.1177024 4.9048067 -7.25325185 6.27059507 -8 11 C-8.33 11 -8.66 11 -9 11 C-9.48676056 3.57690141 -9.48676056 3.57690141 -7.3125 1 C-4.6880612 -0.13489245 -2.83089822 -0.23590819 0 0 Z " fill="#F5E8BE" transform="translate(63,309)"/>
<path d="M0 0 C0.66 0.33 1.32 0.66 2 1 C1.21718695 2.33855056 0.42348123 3.67073644 -0.375 5 C-0.81585938 5.7425 -1.25671875 6.485 -1.7109375 7.25 C-2.34902344 8.11625 -2.34902344 8.11625 -3 9 C-3.66 9 -4.32 9 -5 9 C-4.66666667 7.66666667 -4.33333333 6.33333333 -4 5 C-3.87625 4.278125 -3.7525 3.55625 -3.625 2.8125 C-3.41875 2.214375 -3.2125 1.61625 -3 1 C-2.01 0.67 -1.02 0.34 0 0 Z " fill="#F4E3B4" transform="translate(125,183)"/>
<path d="M0 0 C2.3125 0.1875 2.3125 0.1875 5 1 C6.6875 3.5 6.6875 3.5 8 6 C8.66 6.33 9.32 6.66 10 7 C9.67 7.66 9.34 8.32 9 9 C7.68 8.67 6.36 8.34 5 8 C5 6.35 5 4.7 5 3 C2.525 2.01 2.525 2.01 0 1 C0 0.67 0 0.34 0 0 Z " fill="#FDF4E0" transform="translate(295,406)"/>
<path d="M0 0 C1.57984913 2.01071707 2.94266986 3.88196736 4.0625 6.1875 C4.86702161 8.17892157 4.86702161 8.17892157 7 9 C7 10.65 7 12.3 7 14 C0 5.55172414 0 5.55172414 0 0 Z " fill="#FBF2D3" transform="translate(106,328)"/>
<path d="M0 0 C0.99 0.33 1.98 0.66 3 1 C3 1.66 3 2.32 3 3 C4.093125 3 5.18625 3 6.3125 3 C8.54166667 3 10.77083333 3 13 3 C11 5 11 5 7.0625 5.3125 C4.32994009 5.24802944 3.29117734 5.20018442 1 3.625 C0 2 0 2 0 0 Z " fill="#FDF8E3" transform="translate(345,123)"/>
<path d="M0 0 C0.33 0 0.66 0 1 0 C1 1.98 1 3.96 1 6 C0.34 6 -0.32 6 -1 6 C-1 6.99 -1 7.98 -1 9 C-2.98 9 -4.96 9 -7 9 C-7.33 8.34 -7.66 7.68 -8 7 C-7.21625 6.87625 -6.4325 6.7525 -5.625 6.625 C-2.85942178 6.20882007 -2.85942178 6.20882007 -1 4 C-0.3574765 1.93125966 -0.3574765 1.93125966 0 0 Z " fill="#F6E6BA" transform="translate(308,429)"/>
<path d="M0 0 C-0.48144941 4.81449408 -0.8008587 7.60171741 -3 12 C-3 8.37 -3 4.74 -3 1 C-1 0 -1 0 0 0 Z " fill="#FCF5DF" transform="translate(399,271)"/>
<path d="M0 0 C0.33 0 0.66 0 1 0 C1.05399736 1.45792884 1.09279177 2.91642712 1.125 4.375 C1.14820313 5.18710938 1.17140625 5.99921875 1.1953125 6.8359375 C1 9 1 9 -1 11 C-3.625 11.125 -3.625 11.125 -6 11 C-6 10.34 -6 9.68 -6 9 C-4.35 8.34 -2.7 7.68 -1 7 C-0.67 4.69 -0.34 2.38 0 0 Z " fill="#635B4B" transform="translate(338,249)"/>
<path d="M0 0 C0.625 2.5625 0.625 2.5625 1 5 C-0.65 4.67 -2.3 4.34 -4 4 C-4 3.01 -4 2.02 -4 1 C-4.66 0.67 -5.32 0.34 -6 0 C-2.25 -1.125 -2.25 -1.125 0 0 Z " fill="#715F52" transform="translate(195,282)"/>
<path d="M0 0 C0.66 0 1.32 0 2 0 C2.6875 2.75 2.6875 2.75 3 6 C2.01 7.32 1.02 8.64 0 10 C0 6.7 0 3.4 0 0 Z " fill="#5F5A4D" transform="translate(178,250)"/>
<path d="M0 0 C0 3.61029169 -0.96092582 6.55806676 -2 10 C-2.66 10 -3.32 10 -4 10 C-3.51171875 3.9453125 -3.51171875 3.9453125 -3 2 C-2.01 1.34 -1.02 0.68 0 0 Z " fill="#E0D3A7" transform="translate(296,228)"/>
<path d="M0 0 C0.33 1.32 0.66 2.64 1 4 C0.21625 4.28875 -0.5675 4.5775 -1.375 4.875 C-4.09671632 5.84912254 -4.09671632 5.84912254 -6 8 C-8.125 7.625 -8.125 7.625 -10 7 C-9.36191406 6.57847656 -8.72382813 6.15695313 -8.06640625 5.72265625 C-7.24011719 5.17480469 -6.41382813 4.62695312 -5.5625 4.0625 C-4.73878906 3.51722656 -3.91507813 2.97195312 -3.06640625 2.41015625 C-1.10014075 1.16197019 -1.10014075 1.16197019 0 0 Z " fill="#FEF5E0" transform="translate(154,155)"/>
<path d="M0 0 C0.66 0 1.32 0 2 0 C2 0.66 2 1.32 2 2 C3.98 2 5.96 2 8 2 C4.5980513 4.09350689 1.94727588 4.17942163 -2 4 C-1.34 2.68 -0.68 1.36 0 0 Z " fill="#6B6454" transform="translate(206,283)"/>
<path d="M0 0 C0 0.99 0 1.98 0 3 C-1.32 3 -2.64 3 -4 3 C-4 4.32 -4 5.64 -4 7 C-5.32 7.33 -6.64 7.66 -8 8 C-8.33 7.34 -8.66 6.68 -9 6 C-7.68 6 -6.36 6 -5 6 C-5 4.35 -5 2.7 -5 1 C-2 0 -2 0 0 0 Z " fill="#E1CDA8" transform="translate(307,217)"/>
<path d="M0 0 C1.32 0.33 2.64 0.66 4 1 C3.95875 1.94875 3.9175 2.8975 3.875 3.875 C3.65026182 7.10244856 3.65026182 7.10244856 6 9 C4.68 8.67 3.36 8.34 2 8 C2 6.02 2 4.04 2 2 C1.34 2 0.68 2 0 2 C0 1.34 0 0.68 0 0 Z " fill="#F4E8C1" transform="translate(301,414)"/>
<path d="M0 0 C0.99 0.495 0.99 0.495 2 1 C2 1.66 2 2.32 2 3 C2.9590625 3.3403125 2.9590625 3.3403125 3.9375 3.6875 C6 5 6 5 6.75 7.625 C6.8325 8.40875 6.915 9.1925 7 10 C3.60582235 6.87378374 1.3937282 4.43458973 0 0 Z " fill="#FDF7E0" transform="translate(114,343)"/>
<path d="M0 0 C0.99 0.33 1.98 0.66 3 1 C2.67 2.32 2.34 3.64 2 5 C-0.31 5 -2.62 5 -5 5 C-5 4.34 -5 3.68 -5 3 C-3.35 2.34 -1.7 1.68 0 1 C0 0.67 0 0.34 0 0 Z " fill="#B5B3B2" transform="translate(334,245)"/>
<path d="M0 0 C0.33 0 0.66 0 1 0 C1.66 3.96 2.32 7.92 3 12 C2.01 12 1.02 12 0 12 C0 8.04 0 4.08 0 0 Z " fill="#F5E8BE" transform="translate(120,110)"/>
<path d="M0 0 C1.65 0 3.3 0 5 0 C3.35 2.64 1.7 5.28 0 8 C-0.92538169 4.29847322 -1.08174162 3.36541838 0 0 Z " fill="#F7E7BD" transform="translate(348,99)"/>
<path d="M0 0 C1.65 0 3.3 0 5 0 C4.01 0.495 4.01 0.495 3 1 C2.34786708 3.02463255 2.34786708 3.02463255 2 5 C2 4.34 2 3.68 2 3 C0.35 3.66 -1.3 4.32 -3 5 C-2.67 4.01 -2.34 3.02 -2 2 C-1.34 2 -0.68 2 0 2 C0 1.34 0 0.68 0 0 Z " fill="#6B6A69" transform="translate(322,241)"/>
<path d="M0 0 C2.37948772 0.17625835 3.70225849 0.69719773 5.37890625 2.40234375 C6.62115486 3.90649092 7.81376056 5.45129851 9 7 C5.56072421 5.7580393 2.74792181 4.44259716 0 2 C0 1.34 0 0.68 0 0 Z " fill="#F8E8C1" transform="translate(343,147)"/>
<path d="M0 0 C1.32 0.33 2.64 0.66 4 1 C0.535 3.97 0.535 3.97 -3 7 C-2.67 5.35 -2.34 3.7 -2 2 C-1.34 2 -0.68 2 0 2 C0 1.34 0 0.68 0 0 Z " fill="#FBF4D5" transform="translate(363,113)"/>
<path d="M0 0 C0.33 1.32 0.66 2.64 1 4 C-0.32 4.33 -1.64 4.66 -3 5 C-3 6.65 -3 8.3 -3 10 C-3.33 10 -3.66 10 -4 10 C-4.25 7.25 -4.25 7.25 -4 4 C-2 1.625 -2 1.625 0 0 Z " fill="#FBF5D3" transform="translate(291,406)"/>
<path d="M0 0 C-4.455 2.97 -4.455 2.97 -9 6 C-8 2 -8 2 -5.625 0.1875 C-3 -1 -3 -1 0 0 Z " fill="#FDF5DA" transform="translate(352,358)"/>
<path d="M0 0 C0.33 0.99 0.66 1.98 1 3 C1.99 2.67 2.98 2.34 4 2 C4.66 3.65 5.32 5.3 6 7 C5.01 7 4.02 7 3 7 C3 6.34 3 5.68 3 5 C2.01 5 1.02 5 0 5 C0 3.35 0 1.7 0 0 Z " fill="#F1D0A7" transform="translate(347,242)"/>
<path d="M0 0 C1.32 0 2.64 0 4 0 C4.33 1.32 4.66 2.64 5 4 C4.34 4 3.68 4 3 4 C3 4.66 3 5.32 3 6 C2.34 6 1.68 6 1 6 C0.67 4.02 0.34 2.04 0 0 Z " fill="#E5D1A7" transform="translate(343,224)"/>
<path d="M0 0 C1.33897583 0.95043374 2.67105427 1.91059147 4 2.875 C5.11375 3.67550781 5.11375 3.67550781 6.25 4.4921875 C6.8275 4.98976563 7.405 5.48734375 8 6 C8 6.66 8 7.32 8 8 C4.63820226 6.55922954 2.40843732 4.75249979 0 2 C0 1.34 0 0.68 0 0 Z " fill="#FEF9DB" transform="translate(127,360)"/>
<path d="M0 0 C0.66 0 1.32 0 2 0 C2 0.99 2 1.98 2 3 C2.66 3.33 3.32 3.66 4 4 C3.01 4.495 3.01 4.495 2 5 C1.34444881 7.52733235 1.34444881 7.52733235 1 10 C0.67 10 0.34 10 0 10 C0 6.7 0 3.4 0 0 Z " fill="#DA9883" transform="translate(189,283)"/>
<path d="M0 0 C0.66 0 1.32 0 2 0 C2 1.65 2 3.3 2 5 C2.66 5 3.32 5 4 5 C4 5.66 4 6.32 4 7 C3.01 7 2.02 7 1 7 C0.34 5.02 -0.32 3.04 -1 1 C-0.67 0.67 -0.34 0.34 0 0 Z " fill="#67594B" transform="translate(253,256)"/>
<path d="" fill="#FFFFFF" transform="translate(0,0)"/>
<path d="" fill="#FFFFFF" transform="translate(0,0)"/>
<path d="" fill="#FFFFFF" transform="translate(0,0)"/>
<path d="" fill="#FFFFFF" transform="translate(0,0)"/>
<path d="" fill="#FFFFFF" transform="translate(0,0)"/>
<path d="" fill="#FFFFFF" transform="translate(0,0)"/>
<path d="" fill="#FFFFFF" transform="translate(0,0)"/>
<path d="" fill="#FFFFFF" transform="translate(0,0)"/>
<path d="" fill="#FFFFFF" transform="translate(0,0)"/>
<path d="" fill="#FFFFFF" transform="translate(0,0)"/>
<path d="" fill="#FFFFFF" transform="translate(0,0)"/>
<path d="" fill="#FFFFFF" transform="translate(0,0)"/>
<path d="" fill="#FFFFFF" transform="translate(0,0)"/>
<path d="" fill="#FFFFFF" transform="translate(0,0)"/>
<path d="" fill="#FFFFFF" transform="translate(0,0)"/>
<path d="" fill="#FFFFFF" transform="translate(0,0)"/>
<path d="" fill="#FFFFFF" transform="translate(0,0)"/>
<path d="" fill="#FFFFFF" transform="translate(0,0)"/>
<path d="" fill="#FFFFFF" transform="translate(0,0)"/>
<path d="" fill="#FFFFFF" transform="translate(0,0)"/>
<path d="" fill="#FFFFFF" transform="translate(0,0)"/>
<path d="" fill="#FFFFFF" transform="translate(0,0)"/>
<path d="" fill="#FFFFFF" transform="translate(0,0)"/>
<path d="" fill="#FFFFFF" transform="translate(0,0)"/>
<path d="" fill="#FFFFFF" transform="translate(0,0)"/>
<path d="" fill="#FFFFFF" transform="translate(0,0)"/>
<path d="" fill="#FFFFFF" transform="translate(0,0)"/>
<path d="" fill="#FFFFFF" transform="translate(0,0)"/>
<path d="" fill="#FFFFFF" transform="translate(0,0)"/>
<path d="" fill="#FFFFFF" transform="translate(0,0)"/>
<path d="" fill="#FFFFFF" transform="translate(0,0)"/>
<path d="" fill="#FFFFFF" transform="translate(0,0)"/>
<path d="" fill="#FFFFFF" transform="translate(0,0)"/>
<path d="" fill="#FFFFFF" transform="translate(0,0)"/>
<path d="" fill="#FFFFFF" transform="translate(0,0)"/>
<path d="" fill="#FFFFFF" transform="translate(0,0)"/>
<path d="" fill="#FFFFFF" transform="translate(0,0)"/>
<path d="" fill="#FFFFFF" transform="translate(0,0)"/>
<path d="" fill="#FFFFFF" transform="translate(0,0)"/>
<path d="" fill="#FFFFFF" transform="translate(0,0)"/>
<path d="" fill="#FFFFFF" transform="translate(0,0)"/>
<path d="" fill="#FFFFFF" transform="translate(0,0)"/>
<path d="" fill="#FFFFFF" transform="translate(0,0)"/>
<path d="" fill="#FFFFFF" transform="translate(0,0)"/>
<path d="" fill="#FFFFFF" transform="translate(0,0)"/>
<path d="" fill="#FFFFFF" transform="translate(0,0)"/>
<path d="" fill="#FFFFFF" transform="translate(0,0)"/>
<path d="" fill="#FFFFFF" transform="translate(0,0)"/>
<path d="" fill="#FFFFFF" transform="translate(0,0)"/>
<path d="" fill="#FFFFFF" transform="translate(0,0)"/>
<path d="" fill="#FFFFFF" transform="translate(0,0)"/>
<path d="" fill="#FFFFFF" transform="translate(0,0)"/>
<path d="" fill="#FFFFFF" transform="translate(0,0)"/>
<path d="" fill="#FFFFFF" transform="translate(0,0)"/>
</svg>
